<?xml version="1.0" standalone="no"?>
<!DOCTYPE svg PUBLIC "-//W3C//DTD SVG 1.1//EN" "http://www.w3.org/Graphics/SVG/1.1/DTD/svg11.dtd" >
<svg xmlns="http://www.w3.org/2000/svg">
<metadata></metadata>
<defs>
<font id="proba_probold" horiz-adv-x="471" >
<font-face units-per-em="2048" ascent="1536" descent="-512" />
<missing-glyph horiz-adv-x="500" />
<glyph unicode="&#xfb00;" horiz-adv-x="1269" d="M61 717v205h113v266q0 169 98.5 268.5t268.5 99.5q70 0 114 -20v-217q-25 14 -61 14q-65 0 -104 -40t-39 -105v-266h286v266q0 169 98.5 268.5t268.5 99.5q71 0 115 -20v-217q-25 14 -62 14q-65 0 -104 -40t-39 -105v-266h205v-205h-205v-717h-277v717h-286v-717h-277 v717h-113z" />
<glyph unicode="&#xfb01;" horiz-adv-x="1105" d="M61 717v205h113v266q0 169 98.5 268.5t268.5 99.5q70 0 114 -20v-217q-25 14 -61 14q-65 0 -104 -40t-39 -105v-266h553v-922h-267v717h-286v-717h-277v717h-113zM717 1198q0 65 44.5 109.5t108.5 44.5t109 -45t45 -109t-45 -109t-109 -45t-108.5 44.5t-44.5 109.5z" />
<glyph unicode="&#xfb03;" horiz-adv-x="1669" d="M61 717v205h113v266q0 169 98.5 268.5t268.5 99.5q70 0 114 -20v-217q-25 14 -61 14q-65 0 -104 -40t-39 -105v-266h286v266q0 169 98.5 268.5t268.5 99.5q71 0 115 -20v-217q-25 14 -62 14q-65 0 -104 -40t-39 -105v-266h553v-922h-267v717h-286v-717h-277v717h-286 v-717h-277v717h-113zM1280 1198q0 64 45 109t109 45t108.5 -44.5t44.5 -109.5t-44.5 -109.5t-108.5 -44.5t-109 45t-45 109z" />
<glyph unicode="fj" horiz-adv-x="1105" d="M61 717v205h113v266q0 169 98.5 268.5t268.5 99.5q70 0 114 -20v-217q-25 14 -61 14q-65 0 -104 -40t-39 -105v-266h553v-1180q0 -120 -65.5 -193t-190.5 -73q-62 0 -97 12v174q39 0 62.5 23.5t23.5 64.5v967h-286v-717h-277v717h-113zM717 1198q0 65 44.5 109.5 t108.5 44.5t109 -45t45 -109t-45 -109t-109 -45t-108.5 44.5t-44.5 109.5z" />
<glyph unicode="&#x457;&#x457;" horiz-adv-x="942" d="M-88 1157q0 60 41.5 101.5t101.5 41.5t102 -41.5t42 -101.5t-42 -101.5t-102 -41.5t-101.5 41.5t-41.5 101.5zM102 0v922h267v-922h-267zM328 1157q0 61 41.5 103.5t101.5 42.5q61 0 103 -42t42 -104q0 -60 -42 -101.5t-103 -41.5q-60 0 -101.5 41.5t-41.5 101.5zM573 0 v922h267v-922h-267zM741 1157q0 61 42 103.5t102 42.5q61 0 103 -42t42 -104q0 -60 -42 -101.5t-103 -41.5q-60 0 -102 41.5t-42 101.5z" />
<glyph unicode="&#x456;&#x457;" horiz-adv-x="942" d="M82 1198q0 64 45 109t109 45t108.5 -44.5t44.5 -109.5t-44.5 -109.5t-108.5 -44.5t-109 45t-45 109zM102 0v922h267v-922h-267zM420 1157q0 60 41.5 101.5t101.5 41.5t102 -41.5t42 -101.5t-42 -101.5t-102 -41.5t-101.5 41.5t-41.5 101.5zM573 0v922h267v-922h-267z M741 1157q0 61 42 103.5t102 42.5q61 0 103 -42t42 -104q0 -60 -42 -101.5t-103 -41.5q-60 0 -102 41.5t-42 101.5z" />
<glyph unicode="&#x2019;&#x457;" horiz-adv-x="696" d="M41 973q87 90 119 178q-53 12 -86 53t-33 96q0 64 44.5 109t109.5 45q26 0 51 -8.5t49 -26.5t38.5 -53t14.5 -82q0 -103 -62.5 -199t-162.5 -194zM328 0v922h266v-922h-266zM496 1157q0 61 41.5 103.5t101.5 42.5q61 0 103 -42t42 -104q0 -60 -42 -101.5t-103 -41.5 q-60 0 -101.5 41.5t-41.5 101.5z" />
<glyph unicode="&#x407;&#x407;" horiz-adv-x="962" d="M-82 1638q0 60 41.5 102t101.5 42t102 -42t42 -102t-42 -101.5t-102 -41.5t-101.5 41.5t-41.5 101.5zM102 0v1434h277v-1434h-277zM338 1638q0 61 41.5 103.5t101.5 42.5q61 0 103.5 -42t42.5 -104q0 -60 -42.5 -101.5t-103.5 -41.5q-60 0 -101.5 41.5t-41.5 101.5z M584 0v1434h276v-1434h-276zM758 1638q0 61 41.5 103.5t101.5 42.5q61 0 103.5 -42t42.5 -104q0 -60 -42.5 -101.5t-103.5 -41.5q-60 0 -101.5 41.5t-41.5 101.5z" />
<glyph unicode="ffj" horiz-adv-x="1669" d="M61 717v205h113v266q0 169 98.5 268.5t268.5 99.5q70 0 114 -20v-217q-25 14 -61 14q-65 0 -104 -40t-39 -105v-266h286v266q0 169 98.5 268.5t268.5 99.5q71 0 115 -20v-217q-25 14 -62 14q-65 0 -104 -40t-39 -105v-266h553v-1180q0 -120 -65.5 -193t-190.5 -73 q-63 0 -97 12v174q39 0 62.5 23.5t23.5 64.5v967h-286v-717h-277v717h-286v-717h-277v717h-113zM1280 1198q0 64 45 109t109 45t108.5 -44.5t44.5 -109.5t-44.5 -109.5t-108.5 -44.5t-109 45t-45 109z" />
<glyph horiz-adv-x="0" />
<glyph horiz-adv-x="682" />
<glyph unicode=" " />
<glyph unicode="!" d="M82 133q0 65 45 109.5t109 44.5t108.5 -44.5t44.5 -109.5t-44.5 -109t-108.5 -44q-65 0 -109.5 44.5t-44.5 108.5zM102 430v1004h267v-1004h-267z" />
<glyph unicode="&#x22;" horiz-adv-x="778" d="M102 922v512h226v-512h-226zM451 922v512h225v-512h-225z" />
<glyph unicode="#" horiz-adv-x="1290" d="M61 307v205h156l57 410h-155v204h184l45 308h266l-45 -308h267l45 308h266l-45 -308h127v-204h-156l-57 -410h155v-205h-186l-43 -307h-266l43 307h-266l-43 -307h-267l43 307h-125zM483 512h267l57 410h-266z" />
<glyph unicode="$" horiz-adv-x="1146" d="M70 199l170 170q122 -122 262 -142v377q-48 18 -79 30t-76 34.5t-74.5 44t-62.5 54.5t-52 69.5t-32 86.5t-13 107q0 172 103 289.5t286 132.5v186h143v-192q213 -30 369 -186l-170 -170q-88 84 -199 110v-360q157 -60 226 -105q172 -116 173 -319q0 -171 -106.5 -291 t-292.5 -141v-189h-143v189q-244 23 -432 215zM399 1038q0 -80 103 -139v295q-50 -22 -76.5 -66t-26.5 -90zM645 246q54 23 83.5 69.5t29.5 94.5q0 80 -113 137v-301z" />
<glyph unicode="%" horiz-adv-x="1880" d="M61 1075q0 169 108.5 274t281.5 105t281 -105t108 -274t-108 -274t-281 -105t-281.5 105t-108.5 274zM297 1075q0 -81 43 -132.5t111 -51.5t110.5 51t42.5 133t-42.5 133.5t-110.5 51.5t-111 -51.5t-43 -133.5zM418 0l778 1434h266l-778 -1434h-266zM1040 358 q0 169 108.5 274t281.5 105t281 -105t108 -274t-108 -273.5t-281 -104.5t-281.5 104.5t-108.5 273.5zM1276 358q0 -81 43 -132.5t111 -51.5t110.5 51t42.5 133t-42.5 133.5t-110.5 51.5t-111 -51.5t-43 -133.5z" />
<glyph unicode="&#x26;" horiz-adv-x="1198" d="M72 434q0 224 176 338q-135 98 -135 279q0 179 122 291t318 112t318 -112t122 -291h-276q0 74 -46 121t-118 47t-118 -47t-46 -121t46 -123t118 -49h51v-222h-51q-90 0 -147.5 -63t-57.5 -160t57 -158t148 -61t148 61t57 158v223h-103v222h482v-222h-103v-223 q0 -202 -133 -328t-348 -126t-348 126t-133 328z" />
<glyph unicode="'" horiz-adv-x="430" d="M102 922v512h226v-512h-226z" />
<glyph unicode="(" horiz-adv-x="593" d="M82 512q0 305 59 544.5t161.5 369.5t229.5 130v-194q-70 0 -122 -241.5t-52 -608.5t52 -608.5t122 -241.5v-194q-127 0 -229.5 130t-161.5 369.5t-59 544.5z" />
<glyph unicode=")" horiz-adv-x="593" d="M61 -338q70 0 122.5 241.5t52.5 608.5t-52.5 608.5t-122.5 241.5v194q95 0 178.5 -76.5t143.5 -212t94.5 -331t34.5 -424.5t-34.5 -424.5t-94.5 -331t-143.5 -212t-178.5 -76.5v194z" />
<glyph unicode="*" horiz-adv-x="929" d="M61 1071l60 182l248 -79v260h190v-260l248 81l61 -182l-250 -84l156 -211l-158 -112l-151 213l-154 -213l-153 112l151 213z" />
<glyph unicode="+" horiz-adv-x="860" d="M82 471v205h246v246h204v-246h246v-205h-246v-246h-204v246h-246z" />
<glyph unicode="," d="M82 133q0 65 45 109.5t109 44.5q26 0 51 -8.5t49 -26.5t38.5 -53t14.5 -82q0 -103 -62.5 -199t-162.5 -194l-82 81q86 89 119 179q-53 12 -86 53t-33 96z" />
<glyph unicode="-" horiz-adv-x="696" d="M82 451v204h532v-204h-532z" />
<glyph unicode="." d="M82 133q0 65 45 109.5t109 44.5t108.5 -44.5t44.5 -109.5t-44.5 -109t-108.5 -44q-65 0 -109.5 44.5t-44.5 108.5z" />
<glyph unicode="/" horiz-adv-x="1167" d="M61 -102l779 1638h266l-778 -1638h-267z" />
<glyph unicode="0" horiz-adv-x="1146" d="M82 717q0 217 61.5 384.5t173 260t256.5 92.5t257 -92.5t173.5 -260t61.5 -384.5t-61.5 -384.5t-173.5 -260t-257 -92.5t-256.5 92.5t-173 260t-61.5 384.5zM358 717q0 -223 60 -362.5t155 -139.5t155 139.5t60 362.5t-60 362.5t-155 139.5t-155 -139.5t-60 -362.5z" />
<glyph unicode="1" horiz-adv-x="716" d="M61 1167v205l492 72v-1444h-266v1202z" />
<glyph unicode="2" horiz-adv-x="1075" d="M61 983q0 211 130 341t341 130t341.5 -130t130.5 -341q0 -196 -150 -346l-412 -412h562v-225h-936v215l602 602q57 57 57 166q0 103 -54.5 168.5t-140.5 65.5t-140 -65.5t-54 -168.5h-277z" />
<glyph unicode="3" horiz-adv-x="1105" d="M72 434h276q0 -97 57 -158t148 -61t148 61t57 158t-57.5 160t-147.5 63h-94v222h94q72 0 118 49t46 123t-46 121t-118 47t-118 -47t-46 -121h-276q0 179 122 291t318 112t318 -112t122 -291q0 -181 -135 -279q176 -114 176 -338q0 -202 -133 -328t-348 -126t-348 126 t-133 328z" />
<glyph unicode="4" horiz-adv-x="1167" d="M61 246v112l625 1076h266v-963h115v-225h-104v-246h-267v246h-635zM395 471h312v565z" />
<glyph unicode="5" horiz-adv-x="1105" d="M61 440h267q0 -98 56.5 -160.5t147.5 -62.5q86 0 140.5 65.5t54.5 168.5q0 114 -65 185t-168 71q-110 0 -175 -72l-194 59l78 740h688v-226h-453l-28 -278q44 12 100 12q221 0 357.5 -135.5t136.5 -355.5q0 -211 -130.5 -341t-341.5 -130t-341 127t-130 333z" />
<glyph unicode="6" horiz-adv-x="1085" d="M72 463q0 166 74 352.5t184.5 343.5t249.5 295l229 -131q-90 -92 -182 -212t-150 -226q30 6 70 6q207 0 337 -124t130 -329t-130 -331.5t-343 -126.5t-341 128t-128 355zM348 440q0 -100 54.5 -162.5t140.5 -62.5t140 62.5t54 162.5t-54 163t-140 63t-140.5 -63 t-54.5 -163z" />
<glyph unicode="7" horiz-adv-x="1107" d="M82 1208v226h944v-72l-467 -1362h-283l402 1208h-596z" />
<glyph unicode="8" horiz-adv-x="1105" d="M72 434q0 224 172 338q-131 97 -131 279q0 179 122 291t318 112t318 -112t122 -291q0 -181 -135 -279q176 -114 176 -338q0 -202 -133 -328t-348 -126t-348 126t-133 328zM348 434q0 -97 57 -158t148 -61t148 61t57 158t-57 158t-148 61t-148 -61t-57 -158zM389 1051 q0 -74 46 -121t118 -47t118 47t46 121t-46 121t-118 47t-118 -47t-46 -121z" />
<glyph unicode="9" horiz-adv-x="1085" d="M72 995q0 205 130 332t343 127t341 -128t128 -355q0 -166 -74 -352.5t-184.5 -343.5t-249.5 -295l-230 131q90 92 182 212t150 226q-30 -6 -69 -6q-208 0 -337.5 123.5t-129.5 328.5zM348 993q0 -100 54.5 -162.5t140.5 -62.5t140 62.5t54 162.5t-54 163t-140 63 t-140.5 -63t-54.5 -163z" />
<glyph unicode=":" d="M82 133q0 65 45 109.5t109 44.5t108.5 -44.5t44.5 -109.5t-44.5 -109t-108.5 -44q-65 0 -109.5 44.5t-44.5 108.5zM82 788q0 64 45 109t109 45t108.5 -44.5t44.5 -109.5q0 -64 -44.5 -108.5t-108.5 -44.5q-65 0 -109.5 44.5t-44.5 108.5z" />
<glyph unicode=";" d="M82 133q0 65 45 109.5t109 44.5q26 0 51 -8.5t49 -26.5t38.5 -53t14.5 -82q0 -103 -62.5 -199t-162.5 -194l-82 81q86 89 119 179q-53 12 -86 53t-33 96zM82 788q0 64 45 109t109 45t108.5 -44.5t44.5 -109.5q0 -64 -44.5 -108.5t-108.5 -44.5q-65 0 -109.5 44.5 t-44.5 108.5z" />
<glyph unicode="&#x3c;" horiz-adv-x="839" d="M41 614l606 402l152 -152l-389 -250l389 -249l-152 -152z" />
<glyph unicode="=" horiz-adv-x="921" d="M82 246v205h758v-205h-758zM82 614v205h758v-205h-758z" />
<glyph unicode="&#x3e;" horiz-adv-x="839" d="M41 365l389 249l-389 250l152 152l606 -402l-606 -401z" />
<glyph unicode="?" horiz-adv-x="985" d="M51 1296q97 79 197 118.5t223 39.5q197 0 319.5 -110t122.5 -275q0 -68 -23 -122t-57 -86.5t-74.5 -67t-74.5 -63.5t-57 -75t-23 -102v-123h-266v123q0 70 16.5 129.5t43 100t58.5 74.5t63.5 59.5t58 48t43 48t16.5 52.5q0 58 -46.5 106t-127.5 48q-127 0 -242 -93z M317 133q0 65 44.5 109.5t109.5 44.5t109.5 -44.5t44.5 -109.5q0 -64 -44.5 -108.5t-109.5 -44.5t-109.5 44.5t-44.5 108.5z" />
<glyph unicode="@" horiz-adv-x="2129" d="M72 461q0 219 72.5 404t202 314.5t315.5 202t407 72.5q175 0 330.5 -45.5t275 -129t206 -196.5t132 -252.5t45.5 -291.5q0 -123 -30.5 -221.5t-79 -160t-114 -103t-130 -58t-131.5 -16.5q-91 0 -161.5 30t-108.5 86q-113 -116 -281 -116q-190 0 -307 133t-117 348 t139 348t365 133q142 0 253.5 -50.5t174.5 -141.5v-412q0 -60 31.5 -91.5t72.5 -31.5q63 0 105.5 72t42.5 219q0 210 -90.5 372.5t-253 251.5t-369.5 89q-213 0 -377.5 -95.5t-254 -268t-89.5 -394.5q0 -223 90 -395t256 -267.5t383 -95.5q159 0 305 52t240 149l168 -166 q-127 -132 -314.5 -201t-404.5 -69q-221 0 -407.5 72.5t-316.5 202.5t-202.5 314.5t-72.5 403.5zM874 461q0 -109 63 -177.5t161 -68.5q109 0 166 66v374q-65 52 -168 52q-98 0 -160 -68.5t-62 -177.5z" />
<glyph unicode="A" horiz-adv-x="1572" d="M20 0l637 1434h258l637 -1434h-321l-133 307h-625l-131 -307h-322zM571 553h428l-213 520z" />
<glyph unicode="B" horiz-adv-x="1144" d="M102 0v1434h461q187 0 300.5 -103.5t113.5 -277.5q0 -185 -129 -289q97 -50 151 -142t54 -212q0 -186 -123 -298t-324 -112h-504zM389 236h205q82 0 132 53t50 141t-50 141.5t-132 53.5h-205v-389zM389 860h154q70 0 113.5 46.5t43.5 121.5q0 76 -43 123t-114 47h-154 v-338z" />
<glyph unicode="C" horiz-adv-x="1413" d="M82 717q0 217 92.5 384.5t260 260t384.5 92.5q162 0 298.5 -53.5t234.5 -151.5l-174 -174q-130 133 -344 133q-206 0 -335.5 -136.5t-129.5 -354.5t129.5 -355t335.5 -137q213 0 344 131l174 -172q-98 -98 -234.5 -151t-298.5 -53q-217 0 -384.5 92.5t-260 260 t-92.5 384.5z" />
<glyph unicode="D" horiz-adv-x="1433" d="M102 0v1434h512q219 0 386 -87.5t259.5 -250.5t92.5 -379t-92.5 -379t-259.5 -250.5t-386 -87.5h-512zM389 236h225q201 0 326 132t125 349t-125 349t-326 132h-225v-962z" />
<glyph unicode="E" horiz-adv-x="972" d="M102 0v1434h789v-226h-512v-379h450v-225h-450v-379h522v-225h-799z" />
<glyph unicode="F" horiz-adv-x="931" d="M102 0v1434h768v-226h-491v-379h430v-225h-430v-604h-277z" />
<glyph unicode="G" horiz-adv-x="1454" d="M82 717q0 217 92.5 384.5t260 260t384.5 92.5q162 0 298.5 -53.5t234.5 -151.5l-174 -174q-130 133 -344 133q-206 0 -335.5 -136.5t-129.5 -354.5t129.5 -355t335.5 -137q135 0 241 56v292h-256v226h533v-615q-98 -98 -234.5 -151t-298.5 -53q-217 0 -384.5 92.5 t-260 260t-92.5 384.5z" />
<glyph unicode="H" horiz-adv-x="1392" d="M102 0v1434h277v-605h635v605h276v-1434h-276v604h-635v-604h-277z" />
<glyph unicode="I" horiz-adv-x="481" d="M102 0v1434h277v-1434h-277z" />
<glyph unicode="J" horiz-adv-x="919" d="M61 98l177 176q49 -49 129 -49q77 0 125.5 51.5t48.5 133.5v1024h276v-1024q0 -191 -122.5 -310.5t-315.5 -119.5q-95 0 -178 31t-140 87z" />
<glyph unicode="K" horiz-adv-x="1288" d="M102 0v1434h277v-660l489 660h349l-517 -695l568 -739h-357l-532 705v-705h-277z" />
<glyph unicode="L" horiz-adv-x="942" d="M102 0v1434h277v-1209h502v-225h-779z" />
<glyph unicode="M" horiz-adv-x="1617" d="M102 0v1434h205l502 -740l502 740h205v-1434h-277v872l-383 -585h-94l-383 585v-872h-277z" />
<glyph unicode="N" horiz-adv-x="1443" d="M102 0v1434h174l789 -902v902h276v-1434h-174l-788 901v-901h-277z" />
<glyph unicode="O" horiz-adv-x="1638" d="M82 717q0 217 92.5 384.5t260 260t384.5 92.5q218 0 385.5 -92.5t259.5 -260t92 -384.5t-92 -384.5t-259.5 -260t-385.5 -92.5q-217 0 -384.5 92.5t-260 260t-92.5 384.5zM369 717q0 -218 125 -355t325 -137t325.5 137t125.5 355t-125.5 354.5t-325.5 136.5t-325 -136.5 t-125 -354.5z" />
<glyph unicode="P" horiz-adv-x="1093" d="M102 0v1434h441q212 0 340.5 -117t128.5 -313t-129 -313.5t-340 -117.5h-154v-573h-287zM389 809h154q82 0 132 53.5t50 141.5t-50 141t-132 53h-154v-389z" />
<glyph unicode="Q" horiz-adv-x="1638" d="M82 717q0 217 92.5 384.5t260 260t384.5 92.5q218 0 385.5 -92.5t259.5 -260t92 -384.5q0 -254 -129 -441l146 -145l-174 -174l-146 145q-183 -122 -434 -122q-217 0 -384.5 92.5t-260 260t-92.5 384.5zM369 717q0 -218 125 -355t325 -137q162 0 254 58l-190 192l172 172 l166 -168q49 111 49 238q0 218 -125.5 354.5t-325.5 136.5t-325 -136.5t-125 -354.5z" />
<glyph unicode="R" horiz-adv-x="1134" d="M102 0v1434h461q212 0 340.5 -117t128.5 -313q0 -139 -68 -241.5t-188 -150.5l332 -612h-315l-285 573h-119v-573h-287zM389 809h174q82 0 132 53.5t50 141.5t-50 141t-132 53h-174v-389z" />
<glyph unicode="S" horiz-adv-x="1146" d="M70 199l170 170q64 -64 143.5 -104t159.5 -40q100 0 157.5 58t57.5 127q0 43 -27.5 77t-73 55t-103.5 44t-118.5 44t-118.5 56t-103.5 77.5t-73 111t-27.5 155.5q0 184 115.5 304t320.5 120q132 0 252.5 -51t212.5 -143l-170 -170q-48 48 -121.5 83t-142.5 35 q-87 0 -134 -53.5t-47 -116.5q0 -40 22 -71.5t59.5 -54t86 -42.5t102 -40t106.5 -43.5t101.5 -56.5t86 -74.5t59.5 -103t22 -136.5q0 -189 -127 -312.5t-346 -123.5q-282 0 -501 219z" />
<glyph unicode="T" horiz-adv-x="1138" d="M61 1208v226h1014v-226h-368v-1208h-277v1208h-369z" />
<glyph unicode="U" horiz-adv-x="1329" d="M102 532v902h277v-902q0 -136 79 -221.5t204 -85.5q128 0 208 85.5t80 221.5v902h277v-902q0 -247 -156.5 -399.5t-408.5 -152.5t-406 152t-154 400z" />
<glyph unicode="V" horiz-adv-x="1572" d="M20 1434h328l438 -1067l439 1067h327l-637 -1434h-258z" />
<glyph unicode="W" horiz-adv-x="2234" d="M20 1434h324l324 -996l307 996h285l307 -996l323 996h324l-510 -1434h-277l-311 948l-309 -948h-277z" />
<glyph unicode="X" horiz-adv-x="1521" d="M20 0l535 729l-516 705h358l363 -516l362 516h359l-516 -705l536 -729h-356l-385 543l-383 -543h-357z" />
<glyph unicode="Y" horiz-adv-x="1402" d="M20 1434h318l362 -588l363 588h317l-542 -863v-571h-277v575z" />
<glyph unicode="Z" horiz-adv-x="1282" d="M82 0v74l709 1134h-699v226h1108v-72l-708 -1137h708v-225h-1118z" />
<glyph unicode="[" horiz-adv-x="614" d="M102 -512v2048h451v-205h-184v-1638h184v-205h-451z" />
<glyph unicode="\" horiz-adv-x="1167" d="M61 1536h267l778 -1638h-266z" />
<glyph unicode="]" horiz-adv-x="614" d="M61 -307h185v1638h-185v205h451v-2048h-451v205z" />
<glyph unicode="^" horiz-adv-x="884" d="M41 1040l401 402l402 -402l-131 -131l-271 271l-270 -271z" />
<glyph unicode="_" horiz-adv-x="921" d="M0 -205h922v-205h-922v205z" />
<glyph unicode="`" horiz-adv-x="552" d="M61 1311l132 131l299 -299l-132 -131z" />
<glyph unicode="a" horiz-adv-x="952" d="M63 250q0 100 62.5 173t158.5 106.5t210 33.5q35 0 59 -4v45q0 47 -35 85t-98 38q-45 0 -93.5 -19.5t-76.5 -48.5l-141 142q144 141 335 141q169 0 272 -96.5t103 -241.5v-366q0 -28 15 -46t40 -18v-174q-30 -12 -88 -12q-143 0 -202 106q-49 -55 -114.5 -84.5 t-135.5 -29.5q-123 0 -197 78.5t-74 191.5zM332 281q0 -34 23.5 -60t70.5 -26q32 0 67 15t60 44v131q-21 6 -45 6q-73 0 -124.5 -30t-51.5 -80z" />
<glyph unicode="b" horiz-adv-x="1105" d="M102 172v1364h267v-647q92 53 219 53q198 0 322 -133t124 -348t-139 -348t-365 -133q-142 0 -253.5 50.5t-174.5 141.5zM369 266q57 -51 168 -51q98 0 159.5 68.5t61.5 177.5t-60 177.5t-155 68.5q-115 0 -174 -84v-357z" />
<glyph unicode="c" horiz-adv-x="952" d="M72 461q0 215 133 348t350 133q209 0 346 -143l-162 -162q-60 70 -168 70q-98 0 -160.5 -68.5t-62.5 -177.5t62.5 -177.5t160.5 -68.5q109 0 168 68l162 -162q-135 -141 -346 -141q-217 0 -350 133t-133 348z" />
<glyph unicode="d" horiz-adv-x="1105" d="M72 461q0 215 130.5 348t342.5 133q105 0 192 -41v635h267v-1536h-267v61q-104 -81 -241 -81q-190 0 -307 133t-117 348zM348 461q0 -109 62.5 -177.5t160.5 -68.5q109 0 166 66v368q-61 58 -166 58q-98 0 -160.5 -68.5t-62.5 -177.5z" />
<glyph unicode="e" horiz-adv-x="1026" d="M72 467q0 212 126 343.5t332 131.5q212 0 323.5 -147.5t111.5 -415.5h-609q21 -78 78 -121t150 -43q116 0 178 68l158 -162q-138 -141 -357 -141q-221 0 -356 133.5t-135 353.5zM356 559h342q-30 154 -161 154q-71 0 -118.5 -41.5t-62.5 -112.5z" />
<glyph unicode="f" horiz-adv-x="706" d="M61 717v205h113v266q0 169 98.5 268.5t268.5 99.5q70 0 114 -20v-217q-25 14 -61 14q-65 0 -104 -40t-39 -105v-266h204v-205h-204v-717h-277v717h-113z" />
<glyph unicode="g" horiz-adv-x="1075" d="M20 -225q0 157 185 239q-92 57 -92 152q0 93 96 151q-63 45 -95 116t-32 155q0 160 111 257t290 97q166 0 275 -86q73 86 168 86q37 0 57 -4v-209q-19 8 -43 8q-42 0 -74 -43q15 -58 15 -100q0 -156 -110.5 -252t-291.5 -96q-55 0 -82.5 -20t-27.5 -52q0 -33 38 -52.5 t105 -19.5q210 0 340.5 -85t130.5 -222q0 -145 -141.5 -236t-360.5 -91q-209 0 -335 85.5t-126 221.5zM297 -225q0 -50 48.5 -79.5t133.5 -29.5q96 0 162 35t66 90q0 49 -53.5 79t-141.5 30q-95 0 -155 -35t-60 -90zM348 594q0 -63 38.5 -103t98.5 -40t99 40t39 103t-39 103 t-99 40t-98.5 -40t-38.5 -103z" />
<glyph unicode="h" horiz-adv-x="1052" d="M102 0v1536h267v-676q102 82 237 82q158 0 251 -109.5t93 -289.5v-543h-266v543q0 73 -41 118.5t-108 45.5q-106 0 -166 -66v-641h-267z" />
<glyph unicode="i" d="M82 1198q0 64 45 109t109 45t108.5 -44.5t44.5 -109.5t-44.5 -109.5t-108.5 -44.5t-109 45t-45 109zM102 0v922h267v-922h-267z" />
<glyph unicode="j" d="M16 -338q39 0 62.5 23.5t23.5 64.5v1172h267v-1180q0 -120 -65.5 -193t-190.5 -73q-63 0 -97 12v174zM82 1198q0 64 45 109t109 45t108.5 -44.5t44.5 -109.5t-44.5 -109.5t-108.5 -44.5t-109 45t-45 109z" />
<glyph unicode="k" horiz-adv-x="1003" d="M102 0v1536h267v-965l264 351h313l-334 -428l371 -494h-311l-303 412v-412h-267z" />
<glyph unicode="l" horiz-adv-x="532" d="M102 254v1282h267v-1274q0 -41 26.5 -64.5t69.5 -23.5v-174q-35 -12 -107 -12q-125 0 -190.5 73t-65.5 193z" />
<glyph unicode="m" horiz-adv-x="1552" d="M102 0v922h267v-62q102 82 237 82q156 0 240 -121q118 121 301 121q140 0 221.5 -98.5t81.5 -259.5v-584h-266v584q0 54 -30 88.5t-79 34.5q-109 0 -172 -50q6 -37 6 -73v-584h-266v584q0 55 -29.5 89t-78.5 34q-106 0 -166 -66v-641h-267z" />
<glyph unicode="n" horiz-adv-x="1052" d="M102 0v922h267v-62q102 82 237 82q158 0 251 -109.5t93 -289.5v-543h-266v543q0 73 -41 118.5t-108 45.5q-106 0 -166 -66v-641h-267z" />
<glyph unicode="o" horiz-adv-x="1126" d="M72 461q0 215 135.5 348t355.5 133t356 -133t136 -348t-136 -348t-356 -133t-355.5 133t-135.5 348zM348 461q0 -109 60 -177.5t155 -68.5t155 68.5t60 177.5t-60 177.5t-155 68.5t-155 -68.5t-60 -177.5z" />
<glyph unicode="p" horiz-adv-x="1105" d="M102 -512v1434h267v-62q105 82 241 82q190 0 307 -133t117 -348t-130 -348t-341 -133q-110 0 -194 40v-532h-267zM369 272q57 -57 166 -57q98 0 160.5 68.5t62.5 177.5t-62.5 177.5t-160.5 68.5q-106 0 -166 -66v-369z" />
<glyph unicode="q" horiz-adv-x="1105" d="M72 461q0 215 138.5 348t364.5 133q142 0 254 -50.5t175 -141.5v-1262h-267v543q-97 -51 -219 -51q-198 0 -322 133t-124 348zM348 461q0 -109 60 -177.5t155 -68.5q115 0 174 84v356q-65 52 -168 52q-98 0 -159.5 -68.5t-61.5 -177.5z" />
<glyph unicode="r" horiz-adv-x="716" d="M102 0v922h267v-82q95 98 209 98q27 0 57 -6v-230q-34 11 -78 11q-60 0 -109 -30t-79 -81v-602h-267z" />
<glyph unicode="s" horiz-adv-x="796" d="M57 123l162 162q32 -37 74 -61.5t84 -24.5t67 25t25 55q0 28 -28 49.5t-70 35t-90.5 36t-90.5 50t-70 79t-28 120.5q0 124 84 208.5t230 84.5q90 0 172.5 -33.5t142.5 -93.5l-162 -162q-26 28 -62 48t-69 20q-34 0 -52 -21.5t-18 -46.5q0 -29 28 -52t70 -37.5t90.5 -37.5 t90.5 -50t70 -77.5t28 -117.5q0 -128 -91.5 -214.5t-246.5 -86.5q-99 0 -187 37.5t-153 105.5z" />
<glyph unicode="t" horiz-adv-x="696" d="M61 717v205h103v204h276v-204h185v-205h-185v-379q0 -61 33.5 -98t89.5 -37q37 0 62 14v-217q-44 -20 -115 -20q-161 0 -253.5 96.5t-92.5 261.5v379h-103z" />
<glyph unicode="u" horiz-adv-x="1062" d="M102 399v523h277v-523q0 -82 44.5 -133t115.5 -51t115 51t44 133v523h263v-523q0 -187 -119.5 -303t-311.5 -116q-191 0 -309.5 116t-118.5 303z" />
<glyph unicode="v" horiz-adv-x="1081" d="M10 922h297l234 -586l233 586h297l-407 -922h-246z" />
<glyph unicode="w" horiz-adv-x="1609" d="M10 922h307l177 -594l178 594h266l178 -594l176 594h307l-346 -922h-276l-172 543l-172 -543h-277z" />
<glyph unicode="x" horiz-adv-x="1087" d="M20 0l349 473l-330 449h307l197 -281l196 281h308l-330 -449l350 -473h-305l-219 307l-217 -307h-306z" />
<glyph unicode="y" horiz-adv-x="1081" d="M10 922h297l236 -598l231 598h297l-645 -1434h-297l289 512z" />
<glyph unicode="z" horiz-adv-x="974" d="M82 0v74l412 643h-402v205h801v-72l-412 -645h412v-205h-811z" />
<glyph unicode="{" horiz-adv-x="624" d="M61 410v194q45 0 79 82t34 205v184q0 212 111 346.5t278 134.5v-194q-44 0 -78 -82t-34 -205v-184q0 -129 -45 -228t-125 -157q80 -57 125 -155.5t45 -227.5v-174q0 -123 34 -205t78 -82v-194q-167 0 -278 134.5t-111 346.5v174q0 123 -34 205t-79 82z" />
<glyph unicode="|" d="M102 -512v2048h267v-2048h-267z" />
<glyph unicode="}" horiz-adv-x="624" d="M61 -338q45 0 79 82t34 205v174q0 129 45 227.5t125 155.5q-80 58 -125 157t-45 228v184q0 123 -34 205t-79 82v194q168 0 279 -134.5t111 -346.5v-184q0 -123 34 -205t78 -82v-194q-44 0 -78 -82t-34 -205v-174q0 -212 -111 -346.5t-279 -134.5v194z" />
<glyph unicode="~" horiz-adv-x="884" d="M41 492q0 113 75 185.5t183 72.5q50 0 94 -17t70.5 -37.5t59 -37.5t61.5 -17q39 0 65.5 28t26.5 70h168q0 -114 -74.5 -186t-185.5 -72q-50 0 -93.5 17.5t-69.5 38t-58.5 38t-61.5 17.5q-39 0 -65.5 -27.5t-26.5 -72.5h-168z" />
<glyph unicode="&#xa0;" />
<glyph unicode="&#xa1;" d="M82 788q0 64 45 109t109 45t108.5 -44.5t44.5 -109.5q0 -64 -44.5 -108.5t-108.5 -44.5q-65 0 -109.5 44.5t-44.5 108.5zM102 492h267v-1004h-267v1004z" />
<glyph unicode="&#xa2;" horiz-adv-x="952" d="M72 461q0 193 108.5 321t290.5 154v190h143v-188q169 -18 287 -139l-162 -162q-50 53 -125 65v-485q77 12 125 66l162 -162q-113 -119 -287 -137v-189h-143v191q-182 25 -290.5 153.5t-108.5 321.5zM348 461q0 -77 33 -136t90 -87v446q-58 -30 -90.5 -88t-32.5 -135z" />
<glyph unicode="&#xa3;" horiz-adv-x="1069" d="M51 0q0 99 43 174t117 113v327h-150v205h150v205q0 191 122.5 310.5t315.5 119.5q94 0 177 -31.5t141 -87.5l-176 -176q-49 49 -129 49q-77 0 -126 -51.5t-49 -132.5v-205h322v-205h-322v-325q27 -12 69.5 -36.5t74 -38t61.5 -13.5q43 0 69.5 27.5t26.5 70.5h209 q0 -144 -84.5 -231.5t-214.5 -87.5q-56 0 -109 19t-86.5 41t-73.5 41t-73 19q-43 0 -69.5 -27.5t-26.5 -72.5h-209z" />
<glyph unicode="&#xa5;" horiz-adv-x="1402" d="M20 1434h318l362 -588l363 588h317l-542 -863v-18h245v-143h-245v-113h245v-143h-245v-154h-277v154h-246v143h246v113h-246v143h246v22z" />
<glyph unicode="&#xa7;" horiz-adv-x="884" d="M51 -391l168 168q59 -72 164 -72q67 0 110.5 43t43.5 109q0 84 -58 145l-403 406l176 176l412 -412q149 -149 149 -315q0 -173 -119 -281t-311 -108q-204 0 -332 141zM72 1065q0 173 119 281t311 108q204 0 332 -141l-168 -168q-59 72 -164 72q-67 0 -110.5 -43 t-43.5 -109q0 -84 58 -145l403 -406l-176 -176l-412 412q-71 71 -110 146t-39 169z" />
<glyph unicode="&#xa8;" horiz-adv-x="913" d="M102 1167q0 60 42 102t102 42t101.5 -42t41.5 -102t-41.5 -101.5t-101.5 -41.5t-102 41.5t-42 101.5zM502 1167q0 61 41.5 103.5t101.5 42.5q61 0 103.5 -42.5t42.5 -103.5q0 -60 -42.5 -101.5t-103.5 -41.5q-60 0 -101.5 41.5t-41.5 101.5z" />
<glyph unicode="&#xa9;" horiz-adv-x="1638" d="M82 717q0 217 92.5 384.5t260 260t384.5 92.5q218 0 385.5 -92.5t259.5 -260t92 -384.5t-92 -384.5t-259.5 -260t-385.5 -92.5q-217 0 -384.5 92.5t-260 260t-92.5 384.5zM279 717q0 -261 150.5 -425.5t389.5 -164.5t390 164.5t151 425.5t-151 425.5t-390 164.5 t-389.5 -164.5t-150.5 -425.5zM469 717q0 164 102.5 266t268.5 102q164 0 266 -102l-94 -92q-63 63 -164 63q-100 0 -162.5 -66.5t-62.5 -170.5q0 -105 63 -171.5t162 -66.5q103 0 164 64l94 -92q-103 -103 -266 -103q-166 0 -268.5 102.5t-102.5 266.5z" />
<glyph unicode="&#xaa;" horiz-adv-x="544" d="M43 1063q0 83 69 128.5t167 45.5q9 0 19.5 -1t12.5 -1v20q0 25 -18 45.5t-51 20.5q-24 0 -50.5 -11t-41.5 -26l-82 80q83 80 188 80q94 0 151.5 -54t57.5 -135v-194q0 -15 8 -25t21 -10v-100q-18 -6 -52 -6q-79 0 -112 57q-58 -64 -137 -64q-67 0 -108.5 44t-41.5 106z M199 1081q0 -17 11.5 -30t35.5 -13q43 0 65 31v66q-16 4 -24 4q-36 0 -62 -15.5t-26 -42.5z" />
<glyph unicode="&#xab;" horiz-adv-x="962" d="M41 512l360 360l131 -131l-229 -229l229 -229l-131 -131zM410 512l360 360l131 -131l-229 -229l229 -229l-131 -131z" />
<glyph unicode="&#xac;" horiz-adv-x="1024" d="M82 512v205h860v-430h-205v225h-655z" />
<glyph unicode="&#xad;" horiz-adv-x="696" d="M82 451v204h532v-204h-532z" />
<glyph unicode="&#xae;" horiz-adv-x="1638" d="M82 717q0 217 92.5 384.5t260 260t384.5 92.5q218 0 385.5 -92.5t259.5 -260t92 -384.5t-92 -384.5t-259.5 -260t-385.5 -92.5q-217 0 -384.5 92.5t-260 260t-92.5 384.5zM279 717q0 -261 150.5 -425.5t389.5 -164.5t390 164.5t151 425.5t-151 425.5t-390 164.5 t-389.5 -164.5t-150.5 -425.5zM582 356v717h235q108 0 174 -59t66 -158q0 -70 -33 -121t-92 -76l164 -303h-170l-138 283h-53v-283h-153zM735 764h82q38 0 61 25.5t23 66.5q0 40 -23 65t-61 25h-82v-182z" />
<glyph unicode="&#xaf;" horiz-adv-x="716" d="M82 1075v154h553v-154h-553z" />
<glyph unicode="&#xb0;" horiz-adv-x="583" d="M72 1219q0 101 61 163t160 62q100 0 160.5 -62t60.5 -163t-60.5 -163.5t-160.5 -62.5q-98 0 -159.5 62.5t-61.5 163.5zM199 1217q0 -43 26.5 -70t67.5 -27q43 0 69.5 27t26.5 70q0 44 -27 71t-69 27t-68 -27t-26 -71z" />
<glyph unicode="&#xb1;" horiz-adv-x="860" d="M82 0v205h696v-205h-696zM82 512v205h246v246h204v-246h246v-205h-246v-246h-204v246h-246z" />
<glyph unicode="&#xb4;" horiz-adv-x="552" d="M61 1143l299 299l132 -131l-299 -299z" />
<glyph unicode="&#xb5;" horiz-adv-x="1062" d="M16 -236q39 0 62.5 24t23.5 65v1069h277v-523q0 -82 44.5 -133t115.5 -51t115 51t44 133v523h263v-523q0 -187 -119.5 -303t-311.5 -116q-77 0 -161 24v-160q0 -120 -65.5 -193t-190.5 -73q-63 0 -97 12v174z" />
<glyph unicode="&#xb6;" horiz-adv-x="1329" d="M82 1024q0 187 123 298.5t325 111.5h287v-1434h-256v614h-31q-202 0 -325 111.5t-123 298.5zM971 0v1434h256v-1434h-256z" />
<glyph unicode="&#xb7;" d="M82 512q0 64 45 109t109 45t108.5 -44.5t44.5 -109.5t-44.5 -109.5t-108.5 -44.5t-109 45t-45 109z" />
<glyph unicode="&#xb8;" horiz-adv-x="563" d="M143 -406l76 76q27 -24 64 -24t60.5 22t23.5 58q0 38 -33.5 62t-102.5 24v188h103v-106q65 -15 102 -59.5t37 -113.5q0 -82 -52.5 -132t-137.5 -50t-140 55z" />
<glyph unicode="&#xba;" horiz-adv-x="641" d="M49 1180q0 118 75 191t195 73q122 0 197.5 -73t75.5 -191q0 -119 -76 -193t-197 -74q-120 0 -195 74t-75 193zM209 1180q0 -58 30 -93.5t80 -35.5q51 0 82 35.5t31 93.5q0 57 -31 93t-82 36q-49 0 -79.5 -36t-30.5 -93z" />
<glyph unicode="&#xbb;" horiz-adv-x="962" d="M61 283l230 229l-230 229l132 131l360 -360l-360 -360zM430 283l229 229l-229 229l131 131l361 -360l-361 -360z" />
<glyph unicode="&#xbf;" horiz-adv-x="985" d="M72 -147q0 68 23 122t57 86.5t74.5 67t74.5 63.5t57 75t23 102v123h266v-123q0 -70 -16.5 -129.5t-43 -100t-58 -74.5t-63.5 -59.5t-58.5 -48t-43 -48t-16.5 -52.5q0 -58 46.5 -106t127.5 -48q128 0 242 92l170 -170q-97 -79 -197 -118t-223 -39q-197 0 -319.5 110 t-122.5 275zM360 788q0 64 45 109t109 45t109 -45t45 -109t-44.5 -108.5t-109.5 -44.5t-109.5 44.5t-44.5 108.5z" />
<glyph unicode="&#xf7;" horiz-adv-x="1024" d="M82 461v205h860v-205h-860zM373 236q0 58 40 97.5t99 39.5q58 0 97.5 -39.5t39.5 -97.5q0 -59 -39.5 -99.5t-97.5 -40.5t-98.5 40.5t-40.5 99.5zM373 891q0 58 40 97.5t99 39.5q58 0 97.5 -39t39.5 -98t-39.5 -99t-97.5 -40t-98.5 40t-40.5 99z" />
<glyph unicode="&#x13f;" horiz-adv-x="942" d="M102 0v1434h277v-1209h502v-225h-779zM563 666q0 64 44.5 108.5t109.5 44.5t109 -44.5t44 -108.5q0 -65 -44.5 -109.5t-108.5 -44.5q-65 0 -109.5 45t-44.5 109z" />
<glyph unicode="&#x140;" horiz-adv-x="841" d="M102 254v1282h267v-1274q0 -41 26.5 -64.5t69.5 -23.5v-174q-35 -12 -107 -12q-125 0 -190.5 73t-65.5 193zM502 666q0 64 44 108.5t109 44.5t109.5 -44.5t44.5 -108.5t-44.5 -109t-109.5 -45q-64 0 -108.5 44.5t-44.5 109.5z" />
<glyph unicode="&#x192;" horiz-adv-x="706" d="M61 717v205h113v266q0 169 98.5 268.5t268.5 99.5q70 0 114 -20v-217q-25 14 -61 14q-65 0 -104 -40t-39 -105v-266h204v-205h-204v-975q0 -119 -70.5 -192.5t-196.5 -73.5q-62 0 -96 12v174q39 0 62.5 23.5t23.5 64.5v967h-113z" />
<glyph unicode="&#x2c6;" horiz-adv-x="720" d="M61 1143l299 299l299 -299l-131 -131l-168 168l-167 -168z" />
<glyph unicode="&#x2c7;" horiz-adv-x="720" d="M61 1311l132 131l167 -168l168 168l131 -131l-299 -299z" />
<glyph unicode="&#x2d8;" horiz-adv-x="737" d="M45 1169l129 129q69 -75 195 -75q127 0 194 73l129 -129q-126 -135 -323 -135q-194 0 -324 137z" />
<glyph unicode="&#x2d9;" d="M82 1198q0 64 45 109t109 45t108.5 -44.5t44.5 -109.5t-44.5 -109.5t-108.5 -44.5t-109 45t-45 109z" />
<glyph unicode="&#x2da;" horiz-adv-x="563" d="M92 1188q0 87 53 140.5t138 53.5q86 0 138 -53t52 -141t-52 -141.5t-138 -53.5q-85 0 -138 54t-53 141zM199 1186q0 -38 23.5 -62t60.5 -24q38 0 62 24t24 62q0 39 -24.5 63.5t-61.5 24.5t-60.5 -24.5t-23.5 -63.5z" />
<glyph unicode="&#x2db;" horiz-adv-x="530" d="M82 -68q0 40 14 68h121q-16 -26 -16 -68q0 -45 26 -71.5t68 -26.5q43 0 70 27l84 -84q-57 -60 -152 -60q-96 0 -155.5 59.5t-59.5 155.5z" />
<glyph unicode="&#x2dc;" horiz-adv-x="720" d="M41 1065q0 96 58.5 156.5t148.5 60.5q43 0 77.5 -14t52.5 -30t43 -30t50 -14q31 0 51.5 22t20.5 56h137q0 -96 -59 -156.5t-150 -60.5q-35 0 -63.5 9t-46.5 22t-34.5 26t-35.5 22t-41 9q-31 0 -51.5 -21.5t-20.5 -56.5h-137z" />
<glyph unicode="&#x2dd;" horiz-adv-x="901" d="M61 1143l299 299l132 -131l-299 -299zM410 1143l299 299l131 -131l-299 -299z" />
<glyph unicode="&#x400;" horiz-adv-x="972" d="M102 0v1434h789v-226h-512v-379h450v-225h-450v-379h522v-225h-799zM242 1782l131 131l299 -299l-131 -131z" />
<glyph unicode="&#x401;" horiz-adv-x="972" d="M102 0v1434h789v-226h-512v-379h450v-225h-450v-379h522v-225h-799zM152 1638q0 60 41.5 102t101.5 42t101.5 -42t41.5 -102t-41.5 -101.5t-101.5 -41.5t-101.5 41.5t-41.5 101.5zM551 1638q0 61 41.5 103.5t101.5 42.5q62 0 104 -42t42 -104q0 -60 -42.5 -101.5 t-103.5 -41.5q-60 0 -101.5 41.5t-41.5 101.5z" />
<glyph unicode="&#x402;" horiz-adv-x="1390" d="M61 1208v226h1014v-226h-368v-399q105 82 241 82q161 0 255.5 -109.5t94.5 -289.5v-238q0 -120 -67.5 -193t-196.5 -73q-64 0 -98 12v174q39 0 62.5 23.5t23.5 64.5v230q0 72 -41.5 117.5t-108.5 45.5q-106 0 -165 -65v-590h-277v1208h-369z" />
<glyph unicode="&#x403;" horiz-adv-x="942" d="M102 0v1434h779v-226h-502v-1208h-277zM317 1614l299 299l132 -131l-299 -299z" />
<glyph unicode="&#x404;" horiz-adv-x="1413" d="M82 717q0 217 92.5 384.5t260 260t384.5 92.5q162 0 298.5 -53.5t234.5 -151.5l-174 -174q-130 133 -344 133q-177 0 -299.5 -103.5t-155.5 -275.5h717v-225h-717q32 -173 155 -276t300 -103q213 0 344 131l174 -172q-98 -98 -234.5 -151t-298.5 -53q-217 0 -384.5 92.5 t-260 260t-92.5 384.5z" />
<glyph unicode="&#x405;" horiz-adv-x="1146" d="M70 199l170 170q64 -64 143.5 -104t159.5 -40q100 0 157.5 58t57.5 127q0 43 -27.5 77t-73 55t-103.5 44t-118.5 44t-118.5 56t-103.5 77.5t-73 111t-27.5 155.5q0 184 115.5 304t320.5 120q132 0 252.5 -51t212.5 -143l-170 -170q-48 48 -121.5 83t-142.5 35 q-87 0 -134 -53.5t-47 -116.5q0 -40 22 -71.5t59.5 -54t86 -42.5t102 -40t106.5 -43.5t101.5 -56.5t86 -74.5t59.5 -103t22 -136.5q0 -189 -127 -312.5t-346 -123.5q-282 0 -501 219z" />
<glyph unicode="&#x406;" horiz-adv-x="481" d="M102 0v1434h277v-1434h-277z" />
<glyph unicode="&#x407;" horiz-adv-x="481" d="M-82 1638q0 60 41.5 102t101.5 42t102 -42t42 -102t-42 -101.5t-102 -41.5t-101.5 41.5t-41.5 101.5zM102 0v1434h277v-1434h-277zM276 1638q0 61 42 103.5t102 42.5q61 0 103 -42t42 -104q0 -60 -42 -101.5t-103 -41.5q-60 0 -102 41.5t-42 101.5z" />
<glyph unicode="&#x408;" horiz-adv-x="919" d="M61 98l177 176q49 -49 129 -49q77 0 125.5 51.5t48.5 133.5v1024h276v-1024q0 -191 -122.5 -310.5t-315.5 -119.5q-95 0 -178 31t-140 87z" />
<glyph unicode="&#x409;" horiz-adv-x="1943" d="M57 0v174q104 0 167 63.5t63 172.5v1024h932v-574h174q212 0 340.5 -117t128.5 -313t-128.5 -313t-340.5 -117h-461v1208h-359v-790q0 -193 -101 -311.5t-279 -118.5q-87 0 -136 12zM1219 236h174q82 0 132 53t50 141t-50 141.5t-132 53.5h-174v-389z" />
<glyph unicode="&#x40a;" horiz-adv-x="1943" d="M102 0v1434h277v-574h553v574h287v-574h174q212 0 340.5 -117t128.5 -313t-128.5 -313t-340.5 -117h-461v625h-553v-625h-277zM1219 236h174q82 0 132 53t50 141t-50 141.5t-132 53.5h-174v-389z" />
<glyph unicode="&#x40b;" horiz-adv-x="1390" d="M61 1208v226h1014v-226h-368v-399q105 82 241 82q161 0 255.5 -109.5t94.5 -289.5v-492h-276v492q0 72 -41.5 117.5t-108.5 45.5q-106 0 -165 -65v-590h-277v1208h-369z" />
<glyph unicode="&#x40c;" horiz-adv-x="1288" d="M102 0v1434h277v-660l489 660h349l-517 -695l568 -739h-357l-532 705v-705h-277zM469 1614l299 299l131 -131l-299 -299z" />
<glyph unicode="&#x40d;" horiz-adv-x="1413" d="M102 0v1434h277v-902l758 902h174v-1434h-277v901l-758 -901h-174zM451 1782l131 131l299 -299l-131 -131z" />
<glyph unicode="&#x40e;" horiz-adv-x="1245" d="M10 1434h297l318 -660l313 660h297l-696 -1434h-297l254 451zM299 1640l129 129q69 -75 195 -75q127 0 194 73l129 -129q-126 -135 -323 -135q-194 0 -324 137z" />
<glyph unicode="&#x40f;" horiz-adv-x="1392" d="M102 0v1434h277v-1209h635v1209h276v-1434h-465v-307h-256v307h-467z" />
<glyph unicode="&#x410;" horiz-adv-x="1572" d="M20 0l637 1434h258l637 -1434h-321l-133 307h-625l-131 -307h-322zM571 553h428l-213 520z" />
<glyph unicode="&#x411;" horiz-adv-x="1114" d="M102 0v1434h809v-226h-522v-348h174q212 0 340.5 -117t128.5 -313t-128.5 -313t-340.5 -117h-461zM389 236h174q82 0 132 53t50 141t-50 141.5t-132 53.5h-174v-389z" />
<glyph unicode="&#x412;" horiz-adv-x="1144" d="M102 0v1434h461q187 0 300.5 -103.5t113.5 -277.5q0 -185 -129 -289q97 -50 151 -142t54 -212q0 -186 -123 -298t-324 -112h-504zM389 236h205q82 0 132 53t50 141t-50 141.5t-132 53.5h-205v-389zM389 860h154q70 0 113.5 46.5t43.5 121.5q0 76 -43 123t-114 47h-154 v-338z" />
<glyph unicode="&#x413;" horiz-adv-x="942" d="M102 0v1434h779v-226h-502v-1208h-277z" />
<glyph unicode="&#x414;" horiz-adv-x="1413" d="M41 215q104 0 164.5 84.5t60.5 232.5v902h953v-1209h153v-532h-256v307h-819v-307h-256v522zM455 225h477v983h-379v-676q0 -195 -98 -307z" />
<glyph unicode="&#x415;" horiz-adv-x="972" d="M102 0v1434h789v-226h-512v-379h450v-225h-450v-379h522v-225h-799z" />
<glyph unicode="&#x416;" horiz-adv-x="1951" d="M20 0l527 739l-486 695h318l459 -658v658h276v-658l459 658h317l-485 -695l526 -739h-325l-492 700v-700h-276v700l-492 -700h-326z" />
<glyph unicode="&#x417;" horiz-adv-x="1144" d="M61 184l172 172q64 -66 145 -101.5t163 -35.5q109 0 172 59t63 154q0 86 -50 139.5t-132 53.5h-205v235h154q79 0 128.5 45.5t49.5 126.5q0 86 -55 134t-142 48q-72 0 -144.5 -32.5t-131.5 -91.5l-164 163q201 201 463 201q210 0 330 -112t120 -285q0 -190 -149 -293 q97 -50 151 -142.5t54 -213.5q0 -196 -135 -312t-357 -116q-299 0 -500 204z" />
<glyph unicode="&#x418;" horiz-adv-x="1413" d="M102 0v1434h277v-902l758 902h174v-1434h-277v901l-758 -901h-174z" />
<glyph unicode="&#x419;" horiz-adv-x="1413" d="M102 0v1434h277v-902l758 902h174v-1434h-277v901l-758 -901h-174zM383 1640l129 129q69 -75 195 -75q127 0 194 73l129 -129q-126 -135 -323 -135q-194 0 -324 137z" />
<glyph unicode="&#x41a;" horiz-adv-x="1288" d="M102 0v1434h277v-660l489 660h349l-517 -695l568 -739h-357l-532 705v-705h-277z" />
<glyph unicode="&#x41b;" horiz-adv-x="1341" d="M57 0v174q104 0 167 63.5t63 172.5v1024h952v-1434h-287v1208h-379v-790q0 -193 -101 -311.5t-279 -118.5q-87 0 -136 12z" />
<glyph unicode="&#x41c;" horiz-adv-x="1617" d="M102 0v1434h205l502 -740l502 740h205v-1434h-277v872l-383 -585h-94l-383 585v-872h-277z" />
<glyph unicode="&#x41d;" horiz-adv-x="1392" d="M102 0v1434h277v-605h635v605h276v-1434h-276v604h-635v-604h-277z" />
<glyph unicode="&#x41e;" horiz-adv-x="1638" d="M82 717q0 217 92.5 384.5t260 260t384.5 92.5q218 0 385.5 -92.5t259.5 -260t92 -384.5t-92 -384.5t-259.5 -260t-385.5 -92.5q-217 0 -384.5 92.5t-260 260t-92.5 384.5zM369 717q0 -218 125 -355t325 -137t325.5 137t125.5 355t-125.5 354.5t-325.5 136.5t-325 -136.5 t-125 -354.5z" />
<glyph unicode="&#x41f;" horiz-adv-x="1310" d="M102 0v1434h1106v-1434h-276v1208h-553v-1208h-277z" />
<glyph unicode="&#x420;" horiz-adv-x="1093" d="M102 0v1434h441q212 0 340.5 -117t128.5 -313t-129 -313.5t-340 -117.5h-154v-573h-287zM389 809h154q82 0 132 53.5t50 141.5t-50 141t-132 53h-154v-389z" />
<glyph unicode="&#x421;" horiz-adv-x="1413" d="M82 717q0 217 92.5 384.5t260 260t384.5 92.5q162 0 298.5 -53.5t234.5 -151.5l-174 -174q-130 133 -344 133q-206 0 -335.5 -136.5t-129.5 -354.5t129.5 -355t335.5 -137q213 0 344 131l174 -172q-98 -98 -234.5 -151t-298.5 -53q-217 0 -384.5 92.5t-260 260 t-92.5 384.5z" />
<glyph unicode="&#x422;" horiz-adv-x="1138" d="M61 1208v226h1014v-226h-368v-1208h-277v1208h-369z" />
<glyph unicode="&#x423;" horiz-adv-x="1245" d="M10 1434h297l318 -660l313 660h297l-696 -1434h-297l254 451z" />
<glyph unicode="&#x424;" horiz-adv-x="1673" d="M82 717q0 260 170.5 421.5t445.5 161.5v134h277v-134q276 0 446 -161.5t170 -421.5t-170 -422t-446 -162v-133h-277v133q-275 0 -445.5 162t-170.5 422zM369 717q0 -151 91.5 -244.5t237.5 -93.5v676q-146 0 -237.5 -93.5t-91.5 -244.5zM975 379q148 0 239 93.5t91 244.5 t-91 244.5t-239 93.5v-676z" />
<glyph unicode="&#x425;" horiz-adv-x="1521" d="M20 0l535 729l-516 705h358l363 -516l362 516h359l-516 -705l536 -729h-356l-385 543l-383 -543h-357z" />
<glyph unicode="&#x426;" horiz-adv-x="1474" d="M102 0v1434h277v-1209h635v1209h276v-1209h144v-532h-256v307h-1076z" />
<glyph unicode="&#x427;" horiz-adv-x="1175" d="M102 1020v414h267v-404q0 -134 52.5 -193t166.5 -59q140 0 219 31v625h266v-1434h-266v596q-121 -33 -279 -33q-209 0 -317.5 118.5t-108.5 338.5z" />
<glyph unicode="&#x428;" horiz-adv-x="1996" d="M102 0v1434h277v-1209h481v1209h277v-1209h481v1209h276v-1434h-1792z" />
<glyph unicode="&#x429;" horiz-adv-x="2078" d="M102 0v1434h277v-1209h481v1209h277v-1209h481v1209h276v-1209h144v-532h-256v307h-1680z" />
<glyph unicode="&#x42a;" horiz-adv-x="1380" d="M61 1208v226h594v-574h174q212 0 340.5 -117t128.5 -313t-128.5 -313t-340.5 -117h-460v1208h-308zM655 236h174q82 0 132.5 53.5t50.5 140.5q0 88 -50.5 141.5t-132.5 53.5h-174v-389z" />
<glyph unicode="&#x42b;" horiz-adv-x="1564" d="M102 0v1434h287v-574h174q212 0 340.5 -117t128.5 -313t-128.5 -313t-340.5 -117h-461zM389 236h174q82 0 132 53t50 141t-50 141.5t-132 53.5h-174v-389zM1186 0v1434h276v-1434h-276z" />
<glyph unicode="&#x42c;" horiz-adv-x="1114" d="M102 0v1434h287v-574h174q212 0 340.5 -117t128.5 -313t-128.5 -313t-340.5 -117h-461zM389 236h174q82 0 132 53t50 141t-50 141.5t-132 53.5h-174v-389z" />
<glyph unicode="&#x42d;" horiz-adv-x="1413" d="M61 184l175 172q131 -131 344 -131q177 0 299.5 103t154.5 276h-614v225h614q-33 172 -155 275.5t-299 103.5q-214 0 -344 -133l-175 174q98 98 234.5 151.5t298.5 53.5q217 0 384.5 -92.5t260 -260t92.5 -384.5t-92.5 -384.5t-260 -260t-384.5 -92.5q-162 0 -298.5 53 t-234.5 151z" />
<glyph unicode="&#x42e;" horiz-adv-x="2109" d="M102 0v1434h277v-605h283q34 283 218 454t461 171q203 0 359 -92.5t242 -260t86 -384.5t-86 -384.5t-242 -260t-359 -92.5q-277 0 -461 170t-218 454h-283v-604h-277zM942 717q0 -218 111 -355t288 -137t288.5 137t111.5 355t-111.5 354.5t-288.5 136.5t-288 -136.5 t-111 -354.5z" />
<glyph unicode="&#x42f;" horiz-adv-x="1134" d="M31 0l323 604q-128 46 -200 150t-72 250q0 196 128.5 313t340.5 117h481v-1434h-287v573h-127l-274 -573h-313zM369 1004q0 -88 50 -141.5t132 -53.5h194v389h-194q-82 0 -132 -53t-50 -141z" />
<glyph unicode="&#x430;" horiz-adv-x="952" d="M63 250q0 100 62.5 173t158.5 106.5t210 33.5q35 0 59 -4v45q0 47 -35 85t-98 38q-45 0 -93.5 -19.5t-76.5 -48.5l-141 142q144 141 335 141q169 0 272 -96.5t103 -241.5v-366q0 -28 15 -46t40 -18v-174q-30 -12 -88 -12q-143 0 -202 106q-49 -55 -114.5 -84.5 t-135.5 -29.5q-123 0 -197 78.5t-74 191.5zM332 281q0 -34 23.5 -60t70.5 -26q32 0 67 15t60 44v131q-21 6 -45 6q-73 0 -124.5 -30t-51.5 -80z" />
<glyph unicode="&#x431;" horiz-adv-x="1146" d="M92 623q0 134 17.5 241.5t50 181.5t74.5 129.5t94 92t105.5 63t112 49t111 43.5t105.5 52.5t92 70.5l143 -143q-72 -74 -146.5 -126t-131 -77t-111.5 -46t-94.5 -41t-72 -53t-52.5 -91.5t-29 -147.5h13q60 62 121 91.5t137 29.5q84 0 163.5 -35.5t142 -97.5t100.5 -155.5 t38 -202.5q0 -211 -137.5 -341t-380.5 -130q-85 0 -152.5 17t-127.5 61.5t-99.5 116t-62.5 184.5t-23 264zM369 461q0 -109 60 -177.5t155 -68.5t155 68.5t60 177.5t-60 177.5t-155 68.5t-155 -68.5t-60 -177.5z" />
<glyph unicode="&#x432;" horiz-adv-x="921" d="M102 0v922h414q135 0 210 -66.5t75 -173.5q0 -129 -101 -195q76 -30 116 -90.5t40 -140.5q0 -116 -79.5 -186t-223.5 -70h-451zM369 195h133q36 0 62 28.5t26 67.5q0 41 -26 69.5t-62 28.5h-133v-194zM369 563h102q30 0 52 24.5t22 57.5t-22 57.5t-52 24.5h-102v-164z " />
<glyph unicode="&#x433;" horiz-adv-x="747" d="M102 0v922h584v-205h-317v-717h-267z" />
<glyph unicode="&#x434;" horiz-adv-x="1126" d="M45 205q71 0 120.5 46.5t49.5 113.5v557h737v-717h133v-451h-245v246h-549v-246h-246v451zM416 205h270v512h-205v-326q0 -113 -65 -186z" />
<glyph unicode="&#x435;" horiz-adv-x="1026" d="M72 467q0 212 126 343.5t332 131.5q212 0 323.5 -147.5t111.5 -415.5h-609q21 -78 78 -121t150 -43q116 0 178 68l158 -162q-138 -141 -357 -141q-221 0 -356 133.5t-135 353.5zM356 559h342q-30 154 -161 154q-71 0 -118.5 -41.5t-62.5 -112.5z" />
<glyph unicode="&#x436;" horiz-adv-x="1474" d="M20 0l330 494l-293 428h303l244 -369v369h266v-369l244 369h303l-293 -428l330 -494h-301l-283 434v-434h-266v434l-282 -434h-302z" />
<glyph unicode="&#x437;" horiz-adv-x="847" d="M51 121l146 145q65 -71 182 -71q69 0 101 28t32 72q0 40 -23.5 62t-60.5 22h-143v174h102q31 0 54.5 26t23.5 58q0 12 -3.5 25t-12 29t-28.5 26t-48 10q-41 0 -89.5 -20.5t-76.5 -53.5l-146 146q137 143 336 143q155 0 242.5 -72t87.5 -186q0 -139 -100 -207 q75 -32 113 -93t38 -142q0 -122 -94 -192t-278 -70q-125 0 -204 34.5t-151 106.5z" />
<glyph unicode="&#x438;" horiz-adv-x="1064" d="M102 0v922h267v-492l389 492h205v-922h-267v492l-389 -492h-205z" />
<glyph unicode="&#x439;" horiz-adv-x="1064" d="M102 0v922h267v-492l389 492h205v-922h-267v492l-389 -492h-205zM209 1169l129 129q69 -75 194 -75q128 0 195 73l129 -129q-126 -135 -324 -135q-193 0 -323 137z" />
<glyph unicode="&#x43a;" horiz-adv-x="1013" d="M102 0v922h267v-365l274 365h313l-333 -428l370 -494h-311l-313 426v-426h-267z" />
<glyph unicode="&#x43b;" horiz-adv-x="1034" d="M57 0v174q67 0 107.5 41.5t40.5 112.5v594h727v-922h-266v717h-195v-402q0 -148 -77 -237.5t-224 -89.5q-72 0 -113 12z" />
<glyph unicode="&#x43c;" horiz-adv-x="1224" d="M102 0v922h252l258 -428l258 428h252v-922h-245v518l-199 -354h-131l-199 354v-518h-246z" />
<glyph unicode="&#x43d;" horiz-adv-x="1064" d="M102 0v922h267v-359h327v359h267v-922h-267v358h-327v-358h-267z" />
<glyph unicode="&#x43e;" horiz-adv-x="1126" d="M72 461q0 215 135.5 348t355.5 133t356 -133t136 -348t-136 -348t-356 -133t-355.5 133t-135.5 348zM348 461q0 -109 60 -177.5t155 -68.5t155 68.5t60 177.5t-60 177.5t-155 68.5t-155 -68.5t-60 -177.5z" />
<glyph unicode="&#x43f;" horiz-adv-x="1044" d="M102 0v922h840v-922h-266v717h-307v-717h-267z" />
<glyph unicode="&#x440;" horiz-adv-x="1105" d="M102 -512v1434h267v-62q105 82 241 82q190 0 307 -133t117 -348t-130 -348t-341 -133q-110 0 -194 40v-532h-267zM369 272q57 -57 166 -57q98 0 160.5 68.5t62.5 177.5t-62.5 177.5t-160.5 68.5q-106 0 -166 -66v-369z" />
<glyph unicode="&#x441;" horiz-adv-x="952" d="M72 461q0 215 133 348t350 133q209 0 346 -143l-162 -162q-60 70 -168 70q-98 0 -160.5 -68.5t-62.5 -177.5t62.5 -177.5t160.5 -68.5q109 0 168 68l162 -162q-135 -141 -346 -141q-217 0 -350 133t-133 348z" />
<glyph unicode="&#x442;" horiz-adv-x="903" d="M61 717v205h779v-205h-256v-717h-267v717h-256z" />
<glyph unicode="&#x443;" horiz-adv-x="1081" d="M10 922h297l236 -598l231 598h297l-645 -1434h-297l289 512z" />
<glyph unicode="&#x444;" horiz-adv-x="1474" d="M72 461q0 214 135 342.5t356 128.5q27 0 41 -2v606h266v-606q12 2 41 2q221 0 356.5 -128.5t135.5 -342.5t-135.5 -342.5t-356.5 -128.5q-29 0 -41 2v-504h-266v504q-14 -2 -41 -2q-221 0 -356 128.5t-135 342.5zM348 461q0 -109 60 -177.5t155 -68.5q27 0 41 2v485 q-35 5 -41 5q-95 0 -155 -68.5t-60 -177.5zM870 217q12 -2 41 -2q95 0 155 68.5t60 177.5t-60 177.5t-155 68.5q-11 0 -41 -5v-485z" />
<glyph unicode="&#x445;" horiz-adv-x="1087" d="M20 0l349 473l-330 449h307l197 -281l196 281h308l-330 -449l350 -473h-305l-219 307l-217 -307h-306z" />
<glyph unicode="&#x446;" horiz-adv-x="1105" d="M102 0v922h267v-717h307v717h266v-717h123v-451h-246v246h-717z" />
<glyph unicode="&#x447;" horiz-adv-x="980" d="M102 651v271h267v-260q0 -60 31.5 -95t93.5 -35q73 0 118 31v359h267v-922h-267v346q-96 -29 -188 -29q-156 0 -239 90.5t-83 243.5z" />
<glyph unicode="&#x448;" horiz-adv-x="1454" d="M102 0v922h267v-717h225v717h266v-717h225v717h267v-922h-1250z" />
<glyph unicode="&#x449;" horiz-adv-x="1515" d="M102 0v922h267v-717h225v717h266v-717h225v717h267v-717h123v-451h-246v246h-1127z" />
<glyph unicode="&#x44a;" horiz-adv-x="1081" d="M61 717v205h502v-347h117q162 0 251 -79t89 -209q0 -128 -89.5 -207.5t-250.5 -79.5h-383v717h-236zM563 195h107q34 0 59 27t25 65q0 39 -25 66.5t-59 27.5h-107v-186z" />
<glyph unicode="&#x44b;" horiz-adv-x="1286" d="M102 0v922h267v-347h116q162 0 251 -79t89 -209q0 -128 -89.5 -207.5t-250.5 -79.5h-383zM369 195h106q34 0 59 27t25 65q0 39 -25 66.5t-59 27.5h-106v-186zM918 0v922h266v-922h-266z" />
<glyph unicode="&#x44c;" horiz-adv-x="886" d="M102 0v922h267v-347h116q162 0 251 -79t89 -209q0 -128 -89.5 -207.5t-250.5 -79.5h-383zM369 195h106q34 0 59 27t25 65q0 39 -25 66.5t-59 27.5h-106v-186z" />
<glyph unicode="&#x44d;" horiz-adv-x="952" d="M51 123l162 162q60 -70 168 -70q74 0 130 41.5t79 112.5h-303v184h303q-23 71 -79 112.5t-130 41.5q-109 0 -168 -68l-162 162q135 141 346 141q217 0 350.5 -133t133.5 -348t-133.5 -348t-350.5 -133q-209 0 -346 143z" />
<glyph unicode="&#x44e;" horiz-adv-x="1544" d="M102 0v922h267v-359h151q31 173 158 276t315 103q215 0 348.5 -133t133.5 -348t-133.5 -348t-348.5 -133q-188 0 -315 102.5t-158 275.5h-151v-358h-267zM788 461q0 -109 57 -177.5t148 -68.5t148 68.5t57 177.5t-57 177.5t-148 68.5t-148 -68.5t-57 -177.5z" />
<glyph unicode="&#x44f;" horiz-adv-x="968" d="M72 0l202 365q-87 33 -132.5 102t-45.5 162q0 131 91 212t255 81h424v-922h-266v338h-94l-160 -338h-274zM365 631q0 -41 26 -70t62 -29h147v195h-147q-36 0 -62 -28.5t-26 -67.5z" />
<glyph unicode="&#x450;" horiz-adv-x="1026" d="M72 467q0 212 126 343.5t332 131.5q212 0 323.5 -147.5t111.5 -415.5h-609q21 -78 78 -121t150 -43q116 0 178 68l158 -162q-138 -141 -357 -141q-221 0 -356 133.5t-135 353.5zM276 1311l132 131l299 -299l-132 -131zM356 559h342q-30 154 -161 154q-71 0 -118.5 -41.5 t-62.5 -112.5z" />
<glyph unicode="&#x451;" horiz-adv-x="1026" d="M72 467q0 212 126 343.5t332 131.5q212 0 323.5 -147.5t111.5 -415.5h-609q21 -78 78 -121t150 -43q116 0 178 68l158 -162q-138 -141 -357 -141q-221 0 -356 133.5t-135 353.5zM188 1137q0 60 42 101.5t102 41.5t101.5 -41.5t41.5 -101.5t-41.5 -102t-101.5 -42t-102 42 t-42 102zM356 559h342q-30 154 -161 154q-71 0 -118.5 -41.5t-62.5 -112.5zM588 1137q0 61 41.5 103t101.5 42q62 0 104 -42t42 -103q0 -60 -42.5 -102t-103.5 -42q-60 0 -101.5 42t-41.5 102z" />
<glyph unicode="&#x452;" horiz-adv-x="1114" d="M61 1126v205h103v205h266v-205h297v-205h-297v-266q102 82 238 82q158 0 251 -109.5t93 -289.5v-801q0 -120 -65.5 -193t-190.5 -73q-62 0 -97 12v174q39 0 62.5 23.5t23.5 64.5v793q0 73 -41 118.5t-108 45.5q-106 0 -166 -66v-641h-266v1126h-103z" />
<glyph unicode="&#x453;" horiz-adv-x="747" d="M102 0v922h584v-205h-317v-717h-267zM219 1143l299 299l131 -131l-299 -299z" />
<glyph unicode="&#x454;" horiz-adv-x="952" d="M72 461q0 215 133 348t350 133q209 0 346 -143l-162 -162q-60 70 -168 70q-76 0 -132 -41.5t-79 -112.5h336v-184h-336q23 -71 79 -112.5t132 -41.5q109 0 168 68l162 -162q-135 -141 -346 -141q-217 0 -350 133t-133 348z" />
<glyph unicode="&#x455;" horiz-adv-x="796" d="M57 123l162 162q32 -37 74 -61.5t84 -24.5t67 25t25 55q0 28 -28 49.5t-70 35t-90.5 36t-90.5 50t-70 79t-28 120.5q0 124 84 208.5t230 84.5q90 0 172.5 -33.5t142.5 -93.5l-162 -162q-26 28 -62 48t-69 20q-34 0 -52 -21.5t-18 -46.5q0 -29 28 -52t70 -37.5t90.5 -37.5 t90.5 -50t70 -77.5t28 -117.5q0 -128 -91.5 -214.5t-246.5 -86.5q-99 0 -187 37.5t-153 105.5z" />
<glyph unicode="&#x456;" d="M82 1198q0 64 45 109t109 45t108.5 -44.5t44.5 -109.5t-44.5 -109.5t-108.5 -44.5t-109 45t-45 109zM102 0v922h267v-922h-267z" />
<glyph unicode="&#x457;" d="M-88 1157q0 60 41.5 101.5t101.5 41.5t102 -41.5t42 -101.5t-42 -101.5t-102 -41.5t-101.5 41.5t-41.5 101.5zM102 0v922h267v-922h-267zM270 1157q0 61 42 103.5t102 42.5q61 0 103 -42t42 -104q0 -60 -42 -101.5t-103 -41.5q-60 0 -102 41.5t-42 101.5z" />
<glyph unicode="&#x458;" d="M16 -338q39 0 62.5 23.5t23.5 64.5v1172h267v-1180q0 -120 -65.5 -193t-190.5 -73q-63 0 -97 12v174zM82 1198q0 64 45 109t109 45t108.5 -44.5t44.5 -109.5t-44.5 -109.5t-108.5 -44.5t-109 45t-45 109z" />
<glyph unicode="&#x459;" horiz-adv-x="1449" d="M57 0v174q67 0 107.5 41.5t40.5 112.5v594h727v-347h117q162 0 251 -79t89 -209q0 -128 -89.5 -207.5t-250.5 -79.5h-383v717h-195v-402q0 -148 -77 -237.5t-224 -89.5q-72 0 -113 12zM932 195h106q34 0 59 27t25 65q0 39 -25 66.5t-59 27.5h-106v-186z" />
<glyph unicode="&#x45a;" horiz-adv-x="1501" d="M102 0v922h267v-359h327v359h267v-359h133q162 0 248 -76.5t86 -205.5q0 -128 -86 -204.5t-248 -76.5h-400v358h-327v-358h-267zM963 195h122q35 0 56.5 21.5t21.5 59.5q0 39 -21.5 60.5t-56.5 21.5h-122v-163z" />
<glyph unicode="&#x45b;" horiz-adv-x="1114" d="M61 1126v205h103v205h266v-205h297v-205h-297v-266q102 82 238 82q158 0 251 -109.5t93 -289.5v-543h-267v543q0 73 -41 118.5t-108 45.5q-106 0 -166 -66v-641h-266v1126h-103z" />
<glyph unicode="&#x45c;" horiz-adv-x="1013" d="M102 0v922h267v-365l274 365h313l-333 -428l370 -494h-311l-313 426v-426h-267zM332 1143l299 299l131 -131l-299 -299z" />
<glyph unicode="&#x45d;" horiz-adv-x="1064" d="M102 0v922h267v-492l389 492h205v-922h-267v492l-389 -492h-205zM276 1311l132 131l299 -299l-132 -131z" />
<glyph unicode="&#x45e;" horiz-adv-x="1081" d="M10 922h297l236 -598l231 598h297l-645 -1434h-297l289 512zM217 1169l129 129q69 -75 195 -75q127 0 194 73l129 -129q-126 -135 -323 -135q-194 0 -324 137z" />
<glyph unicode="&#x45f;" horiz-adv-x="1044" d="M102 0v922h267v-717h307v717h266v-922h-297v-246h-246v246h-297z" />
<glyph unicode="&#x490;" horiz-adv-x="931" d="M102 0v1434h533v256h205v-482h-461v-1208h-277z" />
<glyph unicode="&#x491;" horiz-adv-x="747" d="M102 0v922h359v204h205v-409h-297v-717h-267z" />
<glyph unicode="&#x4d8;" horiz-adv-x="1495" d="M82 717v102h1036q-31 176 -154 282.5t-302 106.5q-215 0 -345 -133l-174 174q98 98 234.5 151.5t298.5 53.5q217 0 384.5 -92.5t260 -260t92.5 -384.5q0 -329 -184 -533t-481 -204q-296 0 -481 204.5t-185 532.5zM381 594q28 -168 126.5 -268.5t240.5 -100.5 q140 0 239 100.5t127 268.5h-733z" />
<glyph unicode="&#x4d9;" horiz-adv-x="1026" d="M72 543h608q-21 78 -78 121t-149 43q-117 0 -179 -68l-157 162q138 141 356 141q221 0 356.5 -133.5t135.5 -353.5q0 -212 -126.5 -343.5t-332.5 -131.5q-212 0 -323 147.5t-111 415.5zM338 362q30 -153 162 -153q71 0 118 41t62 112h-342z" />
<glyph unicode="&#x2000;" horiz-adv-x="956" />
<glyph unicode="&#x2001;" horiz-adv-x="1913" />
<glyph unicode="&#x2002;" horiz-adv-x="956" />
<glyph unicode="&#x2003;" horiz-adv-x="1913" />
<glyph unicode="&#x2004;" horiz-adv-x="637" />
<glyph unicode="&#x2005;" horiz-adv-x="478" />
<glyph unicode="&#x2006;" horiz-adv-x="318" />
<glyph unicode="&#x2007;" horiz-adv-x="318" />
<glyph unicode="&#x2008;" horiz-adv-x="239" />
<glyph unicode="&#x2009;" horiz-adv-x="382" />
<glyph unicode="&#x200a;" horiz-adv-x="106" />
<glyph unicode="&#x2010;" horiz-adv-x="696" d="M82 451v204h532v-204h-532z" />
<glyph unicode="&#x2011;" horiz-adv-x="696" d="M82 451v204h532v-204h-532z" />
<glyph unicode="&#x2012;" horiz-adv-x="1024" d="M82 614v205h860v-205h-860z" />
<glyph unicode="&#x2013;" horiz-adv-x="1024" d="M82 451v204h860v-204h-860z" />
<glyph unicode="&#x2014;" horiz-adv-x="1433" d="M82 451v204h1270v-204h-1270z" />
<glyph unicode="&#x2018;" d="M82 1061q0 103 62.5 199t162.5 194l82 -82q-87 -90 -119 -178q53 -12 86 -53.5t33 -96.5q0 -64 -44.5 -108.5t-108.5 -44.5q-26 0 -51 8.5t-49 26.5t-39 53t-15 82z" />
<glyph unicode="&#x2019;" d="M82 973q87 90 119 178q-53 12 -86 53t-33 96q0 64 45 109t109 45q26 0 51 -8.5t49 -26.5t38.5 -53t14.5 -82q0 -103 -62.5 -199t-162.5 -194z" />
<glyph unicode="&#x201a;" d="M82 133q0 65 45 109.5t109 44.5q26 0 51 -8.5t49 -26.5t38.5 -53t14.5 -82q0 -103 -62.5 -199t-162.5 -194l-82 81q86 89 119 179q-53 12 -86 53t-33 96z" />
<glyph unicode="&#x201c;" horiz-adv-x="819" d="M82 1163q0 103 62.5 199t162.5 194l82 -81q-86 -89 -119 -179q53 -12 86 -53t33 -96q0 -65 -44.5 -109.5t-108.5 -44.5q-26 0 -51 8.5t-49 26.5t-39 53t-15 82zM430 1163q0 103 62.5 199t162.5 194l82 -81q-86 -89 -119 -179q53 -12 86 -53t33 -96q0 -65 -44.5 -109.5 t-108.5 -44.5q-26 0 -51 8.5t-49 26.5t-39 53t-15 82z" />
<glyph unicode="&#x201d;" horiz-adv-x="819" d="M82 1075q87 90 119 178q-53 12 -86 53.5t-33 96.5q0 64 44.5 108.5t109.5 44.5q26 0 51 -8.5t49 -26.5t38.5 -53t14.5 -82q0 -103 -62.5 -199t-162.5 -194zM430 1075q87 90 119 178q-53 12 -86 53.5t-33 96.5q0 64 44.5 108.5t109.5 44.5q26 0 51 -8.5t49 -26.5t38.5 -53 t14.5 -82q0 -103 -62.5 -199t-162.5 -194z" />
<glyph unicode="&#x201e;" horiz-adv-x="819" d="M82 133q0 65 45 109.5t109 44.5q26 0 51 -8.5t49 -26.5t38.5 -53t14.5 -82q0 -103 -62.5 -199t-162.5 -194l-82 81q86 89 119 179q-53 12 -86 53t-33 96zM430 133q0 65 45 109.5t109 44.5q26 0 51 -8.5t49 -26.5t38.5 -53t14.5 -82q0 -103 -62.5 -199t-162.5 -194l-82 81 q86 89 119 179q-53 12 -86 53t-33 96z" />
<glyph unicode="&#x2020;" horiz-adv-x="1024" d="M82 717v205h297v614h266v-614h297v-205h-297v-1229h-266v1229h-297z" />
<glyph unicode="&#x2021;" horiz-adv-x="1024" d="M82 102v205h297v410h-297v205h297v614h266v-614h297v-205h-297v-410h297v-205h-297v-614h-266v614h-297z" />
<glyph unicode="&#x2022;" horiz-adv-x="528" d="M72 563q0 82 55 137.5t137 55.5t137.5 -55.5t55.5 -137.5t-55.5 -137t-137.5 -55t-137 55t-55 137z" />
<glyph unicode="&#x2026;" horiz-adv-x="1413" d="M82 133q0 65 45 109.5t109 44.5t108.5 -44.5t44.5 -109.5t-44.5 -109t-108.5 -44q-65 0 -109.5 44.5t-44.5 108.5zM553 133q0 65 44.5 109.5t109.5 44.5q64 0 108.5 -44.5t44.5 -109.5t-44 -109t-109 -44t-109.5 44.5t-44.5 108.5zM1024 133q0 65 45 109.5t109 44.5 t108.5 -44.5t44.5 -109.5t-44.5 -109t-108.5 -44q-65 0 -109.5 44.5t-44.5 108.5z" />
<glyph unicode="&#x202f;" horiz-adv-x="382" />
<glyph unicode="&#x2030;" horiz-adv-x="2719" d="M61 1075q0 169 108.5 274t281.5 105t281 -105t108 -274t-108 -274t-281 -105t-281.5 105t-108.5 274zM297 1075q0 -81 43 -132.5t111 -51.5t110.5 51t42.5 133t-42.5 133.5t-110.5 51.5t-111 -51.5t-43 -133.5zM418 0l778 1434h266l-778 -1434h-266zM1040 358 q0 169 108.5 274t281.5 105t281 -105t108 -274t-108 -273.5t-281 -104.5t-281.5 104.5t-108.5 273.5zM1276 358q0 -81 43 -132.5t111 -51.5t110.5 51t42.5 133t-42.5 133.5t-110.5 51.5t-111 -51.5t-43 -133.5zM1880 358q0 169 108 274t281 105t281 -105t108 -274 t-108 -273.5t-281 -104.5t-281 104.5t-108 273.5zM2116 358q0 -82 42.5 -133t110.5 -51t111 51.5t43 132.5q0 82 -43 133.5t-111 51.5t-110.5 -51.5t-42.5 -133.5z" />
<glyph unicode="&#x2039;" horiz-adv-x="593" d="M41 512l360 360l131 -131l-229 -229l229 -229l-131 -131z" />
<glyph unicode="&#x203a;" horiz-adv-x="593" d="M61 283l230 229l-230 229l132 131l360 -360l-360 -360z" />
<glyph unicode="&#x2044;" horiz-adv-x="1085" d="M61 0l779 1434h184l-778 -1434h-185z" />
<glyph unicode="&#x205f;" horiz-adv-x="478" />
<glyph unicode="&#x20ac;" horiz-adv-x="1505" d="M61 512v143h115q-2 20 -2 62q0 41 2 61h-115v144h136q61 245 251 388.5t463 143.5q162 0 298.5 -53.5t234.5 -151.5l-174 -174q-130 133 -344 133q-152 0 -265 -76.5t-165 -209.5h436v-144h-469q-2 -20 -2 -61q0 -42 2 -62h469v-143h-436q52 -134 165 -210.5t265 -76.5 q213 0 344 131l174 -172q-98 -98 -234.5 -151t-298.5 -53q-273 0 -463 143.5t-251 388.5h-136z" />
<glyph unicode="&#x20b4;" horiz-adv-x="901" d="M61 522v144h168l113 112h-281v144h424l15 14q30 30 43.5 60t13.5 73q0 64 -45 106t-113 42q-104 0 -163 -72l-168 168q128 141 331 141q192 0 311 -104.5t119 -272.5q0 -85 -36 -155h47v-144h-158l-113 -112h271v-144h-414l-25 -24q-30 -30 -43.5 -60t-13.5 -73 q0 -64 45 -106t113 -42q105 0 164 72l168 -168q-128 -141 -332 -141q-192 0 -311 104.5t-119 271.5q0 88 43 166h-54z" />
<glyph unicode="&#x2122;" horiz-adv-x="1390" d="M39 1313v121h510v-121h-180v-596h-150v596h-180zM621 717v717h110l246 -357l246 357h110v-717h-149v416l-183 -277h-49l-182 277v-416h-149z" />
<glyph unicode="&#x25fc;" horiz-adv-x="921" d="M0 0v922h922v-922h-922z" />
<glyph horiz-adv-x="1105" d="M72 461q0 215 138.5 348t364.5 133q142 0 254 -50.5t175 -141.5v-781q0 -232 -136.5 -366.5t-363.5 -134.5q-228 0 -371 143l162 162q70 -70 190 -70q118 0 185 69t67 197v62q-97 -51 -219 -51q-198 0 -322 133t-124 348zM348 461q0 -109 60 -177.5t155 -68.5 q115 0 174 84v356q-65 52 -168 52q-98 0 -159.5 -68.5t-61.5 -177.5z" />
<glyph horiz-adv-x="1613" d="M41 225h100l537 1209h258l537 -1209h100v-532h-256v307h-1020v-307h-256v532zM461 225h692l-346 852z" />
<glyph horiz-adv-x="1572" d="M20 0l637 1434h258l637 -1434h-327l-439 1067l-438 -1067h-328z" />
<glyph horiz-adv-x="2107" d="M20 0l637 1434h258l254 -574h387q212 0 340.5 -117t128.5 -313t-128.5 -313t-340.5 -117h-331l-439 1067l-438 -1067h-328zM1274 625l174 -389h108q82 0 132.5 53.5t50.5 140.5q0 88 -50.5 141.5t-132.5 53.5h-282z" />
<glyph horiz-adv-x="1105" d="M72 461q0 215 138.5 348t364.5 133q142 0 254 -50.5t175 -141.5v-750h-267v61q-104 -81 -241 -81q-190 0 -307 133t-117 348zM348 461q0 -109 62.5 -177.5t160.5 -68.5q109 0 166 66v374q-65 52 -168 52q-98 0 -159.5 -68.5t-61.5 -177.5z" />
<glyph horiz-adv-x="1150" d="M45 205h90l318 717h245l318 -717h90v-451h-246v246h-569v-246h-246v451zM424 205h303l-152 411z" />
<glyph horiz-adv-x="1081" d="M10 0l408 922h246l407 -922h-297l-233 600l-234 -600h-297z" />
<glyph horiz-adv-x="1480" d="M10 0l408 922h246l151 -347h264q162 0 251 -79t89 -209q0 -128 -89.5 -207.5t-250.5 -79.5h-305l-233 600l-234 -600h-297zM901 381l84 -186h84q34 0 59 27t25 65q0 39 -25 66.5t-59 27.5h-168z" />
<glyph horiz-adv-x="1105" d="M72 461q0 215 138.5 348t364.5 133q142 0 254 -50.5t175 -141.5v-750h-267v61q-104 -81 -241 -81q-190 0 -307 133t-117 348zM348 461q0 -109 62.5 -177.5t160.5 -68.5q109 0 166 66v374q-65 52 -168 52q-98 0 -159.5 -68.5t-61.5 -177.5z" />
<glyph horiz-adv-x="1085" d="M59 717q0 217 60.5 384.5t170.5 260t253 92.5q216 0 349.5 -204t133.5 -533t-133.5 -533t-349.5 -204q-143 0 -253 92.5t-170.5 260t-60.5 384.5zM336 717q0 -223 57.5 -362.5t149.5 -139.5t149.5 139.5t57.5 362.5t-57.5 362.5t-149.5 139.5t-149.5 -139.5t-57.5 -362.5 z" />
<glyph horiz-adv-x="1085" d="M158 1167v205l508 72v-1239h223v-205h-711v205h221v997z" />
<glyph horiz-adv-x="1617" d="M72 717q0 217 92 384.5t260.5 260t386.5 92.5q162 0 300.5 -53t233.5 -144t148 -216t53 -267q0 -112 -33.5 -196.5t-88 -129.5t-114.5 -66.5t-124 -21.5q-140 0 -201 86q-83 -86 -209 -86q-141 0 -227 98.5t-86 258.5t103 258t270 98q105 0 188 -37.5t129 -103.5v-307 q0 -44 24 -67t54 -23q47 0 78.5 53.5t31.5 161.5q0 237 -148 383.5t-382 146.5q-239 0 -387 -156t-148 -407t148.5 -407t392.5 -156q119 0 227.5 38.5t178.5 110.5l125 -123q-95 -98 -234.5 -149t-300.5 -51q-332 0 -536.5 204t-204.5 533zM668 717q0 -81 46 -131.5 t120 -50.5q78 0 122 47v278q-45 39 -125 39q-72 0 -117.5 -50.5t-45.5 -131.5z" />
<glyph horiz-adv-x="593" d="M82 717q0 245 59 437.5t161.5 297t229.5 104.5v-194q-70 0 -122 -183t-52 -462t52 -462t122 -183v-195q-127 0 -229.5 104.5t-161.5 297.5t-59 438z" />
<glyph horiz-adv-x="593" d="M61 72q70 0 122.5 183t52.5 462t-52.5 462t-122.5 183v194q127 0 230 -104.5t162 -297t59 -437.5q0 -184 -34.5 -341.5t-94.5 -266.5t-143.5 -170.5t-178.5 -61.5v195z" />
<glyph horiz-adv-x="614" d="M102 -102v1638h451v-205h-184v-1229h184v-204h-451z" />
<glyph horiz-adv-x="614" d="M61 -102v204h185v1229h-185v205h451v-1638h-451z" />
<glyph horiz-adv-x="624" d="M61 614v195q44 0 78.5 64.5t34.5 160.5v146q0 166 111 271t278 105v-194q-45 0 -78.5 -62t-33.5 -157v-139q0 -98 -45 -173.5t-125 -119.5q80 -42 125 -117t45 -174v-131q0 -94 34 -155.5t78 -61.5v-195q-167 0 -278 105.5t-111 271.5v135q0 96 -34.5 160.5t-78.5 64.5z " />
<glyph horiz-adv-x="624" d="M61 72q45 0 79 62t34 155v131q0 99 45 174t125 117q-80 44 -125 119.5t-45 173.5v139q0 95 -34 157t-79 62v194q168 0 279 -105t111 -271v-146q0 -97 34 -161t78 -64v-195q-44 0 -78 -64t-34 -161v-135q0 -166 -111.5 -271.5t-278.5 -105.5v195z" />
<glyph horiz-adv-x="985" d="M72 365q0 68 23 122t57 86.5t74.5 67t74.5 63.5t57 75t23 102v123h266v-123q0 -70 -16.5 -129.5t-43 -100t-58 -74.5t-63.5 -59.5t-58.5 -48t-43 -48t-16.5 -52.5q0 -58 46.5 -106t127.5 -48q128 0 242 92l170 -170q-97 -79 -197 -118t-223 -39q-197 0 -319.5 110 t-122.5 275zM360 1300q0 64 45 109t109 45t109 -45t45 -109t-44.5 -108.5t-109.5 -44.5t-109.5 44.5t-44.5 108.5z" />
<glyph horiz-adv-x="962" d="M41 717l360 360l131 -131l-229 -229l229 -230l-131 -131zM410 717l360 360l131 -131l-229 -229l229 -230l-131 -131z" />
<glyph horiz-adv-x="962" d="M61 487l230 230l-230 229l132 131l360 -360l-360 -361zM430 487l229 230l-229 229l131 131l361 -360l-361 -361z" />
<glyph horiz-adv-x="593" d="M41 717l360 360l131 -131l-229 -229l229 -230l-131 -131z" />
<glyph horiz-adv-x="593" d="M61 487l230 230l-230 229l132 131l360 -360l-360 -361z" />
<glyph horiz-adv-x="696" d="M82 614v205h532v-205h-532z" />
<glyph horiz-adv-x="1024" d="M82 614v205h860v-205h-860z" />
<glyph horiz-adv-x="1433" d="M82 614v205h1270v-205h-1270z" />
<glyph d="M102 -102v1638h267v-1638h-267z" />
<glyph horiz-adv-x="1024" d="M82 922v204h297v410h266v-410h297v-204h-297v-1024h-266v1024h-297z" />
<glyph horiz-adv-x="1024" d="M82 307v205h297v410h-297v204h297v410h266v-410h297v-204h-297v-410h297v-205h-297v-409h-266v409h-297z" />
<glyph horiz-adv-x="1234" d="M20 0l478 1032h237l479 -1032h-299l-79 172h-439l-80 -172h-297zM487 397h258l-129 299z" />
<glyph horiz-adv-x="911" d="M76 0v1032h373q146 0 233.5 -76t87.5 -204q0 -119 -80 -199q65 -40 101 -105.5t36 -146.5q0 -137 -96 -219t-254 -82h-401zM342 217h123q47 0 76.5 29t29.5 76t-29.5 76.5t-76.5 29.5h-123v-211zM342 643h88q38 0 62 24t24 62q0 39 -23.5 62.5t-62.5 23.5h-88v-172z" />
<glyph horiz-adv-x="1093" d="M74 516q0 238 155 385.5t404 147.5t401 -146l-160 -160q-83 80 -227 80q-137 0 -222 -85.5t-85 -221.5t85 -221.5t222 -85.5q139 0 227 78l160 -158q-151 -145 -401 -145q-249 0 -404 147t-155 385z" />
<glyph horiz-adv-x="1122" d="M76 0v1032h413q252 0 406 -140t154 -376t-154 -376t-406 -140h-413zM342 217h147q130 0 212.5 82t82.5 217t-82.5 217t-212.5 82h-147v-598z" />
<glyph horiz-adv-x="751" d="M76 0v1032h604v-207h-348v-209h303v-206h-303v-203h356v-207h-612z" />
<glyph horiz-adv-x="724" d="M76 0v1032h592v-207h-336v-209h295v-206h-295v-410h-256z" />
<glyph horiz-adv-x="1112" d="M74 516q0 238 155 385.5t404 147.5t401 -146l-160 -160q-83 80 -227 80q-137 0 -222 -85.5t-85 -221.5t85 -221.5t222 -85.5q76 0 133 8v172h-147v205h401v-465q-151 -145 -401 -145q-249 0 -404 147t-155 385z" />
<glyph horiz-adv-x="1075" d="M76 0v1032h256v-416h413v416h254v-1032h-254v410h-413v-410h-256z" />
<glyph horiz-adv-x="411" d="M78 0v1032h256v-1032h-256z" />
<glyph horiz-adv-x="413" d="M70 1206q0 57 39 96t96 39q58 0 97.5 -39t39.5 -96t-39.5 -96t-97.5 -39q-57 0 -96 39t-39 96zM80 0v1032h254v-1032h-254z" />
<glyph horiz-adv-x="727" d="M57 72l162 161q27 -24 74 -24q44 0 72 26.5t28 69.5v727h256v-727q0 -143 -96.5 -232t-247.5 -89q-73 0 -138.5 23.5t-109.5 64.5z" />
<glyph horiz-adv-x="1032" d="M78 0v1032h256v-444l317 444h322l-357 -497l398 -535h-330l-350 481v-481h-256z" />
<glyph horiz-adv-x="741" d="M76 0v1032h256v-825h352v-207h-608z" />
<glyph horiz-adv-x="743" d="M76 0v1032h256v-825h352v-207h-608zM422 479q0 57 39 96t96 39t97 -39t40 -96t-40 -96t-97 -39t-96 39t-39 96z" />
<glyph horiz-adv-x="1239" d="M76 0v1032h188l354 -465l357 465h188v-1032h-256v516l-248 -330h-79l-248 330v-516h-256z" />
<glyph horiz-adv-x="1116" d="M76 0v1032h157l551 -538v538h256v-1032h-157l-551 539v-539h-256z" />
<glyph horiz-adv-x="1265" d="M74 516q0 238 155 385.5t404 147.5q250 0 404.5 -147.5t154.5 -385.5t-154.5 -385t-404.5 -147q-249 0 -404 147t-155 385zM340 516q0 -137 81.5 -222t211.5 -85t212.5 85.5t82.5 221.5t-82.5 221.5t-212.5 85.5t-211.5 -85t-81.5 -222z" />
<glyph horiz-adv-x="872" d="M76 0v1032h350q168 0 270.5 -87.5t102.5 -235.5q0 -147 -102.5 -235.5t-270.5 -88.5h-84v-385h-266zM342 602h84q47 0 78 30t31 77q0 49 -30.5 77.5t-78.5 28.5h-84v-213z" />
<glyph horiz-adv-x="1265" d="M74 516q0 238 155 385.5t404 147.5q250 0 404.5 -147.5t154.5 -385.5q0 -164 -84 -297l92 -86l-160 -160l-92 86q-132 -75 -315 -75q-249 0 -404 147t-155 385zM340 516q0 -136 82 -221.5t211 -85.5q108 0 149 14l-125 119l158 160l103 -96q10 65 10 110q0 136 -82 221.5 t-213 85.5q-129 0 -211 -85.5t-82 -221.5z" />
<glyph horiz-adv-x="907" d="M76 0v1032h368q168 0 270.5 -87.5t102.5 -235.5q0 -95 -45.5 -168t-126.5 -113l236 -428h-291l-189 385h-59v-385h-266zM342 602h102q47 0 77 30t30 77q0 49 -29.5 77.5t-77.5 28.5h-102v-213z" />
<glyph horiz-adv-x="925" d="M68 154l155 157q118 -102 215 -102q57 0 93 29t36 65q0 28 -25.5 48.5t-66.5 35t-90 30t-98.5 39.5t-90.5 56.5t-66.5 87.5t-25.5 127q0 142 92 232t250 90q207 0 369 -152l-158 -156q-91 82 -182 82q-49 0 -77.5 -28.5t-28.5 -59.5q0 -28 25.5 -49.5t66.5 -37t91 -31.5 t99.5 -40.5t90.5 -57t66.5 -86.5t25.5 -124q0 -146 -100 -235.5t-269 -89.5q-218 0 -397 170z" />
<glyph horiz-adv-x="892" d="M57 825v207h774v-207h-258v-825h-256v825h-260z" />
<glyph horiz-adv-x="1085" d="M66 983q0 211 130 341t341 130q212 0 342.5 -130t130.5 -341q0 -186 -160 -346l-414 -412h574v-225h-938v215l604 602q57 57 57 166q0 103 -54.5 168.5t-141.5 65.5q-86 0 -140.5 -65.5t-54.5 -168.5h-276z" />
<glyph horiz-adv-x="1085" d="M63 434h277q0 -97 57 -158t146 -61t145.5 61t56.5 158t-56.5 160t-145.5 63h-94v222h94q70 0 116 49t46 123q0 73 -45.5 120.5t-116.5 47.5t-116.5 -47.5t-45.5 -120.5h-277q0 179 122 291t317 112q196 0 317 -112t121 -291q0 -180 -133 -279q174 -115 174 -338 q0 -201 -133 -327.5t-346 -126.5t-346.5 126.5t-133.5 327.5z" />
<glyph horiz-adv-x="1085" d="M29 246v112l610 1076h266v-963h113v-225h-103v-246h-266v246h-620zM362 471h297v565z" />
<glyph horiz-adv-x="1085" d="M66 440h266q0 -98 57 -160.5t148 -62.5q87 0 141.5 65.5t54.5 168.5q0 114 -65.5 185t-169.5 71q-109 0 -174 -72l-195 59l78 740h690v-226h-455l-28 -278q44 12 100 12q223 0 359.5 -135.5t136.5 -355.5q0 -211 -130.5 -341t-342.5 -130q-211 0 -341 127t-130 333z" />
<glyph horiz-adv-x="1085" d="M70 463q0 166 74 352.5t185 343.5t251 295l229 -131q-90 -92 -182 -212t-150 -226q30 6 70 6q208 0 338.5 -124t130.5 -329q0 -204 -131 -331t-344 -127t-342 128t-129 355zM346 440q0 -99 55 -162t142 -63q86 0 141 62.5t55 162.5t-55 163t-141 63t-141.5 -63 t-55.5 -163z" />
<glyph horiz-adv-x="1085" d="M74 1208v226h938v-72l-463 -1362h-283l398 1208h-590z" />
<glyph horiz-adv-x="1085" d="M63 434q0 223 170 338q-129 98 -129 279q0 179 122 291t317 112t316.5 -112t121.5 -291q0 -180 -133 -279q174 -115 174 -338q0 -201 -133 -327.5t-346 -126.5t-346.5 126.5t-133.5 327.5zM340 434q0 -97 57 -158t146 -61t145.5 61t56.5 158t-56.5 158t-145.5 61 t-146 -61t-57 -158zM381 1051q0 -73 45.5 -120.5t116.5 -47.5t116.5 47.5t45.5 120.5t-45.5 120.5t-116.5 47.5t-116.5 -47.5t-45.5 -120.5z" />
<glyph horiz-adv-x="1085" d="M74 995q0 205 129.5 332t341.5 127q211 0 339 -128.5t128 -354.5q0 -126 -41.5 -263.5t-113.5 -265.5t-160.5 -244t-190.5 -218l-230 131q91 93 182.5 212.5t147.5 225.5q-30 -6 -67 -6q-206 0 -335.5 123.5t-129.5 328.5zM350 993q0 -100 54 -162.5t139 -62.5 t138.5 62.5t53.5 162.5t-53.5 163t-138.5 63t-139 -63t-54 -163z" />
<glyph d="M82 1300q0 64 45 109t109 45t108.5 -44.5t44.5 -109.5q0 -64 -44.5 -108.5t-108.5 -44.5q-65 0 -109.5 44.5t-44.5 108.5zM102 0v1004h267v-1004h-267z" />
<glyph horiz-adv-x="1234" d="M20 1032h304l292 -692l295 692h303l-479 -1032h-237z" />
<glyph horiz-adv-x="1681" d="M20 1032h299l199 -624l191 624h264l190 -624l199 624h299l-371 -1032h-256l-194 580l-193 -580h-256z" />
<glyph horiz-adv-x="1198" d="M18 0l390 526l-373 506h330l233 -332l233 332h332l-375 -506l392 -526h-330l-252 354l-250 -354h-330z" />
<glyph horiz-adv-x="1105" d="M20 1032h293l240 -389l238 389h292l-403 -641v-391h-256v393z" />
<glyph horiz-adv-x="1003" d="M74 0v61l477 764h-471v207h852v-59l-477 -766h475v-207h-856z" />
<glyph horiz-adv-x="1234" d="M20 0l478 1032h237l479 -1032h-299l-79 172h-439l-80 -172h-297zM487 397h258l-129 299z" />
<glyph horiz-adv-x="882" d="M76 0v1032h639v-207h-373v-178h94q168 0 270.5 -88t102.5 -235q0 -148 -102.5 -236t-270.5 -88h-360zM342 217h94q48 0 77.5 29t29.5 78q0 47 -30 76.5t-77 29.5h-94v-213z" />
<glyph horiz-adv-x="911" d="M76 0v1032h373q146 0 233.5 -76t87.5 -204q0 -119 -80 -199q65 -40 101 -105.5t36 -146.5q0 -137 -96 -219t-254 -82h-401zM342 217h123q47 0 76.5 29t29.5 76t-29.5 76.5t-76.5 29.5h-123v-211zM342 643h88q38 0 62 24t24 62q0 39 -23.5 62.5t-62.5 23.5h-88v-172z" />
<glyph horiz-adv-x="741" d="M76 0v1032h608v-207h-352v-825h-256z" />
<glyph horiz-adv-x="1110" d="M39 197q75 0 119.5 63t44.5 166v606h751v-825h117v-428h-235v221h-562v-221h-235v418zM401 207h287v618h-219v-399q0 -131 -68 -219z" />
<glyph horiz-adv-x="751" d="M76 0v1032h604v-207h-348v-209h303v-206h-303v-203h356v-207h-612z" />
<glyph horiz-adv-x="751" d="M76 0v1032h604v-207h-348v-209h303v-206h-303v-203h356v-207h-612zM96 1182q0 52 36 88.5t89 36.5q54 0 90.5 -36t36.5 -89t-36.5 -89t-90.5 -36q-53 0 -89 36.5t-36 88.5zM401 1182q0 54 36.5 90.5t90.5 36.5t90.5 -36.5t36.5 -90.5q0 -53 -36.5 -89t-90.5 -36t-90.5 36 t-36.5 89z" />
<glyph horiz-adv-x="1544" d="M20 0l371 535l-338 497h293l299 -440v440h256v-440l299 440h293l-338 -497l371 -535h-301l-324 477v-477h-256v477l-323 -477h-302z" />
<glyph horiz-adv-x="911" d="M57 129l158 158q44 -39 100.5 -61.5t108.5 -22.5q68 0 107.5 33.5t39.5 87.5q0 46 -29.5 75t-76.5 29h-150v215h113q46 0 76.5 23t30.5 63q0 50 -35.5 75t-89.5 25q-46 0 -97.5 -21t-87.5 -56l-151 149q151 148 358 148q166 0 262.5 -84t96.5 -211q0 -117 -103 -201 q66 -40 102.5 -105.5t36.5 -146.5q0 -146 -105.5 -231.5t-277.5 -85.5q-114 0 -214.5 38t-172.5 107z" />
<glyph horiz-adv-x="1087" d="M76 0v1032h256v-538l522 538h158v-1032h-256v539l-523 -539h-157z" />
<glyph horiz-adv-x="1087" d="M76 0v1032h256v-538l522 538h158v-1032h-256v539l-523 -539h-157zM287 1171l116 117q46 -49 140 -49q97 0 141 47l117 -117q-99 -104 -258 -104q-158 0 -256 106z" />
<glyph horiz-adv-x="1032" d="M78 0v1032h256v-444l317 444h322l-357 -497l398 -535h-330l-350 481v-481h-256z" />
<glyph horiz-adv-x="1044" d="M55 0v160q75 0 121.5 45.5t46.5 118.5v708h746v-1032h-267v825h-215v-495q0 -151 -82.5 -245.5t-234.5 -94.5q-67 0 -115 10z" />
<glyph horiz-adv-x="1239" d="M76 0v1032h188l354 -465l357 465h188v-1032h-256v516l-248 -330h-79l-248 330v-516h-256z" />
<glyph horiz-adv-x="1075" d="M76 0v1032h256v-416h413v416h254v-1032h-254v410h-413v-410h-256z" />
<glyph horiz-adv-x="1265" d="M74 516q0 238 155 385.5t404 147.5q250 0 404.5 -147.5t154.5 -385.5t-154.5 -385t-404.5 -147q-249 0 -404 147t-155 385zM340 516q0 -137 81.5 -222t211.5 -85t212.5 85.5t82.5 221.5t-82.5 221.5t-212.5 85.5t-211.5 -85t-81.5 -222z" />
<glyph horiz-adv-x="1005" d="M76 0v1032h854v-1032h-254v825h-344v-825h-256z" />
<glyph horiz-adv-x="872" d="M76 0v1032h350q168 0 270.5 -87.5t102.5 -235.5q0 -147 -102.5 -235.5t-270.5 -88.5h-84v-385h-266zM342 602h84q47 0 78 30t31 77q0 49 -30.5 77.5t-78.5 28.5h-84v-213z" />
<glyph horiz-adv-x="1093" d="M74 516q0 238 155 385.5t404 147.5t401 -146l-160 -160q-83 80 -227 80q-137 0 -222 -85.5t-85 -221.5t85 -221.5t222 -85.5q139 0 227 78l160 -158q-151 -145 -401 -145q-249 0 -404 147t-155 385z" />
<glyph horiz-adv-x="892" d="M57 825v207h774v-207h-258v-825h-256v825h-260z" />
<glyph horiz-adv-x="974" d="M12 1032h275l202 -407l201 407h273l-512 -1032h-275l195 324z" />
<glyph horiz-adv-x="1335" d="M74 516q0 188 129 305t338 117v94h254v-94q210 0 338.5 -117t128.5 -305t-128.5 -305t-338.5 -117v-94h-254v94q-209 0 -338 117t-129 305zM340 516q0 -88 56 -142.5t145 -54.5v394q-89 0 -145 -54.5t-56 -142.5zM795 319q90 0 145 54.5t55 142.5t-55 142.5t-145 54.5 v-394z" />
<glyph horiz-adv-x="1198" d="M18 0l390 526l-373 506h330l233 -332l233 332h332l-375 -506l392 -526h-330l-252 354l-250 -354h-330z" />
<glyph horiz-adv-x="1142" d="M76 0v1032h256v-825h409v825h254v-825h109v-428h-236v221h-792z" />
<glyph horiz-adv-x="917" d="M76 725v307h246v-299q0 -87 31.5 -119t101.5 -32q91 0 141 18v432h246v-1032h-246v406q-102 -21 -197 -21q-159 0 -241 88.5t-82 251.5z" />
<glyph horiz-adv-x="1505" d="M76 0v1032h256v-825h293v825h256v-825h295v825h254v-1032h-1354z" />
<glyph horiz-adv-x="1576" d="M76 0v1032h256v-825h293v825h256v-825h295v825h254v-825h108v-428h-235v221h-1227z" />
<glyph horiz-adv-x="1095" d="M57 825v207h492v-385h100q168 0 270.5 -88t102.5 -235q0 -148 -102.5 -236t-270.5 -88h-366v825h-226zM549 217h100q48 0 78.5 29t30.5 78q0 47 -30.5 76.5t-78.5 29.5h-100v-213z" />
<glyph horiz-adv-x="1241" d="M76 0v1032h266v-385h100q168 0 270.5 -88t102.5 -235q0 -148 -102.5 -236t-270.5 -88h-366zM342 217h100q48 0 77.5 29t29.5 78q0 47 -30 76.5t-77 29.5h-100v-213zM909 0v1032h256v-1032h-256z" />
<glyph horiz-adv-x="888" d="M76 0v1032h266v-385h100q168 0 270.5 -88t102.5 -235q0 -148 -102.5 -236t-270.5 -88h-366zM342 217h100q48 0 77.5 29t29.5 78q0 47 -30 76.5t-77 29.5h-100v-213z" />
<glyph horiz-adv-x="1093" d="M57 129l160 158q91 -78 229 -78q108 0 188 54t109 147h-417v206h417q-30 95 -109 151t-188 56q-143 0 -229 -80l-160 160q156 146 402 146q250 0 404.5 -147.5t154.5 -385.5t-154.5 -385t-404.5 -147q-248 0 -402 145z" />
<glyph horiz-adv-x="1624" d="M76 0v1032h256v-416h172q31 196 171.5 314.5t348.5 118.5q235 0 380.5 -147.5t145.5 -385.5t-145.5 -385t-380.5 -147q-206 0 -347 116t-173 310h-172v-410h-256zM764 516q0 -136 73 -221.5t187 -85.5q116 0 188 85.5t72 221.5t-72 221.5t-188 85.5q-114 0 -187 -85.5 t-73 -221.5z" />
<glyph horiz-adv-x="899" d="M27 0l231 422q-87 39 -135.5 113t-48.5 174q0 148 102 235.5t270 87.5h377v-1032h-266v385h-59l-183 -385h-288zM338 709q0 -47 30.5 -77t77.5 -30h111v213h-111q-48 0 -78 -28.5t-30 -77.5z" />
<glyph horiz-adv-x="731" d="M76 0v1032h387v185h186v-392h-317v-825h-256z" />
<glyph horiz-adv-x="1073" d="M57 825v207h774v-207h-258v-233q74 55 168 55q123 0 194 -82t71 -217v-143q0 -95 -56.5 -155t-169.5 -60q-51 0 -84 10v160q23 0 38.5 15t15.5 38v135q0 36 -22 59t-58 23q-64 0 -97 -33v-397h-256v825h-260z" />
<glyph horiz-adv-x="741" d="M76 0v1032h608v-207h-352v-825h-256zM233 1174l240 235l119 -119l-240 -235z" />
<glyph horiz-adv-x="1093" d="M74 516q0 238 155 385.5t404 147.5t401 -146l-160 -160q-83 80 -227 80q-111 0 -190 -56t-109 -151h486v-206h-486q31 -93 110.5 -147t188.5 -54q139 0 227 78l160 -158q-151 -145 -401 -145q-249 0 -404 147t-155 385z" />
<glyph horiz-adv-x="925" d="M68 154l155 157q118 -102 215 -102q57 0 93 29t36 65q0 28 -25.5 48.5t-66.5 35t-90 30t-98.5 39.5t-90.5 56.5t-66.5 87.5t-25.5 127q0 142 92 232t250 90q207 0 369 -152l-158 -156q-91 82 -182 82q-49 0 -77.5 -28.5t-28.5 -59.5q0 -28 25.5 -49.5t66.5 -37t91 -31.5 t99.5 -40.5t90.5 -57t66.5 -86.5t25.5 -124q0 -146 -100 -235.5t-269 -89.5q-218 0 -397 170z" />
<glyph horiz-adv-x="411" d="M78 0v1032h256v-1032h-256z" />
<glyph horiz-adv-x="413" d="M-61 1182q0 53 36.5 89t90.5 36q52 0 88 -36t36 -89t-36 -89t-88 -36q-54 0 -90.5 36t-36.5 89zM80 0v1032h254v-1032h-254zM221 1182q0 54 37 90.5t90 36.5q54 0 91.5 -36.5t37.5 -90.5q0 -52 -37.5 -88.5t-91.5 -36.5q-53 0 -90 36.5t-37 88.5z" />
<glyph horiz-adv-x="727" d="M57 72l162 161q27 -24 74 -24q44 0 72 26.5t28 69.5v727h256v-727q0 -143 -96.5 -232t-247.5 -89q-73 0 -138.5 23.5t-109.5 64.5z" />
<glyph horiz-adv-x="1505" d="M55 0v160q75 0 121.5 45.5t46.5 118.5v708h733v-385h103q168 0 270.5 -88t102.5 -235q0 -148 -102.5 -236t-270.5 -88h-367v825h-205v-495q0 -151 -82.5 -245.5t-234.5 -94.5q-67 0 -115 10zM956 217h103q48 0 77 29t29 78q0 47 -29.5 76.5t-76.5 29.5h-103v-213z" />
<glyph horiz-adv-x="1507" d="M76 0v1032h256v-385h364v385h265v-385h102q168 0 269.5 -88t101.5 -235q0 -148 -101.5 -236t-269.5 -88h-367v430h-364v-430h-256zM961 217h102q48 0 77 29t29 78q0 47 -29.5 76.5t-76.5 29.5h-102v-213z" />
<glyph horiz-adv-x="1073" d="M57 825v207h774v-207h-258v-233q74 55 168 55q123 0 194 -82t71 -217v-348h-256v348q0 36 -22 59t-58 23q-64 0 -97 -33v-397h-256v825h-260z" />
<glyph horiz-adv-x="1032" d="M78 0v1032h256v-444l317 444h322l-357 -497l398 -535h-330l-350 481v-481h-256zM367 1174l239 235l121 -119l-242 -235z" />
<glyph horiz-adv-x="974" d="M12 1032h275l202 -407l201 407h273l-512 -1032h-275l195 324zM231 1171l117 117q46 -49 139 -49q98 0 142 47l116 -117q-99 -104 -258 -104q-158 0 -256 106z" />
<glyph horiz-adv-x="1071" d="M76 0v1032h256v-825h409v825h254v-1032h-340v-221h-235v221h-344z" />
<glyph horiz-adv-x="1087" d="M76 0v1032h256v-538l522 538h158v-1032h-256v539l-523 -539h-157zM332 1290l121 119l239 -235l-119 -119z" />
<glyph horiz-adv-x="751" d="M76 0v1032h604v-207h-348v-209h303v-206h-303v-203h356v-207h-612zM166 1290l121 119l239 -235l-118 -119z" />
<glyph horiz-adv-x="1150" d="M74 516v94h729q-28 98 -108 155.5t-191 57.5q-140 0 -230 -80l-159 160q156 146 401 146q250 0 405.5 -147.5t155.5 -385.5t-139 -385t-363 -147q-223 0 -362 147.5t-139 384.5zM350 403q27 -91 85.5 -142.5t139.5 -51.5q79 0 139 52t85 142h-449z" />
<glyph horiz-adv-x="825" d="M-61 1182q0 53 36.5 89t90.5 36q52 0 88 -36t36 -89t-36 -89t-88 -36q-54 0 -90.5 36t-36.5 89zM80 0v1032h254v-1032h-254zM287 1182q0 54 36.5 90.5t90.5 36.5t90.5 -36.5t36.5 -90.5q0 -53 -36.5 -89t-90.5 -36t-90.5 36t-36.5 89zM492 0v1032h256v-1032h-256z M635 1182q0 54 36 90.5t89 36.5q55 0 92 -36.5t37 -90.5q0 -53 -37 -89t-92 -36q-52 0 -88.5 36.5t-36.5 88.5z" />
<glyph horiz-adv-x="479" d="M66 516q0 267 103.5 436.5t260.5 169.5v-176q-43 0 -75.5 -122t-32.5 -308t32.5 -308t75.5 -122v-176q-157 0 -260.5 169.5t-103.5 436.5z" />
<glyph horiz-adv-x="479" d="M49 86q43 0 77 122.5t34 307.5t-34 307.5t-77 122.5v176q158 0 261.5 -169t103.5 -437t-103.5 -437t-261.5 -169v176z" />
<glyph horiz-adv-x="501" d="M78 -74v1180h375v-186h-129v-807h129v-187h-375z" />
<glyph horiz-adv-x="501" d="M49 -74v187h129v807h-129v186h375v-1180h-375z" />
<glyph horiz-adv-x="497" d="M57 422v178q24 0 44 41t20 102v99q0 123 90.5 201.5t228.5 78.5v-176q-24 0 -43.5 -39t-19.5 -98v-94q0 -65 -33 -118t-94 -87q127 -68 127 -203v-86q0 -58 19.5 -96.5t43.5 -38.5v-176q-138 0 -228.5 78.5t-90.5 201.5v89q0 62 -19.5 102.5t-44.5 40.5z" />
<glyph horiz-adv-x="497" d="M57 86q24 0 44 38.5t20 96.5v86q0 135 127 203q-61 34 -94 87t-33 118v94q0 59 -19.5 98t-44.5 39v176q138 0 229 -78.5t91 -201.5v-99q0 -61 19.5 -102t43.5 -41v-178q-24 0 -43.5 -40.5t-19.5 -102.5v-89q0 -123 -91 -201.5t-229 -78.5v176z" />
<glyph horiz-adv-x="403" d="M66 913q0 57 39 96.5t96 39.5q58 0 97.5 -39.5t39.5 -96.5t-39.5 -96t-97.5 -39q-57 0 -96 39t-39 96zM78 0v705h246v-705h-246z" />
<glyph horiz-adv-x="788" d="M66 268q0 55 23.5 98t57 69.5t66.5 51t56.5 56.5t23.5 71v91h246v-91q0 -66 -22.5 -120t-54.5 -87t-63.5 -57.5t-54 -44.5t-22.5 -35q0 -25 28 -48t72 -23q74 0 162 57l155 -158q-79 -58 -154 -86t-171 -28q-152 0 -250 79.5t-98 204.5zM281 913q0 57 39 96.5t96 39.5 t97 -39.5t40 -96.5t-40 -96t-97 -39t-96 39t-39 96z" />
<glyph horiz-adv-x="401" d="M78 -74v1180h246v-1180h-246z" />
<glyph horiz-adv-x="808" d="M66 637v186h217v283h245v-283h215v-186h-215v-711h-245v711h-217z" />
<glyph horiz-adv-x="808" d="M66 195v186h217v256h-217v186h217v283h245v-283h215v-186h-215v-256h215v-186h-215v-269h-245v269h-217z" />
<glyph horiz-adv-x="897" d="M74 516q0 238 104 385.5t271 147.5t270.5 -147.5t103.5 -385.5t-103.5 -385t-270.5 -147t-271 147t-104 385zM330 516q0 -140 33.5 -228.5t85.5 -88.5t85 88.5t33 228.5t-33 229t-85 89t-85.5 -89t-33.5 -229z" />
<glyph horiz-adv-x="606" d="M63 799v186l414 55v-1040h-244v821z" />
<glyph horiz-adv-x="851" d="M55 702q0 155 101.5 251t265.5 96t265 -96t101 -251q0 -138 -118 -249l-264 -246h382v-207h-731v193l445 423q33 33 33 86q0 57 -31.5 93t-81.5 36q-49 0 -80 -36t-31 -93h-256z" />
<glyph horiz-adv-x="876" d="M66 322h256q0 -54 32.5 -88.5t83.5 -34.5q52 0 85.5 34.5t33.5 88.5t-33.5 89t-85.5 35h-69v203h69q42 0 69.5 27t27.5 67q0 39 -27.5 65t-69.5 26q-41 0 -67.5 -26t-26.5 -65h-256q0 135 97 220.5t253 85.5q158 0 255.5 -85t97.5 -221q0 -112 -86 -192q108 -88 108 -229 q0 -150 -104 -244t-271 -94q-165 0 -268.5 94t-103.5 244z" />
<glyph horiz-adv-x="933" d="M57 162v98l461 772h244v-663h80v-207h-70v-162h-246v162h-469zM367 369h170v299z" />
<glyph horiz-adv-x="851" d="M55 332h246q0 -57 33.5 -94t87.5 -37q50 0 81.5 36t31.5 93q0 63 -40 103t-102 40q-68 0 -106 -45l-181 51l56 553h540v-207h-323l-10 -129q24 -8 39 -8q172 0 276 -98.5t104 -259.5q0 -155 -101 -250.5t-265 -95.5q-165 0 -266 95.5t-101 252.5z" />
<glyph horiz-adv-x="854" d="M66 342q0 103 37.5 223t94 218t123.5 172t125 94l213 -121q-65 -46 -135 -124t-108 -147q10 -10 14 -10q160 0 259 -89.5t99 -240.5q0 -150 -99 -241.5t-263 -91.5q-165 0 -262.5 93.5t-97.5 264.5zM322 319q0 -54 29.5 -87t76.5 -33q46 0 75 33t29 87t-29 87.5t-75 33.5 q-47 0 -76.5 -33.5t-29.5 -87.5z" />
<glyph horiz-adv-x="886" d="M74 825v207h739v-59l-332 -973h-260l268 825h-415z" />
<glyph horiz-adv-x="874" d="M63 322q0 141 105 229q-82 79 -82 192q0 135 97 220.5t253 85.5q158 0 255 -85t97 -221q0 -112 -86 -192q109 -89 109 -229q0 -150 -104 -244t-271 -94q-166 0 -269.5 94.5t-103.5 243.5zM319 322q0 -54 33 -88.5t84 -34.5q52 0 85.5 34.5t33.5 88.5t-33 87t-86 33 q-51 0 -84 -33t-33 -87zM342 743q0 -40 26.5 -65t67.5 -25q43 0 69.5 25t26.5 65q0 39 -27 65t-69 26q-41 0 -67.5 -26t-26.5 -65z" />
<glyph horiz-adv-x="854" d="M66 715q0 150 99.5 242t264.5 92q163 0 260.5 -94t97.5 -265q0 -103 -37.5 -223t-94 -218t-123.5 -171.5t-125 -93.5l-211 120q64 46 133.5 124.5t107.5 146.5q-10 10 -14 10q-160 0 -259 89.5t-99 240.5zM322 713q0 -54 29.5 -87.5t76.5 -33.5q46 0 75 33.5t29 87.5 t-29 87.5t-75 33.5q-47 0 -76.5 -33.5t-29.5 -87.5z" />
<glyph horiz-adv-x="925" d="M68 154l155 157q98 -86 178 -100v201q-50 16 -83 29t-78 39.5t-71 57t-45.5 79.5t-19.5 110q0 131 79 219t218 101v133h129v-140q159 -26 285 -143l-158 -156q-64 56 -127 74v-190q38 -13 59.5 -21.5t58 -25.5t58.5 -32t49.5 -40t42.5 -52t25.5 -64.5t10.5 -80.5 q0 -131 -81.5 -217.5t-222.5 -103.5v-135h-129v135q-181 20 -333 166zM369 735q0 -33 32 -55v119q-32 -25 -32 -64zM530 238q37 29 37 65q0 32 -37 55v-120z" />
<glyph horiz-adv-x="1159" d="M57 358v129h82v58h-82v129h103q46 173 190 274t348 101q248 0 404 -146l-160 -160q-86 80 -229 80q-91 0 -161.5 -39.5t-109.5 -109.5h277v-129h-313v-58h313v-129h-277q38 -71 108.5 -110t162.5 -39q138 0 229 78l160 -158q-154 -145 -404 -145q-204 0 -348 100.5 t-190 273.5h-103z" />
<glyph horiz-adv-x="851" d="M49 0q0 78 32 137t89 92v193h-111v188h111v117q0 144 96 233t246 89q73 0 138.5 -23.5t109.5 -64.5l-162 -162q-27 24 -74 24q-44 0 -72 -26.5t-28 -69.5v-117h225v-188h-225v-193q12 -5 37 -19t41 -20t33 -6q27 0 44 17.5t17 44.5h192q0 -118 -70.5 -190t-178.5 -72 q-41 0 -78.5 12t-60.5 26.5t-49.5 26.5t-47.5 12q-28 0 -45.5 -16t-17.5 -45h-191z" />
<glyph horiz-adv-x="1105" d="M20 1032h293l240 -389l238 389h292l-395 -629h158v-129h-166v-53h166v-127h-166v-94h-256v94h-168v127h168v53h-168v129h162z" />
<glyph horiz-adv-x="724" d="M55 365v127h119l10 8l54 51h-183v127h320l4 4q31 29 31 72q0 33 -27.5 55t-67.5 22q-65 0 -100 -38l-154 153q98 103 254 103q155 0 251 -79.5t96 -207.5q0 -42 -17 -84h25v-127h-111l-18 -19l-43 -40h172v-127h-308l-14 -15q-31 -29 -31 -71q0 -34 26.5 -56t66.5 -22 q64 0 100 39l154 -154q-97 -102 -254 -102q-154 0 -249 79t-95 207q0 52 18 95h-29z" />
<glyph horiz-adv-x="1026" d="M57 197v186h111l35 266h-109v187h135l29 196h246l-29 -196h166l29 196h245l-28 -196h82v-187h-109l-35 -266h107v-186h-135l-27 -197h-246l27 197h-166l-27 -197h-245l26 197h-82zM414 383h166l34 266h-165z" />
<glyph horiz-adv-x="403" d="M66 119q0 57 39 96t96 39q58 0 97.5 -39t39.5 -96t-39.5 -96t-97.5 -39q-57 0 -96 39t-39 96zM78 328v704h246v-704h-246z" />
<glyph horiz-adv-x="923" d="M63 322q0 140 109 229q-86 77 -86 192q0 135 97 220.5t253 85.5q158 0 255 -85t97 -221h-256q0 39 -27 65t-69 26q-41 0 -67.5 -26t-26.5 -65q0 -40 26.5 -67t67.5 -27h37v-203h-37q-51 0 -84 -35t-33 -89t33 -88.5t84 -34.5q52 0 85.5 34.5t33.5 88.5v124h-55v203h366 v-203h-55v-124q0 -150 -104 -244t-271 -94q-166 0 -269.5 94.5t-103.5 243.5z" />
<glyph horiz-adv-x="931" d="M47 -74l594 1180h244l-592 -1180h-246z" />
<glyph horiz-adv-x="931" d="M47 1106h246l592 -1180h-244z" />
<glyph horiz-adv-x="788" d="M49 934q79 58 154.5 86.5t171.5 28.5q151 0 249.5 -80t98.5 -205q0 -47 -17 -85t-42 -61.5t-54.5 -47.5t-54.5 -43t-42 -47.5t-17 -61.5v-90h-246v90q0 66 22.5 120t54 87t63.5 57.5t54.5 44.5t22.5 35q0 25 -28 48.5t-72 23.5q-72 0 -162 -58zM236 119q0 57 39.5 96 t97.5 39q57 0 96 -39t39 -96t-39 -96t-96 -39q-58 0 -97.5 39t-39.5 96z" />
<glyph horiz-adv-x="1499" d="M57 762q0 129 86 208t224 79q137 0 222 -79t85 -208t-85 -208t-222 -79q-138 0 -224 79t-86 208zM274 762q0 -49 26 -80t67 -31q40 0 66 31t26 80t-26 79.5t-66 30.5q-41 0 -67 -30.5t-26 -79.5zM332 0l592 1032h245l-594 -1032h-243zM825 270q0 129 86 208t224 79 q137 0 222 -79t85 -208t-85 -207.5t-222 -78.5q-138 0 -224 78.5t-86 207.5zM1042 270q0 -49 26.5 -79.5t66.5 -30.5t66 30.5t26 79.5t-26 80t-66 31t-66.5 -31t-26.5 -80z" />
<glyph horiz-adv-x="2144" d="M57 762q0 129 86 208t224 79q137 0 222 -79t85 -208t-85 -208t-222 -79q-138 0 -224 79t-86 208zM274 762q0 -49 26 -80t67 -31q40 0 66 31t26 80t-26 79.5t-66 30.5q-41 0 -67 -30.5t-26 -79.5zM332 0l592 1032h245l-594 -1032h-243zM825 270q0 129 86 208t224 79 q137 0 222 -79t85 -208t-85 -207.5t-222 -78.5q-138 0 -224 78.5t-86 207.5zM1042 270q0 -49 26.5 -79.5t66.5 -30.5t66 30.5t26 79.5t-26 80t-66 31t-66.5 -31t-26.5 -80zM1470 270q0 129 85.5 208t222.5 79q138 0 223.5 -79t85.5 -208t-85.5 -207.5t-223.5 -78.5 q-137 0 -222.5 79t-85.5 207zM1686 270q0 -49 26 -79.5t66 -30.5q41 0 66.5 30.5t25.5 79.5q0 50 -25.5 80.5t-66.5 30.5q-40 0 -66 -31t-26 -80z" />
<glyph horiz-adv-x="712" d="M47 -283l154 154q36 -39 102 -39q38 0 63 23.5t25 58.5q0 45 -33 78l-297 287l162 161l305 -293q119 -114 119 -233q0 -134 -95 -216.5t-249 -82.5q-159 0 -256 102zM68 750q0 134 95 216.5t249 82.5q156 0 254 -103l-154 -153q-35 38 -100 38q-40 0 -65 -23t-25 -58 q0 -44 34 -78l295 -287l-162 -160l-303 291q-56 54 -87 109.5t-31 124.5z" />
<glyph horiz-adv-x="1097" d="M72 729q0 138 96.5 220.5t255.5 82.5h248v-1032h-238v426h-10q-159 0 -255.5 82t-96.5 221zM784 0v1032h236v-1032h-236z" />
<glyph horiz-adv-x="659" d="M0 973q87 90 119 178q-53 12 -86 53t-33 96q0 64 45 109t109 45q26 0 51 -8.5t49 -26.5t38.5 -53t14.5 -82q0 -103 -62.5 -199t-162.5 -194zM326 0v1032h254v-1032h-254zM467 1182q0 54 37 90.5t90 36.5q54 0 91.5 -36.5t37.5 -90.5q0 -52 -37.5 -88.5t-91.5 -36.5 q-53 0 -90 36.5t-37 88.5z" />
<glyph horiz-adv-x="612" d="M59 256q0 164 69 266.5t179 102.5t178 -102t68 -267t-68 -267t-178 -102t-179 102.5t-69 266.5zM209 256q0 -108 27 -175t71 -67q43 0 71 67.5t28 174.5t-28 174.5t-71 67.5q-44 0 -71 -67t-27 -175z" />
<glyph horiz-adv-x="405" d="M51 473v111l256 37v-723h-143v591z" />
<glyph horiz-adv-x="579" d="M49 387q0 106 66.5 172t173.5 66q106 0 171.5 -66t65.5 -172q0 -97 -75 -172l-197 -197h272v-120h-475v114l299 299q27 27 27 76t-25 80t-63 31q-40 0 -65 -31t-25 -80h-150z" />
<glyph horiz-adv-x="595" d="M55 117h150q0 -46 26.5 -74.5t67.5 -28.5t67.5 28.5t26.5 74.5q0 45 -26.5 74.5t-67.5 29.5h-47v119h47q33 0 54.5 23t21.5 57q0 35 -21 56.5t-55 21.5t-55 -21.5t-21 -56.5h-149q0 91 62.5 148t162.5 57t162.5 -57t62.5 -148q0 -88 -65 -137q84 -59 84 -166 q0 -102 -68 -166t-176 -64t-176 64t-68 166z" />
<glyph horiz-adv-x="628" d="M49 18v60l311 536h142v-475h57v-121h-51v-120h-143v120h-316zM229 139h142v262z" />
<glyph horiz-adv-x="579" d="M49 121h144q0 -46 27 -76.5t69 -30.5q38 0 63 31t25 80q0 52 -31 85.5t-78 33.5q-50 0 -82 -35l-104 33l37 372h350v-120h-223l-10 -127q12 4 40 4q112 0 181 -68.5t69 -177.5q0 -106 -65.5 -172t-171.5 -66q-107 0 -173.5 65t-66.5 169z" />
<glyph horiz-adv-x="585" d="M55 131q0 127 77 267.5t177 226.5l123 -70q-108 -108 -164 -211h27q104 0 169.5 -62t65.5 -165t-65.5 -166.5t-173.5 -63.5q-106 0 -171 64.5t-65 179.5zM205 119q0 -46 25 -75.5t63 -29.5t63 29.5t25 75.5t-25 75t-63 29t-63 -29t-25 -75z" />
<glyph horiz-adv-x="598" d="M59 494v120h480v-36l-230 -680h-151l192 596h-291z" />
<glyph horiz-adv-x="593" d="M53 117q0 108 80 166q-61 48 -61 137q0 91 62.5 148t162.5 57t162.5 -57t62.5 -148q0 -88 -65 -137q84 -59 84 -166q0 -102 -68 -166t-176 -64t-176 64t-68 166zM203 117q0 -46 26.5 -74.5t67.5 -28.5t67.5 28.5t26.5 74.5q0 44 -26.5 73t-67.5 29t-67.5 -29t-26.5 -73z M221 420q0 -34 21 -56t55 -22t55 22t21 56q0 35 -21 56.5t-55 21.5t-55 -21.5t-21 -56.5z" />
<glyph horiz-adv-x="585" d="M55 395q0 103 65.5 166.5t172.5 63.5q108 0 172.5 -64.5t64.5 -179.5q0 -127 -77 -267.5t-177 -226.5l-124 70q106 103 165 211h-26q-105 0 -170.5 62t-65.5 165zM205 393q0 -46 25 -75t63 -29t63 29t25 75t-25 75.5t-63 29.5t-63 -29.5t-25 -75.5z" />
<glyph horiz-adv-x="278" d="M57 -31q0 34 23.5 57t58.5 23q31 0 56.5 -20.5t25.5 -67.5q0 -55 -33 -104.5t-86 -102.5l-45 43q47 50 62 92q-27 6 -44.5 28.5t-17.5 51.5z" />
<glyph horiz-adv-x="278" d="M57 -31q0 34 23.5 57t58.5 23q34 0 58 -23t24 -57q0 -35 -24 -58.5t-58 -23.5q-35 0 -58.5 23.5t-23.5 58.5z" />
<glyph horiz-adv-x="335" d="M57 256q0 185 66 302.5t166 117.5v-105q-33 0 -57.5 -89t-24.5 -226t24.5 -226t57.5 -89v-105q-100 0 -166 117.5t-66 302.5z" />
<glyph horiz-adv-x="335" d="M47 -59q33 0 57.5 89t24.5 226t-24.5 226t-57.5 89v105q100 0 166 -117.5t66 -302.5t-66 -302.5t-166 -117.5v105z" />
<glyph horiz-adv-x="389" d="M57 201v110h275v-110h-275z" />
<glyph horiz-adv-x="612" d="M59 1075q0 164 69 266.5t179 102.5t178 -102t68 -267q0 -164 -68 -266t-178 -102t-179 102t-69 266zM209 1075q0 -108 27 -174.5t71 -66.5q43 0 71 67t28 174t-28 174.5t-71 67.5q-44 0 -71 -67t-27 -175z" />
<glyph horiz-adv-x="405" d="M51 1292v111l256 37v-723h-143v592z" />
<glyph horiz-adv-x="579" d="M49 1206q0 106 66.5 172t173.5 66q106 0 171.5 -66t65.5 -172q0 -97 -75 -172l-197 -196h272v-121h-475v114l299 299q27 27 27 76t-25 80t-63 31q-40 0 -65 -31t-25 -80h-150z" />
<glyph horiz-adv-x="595" d="M55 936h150q0 -46 26.5 -74t67.5 -28t67.5 28t26.5 74q0 45 -26.5 74.5t-67.5 29.5h-47v119h47q33 0 54.5 23t21.5 57q0 35 -21 56.5t-55 21.5t-55 -21.5t-21 -56.5h-149q0 91 62.5 148t162.5 57t162.5 -57t62.5 -148q0 -88 -65 -137q84 -59 84 -166q0 -101 -67.5 -165 t-176.5 -64t-176.5 64t-67.5 165z" />
<glyph horiz-adv-x="628" d="M49 838v59l311 537h142v-476h57v-120h-51v-121h-143v121h-316zM229 958h142v263z" />
<glyph horiz-adv-x="579" d="M49 940h144q0 -46 27 -76t69 -30q39 0 63.5 30.5t24.5 79.5q0 52 -31 85.5t-78 33.5q-50 0 -82 -35l-104 33l37 373h350v-121h-223l-10 -127q12 4 40 4q112 0 181 -68.5t69 -177.5q0 -106 -65.5 -171.5t-171.5 -65.5q-107 0 -173.5 64.5t-66.5 168.5z" />
<glyph horiz-adv-x="585" d="M55 950q0 127 77 267.5t177 226.5l123 -70q-108 -108 -164 -211h27q104 0 169.5 -62t65.5 -165t-65.5 -166t-173.5 -63q-107 0 -171.5 64t-64.5 179zM205 938q0 -46 25 -75t63 -29t63 29t25 75t-25 75t-63 29t-63 -29t-25 -75z" />
<glyph horiz-adv-x="598" d="M59 1313v121h480v-37l-230 -680h-151l192 596h-291z" />
<glyph horiz-adv-x="593" d="M53 936q0 108 80 166q-61 48 -61 137q0 91 62.5 148t162.5 57t162.5 -57t62.5 -148q0 -88 -65 -137q84 -59 84 -166q0 -101 -67.5 -165t-176.5 -64t-176.5 64t-67.5 165zM203 936q0 -46 26.5 -74t67.5 -28t67.5 28t26.5 74q0 44 -26.5 73t-67.5 29t-67.5 -29t-26.5 -73z M221 1239q0 -34 21 -56t55 -22t55 22t21 56q0 35 -21 56.5t-55 21.5t-55 -21.5t-21 -56.5z" />
<glyph horiz-adv-x="585" d="M55 1214q0 103 65.5 166.5t172.5 63.5q108 0 172.5 -64.5t64.5 -179.5q0 -127 -77 -266.5t-177 -226.5l-124 69q106 103 165 211h-26q-105 0 -170.5 62t-65.5 165zM205 1212q0 -46 25 -75t63 -29t63 29t25 75t-25 75.5t-63 29.5t-63 -29.5t-25 -75.5z" />
<glyph horiz-adv-x="278" d="M57 616q46 49 62 93q-27 6 -44.5 28t-17.5 51q0 34 23.5 57t58.5 23q31 0 56.5 -20.5t25.5 -67.5q0 -55 -33 -104.5t-86 -102.5z" />
<glyph horiz-adv-x="278" d="M57 788q0 34 23.5 57t58.5 23q34 0 58 -23t24 -57q0 -35 -24 -58t-58 -23q-35 0 -58.5 23t-23.5 58z" />
<glyph horiz-adv-x="335" d="M57 1075q0 185 66 302.5t166 117.5v-104q-33 0 -57.5 -89.5t-24.5 -226.5t24.5 -226t57.5 -89v-105q-100 0 -166 117.5t-66 302.5z" />
<glyph horiz-adv-x="335" d="M47 655v105q33 0 57.5 89t24.5 226t-24.5 226.5t-57.5 89.5v104q100 0 166 -117.5t66 -302.5t-66 -302.5t-166 -117.5z" />
<glyph horiz-adv-x="389" d="M57 1020v110h275v-110h-275z" />
<glyph horiz-adv-x="544" d="M43 1063q0 83 69 128.5t167 45.5q9 0 19.5 -1t12.5 -1v20q0 25 -18 45.5t-51 20.5q-24 0 -50.5 -11t-41.5 -26l-82 80q83 80 188 80q94 0 151.5 -54t57.5 -135v-194q0 -15 8 -25t21 -10v-100q-18 -6 -52 -6q-79 0 -112 57q-58 -64 -137 -64q-67 0 -108.5 44t-41.5 106z M199 1081q0 -17 11.5 -30t35.5 -13q43 0 65 31v66q-16 4 -24 4q-36 0 -62 -15.5t-26 -42.5z" />
<glyph horiz-adv-x="628" d="M63 1022v750h154v-357q53 29 119 29q108 0 176 -73t68 -191q0 -119 -77 -193t-202 -74q-165 0 -238 109zM217 1067q6 1 36 -7.5t52 -8.5q51 0 83 35.5t32 93.5q0 57 -31 93t-80 36q-61 0 -92 -45v-197z" />
<glyph horiz-adv-x="542" d="M49 1180q0 119 73 191.5t193 72.5q116 0 191 -78l-92 -94q-32 37 -88 37q-52 0 -84.5 -36t-32.5 -93q0 -58 32 -93.5t85 -35.5q58 0 88 34l92 -94q-75 -78 -191 -78q-120 0 -193 74t-73 193z" />
<glyph horiz-adv-x="628" d="M49 1180q0 119 71.5 191.5t188.5 72.5q49 0 103 -21v349h153v-846h-153v30q-55 -43 -131 -43q-104 0 -168 74t-64 193zM209 1180q0 -58 32 -93.5t85 -35.5q58 0 86 32v197q-36 29 -86 29q-52 0 -84.5 -36t-32.5 -93z" />
<glyph horiz-adv-x="585" d="M49 1182q0 118 69.5 190t184.5 72q117 0 178.5 -81.5t61.5 -232.5h-330q26 -79 119 -79q64 0 94 34l90 -94q-75 -78 -197 -78q-120 0 -195 74t-75 195zM213 1235h176q-17 78 -84 78q-72 0 -92 -78z" />
<glyph horiz-adv-x="411" d="M43 1315v119h61v141q0 95 55 151t150 56q42 0 64 -10v-125q-15 6 -33 6q-35 0 -55.5 -21.5t-20.5 -56.5v-141h109v-119h-109v-389h-160v389h-61z" />
<glyph horiz-adv-x="614" d="M20 803q0 85 101 131q-49 32 -49 84q0 50 51 82q-68 51 -68 147q0 90 61 143.5t160 53.5q92 0 152 -47q41 47 94 47q21 0 33 -2v-121q-12 6 -25 6q-20 0 -41 -24q9 -36 9 -52q0 -86 -61.5 -139t-162.5 -53q-55 0 -55 -37t74 -37q117 0 189.5 -47.5t72.5 -124.5 q0 -79 -79 -129.5t-200 -50.5q-116 0 -186 47t-70 123zM180 803q0 -26 25 -40.5t69 -14.5q50 0 85.5 18t35.5 45q0 26 -28 41.5t-74 15.5q-50 0 -81.5 -18t-31.5 -47zM209 1251q0 -32 19.5 -52.5t50.5 -20.5t51 20.5t20 52.5t-20 54t-51 22t-50.5 -21.5t-19.5 -54.5z" />
<glyph horiz-adv-x="598" d="M63 926v846h154v-373q54 45 129 45q87 0 138 -61t51 -160v-297h-154v297q0 38 -21.5 62t-56.5 24q-59 0 -86 -35v-348h-154z" />
<glyph horiz-adv-x="282" d="M53 1585q0 37 25.5 62.5t62.5 25.5t62.5 -25.5t25.5 -62.5t-25.5 -62.5t-62.5 -25.5t-62.5 25.5t-25.5 62.5zM63 926v508h154v-508h-154z" />
<glyph horiz-adv-x="282" d="M18 645v98q20 0 32.5 13t12.5 35v643h154v-648q0 -68 -36 -108.5t-107 -40.5q-40 0 -56 8zM53 1585q0 37 25.5 62.5t62.5 25.5t62.5 -25.5t25.5 -62.5t-25.5 -62.5t-62.5 -25.5t-62.5 25.5t-25.5 62.5z" />
<glyph horiz-adv-x="575" d="M63 926v846h154v-527l139 189h181l-181 -236l201 -272h-180l-160 223v-223h-154z" />
<glyph horiz-adv-x="315" d="M63 1069v703h154v-699q0 -22 14 -34.5t37 -12.5v-100q-18 -6 -59 -6q-71 0 -108.5 41t-37.5 108z" />
<glyph horiz-adv-x="874" d="M63 926v508h154v-35q54 45 129 45q85 0 131 -68q62 68 166 68q77 0 122.5 -54.5t45.5 -144.5v-319h-154v319q0 28 -15.5 46t-41.5 18q-59 0 -90 -25q4 -24 4 -39v-319h-154v319q0 28 -15.5 46t-41.5 18q-59 0 -86 -35v-348h-154z" />
<glyph horiz-adv-x="598" d="M63 926v508h154v-35q54 45 129 45q87 0 138 -61t51 -160v-297h-154v297q0 38 -21.5 62t-56.5 24q-59 0 -86 -35v-348h-154z" />
<glyph horiz-adv-x="628" d="M63 645v789h154v-35q54 45 131 45q104 0 168 -72.5t64 -191.5t-71.5 -193t-186.5 -74q-51 0 -105 21v-289h-154zM217 1081q27 -30 86 -30q53 0 85 35.5t32 93.5q0 57 -32.5 93t-84.5 36q-59 0 -86 -35v-193z" />
<glyph horiz-adv-x="628" d="M49 1180q0 118 77 191t202 73q79 0 141 -29t98 -80l-2 -2v-688h-153v295q-59 -27 -117 -27q-109 0 -177.5 74.5t-68.5 192.5zM209 1180q0 -58 30 -93.5t80 -35.5q65 0 93 45v194q-5 0 -36 9.5t-52 9.5q-51 0 -83 -36t-32 -93z" />
<glyph horiz-adv-x="415" d="M63 926v508h154v-45q53 53 113 53q10 0 30 -4v-131q-18 6 -43 6q-66 0 -100 -62v-325h-154z" />
<glyph horiz-adv-x="458" d="M41 993l94 94q38 -47 84 -47q20 0 32.5 12.5t12.5 26.5q0 17 -21 29.5t-51 23.5t-59.5 26.5t-50.5 47t-21 76.5q0 69 46.5 115.5t128.5 46.5q103 0 176 -70l-95 -94q-33 37 -69 37q-16 0 -24.5 -10.5t-8.5 -22.5q0 -18 21 -31t50.5 -24.5t59.5 -27t51 -46.5t21 -74 q0 -72 -51 -120t-138 -48q-108 0 -188 80z" />
<glyph horiz-adv-x="407" d="M45 1315v119h55v112h160v-112h98v-119h-98v-201q0 -31 18 -51.5t48 -20.5q17 0 32 9v-125q-26 -13 -63 -13q-90 0 -142.5 54t-52.5 147v201h-55z" />
<glyph horiz-adv-x="604" d="M63 1147v287h160v-287q0 -42 23 -69t59 -27q37 0 60.5 26.5t23.5 69.5v287h152v-287q0 -104 -67 -169t-173 -65t-172 65t-66 169z" />
<glyph horiz-adv-x="612" d="M12 1434h172l123 -314l123 314h170l-223 -508h-141z" />
<glyph horiz-adv-x="903" d="M12 1434h178l91 -320l94 320h153l95 -320l90 320h178l-191 -508h-159l-90 288l-91 -288h-157z" />
<glyph horiz-adv-x="620" d="M18 926l191 260l-180 248h178l102 -152l105 152h176l-180 -248l192 -260h-176l-117 164l-114 -164h-177z" />
<glyph horiz-adv-x="612" d="M12 1434h172l123 -322l123 322h170l-352 -789h-172l160 281z" />
<glyph horiz-adv-x="555" d="M53 926v41l219 348h-213v119h443v-41l-217 -349h217v-118h-449z" />
<glyph horiz-adv-x="641" d="M49 1180q0 118 75 191t195 73q122 0 197.5 -73t75.5 -191q0 -119 -76 -193t-197 -74q-120 0 -195 74t-75 193zM209 1180q0 -58 30 -93.5t80 -35.5q51 0 82 35.5t31 93.5q0 57 -31 93t-82 36q-49 0 -79.5 -36t-30.5 -93z" />
<glyph horiz-adv-x="1017" d="M76 389v643h256v-643q0 -79 48.5 -129.5t125.5 -50.5q78 0 129 50.5t51 129.5v643h256v-643q0 -181 -121 -293t-315 -112q-193 0 -311.5 111.5t-118.5 293.5z" />
<glyph horiz-adv-x="446" d="M47 946v111h121v121h111v-121h120v-111h-120v-121h-111v121h-121z" />
<glyph horiz-adv-x="446" d="M47 707v110h352v-110h-352zM47 969v110h121v121h111v-121h120v-110h-120v-121h-111v121h-121z" />
<glyph horiz-adv-x="446" d="M47 127v111h121v120h111v-120h120v-111h-120v-121h-111v121h-121z" />
<glyph horiz-adv-x="446" d="M47 -2h352v-111h-352v111zM47 150v110h121v121h111v-121h120v-110h-120v-121h-111v121h-121z" />
<glyph horiz-adv-x="2025" d="M61 1208v226h1014v102h266v-676q102 82 238 82q158 0 251 -109.5t93 -289.5v-543h-266v543q0 72 -41.5 118t-108.5 46q-106 0 -166 -66v-641h-266v1208h-368v-1208h-277v1208h-369z" />
<glyph horiz-adv-x="1200" d="M68 516q0 236 148 383.5t384 147.5q238 0 385.5 -147.5t147.5 -383.5t-147.5 -383t-385.5 -147q-236 0 -384 147t-148 383zM219 516q0 -186 106 -303t275 -117t276 117t107 303t-107 303t-276 117t-275 -117t-106 -303zM348 516q0 119 74 192.5t194 73.5q118 0 191 -73 l-72 -70q-43 43 -112 43q-70 0 -114 -47t-44 -119t44 -119t114 -47q69 0 112 43l72 -69q-74 -74 -191 -74q-120 0 -194 73.5t-74 192.5z" />
<glyph horiz-adv-x="1200" d="M68 516q0 236 148 383.5t384 147.5q238 0 385.5 -147.5t147.5 -383.5t-147.5 -383t-385.5 -147q-236 0 -384 147t-148 383zM219 516q0 -186 106 -303t275 -117t276 117t107 303t-107 303t-276 117t-275 -117t-106 -303zM426 256v516h172q79 0 127.5 -42.5t48.5 -115.5 q0 -99 -88 -141l117 -217h-131l-97 201h-32v-201h-117zM543 553h55q26 0 41.5 16.5t15.5 44.5t-15.5 45t-41.5 17h-55v-123z" />
</font>
</defs>
</svg>
