<?xml version="1.0" standalone="no"?>
<!DOCTYPE svg PUBLIC "-//W3C//DTD SVG 1.1//EN" "http://www.w3.org/Graphics/SVG/1.1/DTD/svg11.dtd" >
<svg xmlns="http://www.w3.org/2000/svg">
<metadata></metadata>
<defs>
<font id="proba_proitalic" horiz-adv-x="450" >
<font-face units-per-em="2048" ascent="1536" descent="-512" />
<missing-glyph horiz-adv-x="471" />
<glyph unicode="&#xfb00;" horiz-adv-x="1183" d="M102 -512l234 1315h-129l22 119h127l58 319q25 140 123 224.5t237 84.5q62 0 109 -20l-25 -127q-33 20 -82 20q-79 0 -137 -51t-72 -131l-55 -319h367l55 319q25 140 123 224.5t237 84.5q62 0 109 -20l-23 -127q-38 20 -84 20q-79 0 -136.5 -51t-72.5 -131l-55 -319h262 l-20 -119h-264l-232 -1315h-153l231 1315h-367l-231 -1315h-156z" />
<glyph unicode="&#xfb01;" horiz-adv-x="1015" d="M102 -512l234 1315h-129l22 119h127l58 319q25 140 123 224.5t237 84.5q62 0 109 -20l-25 -127q-33 20 -82 20q-79 0 -137 -51t-72 -131l-55 -319h514l-162 -922h-147l139 803h-367l-231 -1315h-156zM901 1198q6 41 41 70.5t76 29.5q42 0 66 -29t18 -71 q-7 -41 -42.5 -70.5t-76.5 -29.5q-42 0 -66 29t-16 71z" />
<glyph unicode="&#xfb03;" horiz-adv-x="1536" d="M102 -512l234 1315h-129l22 119h127l58 319q25 140 123 224.5t237 84.5q62 0 109 -20l-25 -127q-33 20 -82 20q-79 0 -137 -51t-72 -131l-55 -319h367l55 319q25 140 123 224.5t237 84.5q62 0 109 -20l-23 -127q-38 20 -84 20q-79 0 -136.5 -51t-72.5 -131l-55 -319h516 l-162 -922h-149l139 803h-366l-232 -1315h-153l231 1315h-367l-231 -1315h-156zM1421 1198q8 42 42.5 71t76.5 29q41 0 65 -29.5t17 -70.5t-42.5 -70.5t-76.5 -29.5q-42 0 -66 29t-16 71z" />
<glyph unicode="fj" horiz-adv-x="1015" d="M102 -512l234 1315h-129l22 119h127l58 319q25 140 123 224.5t237 84.5q62 0 109 -20l-25 -127q-33 20 -82 20q-79 0 -137 -51t-72 -131l-55 -319h514l-217 -1229q-17 -99 -79.5 -156t-151.5 -57q-49 0 -68 8l18 100q53 0 88.5 27.5t45.5 81.5l194 1106h-367l-231 -1315 h-156zM901 1198q6 41 41 70.5t76 29.5q42 0 66 -29t18 -71q-7 -41 -42.5 -70.5t-76.5 -29.5q-42 0 -66 29t-16 71z" />
<glyph unicode="&#x457;&#x457;" horiz-adv-x="899" d="M150 0l161 922h150l-162 -922h-149zM174 1147q7 40 40 67t73 27t62.5 -27t15.5 -67q-6 -40 -38.5 -68t-72.5 -28t-63 28t-17 68zM555 1147q8 40 40.5 68t72.5 28q41 0 64.5 -28t15.5 -68t-40.5 -68t-72.5 -28t-63 28t-17 68zM600 0l162 922h149l-161 -922h-150zM934 1147 q7 40 41 68t74 28t62.5 -28t14.5 -68q-6 -40 -38.5 -68t-73.5 -28q-40 0 -63 28t-17 68z" />
<glyph unicode="&#x456;&#x457;" horiz-adv-x="899" d="M150 0l161 922h150l-162 -922h-149zM336 1198q6 41 41 70.5t76 29.5q42 0 66 -29t18 -71q-9 -42 -44 -71t-77 -29q-41 0 -65 29.5t-15 70.5zM600 0l162 922h149l-161 -922h-150zM641 1147q7 40 40 67t73 27t63 -27t17 -67q-8 -40 -40.5 -68t-72.5 -28t-63 28t-17 68z M934 1147q7 40 41 68t74 28t62.5 -28t14.5 -68q-6 -40 -38.5 -68t-73.5 -28q-40 0 -63 28t-17 68z" />
<glyph unicode="&#x2019;&#x457;" horiz-adv-x="622" d="M236 1059q95 78 122 149q-35 4 -54 32.5t-13 66.5q8 41 43 70.5t78 29.5q40 0 63.5 -29t13.5 -88q-20 -126 -208 -284zM322 0l161 922h150l-162 -922h-149zM657 1147q8 40 40.5 68t72.5 28q41 0 63.5 -28t14.5 -68q-6 -40 -39 -68t-74 -28q-40 0 -62.5 28t-15.5 68z" />
<glyph unicode="&#x407;&#x407;" horiz-adv-x="909" d="M150 0l251 1434h156l-252 -1434h-155zM258 1632q6 40 39.5 68.5t73.5 28.5t63 -28.5t17 -68.5q-7 -39 -41 -66.5t-74 -27.5t-62 27t-16 67zM604 0l252 1434h156l-252 -1434h-156zM645 1632q7 41 40 69t73 28t63 -28t17 -69q-8 -40 -41 -67t-74 -27q-40 0 -62.5 27 t-15.5 67zM1034 1632q7 41 40 69t73 28t63 -28t17 -69q-8 -40 -41 -67t-74 -27q-40 0 -62.5 27t-15.5 67z" />
<glyph unicode="ffj" horiz-adv-x="1536" d="M102 -512l234 1315h-129l22 119h127l58 319q25 140 123 224.5t237 84.5q62 0 109 -20l-25 -127q-33 20 -82 20q-79 0 -137 -51t-72 -131l-55 -319h367l55 319q25 140 123 224.5t237 84.5q62 0 109 -20l-23 -127q-38 20 -84 20q-79 0 -136.5 -51t-72.5 -131l-55 -319h516 l-219 -1229q-17 -99 -79.5 -156t-151.5 -57q-49 0 -68 8l19 100q53 0 88.5 27.5t44.5 81.5l194 1106h-366l-232 -1315h-153l231 1315h-367l-231 -1315h-156zM1421 1198q8 42 42.5 71t76.5 29q41 0 65 -29.5t17 -70.5t-42.5 -70.5t-76.5 -29.5q-42 0 -66 29t-16 71z" />
<glyph horiz-adv-x="0" />
<glyph horiz-adv-x="682" />
<glyph unicode=" "  horiz-adv-x="471" />
<glyph unicode="&#x09;" horiz-adv-x="471" />
<glyph unicode="&#xa0;" horiz-adv-x="471" />
<glyph unicode="!" d="M139 86q6 41 41 70.5t76 29.5t65.5 -29.5t18.5 -70.5q-7 -43 -41.5 -71.5t-77.5 -28.5q-42 0 -65.5 29t-16.5 71zM219 393l182 1041h150l-182 -1041h-150z" />
<glyph unicode="&#x22;" horiz-adv-x="747" d="M311 922l90 512h131l-90 -512h-131zM629 922l90 512h129l-90 -512h-129z" />
<glyph unicode="#" horiz-adv-x="1239" d="M145 360l21 119h174l158 475h-174l22 119h191l122 361h150l-123 -361h352l121 361h150l-123 -361h157l-20 -119h-174l-160 -475h178l-20 -119h-197l-119 -360h-149l119 360h-350l-119 -360h-152l121 360h-156zM489 479h353l157 475h-352z" />
<glyph unicode="$" horiz-adv-x="1085" d="M115 174l112 96q45 -64 122 -102t163 -43l96 537q-31 13 -51 22t-49.5 23.5t-48.5 26.5t-43.5 29t-40 34t-32 38.5t-25 45.5t-15 52t-6 60.5t7.5 69.5q13 73 47 139t87.5 120.5t132.5 88t173 37.5l35 190h90l-34 -194q97 -11 180.5 -53.5t138.5 -110.5l-115 -98 q-36 47 -98 80.5t-131 42.5l-90 -512q88 -37 133 -61.5t104 -71.5t78 -112.5t4 -152.5q-13 -75 -49.5 -143.5t-93.5 -125.5t-139.5 -94t-179.5 -44l-33 -193h-90l32 193q-117 6 -213 54t-159 132zM465 1067q-8 -45 1 -82t35.5 -65.5t58 -49.5t77.5 -43l84 480 q-109 -12 -175.5 -84t-80.5 -156zM604 129q62 10 113.5 39t84.5 66.5t53 77.5t26 79q8 45 -2.5 81.5t-40.5 65t-63 48t-83 41.5z" />
<glyph unicode="%" horiz-adv-x="1751" d="M274 1102q28 155 142 250.5t268 95.5q155 0 234 -95.5t51 -250.5t-141 -250.5t-267 -95.5q-155 0 -234 95.5t-53 250.5zM410 1102q-19 -102 29.5 -167t142.5 -65t164.5 64.5t87.5 167.5q19 103 -28.5 167t-141.5 64t-164.5 -64t-89.5 -167zM424 0l1006 1434h151 l-1006 -1434h-151zM1032 332q28 155 141 250.5t267 95.5q155 0 234.5 -95.5t51.5 -250.5t-140 -250.5t-267 -95.5t-234 95.5t-53 250.5zM1167 332q-19 -103 28.5 -167.5t141.5 -64.5t164.5 64.5t89.5 167.5t-28.5 167t-141.5 64q-95 0 -165 -64t-89 -167z" />
<glyph unicode="&#x26;" horiz-adv-x="1234" d="M170 416q24 131 104 226t199 140q-76 41 -109.5 118t-13.5 179q28 164 154 266.5t299 102.5q171 0 260 -102t61 -267h-153q17 104 -36.5 170t-156.5 66q-104 0 -179.5 -65.5t-94.5 -170.5q-19 -104 34 -170.5t156 -66.5h58l-21 -127h-57q-132 0 -228.5 -83.5 t-119.5 -215.5q-25 -132 42.5 -214.5t198.5 -82.5q132 0 228.5 82.5t119.5 214.5l54 299h-156l21 127h466l-22 -127h-156l-53 -299q-34 -192 -178.5 -311t-345.5 -119t-305 119t-70 311z" />
<glyph unicode="'" horiz-adv-x="430" d="M311 922l90 512h131l-90 -512h-131z" />
<glyph unicode="(" horiz-adv-x="610" d="M169.5 -31q-7.5 231 45.5 543q52 301 144.5 540t202.5 368.5t216 129.5l-20 -114q-45 0 -98.5 -68t-105.5 -187t-101 -293.5t-84 -375.5q-48 -267 -54.5 -480.5t25 -328.5t92.5 -115l-18 -114q-107 0 -172 132t-72.5 363z" />
<glyph unicode=")" horiz-adv-x="610" d="M12 -526l19 114q45 0 98.5 68t105.5 187.5t101.5 293.5t85.5 375q46 268 52 481t-25.5 328t-92.5 115l21 114q107 0 170.5 -132t71 -363t-43.5 -543q-40 -227 -104 -421.5t-138.5 -329t-158 -211t-162.5 -76.5z" />
<glyph unicode="*" horiz-adv-x="913" d="M291 1128l55 109l254 -88l51 285h113l-49 -285l289 90l14 -109l-289 -90l131 -231l-106 -66l-127 232l-207 -234l-80 70l207 229z" />
<glyph unicode="+" horiz-adv-x="892" d="M219 541l21 118h262l47 263h119l-47 -263h262l-21 -118h-262l-45 -262h-121l47 262h-262z" />
<glyph unicode="," d="M84 -162q98 83 123 150q-35 5 -54.5 32.5t-13.5 65.5q6 41 41 70.5t76 29.5t65.5 -28.5t16.5 -87.5q-23 -129 -209 -285z" />
<glyph unicode="-" horiz-adv-x="696" d="M209 483l20 119h449l-23 -119h-446z" />
<glyph unicode="." d="M139 86q6 41 41 70.5t76 29.5t65.5 -29.5t18.5 -70.5q-7 -43 -41.5 -71.5t-77.5 -28.5q-42 0 -65.5 29t-16.5 71z" />
<glyph unicode="/" horiz-adv-x="1124" d="M90 -102l1045 1638h151l-1044 -1638h-152z" />
<glyph unicode="0" horiz-adv-x="1157" d="M220.5 334.5q-28.5 162.5 6.5 382.5q59 326 227 528.5t380 202.5q140 0 232.5 -93t120.5 -255.5t-7 -382.5q-59 -326 -226 -528.5t-379 -202.5q-140 0 -233 93t-121.5 255.5zM368.5 405q15.5 -133 75.5 -209.5t154 -76.5q143 0 262 166.5t166 431.5q46 266 -14.5 432 t-202.5 166q-143 0 -261.5 -166.5t-164.5 -431.5q-30 -179 -14.5 -312z" />
<glyph unicode="1" horiz-adv-x="647" d="M287 1257l22 121l385 64l-254 -1442h-147l227 1300z" />
<glyph unicode="2" horiz-adv-x="1058" d="M102 0l23 133l731 621q97 85 125 241q25 141 -38 229.5t-189 88.5q-125 0 -219 -88.5t-119 -229.5h-154q37 202 179.5 327.5t336.5 125.5q195 0 294.5 -125.5t62.5 -327.5q-37 -209 -193 -342l-614 -524h655l-22 -129h-859z" />
<glyph unicode="3" horiz-adv-x="1089" d="M166 416h153q-23 -132 44 -214.5t198 -82.5q132 0 228.5 82.5t119.5 214.5q25 132 -42 215.5t-199 83.5h-95l23 127h94q103 0 179.5 66.5t95.5 170.5t-35.5 170t-157.5 66t-179 -66t-93 -170h-156q29 164 155 266.5t298 102.5q173 0 261.5 -102t59.5 -267 q-18 -102 -78.5 -179t-148.5 -118q103 -45 150 -140t24 -226q-34 -192 -179.5 -311t-346.5 -119q-200 0 -303.5 119t-69.5 311z" />
<glyph unicode="4" horiz-adv-x="1122" d="M131 279l12 73l836 1082h154l-183 -1026h129l-20 -129h-125l-47 -279h-150l47 279h-653zM338 408h473l143 798z" />
<glyph unicode="5" horiz-adv-x="1073" d="M158 410h149q-22 -128 44.5 -208.5t193.5 -80.5q125 0 219 88t119 229q28 153 -44.5 249.5t-213.5 96.5q-148 0 -254 -88l-101 43l211 695h625l-23 -129h-493l-135 -433q85 48 202 48q207 0 312 -133.5t67 -348.5q-35 -202 -178 -327t-338 -125q-194 0 -294 117.5 t-68 306.5z" />
<glyph unicode="6" horiz-adv-x="1085" d="M170 446q31 179 150 349t480 590q11 13 18 21t17 20t19 22l115 -74q-264 -295 -441 -534q74 41 170 41q199 0 302.5 -123.5t68.5 -323.5t-181.5 -324t-348.5 -124t-303.5 124t-65.5 336zM324 434q-26 -139 40.5 -227t198.5 -88q130 0 227.5 87.5t122.5 227.5 q26 141 -40.5 229.5t-198.5 88.5q-130 0 -227.5 -88.5t-122.5 -229.5z" />
<glyph unicode="7" horiz-adv-x="1071" d="M291 0l715 1305h-674l22 129h867l-11 -56l-759 -1378h-160z" />
<glyph unicode="8" horiz-adv-x="1095" d="M170 416q24 132 103 226.5t198 139.5q-75 41 -108 118t-13 179q28 164 154 266.5t299 102.5q171 0 260 -102t61 -267q-20 -103 -79.5 -180t-147.5 -117q103 -45 149 -140t23 -226q-34 -192 -178.5 -311t-345.5 -119t-305 119t-70 311zM326 416q-25 -132 42.5 -214.5 t198.5 -82.5q132 0 228.5 82.5t119.5 214.5t-44 214.5t-197 82.5q-132 0 -228.5 -82.5t-119.5 -214.5zM504 1079q-19 -104 34 -169.5t156 -65.5q104 0 181 65.5t96 169.5q17 104 -36.5 170t-156.5 66q-104 0 -179.5 -65.5t-94.5 -170.5z" />
<glyph unicode="9" horiz-adv-x="1085" d="M268 999q35 200 182 324.5t349 124.5t303 -124.5t63 -336.5q-31 -178 -148 -345.5t-470 -580.5q-14 -16 -21.5 -25t-20 -23.5t-22.5 -26.5l-116 73q254 284 440 535q-74 -41 -170 -41q-199 0 -302.5 123t-66.5 323zM422 999q-25 -141 42.5 -229t199.5 -88q131 0 228 88 t122 229q25 140 -42.5 228t-199.5 88q-130 0 -227.5 -88t-122.5 -228z" />
<glyph unicode=":" d="M139 86q6 41 41 70.5t76 29.5t65.5 -29.5t18.5 -70.5q-7 -43 -41.5 -71.5t-77.5 -28.5q-42 0 -65.5 29t-16.5 71zM270 836q7 42 42 71t77 29q43 0 66.5 -28.5t15.5 -71.5q-6 -41 -41 -71t-76 -30q-42 0 -66 29.5t-18 71.5z" />
<glyph unicode=";" d="M84 -162q98 83 123 150q-35 5 -54.5 32.5t-13.5 65.5q6 41 41 70.5t76 29.5t65.5 -28.5t16.5 -87.5q-23 -129 -209 -285zM270 836q7 42 42 71t77 29q43 0 66.5 -28.5t15.5 -71.5q-6 -41 -41 -71t-76 -30q-42 0 -66 29.5t-18 71.5z" />
<glyph unicode="&#x3c;" horiz-adv-x="839" d="M180 614l643 392l72 -88l-504 -304l397 -303l-102 -88z" />
<glyph unicode="=" horiz-adv-x="974" d="M178 309l21 121h727l-23 -121h-725zM240 668l22 118h727l-22 -118h-727z" />
<glyph unicode="&#x3e;" horiz-adv-x="839" d="M147 311l504 303l-395 304l102 88l504 -392l-641 -391z" />
<glyph unicode="?" horiz-adv-x="964" d="M305 1298q191 150 420 150q78 0 141 -20t103 -55t66 -82t30 -100.5t-4 -111.5q-11 -62 -37 -111t-60 -81.5t-73 -61.5t-78.5 -58t-73.5 -62t-60.5 -82.5t-37.5 -112.5l-20 -117h-150l21 117q14 76 42.5 137.5t63 101.5t74 73t77.5 59.5t70.5 53.5t56 62.5t31.5 79.5 q7 43 -0.5 83.5t-30 76t-68.5 57t-110 21.5q-81 0 -165.5 -31t-147.5 -84zM391 86q6 41 41 70.5t76 29.5q42 0 66 -29t18 -71t-40.5 -71t-76.5 -29q-43 0 -66.5 28.5t-17.5 71.5z" />
<glyph unicode="@" horiz-adv-x="2129" d="M172 461q51 290 213.5 514.5t406.5 348.5t531 124q218 0 389 -71t272.5 -194t141 -288.5t6.5 -353.5q-21 -121 -67 -218.5t-103 -159t-125.5 -102.5t-132.5 -58t-127 -17q-86 0 -143.5 27t-77.5 79q-130 -106 -305 -106q-200 0 -299.5 131.5t-61.5 343.5q37 213 192 344 t371 131q121 0 213 -39.5t144 -110.5l-99 -561q-10 -52 23.5 -79t93.5 -27q49 0 99 22t99.5 67t89 126.5t58.5 189.5q40 221 -26 400t-234.5 285t-413.5 106q-242 0 -448 -107.5t-343 -302t-181 -444.5q-45 -251 24 -445t239 -301.5t415 -107.5q187 0 364.5 63t304.5 178 l80 -94q-152 -135 -354 -207.5t-422 -72.5q-217 0 -387 72t-275 201t-144 313t-1 401zM844 461q-26 -153 47 -247.5t219 -94.5t248 88l92 522q-77 74 -225 74q-144 0 -248.5 -94.5t-132.5 -247.5z" />
<glyph unicode="A" horiz-adv-x="1533" d="M57 0l889 1434h148l383 -1434h-179l-108 414h-703l-251 -414h-179zM569 553h588l-172 684z" />
<glyph unicode="B" horiz-adv-x="1116" d="M156 0l252 1434h391q173 0 261 -100q65 -74 64 -186q0 -39 -8 -83q-19 -106 -76.5 -186t-144.5 -123q107 -37 156 -133q33 -65 33 -147q0 -38 -7 -81q-32 -180 -163 -287.5t-314 -107.5h-444zM338 135h278q117 0 201.5 74t106.5 197q6 33 6 63q0 75 -42 129 q-59 74 -177 74h-279zM457 807h223q107 0 184 67.5t97 178.5q5 30 5 56q0 71 -39 121q-54 68 -161 68h-223z" />
<glyph unicode="C" horiz-adv-x="1431" d="M227 717q59 326 294.5 528.5t557.5 202.5q161 0 285 -53.5t203 -153.5l-117 -98q-131 166 -389 166q-253 0 -440.5 -164.5t-233.5 -427.5q-12 -69 -13 -132q0 -175 96 -296q129 -164 382 -164q257 0 448 164l82 -96q-237 -207 -561 -207q-213 0 -361 92t-210 258 q-38 103 -38 224q0 75 15 157z" />
<glyph unicode="D" horiz-adv-x="1417" d="M156 0l252 1434h438q212 0 360 -88t210 -252q38 -101 38 -222q0 -74 -14 -155q-58 -324 -291 -520.5t-555 -196.5h-438zM338 135h278q251 0 434 159.5t230 422.5q12 70 12 133q0 173 -93 289q-127 159 -378 159h-278z" />
<glyph unicode="E" horiz-adv-x="1019" d="M156 0l252 1434h755l-22 -129h-602l-90 -519h534l-22 -129h-537l-92 -528h612l-22 -129h-766z" />
<glyph unicode="F" horiz-adv-x="966" d="M156 0l252 1434h725l-23 -129h-571l-90 -519h497l-22 -129h-500l-115 -657h-153z" />
<glyph unicode="G" horiz-adv-x="1505" d="M227 717q59 326 294.5 528.5t557.5 202.5q161 0 285 -53.5t203 -153.5l-117 -98q-131 166 -389 166q-253 0 -440.5 -164.5t-233.5 -427.5q-12 -69 -12 -132q0 -175 95 -296q129 -164 382 -164q218 0 387 121l66 381h-371l22 129h525l-101 -566q-111 -99 -254.5 -151.5 t-304.5 -52.5q-213 0 -361 92t-210 258q-38 103 -38 224q0 75 15 157z" />
<glyph unicode="H" horiz-adv-x="1413" d="M156 0l252 1434h153l-112 -648h794l113 648h153l-252 -1434h-153l115 657h-795l-115 -657h-153z" />
<glyph unicode="I" horiz-adv-x="454" d="M150 0l251 1434h156l-252 -1434h-155z" />
<glyph unicode="J" horiz-adv-x="927" d="M98 98l119 101q55 -74 172 -74q114 0 196.5 72.5t104.5 191.5l184 1045h154l-184 -1045q-31 -181 -161.5 -292t-311.5 -111q-87 0 -158.5 29.5t-114.5 82.5z" />
<glyph unicode="K" horiz-adv-x="1220" d="M150 0l251 1434h156l-252 -1434h-155zM455 735l714 699h195l-715 -699l508 -735h-199z" />
<glyph unicode="L" horiz-adv-x="952" d="M156 0l252 1434h153l-229 -1305h559l-21 -129h-714z" />
<glyph unicode="M" horiz-adv-x="1656" d="M156 0l252 1434h116l400 -887l710 887h119l-252 -1434h-153l194 1116l-622 -786h-70l-344 786l-197 -1116h-153z" />
<glyph unicode="N" horiz-adv-x="1460" d="M156 0l252 1434h104l688 -1143l203 1143h153l-251 -1434h-105l-690 1143l-201 -1143h-153z" />
<glyph unicode="O" horiz-adv-x="1648" d="M227 717q59 326 294.5 528.5t557.5 202.5q213 0 360.5 -92t208.5 -258q38 -102 37 -223q0 -75 -14 -158q-59 -326 -293.5 -528.5t-556.5 -202.5q-213 0 -361 92t-210 258q-38 103 -38 224q0 75 15 157zM387 717q-12 -70 -13 -133q0 -175 94 -295q128 -164 378 -164 q251 0 435 164t230 428q12 71 12 134q0 174 -92 294q-126 164 -376 164q-251 0 -436.5 -164t-231.5 -428z" />
<glyph unicode="P" horiz-adv-x="1062" d="M156 0l252 1434h387q187 0 283 -110q72 -82 71 -205q0 -41 -8 -87q-32 -182 -166 -290.5t-322 -108.5h-227l-111 -633h-159zM449 766h227q117 0 201 73t106 193q5 31 5 58q0 80 -43 135q-58 73 -175 73h-227z" />
<glyph unicode="Q" horiz-adv-x="1648" d="M227 717q59 326 294.5 528.5t557.5 202.5q213 0 360.5 -92t208.5 -258q38 -102 38 -223q0 -75 -15 -158q-52 -291 -248 -484l156 -188l-117 -98l-153 188q-213 -149 -488 -149q-213 0 -361 92t-210 258q-38 103 -38 224q0 75 15 157zM387 717q-12 -70 -12 -134 q0 -174 93 -294q126 -164 376 -164q224 0 379 113l-193 235l115 98l184 -223q142 152 182 369q12 69 12 131q0 96 -28 178q-46 134 -161 208.5t-281 74.5q-250 0 -435 -164.5t-231 -427.5z" />
<glyph unicode="R" horiz-adv-x="1093" d="M156 0l252 1434h401q187 0 283 -110q72 -83 73 -207q0 -40 -8 -85q-29 -154 -129 -256t-248 -133l252 -643h-176l-233 633h-197l-111 -633h-159zM449 766h243q116 0 199.5 73t105.5 193q6 33 6 62q-1 78 -43 131q-58 73 -174 73h-243z" />
<glyph unicode="S" horiz-adv-x="1085" d="M115 174l112 96q50 -69 135 -107t177 -38q77 0 141 25.5t104.5 66.5t65 85.5t31.5 88.5q3 18 3 35q0 30 -10 58q-16 42 -52 69.5t-84 52.5t-101.5 45t-107 46t-100 55.5t-79.5 73.5q-34 45 -46 101q-6 27 -6 61q0 35 7 75q13 76 49.5 143.5t93 122.5t140 87t182.5 32 q118 0 219.5 -43.5t165.5 -124.5l-115 -98q-42 56 -119 91.5t-161 35.5q-126 0 -202.5 -74.5t-92.5 -167.5q-3 -20 -4 -38q-1 -45 21 -81q30 -50 85.5 -82.5t124.5 -61t137.5 -61.5t122 -75t79.5 -112q16 -42 16 -92q0 -33 -7 -69q-14 -80 -54 -152t-103 -130t-155 -92.5 t-200 -34.5q-130 0 -237 48.5t-176 139.5z" />
<glyph unicode="T" horiz-adv-x="1140" d="M311 1305l23 129h977l-23 -129h-411l-230 -1305h-153l229 1305h-412z" />
<glyph unicode="U" horiz-adv-x="1378" d="M246 522l162 912h153l-160 -912q-9 -48 -8 -92q0 -116 62 -196q86 -110 254 -109q169 0 294 109.5t156 287.5l162 912h154l-160 -912q-43 -241 -217 -388.5t-412 -147.5q-239 0 -360 148q-90 110 -90 272q0 55 10 116z" />
<glyph unicode="V" horiz-adv-x="1533" d="M309 1434h183l311 -1233l743 1233h183l-887 -1434h-148z" />
<glyph unicode="W" horiz-adv-x="2320" d="M309 1434h178l226 -1196l618 1196h162l195 -1196l649 1196h178l-791 -1434h-155l-203 1169l-614 -1169h-156z" />
<glyph unicode="X" horiz-adv-x="1476" d="M63 0l689 725l-422 709h198l355 -603l567 603h199l-674 -709l438 -725h-199l-368 621l-586 -621h-197z" />
<glyph unicode="Y" horiz-adv-x="1366" d="M309 1434h180l328 -662l563 662h179l-693 -818l-106 -616h-156l109 618z" />
<glyph unicode="Z" horiz-adv-x="1280" d="M102 0l11 57l1065 1248h-832l23 129h1054l-8 -56l-1067 -1249h852l-22 -129h-1076z" />
<glyph unicode="[" horiz-adv-x="608" d="M57 -512l363 2048h356l-22 -119h-207l-318 -1810h205l-20 -119h-357z" />
<glyph unicode="\" horiz-adv-x="1124" d="M379 1536h151l467 -1638h-151z" />
<glyph unicode="]" horiz-adv-x="608" d="M12 -512l23 119h205l317 1810h-205l23 119h354l-362 -2048h-355z" />
<glyph unicode="^" horiz-adv-x="927" d="M246 993l461 389l321 -389l-90 -78l-258 312l-369 -312z" />
<glyph unicode="_" horiz-adv-x="921" d="M-57 -324l22 119h920l-23 -119h-919z" />
<glyph unicode="`" horiz-adv-x="542" d="M332 1305l94 77l209 -256l-90 -77z" />
<glyph unicode="a" horiz-adv-x="1103" d="M172 461q38 213 193 344t370 131q122 0 214.5 -39.5t142.5 -110.5l-138 -786h-149l12 74q-127 -88 -285 -88q-198 0 -298 132q-73 96 -72 234q0 52 10 109zM328 461q-8 -42 -8 -80q0 -99 54 -167q74 -95 218.5 -95t249.5 88l90 524q-78 72 -223 72q-144 0 -249.5 -94.5 t-131.5 -247.5z" />
<glyph unicode="b" horiz-adv-x="1103" d="M172 135l248 1401h149l-120 -676q124 76 274 76q203 0 305 -132q74 -96 75 -234q0 -52 -11 -109q-37 -212 -192 -343.5t-370 -131.5q-122 0 -215 39t-143 110zM332 193q77 -74 225 -74q144 0 249.5 94.5t131.5 247.5q8 42 8 80q0 99 -54 167q-74 95 -216 95 q-148 0 -254 -98z" />
<glyph unicode="c" horiz-adv-x="978" d="M172 461q38 212 192 343.5t365 131.5q208 0 315 -139l-108 -92q-72 98 -223 98q-145 0 -252 -95t-133 -247q-8 -42 -7 -80q1 -99 53 -167q74 -95 218 -95q151 0 258 96l76 -92q-153 -137 -365 -137q-211 0 -319 132q-80 98 -79 240q0 49 9 103z" />
<glyph unicode="d" horiz-adv-x="1107" d="M172 461q38 212 191 343.5t362 131.5q140 0 236 -68l118 668h150l-271 -1536h-149l12 78q-128 -92 -289 -92q-198 0 -298 132q-73 96 -72 234q0 52 10 109zM328 461q-8 -42 -8 -80q0 -99 54 -167q74 -95 218 -95q148 0 254 92l88 504q-75 88 -221 88q-145 0 -252 -95 t-133 -247z" />
<glyph unicode="e" horiz-adv-x="1040" d="M174 465q37 210 181.5 340.5t342.5 130.5t284 -138q58 -92 58 -230q0 -67 -14 -146h-702q-2 -22 -2 -43q0 -107 62 -177q74 -82 214 -83q155 0 262 96l74 -92q-153 -137 -369 -137q-213 0 -321 132q-80 97 -80 240q0 51 10 107zM344 528h551q1 18 1 34q0 104 -48 168 q-56 74 -170 75q-117 0 -208 -75t-126 -202z" />
<glyph unicode="f" horiz-adv-x="663" d="M102 -512l234 1315h-129l22 119h127l58 319q25 140 123 224.5t237 84.5q62 0 109 -20l-25 -127q-33 20 -82 20q-79 0 -137 -51t-72 -131l-55 -319h262l-22 -119h-263l-231 -1315h-156z" />
<glyph unicode="g" horiz-adv-x="1038" d="M4 -242q15 88 83 153.5t171 98.5q-94 44 -94 128q0 13 2 26q22 106 158 158q-71 38 -100 112q-17 46 -17 99q0 32 6 67q28 153 145 244.5t279 91.5q148 0 233 -82q82 82 172 82q36 0 50 -4l-21 -121q-18 6 -41 6q-51 0 -104 -47q17 -46 17 -102q0 -30 -5 -64 q-26 -148 -143 -240t-281 -92q-86 0 -140.5 -29.5t-62.5 -74.5q-1 -6 -1 -11q0 -38 48 -63q54 -28 154 -28q196 0 302 -78q87 -64 87 -162q0 -21 -4 -43q-25 -137 -173 -223t-351 -86q-192 0 -291 78q-82 65 -82 162q0 21 4 44zM158 -242q-3 -14 -3 -27q0 -57 51 -95 q63 -46 185 -46q134 0 234.5 53.5t115.5 137.5q2 11 2 22q0 60 -59 99q-68 45 -192 45q-137 0 -228.5 -52.5t-105.5 -136.5zM362 604q-4 -24 -4 -45q0 -64 38 -109q50 -59 145 -59t165 59.5t87 153.5q4 24 4 45q0 63 -37 108q-50 60 -144 60q-95 0 -166 -59.5t-88 -153.5z " />
<glyph unicode="h" horiz-adv-x="1071" d="M150 0l270 1536h149l-123 -690q133 90 289 90t232 -104q55 -75 55 -185q0 -42 -8 -88l-99 -559h-147l96 559q6 30 6 56q0 69 -38 119q-52 68 -156 69q-149 0 -252 -92l-125 -711h-149z" />
<glyph unicode="i" d="M150 0l161 922h150l-162 -922h-149zM336 1198q6 41 41 70.5t76 29.5q42 0 66 -29q19 -23 20 -55q0 -8 -2 -16q-9 -42 -44 -71t-77 -29q-41 0 -65 30q-17 21 -17 48q0 11 2 22z" />
<glyph unicode="j" d="M-53 -512l18 100q50 0 85.5 28t45.5 81l215 1225h150l-217 -1229q-17 -99 -80.5 -156t-153.5 -57q-44 0 -63 8zM336 1198q6 41 41 70.5t76 29.5q42 0 66 -29q19 -23 19 -55q0 -8 -1 -16q-9 -42 -44 -71t-77 -29q-41 0 -65 30q-17 21 -17 48q0 11 2 22z" />
<glyph unicode="k" horiz-adv-x="954" d="M150 0l270 1536h149l-182 -1030l442 416h179l-463 -433l346 -489h-178l-332 473l-82 -473h-149z" />
<glyph unicode="l" horiz-adv-x="505" d="M184 205l236 1331h149l-233 -1327q-3 -15 -3 -27q0 -34 20 -54q27 -28 81 -28l-16 -100q-21 -8 -76 -8q-89 0 -132 57q-31 41 -31 103q0 25 5 53z" />
<glyph unicode="m" horiz-adv-x="1558" d="M150 0l161 922h150l-15 -76q133 90 289 90q155 0 211 -125q147 125 344 125q128 0 190 -86q45 -62 45 -152q0 -36 -7 -77l-109 -621h-149l108 621q4 22 4 41q0 53 -28 90q-38 51 -113 51q-155 0 -262 -90q0 -59 -6 -92l-109 -621h-149l108 621q4 22 4 41q0 53 -28 90 q-38 51 -113 51q-147 0 -252 -94l-125 -709h-149z" />
<glyph unicode="n" horiz-adv-x="1067" d="M150 0l161 922h150l-15 -76q133 90 289 90t232 -104q55 -75 55 -185q0 -42 -8 -88l-99 -559h-147l96 559q6 30 6 56q0 69 -38 119q-52 68 -156 69q-147 0 -252 -94l-125 -709h-149z" />
<glyph unicode="o" horiz-adv-x="1136" d="M172 461q38 212 193.5 343.5t367.5 131.5t320 -132q80 -98 81 -240q0 -49 -10 -103q-38 -212 -192.5 -343.5t-366.5 -131.5t-321 132q-81 98 -81 241q0 48 9 102zM328 461q-8 -42 -7 -80q-1 -98 51 -167q72 -95 215.5 -95t249.5 95t134 247q7 40 7 76q0 101 -54 171 q-72 95 -215 95t-249 -95t-132 -247z" />
<glyph unicode="p" horiz-adv-x="1107" d="M57 -512l254 1434h150l-15 -78q131 92 291 92q198 0 297 -132q72 -95 72 -234q0 -51 -10 -109q-38 -212 -190 -343.5t-359 -131.5q-149 0 -240 67l-100 -565h-150zM334 207q72 -88 221 -88q145 0 252 95t133 247q8 42 8 80q0 98 -54 167q-73 95 -218 95q-149 0 -254 -94z " />
<glyph unicode="q" horiz-adv-x="1103" d="M172 461q38 213 193 344t370 131q122 0 214.5 -39.5t142.5 -110.5l-230 -1298h-149l100 571q-121 -73 -268 -73q-203 0 -307 132q-76 96 -76 237q0 50 10 106zM328 461q-8 -42 -8 -80q0 -98 52 -167q73 -95 216 -95q147 0 254 96l90 516q-78 72 -223 72 q-144 0 -249.5 -94.5t-131.5 -247.5z" />
<glyph unicode="r" horiz-adv-x="706" d="M150 0l161 922h150l-21 -111q133 123 273 123q21 0 57 -4l-22 -131q-30 6 -68 6q-148 0 -262 -127l-119 -678h-149z" />
<glyph unicode="s" horiz-adv-x="786" d="M98 109l109 92q29 -41 79.5 -65.5t104.5 -24.5q84 0 134 47t59 102q2 10 2 20q0 26 -14 46q-19 28 -54 47t-78 36t-85.5 38.5t-76 49t-49.5 73.5q-10 28 -10 61q0 21 4 43q21 109 105.5 185.5t220.5 76.5q80 0 149 -28t111 -81l-109 -92q-25 31 -71 52.5t-92 21.5 q-70 0 -112.5 -41t-49.5 -92q-2 -11 -2 -21q0 -26 13 -48q18 -30 52.5 -49t77.5 -36.5t85.5 -38.5t76 -48t49.5 -71q10 -27 10 -59q0 -20 -4 -43q-19 -112 -113.5 -194t-240.5 -82q-88 0 -162.5 32.5t-118.5 90.5z" />
<glyph unicode="t" horiz-adv-x="653" d="M201 803l22 119h119l35 204h153l-34 -204h247l-22 -119h-248l-90 -518q-4 -21 -4 -40q0 -50 27 -84q37 -48 110 -48q43 0 88 20l-22 -127q-53 -20 -113 -20q-133 0 -199 82q-48 59 -48 147q0 33 7 70l90 518h-118z" />
<glyph unicode="u" horiz-adv-x="1087" d="M215 379l96 543h156l-96 -543q-5 -31 -6 -59q0 -76 40 -129q54 -72 162 -72q107 0 188 72.5t101 187.5l96 543h148l-99 -543q-31 -177 -158 -285t-302 -108t-266 108q-68 81 -68 200q0 40 8 85z" />
<glyph unicode="v" horiz-adv-x="1083" d="M215 922h166l192 -738l453 738h166l-580 -922h-141z" />
<glyph unicode="w" horiz-adv-x="1622" d="M215 922h170l133 -742l379 742h152l116 -742l396 742h170l-519 -922h-155l-121 713l-371 -713h-155z" />
<glyph unicode="x" horiz-adv-x="1050" d="M63 0l447 469l-270 453h174l209 -355l338 355h174l-433 -453l285 -469h-174l-223 375l-354 -375h-173z" />
<glyph unicode="y" horiz-adv-x="1083" d="M115 -512l356 512l-256 922h166l192 -744l453 744h166l-911 -1434h-166z" />
<glyph unicode="z" horiz-adv-x="962" d="M102 0l11 57l671 746h-532l20 119h750l-10 -56l-672 -747h541l-21 -119h-758z" />
<glyph unicode="{" horiz-adv-x="651" d="M162 453l20 114q68 0 134 94.5t90 239.5l34 201q36 197 150.5 322.5t251.5 125.5l-21 -114q-69 0 -134 -94t-91 -240l-35 -201q-24 -138 -89.5 -241t-152.5 -150q71 -48 99 -151.5t4 -241.5l-33 -195q-27 -145 5 -239.5t100 -94.5l-19 -114q-137 0 -207 125.5t-35 322.5 l35 195q26 147 -5.5 241.5t-100.5 94.5z" />
<glyph unicode="|" d="M57 -512l363 2048h149l-362 -2048h-150z" />
<glyph unicode="}" horiz-adv-x="651" d="M-10 -526l18 114q69 0 134 94t91 240l35 195q24 138 89.5 241t152.5 152q-71 47 -99.5 150t-4.5 241l34 201q27 146 -4.5 240t-99.5 94l20 114q137 0 206 -125.5t34 -322.5l-35 -201q-26 -146 6 -240t101 -94l-21 -114q-67 0 -132.5 -95t-92.5 -241l-33 -195 q-35 -197 -148.5 -322.5t-250.5 -125.5z" />
<glyph unicode="~" horiz-adv-x="886" d="M162 510q17 97 89.5 158t166.5 61q45 0 78.5 -13.5t54.5 -32.5t40.5 -38.5t46 -33t60.5 -13.5q52 0 91.5 34t48.5 89h100q-17 -98 -89.5 -159.5t-168.5 -61.5q-45 0 -78.5 13.5t-54 33t-39.5 39.5t-45.5 33.5t-61.5 13.5q-51 0 -89.5 -34t-47.5 -89h-102z" />
<glyph unicode="&#xa1;" d="M57 -512l187 1040h147l-184 -1040h-150zM270 836q7 42 42 71t77 29q43 0 66.5 -28.5t15.5 -71.5q-6 -41 -41 -71t-76 -30q-42 0 -66 29.5t-18 71.5z" />
<glyph unicode="&#xa2;" horiz-adv-x="978" d="M172 461q35 193 168 321t319 150l35 194h90l-32 -190q192 -9 292 -139l-108 -92q-69 92 -209 98l-119 -684q143 3 242 96l76 -92q-143 -128 -342 -137l-33 -191h-90l33 195q-179 22 -267.5 149.5t-54.5 321.5zM328 461q-24 -131 28 -221t162 -115l117 670 q-118 -23 -201.5 -113.5t-105.5 -220.5z" />
<glyph unicode="&#xa3;" horiz-adv-x="1048" d="M78 0q13 89 67 151.5t131 86.5l76 419h-155l22 119h154l49 268q32 181 163 292.5t310 111.5q178 0 270 -113l-116 -100q-58 74 -172 74t-198 -73.5t-104 -191.5l-47 -268h363l-21 -119h-364l-74 -417q46 -12 99 -45t101 -57.5t97 -24.5q53 0 91.5 33t47.5 87h121 q-19 -111 -97 -179t-183 -68q-57 0 -111 21.5t-88.5 47t-80.5 47t-89 21.5q-54 0 -93 -34t-48 -89h-121z" />
<glyph unicode="&#xa5;" horiz-adv-x="1366" d="M309 1434h180l328 -662l563 662h179l-693 -818l-14 -73h289l-15 -90h-288l-31 -172h289l-17 -91h-286l-33 -190h-156l33 190h-287l15 91h288l31 172h-289l15 90h288l15 75z" />
<glyph unicode="&#xa7;" horiz-adv-x="866" d="M14 -389l113 96q61 -98 201 -98q98 0 170.5 59.5t87.5 151.5q21 118 -45 203l-346 419l118 99l346 -422q112 -132 82 -299q-28 -155 -148.5 -250.5t-287.5 -95.5q-196 0 -291 137zM287 1102q26 155 147 250.5t289 95.5q196 0 291 -137l-113 -97q-64 99 -203 99 q-98 0 -169.5 -59t-88.5 -152q-22 -125 47 -203l344 -420l-116 -98l-348 422q-110 130 -80 299z" />
<glyph unicode="&#xa8;" horiz-adv-x="874" d="M350 1174q7 40 40 67t73 27t63 -27t17 -67q-8 -40 -40.5 -68.5t-72.5 -28.5t-63.5 28.5t-16.5 68.5zM735 1174q6 40 38.5 68t72.5 28q41 0 64.5 -28t15.5 -68t-40.5 -68.5t-72.5 -28.5t-63 28.5t-15 68.5z" />
<glyph unicode="&#xa9;" horiz-adv-x="1648" d="M227 717q59 326 294.5 528.5t557.5 202.5q213 0 360.5 -92t208.5 -258t23 -381q-59 -326 -293.5 -528.5t-556.5 -202.5q-213 0 -361 92t-209.5 258t-23.5 381zM342 457.5q25 -117.5 88.5 -202t168 -131t237.5 -46.5q270 0 469 177.5t249 461.5q51 284 -85 461.5 t-406 177.5q-177 0 -329.5 -80t-254.5 -226t-135 -333q-27 -142 -2 -259.5zM602 717q29 163 147.5 264.5t280.5 101.5q160 0 244 -104l-70 -57q-61 77 -184 77q-122 0 -211 -78t-111 -204q-23 -126 38.5 -204.5t183.5 -78.5t210 78l52 -57q-121 -105 -281 -105 q-163 0 -245.5 102t-53.5 265z" />
<glyph unicode="&#xaa;" horiz-adv-x="628" d="M266 1180q22 117 108 189.5t204 72.5q144 0 200 -88l-76 -428h-94l6 39q-65 -47 -153 -47q-107 0 -161 72.5t-34 189.5zM365 1180q-13 -79 24.5 -127.5t112.5 -48.5q78 0 127 40l47 277q-41 35 -115 35q-73 0 -127.5 -49t-68.5 -127z" />
<glyph unicode="&#xab;" horiz-adv-x="962" d="M164 512l409 350l64 -78l-318 -272l224 -272l-92 -78zM510 512l412 350l63 -78l-319 -272l223 -272l-90 -78z" />
<glyph unicode="&#xac;" horiz-adv-x="1024" d="M221 555l21 119h776l-64 -355h-120l43 236h-656z" />
<glyph unicode="&#xad;" horiz-adv-x="696" d="M209 483l20 119h449l-23 -119h-446z" />
<glyph unicode="&#xae;" horiz-adv-x="1648" d="M227 717q59 326 294.5 528.5t557.5 202.5q213 0 360.5 -92t208.5 -258t23 -381q-59 -326 -293.5 -528.5t-556.5 -202.5q-213 0 -361 92t-209.5 258t-23.5 381zM342 457.5q25 -117.5 88.5 -202t168 -131t237.5 -46.5q270 0 469 177.5t249 461.5q51 284 -85 461.5 t-406 177.5q-177 0 -329.5 -80t-254.5 -226t-135 -333q-27 -142 -2 -259.5zM682 356l127 717h209q96 0 145.5 -56t32.5 -149q-13 -76 -61 -126.5t-119 -67.5l121 -318h-107l-108 310h-88l-56 -310h-96zM846 745h112q54 0 92.5 33.5t49.5 89.5q9 56 -16.5 89.5t-79.5 33.5 h-113z" />
<glyph unicode="&#xaf;" horiz-adv-x="770" d="M330 1112l16 96h500l-17 -96h-499z" />
<glyph unicode="&#xb0;" horiz-adv-x="593" d="M309 1235q17 94 84.5 151.5t159.5 57.5t137.5 -57.5t28.5 -151.5q-15 -95 -81.5 -152t-160.5 -57q-91 0 -138 57t-30 152zM391 1233q-9 -57 19 -91t84 -34q54 0 94.5 34t50.5 91q9 58 -19.5 92.5t-82.5 34.5q-55 0 -95.5 -34.5t-50.5 -92.5z" />
<glyph unicode="&#xb1;" horiz-adv-x="892" d="M143 113l21 118h643l-21 -118h-643zM223 559l21 121h260l47 262h119l-45 -262h262l-21 -121h-262l-47 -260h-119l47 260h-262z" />
<glyph unicode="&#xb4;" horiz-adv-x="542" d="M301 1126l303 256l62 -77l-299 -256z" />
<glyph unicode="&#xb5;" horiz-adv-x="1087" d="M-35 -410l19 101q50 0 85.5 27.5t45.5 80.5l94 543l6 37l96 543h156l-96 -543q-20 -116 34 -188t162 -72q107 0 188 72.5t101 187.5l96 543h148l-99 -543q-31 -177 -158 -285t-302 -108q-143 0 -232 73l-47 -264q-17 -99 -80 -156t-153 -57q-45 0 -64 8z" />
<glyph unicode="&#xb6;" horiz-adv-x="1175" d="M293 1042q31 178 161 285t314 107h207l-252 -1434h-145l114 651h-63q-182 0 -275 106.5t-61 284.5zM881 0l252 1434h145l-252 -1434h-145z" />
<glyph unicode="&#xb7;" d="M215 512q6 41 41 70.5t76 29.5q42 0 66 -29t18 -71q-9 -42 -44 -71t-77 -29q-41 0 -65 29.5t-15 70.5z" />
<glyph unicode="&#xb8;" horiz-adv-x="540" d="M57 -389l62 51q23 -29 65 -29q43 0 75.5 25.5t39.5 67.5q6 43 -22 69.5t-95 26.5l33 178h72l-23 -121q60 -11 88.5 -51.5t18.5 -103.5q-13 -73 -68.5 -118.5t-130.5 -45.5q-73 0 -115 51z" />
<glyph unicode="&#xba;" horiz-adv-x="647" d="M266 1180q22 117 107 189.5t202 72.5t178.5 -72.5t39.5 -189.5q-20 -117 -106.5 -189.5t-203.5 -72.5t-177 72.5t-40 189.5zM365 1180q-13 -79 24 -127.5t109 -48.5q74 0 128.5 48.5t69.5 127.5q14 78 -24 127t-111 49t-127.5 -49t-68.5 -127z" />
<glyph unicode="&#xbb;" horiz-adv-x="962" d="M145 240l322 272l-227 272l94 78l289 -350l-414 -350zM494 240l319 272l-225 272l92 78l289 -350l-412 -350z" />
<glyph unicode="&#xbf;" horiz-adv-x="964" d="M63 -158q11 62 37.5 111t60.5 82t73.5 61.5t78.5 58t73 62.5t60 82.5t37 112.5l23 116h149l-22 -116q-13 -76 -41.5 -137.5t-63 -101.5t-74 -73t-78 -60t-71 -53.5t-56 -62.5t-30.5 -80q-4 -33 -3 -66.5t16 -64t38.5 -54.5t64 -38t91.5 -14q82 0 167 31t146 83l80 -98 q-187 -149 -418 -149q-97 0 -170 30.5t-112.5 82.5t-54 117t-1.5 138zM532 836q9 43 43.5 71.5t75.5 28.5q43 0 67 -29t15 -71q-6 -41 -41 -71t-76 -30q-42 0 -66 29.5t-18 71.5z" />
<glyph unicode="&#xf7;" horiz-adv-x="1024" d="M209 487l22 119h775l-21 -119h-776zM455 209q6 39 38 65.5t72 26.5q38 0 60 -26t16 -66q-7 -40 -39 -67t-70 -27q-40 0 -62 27t-15 67zM573 885q8 40 39.5 67t71.5 27q39 0 61 -27.5t15 -66.5q-6 -38 -38.5 -65t-70.5 -27q-39 0 -61.5 26.5t-16.5 65.5z" />
<glyph unicode="&#x13f;" horiz-adv-x="952" d="M156 0l252 1434h153l-229 -1305h559l-21 -129h-714zM733 666q6 41 41 70.5t76 29.5q42 0 66 -29t18 -71q-8 -42 -42.5 -71.5t-76.5 -29.5q-41 0 -65.5 30t-16.5 71z" />
<glyph unicode="&#x140;" horiz-adv-x="772" d="M184 205l236 1331h149l-233 -1327q-10 -54 17 -81.5t81 -27.5l-16 -100q-21 -8 -76 -8q-89 0 -132 57t-26 156zM629 666q8 42 42.5 71t76.5 29q41 0 65 -29.5t16 -70.5q-8 -42 -42 -71.5t-76 -29.5q-41 0 -65.5 30t-16.5 71z" />
<glyph unicode="&#x192;" horiz-adv-x="663" d="M-8 -512l16 100q51 0 87 27.5t46 81.5l195 1106h-129l22 119h127l58 319q25 140 123 224.5t237 84.5q62 0 109 -20l-25 -127q-33 20 -82 20q-79 0 -137 -51t-72 -131l-55 -319h262l-22 -119h-263l-196 -1110q-17 -99 -82.5 -156t-155.5 -57q-47 0 -63 8z" />
<glyph unicode="&#x2c6;" horiz-adv-x="720" d="M301 1126l303 256l211 -256l-92 -77l-148 178l-208 -178z" />
<glyph unicode="&#x2c7;" horiz-adv-x="720" d="M332 1305l94 77l145 -178l211 178l64 -77l-301 -256z" />
<glyph unicode="&#x2d8;" horiz-adv-x="724" d="M285 1202l92 78q71 -88 194 -88q127 0 226 86l63 -78q-137 -121 -309 -121q-167 0 -266 123z" />
<glyph unicode="&#x2d9;" d="M336 1198q6 41 41 70.5t76 29.5q42 0 66 -29t18 -71q-9 -42 -44 -71t-77 -29q-41 0 -65 29.5t-15 70.5z" />
<glyph unicode="&#x2da;" horiz-adv-x="563" d="M317 1221q13 81 73 131.5t140 50.5t120.5 -50.5t25.5 -131.5q-14 -83 -71.5 -134t-139.5 -51q-80 0 -121.5 51t-26.5 134zM389 1219q-9 -49 16 -80t72 -31t82.5 30.5t46.5 80.5q7 50 -18.5 81t-71.5 31q-48 0 -83 -30.5t-44 -81.5z" />
<glyph unicode="&#x2db;" horiz-adv-x="524" d="M84 -80q6 42 33 80h80q-25 -31 -35 -80q-10 -55 15 -87t75 -32q49 0 90 33l45 -55q-59 -53 -147 -53q-86 0 -129.5 53t-26.5 141z" />
<glyph unicode="&#x2dc;" horiz-adv-x="690" d="M256 1104q13 79 71 129.5t132 50.5q33 0 58.5 -10.5t40.5 -25t29 -29t32.5 -25t42.5 -10.5q38 0 66 25t36 65h88q-13 -79 -71.5 -128.5t-135.5 -49.5q-34 0 -59 10t-39.5 24.5t-27.5 29t-31 24.5t-42 10q-39 0 -67.5 -24.5t-34.5 -65.5h-88z" />
<glyph unicode="&#x2dd;" horiz-adv-x="847" d="M301 1126l303 256l62 -77l-299 -256zM606 1126l303 256l64 -77l-301 -256z" />
<glyph unicode="&#x400;" horiz-adv-x="1019" d="M156 0l252 1434h755l-22 -129h-602l-90 -519h534l-22 -129h-537l-92 -528h612l-22 -129h-766zM639 1765l92 78l211 -256l-92 -78z" />
<glyph unicode="&#x401;" horiz-adv-x="1019" d="M156 0l252 1434h755l-22 -129h-602l-90 -519h534l-22 -129h-537l-92 -528h612l-22 -129h-766zM537 1632q6 40 38 68.5t72 28.5t63 -28.5t17 -68.5q-7 -40 -40 -67t-73 -27t-62 27t-15 67zM920 1632q6 41 38 69t72 28q41 0 64.5 -28t17.5 -69q-7 -39 -41 -66.5t-74 -27.5 t-62 27t-15 67z" />
<glyph unicode="&#x402;" horiz-adv-x="1421" d="M311 1305l23 129h977l-23 -129h-411l-93 -519q135 95 289 95q159 0 236.5 -104.5t48.5 -274.5l-53 -297q-19 -99 -83 -156t-155 -57q-50 0 -66 8l17 100q53 0 88.5 27.5t44.5 81.5l53 293q19 109 -33 176t-155 67q-151 0 -254 -92l-115 -653h-153l229 1305h-412z" />
<glyph unicode="&#x403;" horiz-adv-x="954" d="M156 0l252 1434h714l-22 -129h-561l-230 -1305h-153zM662 1587l301 256l63 -78l-301 -256z" />
<glyph unicode="&#x404;" horiz-adv-x="1431" d="M227 717q59 326 294.5 528.5t557.5 202.5q161 0 285 -53.5t203 -153.5l-117 -98q-131 166 -389 166q-234 0 -413.5 -144t-241.5 -379h849l-22 -129h-850q-26 -239 102.5 -385.5t366.5 -146.5q257 0 448 164l82 -96q-237 -207 -561 -207q-213 0 -361 92t-209.5 258 t-23.5 381z" />
<glyph unicode="&#x405;" horiz-adv-x="1085" d="M115 174l112 96q50 -69 135 -107t177 -38q77 0 141 25.5t104.5 66.5t65 85.5t31.5 88.5q9 52 -7.5 93.5t-52 69t-83.5 52.5t-101.5 45t-107 46t-100 55.5t-79.5 74t-45.5 100.5t0.5 136q13 76 49.5 143.5t93 122.5t140 87t182.5 32q118 0 219.5 -43.5t165.5 -124.5 l-115 -98q-42 56 -119 91.5t-161 35.5q-126 0 -202.5 -74.5t-92.5 -167.5q-12 -68 17.5 -118.5t85 -83t124.5 -61t137.5 -61.5t122 -75t79.5 -111.5t9 -161.5q-14 -80 -54 -152t-103 -130t-155 -92.5t-200 -34.5q-130 0 -237 48.5t-176 139.5z" />
<glyph unicode="&#x406;" horiz-adv-x="454" d="M150 0l251 1434h156l-252 -1434h-155z" />
<glyph unicode="&#x407;" horiz-adv-x="454" d="M150 0l251 1434h156l-252 -1434h-155zM258 1632q6 40 39.5 68.5t73.5 28.5t63 -28.5t17 -68.5q-7 -39 -41 -66.5t-74 -27.5t-62 27t-16 67zM580 1632q7 41 39.5 69t72.5 28t63 -28t17 -69q-8 -40 -41 -67t-74 -27q-40 0 -62 27t-15 67z" />
<glyph unicode="&#x408;" horiz-adv-x="927" d="M98 98l119 101q55 -74 172 -74q114 0 196.5 72.5t104.5 191.5l184 1045h154l-184 -1045q-31 -181 -161.5 -292t-311.5 -111q-87 0 -158.5 29.5t-114.5 82.5z" />
<glyph unicode="&#x409;" horiz-adv-x="1929" d="M78 0l16 100q111 0 187.5 63t97.5 183l192 1088h840l-111 -633h250q187 0 282 -109t64 -291q-34 -182 -167 -291.5t-320 -109.5h-408l230 1305h-524l-168 -951q-29 -167 -131 -264.5t-234 -97.5q-72 0 -96 8zM1184 135h248q115 0 198.5 73t106.5 193q22 120 -37 193.5 t-176 73.5h-248z" />
<glyph unicode="&#x40a;" horiz-adv-x="1918" d="M156 0l252 1434h153l-110 -633h679l113 633h158l-111 -633h248q188 0 283.5 -109t64.5 -291q-34 -182 -167 -291.5t-320 -109.5h-408l115 668h-680l-117 -668h-153zM1171 135h250q115 0 198.5 73t106.5 193q22 120 -37 193.5t-176 73.5h-247z" />
<glyph unicode="&#x40b;" horiz-adv-x="1421" d="M311 1305l23 129h977l-23 -129h-411l-93 -519q135 95 289 95q159 0 236.5 -104.5t48.5 -274.5l-88 -502h-154l88 502q19 109 -33 176t-155 67q-151 0 -254 -92l-115 -653h-153l229 1305h-412z" />
<glyph unicode="&#x40c;" horiz-adv-x="1220" d="M150 0l251 1434h156l-252 -1434h-155zM455 735l714 699h195l-715 -699l508 -735h-199zM762 1587l301 256l63 -78l-301 -256z" />
<glyph unicode="&#x40d;" horiz-adv-x="1445" d="M156 0l252 1434h153l-203 -1143l1078 1143h106l-252 -1434h-155l200 1143l-1075 -1143h-104zM825 1765l90 78l211 -256l-90 -78z" />
<glyph unicode="&#x40e;" horiz-adv-x="1247" d="M305 1434h166l264 -805l545 805h166l-973 -1434h-166l322 451zM629 1661l92 78q67 -86 192 -86q130 0 226 86l63 -78q-137 -121 -307 -121t-266 121z" />
<glyph unicode="&#x40f;" horiz-adv-x="1425" d="M156 0l252 1434h153l-229 -1305h805l229 1305h156l-252 -1434h-486l-55 -307h-143l55 307h-485z" />
<glyph unicode="&#x410;" horiz-adv-x="1533" d="M57 0l889 1434h148l383 -1434h-179l-108 414h-703l-251 -414h-179zM569 553h588l-172 684z" />
<glyph unicode="&#x411;" horiz-adv-x="1099" d="M156 0l252 1434h729l-23 -129h-571l-88 -504h266q187 0 282 -109t64 -291q-34 -182 -167 -291.5t-320 -109.5h-424zM338 135h264q115 0 198.5 73t106.5 193q22 120 -37 193.5t-176 73.5h-264z" />
<glyph unicode="&#x412;" horiz-adv-x="1116" d="M156 0l252 1434h391q173 0 260.5 -100.5t56.5 -268.5q-19 -106 -76.5 -186t-144.5 -123q107 -37 156 -133t26 -228q-32 -180 -163 -287.5t-314 -107.5h-444zM338 135h278q117 0 201.5 74t106.5 197q23 119 -36 192.5t-177 73.5h-279zM457 807h223q107 0 184 67.5 t97 178.5q20 110 -34 177.5t-161 67.5h-223z" />
<glyph unicode="&#x413;" horiz-adv-x="954" d="M156 0l252 1434h714l-22 -129h-561l-230 -1305h-153z" />
<glyph unicode="&#x414;" horiz-adv-x="1392" d="M18 -307l76 432q111 0 187.5 80t103.5 237l176 992h862l-231 -1305h149l-77 -436h-144l56 307h-959l-55 -307h-144zM375 129h659l207 1176h-545l-151 -865q-36 -210 -170 -311z" />
<glyph unicode="&#x415;" horiz-adv-x="1019" d="M156 0l252 1434h755l-22 -129h-602l-90 -519h534l-22 -129h-537l-92 -528h612l-22 -129h-766z" />
<glyph unicode="&#x416;" horiz-adv-x="1851" d="M61 0l715 735l-426 699h178l428 -699l-710 -735h-185zM848 0l252 1434h153l-252 -1434h-153zM1153 735l674 699h178l-674 -699l457 -735h-182z" />
<glyph unicode="&#x417;" horiz-adv-x="1116" d="M115 193l116 96q129 -168 330 -168q147 0 244 77t119 205q23 121 -36 195t-177 74h-215l24 135h160q112 0 191.5 67.5t99.5 186.5q21 116 -34 184t-175 68q-177 0 -361 -154l-77 96q228 193 473 193q189 0 274 -104.5t55 -272.5q-19 -110 -77.5 -190.5t-153.5 -124.5 q106 -37 155.5 -133t26.5 -230q-34 -187 -176.5 -297t-351.5 -110q-275 0 -434 207z" />
<glyph unicode="&#x418;" horiz-adv-x="1445" d="M156 0l252 1434h153l-203 -1143l1078 1143h106l-252 -1434h-155l200 1143l-1075 -1143h-104z" />
<glyph unicode="&#x419;" horiz-adv-x="1445" d="M156 0l252 1434h153l-203 -1143l1078 1143h106l-252 -1434h-155l200 1143l-1075 -1143h-104zM727 1661l92 78q70 -86 193 -86q129 0 225 86l66 -78q-140 -121 -310 -121t-266 121z" />
<glyph unicode="&#x41a;" horiz-adv-x="1220" d="M150 0l251 1434h156l-252 -1434h-155zM455 735l714 699h195l-715 -699l508 -735h-199z" />
<glyph unicode="&#x41b;" horiz-adv-x="1347" d="M78 0l16 100q111 0 187.5 63t97.5 183l192 1088h873l-252 -1434h-160l230 1305h-555l-168 -951q-29 -167 -131 -264.5t-234 -97.5q-72 0 -96 8z" />
<glyph unicode="&#x41c;" horiz-adv-x="1656" d="M156 0l252 1434h116l400 -887l710 887h119l-252 -1434h-153l194 1116l-622 -786h-70l-344 786l-197 -1116h-153z" />
<glyph unicode="&#x41d;" horiz-adv-x="1413" d="M156 0l252 1434h153l-112 -648h794l113 648h153l-252 -1434h-153l115 657h-795l-115 -657h-153z" />
<glyph unicode="&#x41e;" horiz-adv-x="1648" d="M227 717q59 326 294.5 528.5t557.5 202.5q213 0 360.5 -92t208.5 -258t23 -381q-59 -326 -293.5 -528.5t-556.5 -202.5q-213 0 -361 92t-209.5 258t-23.5 381zM387 717q-46 -264 81.5 -428t377.5 -164q251 0 435 164t230 428t-80 428t-376 164q-251 0 -436.5 -164 t-231.5 -428z" />
<glyph unicode="&#x41f;" horiz-adv-x="1353" d="M156 0l252 1434h1042l-252 -1434h-154l228 1305h-733l-230 -1305h-153z" />
<glyph unicode="&#x420;" horiz-adv-x="1062" d="M156 0l252 1434h387q187 0 282.5 -110t63.5 -292t-166 -290.5t-322 -108.5h-227l-111 -633h-159zM449 766h227q117 0 201 73t106 193q20 120 -38 193t-175 73h-227z" />
<glyph unicode="&#x421;" horiz-adv-x="1431" d="M227 717q59 326 294.5 528.5t557.5 202.5q161 0 285 -53.5t203 -153.5l-117 -98q-131 166 -389 166q-253 0 -440.5 -164.5t-233.5 -427.5q-46 -264 83 -428t382 -164q257 0 448 164l82 -96q-237 -207 -561 -207q-213 0 -361 92t-209.5 258t-23.5 381z" />
<glyph unicode="&#x422;" horiz-adv-x="1140" d="M311 1305l23 129h977l-23 -129h-411l-230 -1305h-153l229 1305h-412z" />
<glyph unicode="&#x423;" horiz-adv-x="1247" d="M305 1434h166l264 -805l545 805h166l-973 -1434h-166l322 451z" />
<glyph unicode="&#x424;" horiz-adv-x="1574" d="M227 717q46 257 243 417t468 160l25 140h153l-24 -140q271 0 410 -160t93 -417q-29 -169 -128 -300.5t-250 -204.5t-330 -73l-23 -139h-153l22 139q-270 0 -410 160.5t-96 417.5zM387 717q-34 -195 69 -316.5t302 -121.5l155 876q-200 0 -346 -121.5t-180 -316.5z M911 279q201 0 346.5 121.5t180.5 316.5q34 195 -68 316.5t-303 121.5z" />
<glyph unicode="&#x425;" horiz-adv-x="1476" d="M63 0l689 725l-422 709h198l355 -603l567 603h199l-674 -709l438 -725h-199l-368 621l-586 -621h-197z" />
<glyph unicode="&#x426;" horiz-adv-x="1484" d="M156 0l252 1434h153l-229 -1305h805l229 1305h156l-232 -1305h144l-76 -436h-146l56 307h-1112z" />
<glyph unicode="&#x427;" horiz-adv-x="1183" d="M338 1042l70 392h149l-70 -387q-56 -316 244 -316q66 0 147.5 10.5t135.5 28.5l116 664h150l-252 -1434h-149l112 645q-132 -39 -313 -39q-202 0 -289.5 112.5t-50.5 323.5z" />
<glyph unicode="&#x428;" horiz-adv-x="2076" d="M156 0l252 1434h153l-229 -1305h651l229 1305h156l-231 -1305h651l231 1305h154l-252 -1434h-1765z" />
<glyph unicode="&#x429;" horiz-adv-x="2138" d="M156 0l252 1434h153l-229 -1305h651l229 1305h156l-231 -1305h651l231 1305h154l-229 -1305h143l-78 -436h-143l55 307h-1765z" />
<glyph unicode="&#x42a;" horiz-adv-x="1329" d="M311 1305l23 129h477l-111 -633h248q188 0 283.5 -109t64.5 -291q-34 -182 -167 -291.5t-320 -109.5h-408l228 1305h-318zM582 135h249q115 0 199 73t107 193q22 120 -37 193.5t-176 73.5h-248z" />
<glyph unicode="&#x42b;" horiz-adv-x="1497" d="M156 0l252 1434h159l-112 -633h250q187 0 282 -109t64 -291q-34 -182 -167.5 -291.5t-320.5 -109.5h-407zM338 135h248q117 0 200 73t105 193t-36.5 193.5t-174.5 73.5h-250zM1188 0l252 1434h153l-252 -1434h-153z" />
<glyph unicode="&#x42c;" horiz-adv-x="1083" d="M156 0l252 1434h159l-112 -633h250q187 0 282 -109t64 -291q-34 -182 -167.5 -291.5t-320.5 -109.5h-407zM338 135h248q117 0 200 73t105 193t-36.5 193.5t-174.5 73.5h-250z" />
<glyph unicode="&#x42d;" horiz-adv-x="1431" d="M115 193l116 96q132 -164 392 -164q238 0 418 146.5t239 385.5h-721l23 129h721q22 235 -108 379t-364 144q-258 0 -448 -166l-82 98q114 99 258 153t303 54q213 0 360.5 -92t208.5 -258t23 -381q-59 -326 -293.5 -528.5t-556.5 -202.5q-160 0 -285 54t-204 153z" />
<glyph unicode="&#x42e;" horiz-adv-x="2107" d="M156 0l252 1434h153l-112 -648h378q74 298 286 480t489 182q293 0 439.5 -203t88.5 -528q-57 -325 -275.5 -528t-511.5 -203q-280 0 -426.5 184.5t-111.5 486.5h-381l-115 -657h-153zM971 717q-46 -264 64 -428t331 -164q223 0 390.5 164t213.5 428q47 264 -62 428 t-333 164q-222 0 -390 -164.5t-214 -427.5z" />
<glyph unicode="&#x42f;" horiz-adv-x="1114" d="M74 0l465 641q-144 25 -213.5 129t-40.5 262q31 182 165.5 292t321.5 110h438l-252 -1434h-157l110 633h-219l-442 -633h-176zM444 1032q-22 -120 35.5 -193t173.5 -73h281l94 532h-280q-116 0 -200 -73t-104 -193z" />
<glyph unicode="&#x430;" horiz-adv-x="1103" d="M172 461q38 213 193 344t370 131q122 0 214.5 -39.5t142.5 -110.5l-138 -786h-149l12 74q-127 -88 -285 -88q-198 0 -297.5 131.5t-62.5 343.5zM328 461q-28 -152 45.5 -247t218.5 -95t250 88l90 524q-78 72 -223 72q-144 0 -249.5 -94.5t-131.5 -247.5z" />
<glyph unicode="&#x431;" horiz-adv-x="1157" d="M199.5 400.5q1.5 99.5 23.5 224.5q24 136 63 245.5t86.5 183t103 128.5t116.5 90.5t121.5 61.5t124 47t119 41.5t110 52t94.5 71.5l68 -84q-59 -56 -127 -98t-127 -65t-122.5 -47.5t-117.5 -45.5t-107 -59t-95 -88.5t-78 -133t-60 -192.5h11q143 203 370 203 q93 0 169.5 -34.5t127 -96t70 -152t0.5 -196.5q-37 -212 -192.5 -341.5t-383.5 -129.5q-66 0 -119.5 12t-101.5 40t-79.5 76.5t-50 117.5t-17 168.5zM362 459q-27 -151 35.5 -245.5t206.5 -94.5q145 0 252 95t135 249q26 151 -47 245.5t-217 94.5q-140 0 -238.5 -93.5 t-126.5 -250.5z" />
<glyph unicode="&#x432;" horiz-adv-x="905" d="M150 0l161 922h340q121 0 178.5 -64.5t38.5 -169.5q-21 -136 -145 -201q74 -26 106 -87t17 -146q-21 -115 -107 -184.5t-217 -69.5h-372zM317 115h201q69 0 119.5 43t62.5 112t-23.5 112.5t-103.5 43.5h-200zM393 530h168q60 0 104.5 39t55.5 101q11 60 -21 98.5 t-92 38.5h-168z" />
<glyph unicode="&#x433;" horiz-adv-x="753" d="M150 0l161 922h520l-22 -119h-371l-139 -803h-149z" />
<glyph unicode="&#x434;" horiz-adv-x="1093" d="M31 -246l63 365q77 0 139.5 58.5t77.5 146.5l107 598h635l-142 -803h123l-65 -365h-140l45 246h-659l-45 -246h-139zM338 119h424l121 684h-338l-82 -467q-25 -136 -125 -217z" />
<glyph unicode="&#x435;" horiz-adv-x="1040" d="M174 465q37 210 181.5 340.5t342.5 130.5t284 -137.5t44 -376.5h-702q-14 -138 59.5 -220.5t214.5 -82.5q155 0 262 96l74 -92q-153 -137 -369 -137q-213 0 -321 131.5t-70 347.5zM344 528h551q9 128 -47 202.5t-170 74.5q-117 0 -208 -75t-126 -202z" />
<glyph unicode="&#x436;" horiz-adv-x="1359" d="M63 0l463 485l-268 437h172l262 -435l76 435h147l-75 -433l413 433h172l-421 -437l292 -485h-172l-286 481l-84 -481h-148l84 481l-457 -481h-170z" />
<glyph unicode="&#x437;" horiz-adv-x="835" d="M92 123l101 84q79 -98 213 -98q93 0 153 44.5t72 116.5q12 69 -23 110.5t-106 41.5h-142l19 104h106q64 0 112 41t60 103q10 58 -25.5 100.5t-113.5 42.5q-56 0 -114.5 -24t-104.5 -66l-70 86q147 127 324 127q138 0 206.5 -67.5t47.5 -176.5q-12 -70 -52 -124.5 t-102 -84.5q76 -27 106.5 -89t16.5 -148q-21 -119 -120.5 -189.5t-256.5 -70.5q-109 0 -180 35t-127 102z" />
<glyph unicode="&#x438;" horiz-adv-x="1091" d="M150 0l161 922h150l-119 -682l641 682h121l-162 -922h-149l118 682l-641 -682h-120z" />
<glyph unicode="&#x439;" horiz-adv-x="1091" d="M150 0l161 922h150l-119 -682l641 682h121l-162 -922h-149l118 682l-641 -682h-120zM469 1202l90 78q71 -88 197 -88q124 0 223 86l63 -78q-137 -121 -309 -121q-169 0 -264 123z" />
<glyph unicode="&#x43a;" horiz-adv-x="952" d="M150 0l161 922h150l-76 -426l455 426h178l-467 -437l340 -485h-178l-332 473l-82 -473h-149z" />
<glyph unicode="&#x43b;" horiz-adv-x="1024" d="M78 0l16 100q78 0 132 44.5t69 129.5l115 648h624l-162 -922h-147l139 803h-327l-95 -535q-23 -130 -100 -203t-186 -73q-59 0 -78 8z" />
<glyph unicode="&#x43c;" horiz-adv-x="1226" d="M150 0l161 922h144l223 -555l418 555h143l-162 -922h-139l119 686l-369 -502h-86l-192 502l-121 -686h-139z" />
<glyph unicode="&#x43d;" horiz-adv-x="1081" d="M150 0l161 922h150l-70 -396h481l72 396h148l-162 -922h-148l70 406h-483l-70 -406h-149z" />
<glyph unicode="&#x43e;" horiz-adv-x="1136" d="M172 461q38 212 193.5 343.5t367.5 131.5t320 -131.5t71 -343.5q-38 -212 -192.5 -343.5t-366.5 -131.5t-321 131.5t-72 343.5zM328 461q-28 -152 44.5 -247t215.5 -95t249 95t134 247q26 152 -46.5 247t-215.5 95t-249 -95t-132 -247z" />
<glyph unicode="&#x43f;" horiz-adv-x="1054" d="M150 0l161 922h756l-162 -922h-149l139 803h-457l-139 -803h-149z" />
<glyph unicode="&#x440;" horiz-adv-x="1107" d="M57 -512l254 1434h150l-15 -78q131 92 291 92q198 0 297 -131.5t62 -343.5q-38 -212 -190 -343.5t-359 -131.5q-149 0 -240 67l-100 -565h-150zM334 207q72 -88 221 -88q145 0 252 95t133 247q28 152 -45.5 247t-218.5 95q-149 0 -254 -94z" />
<glyph unicode="&#x441;" horiz-adv-x="978" d="M172 461q38 212 192 343.5t365 131.5q208 0 315 -139l-108 -92q-72 98 -223 98q-145 0 -252 -95t-133 -247q-28 -152 45.5 -247t218.5 -95q151 0 258 96l76 -92q-153 -137 -365 -137q-211 0 -318.5 131.5t-70.5 343.5z" />
<glyph unicode="&#x442;" horiz-adv-x="888" d="M223 803l21 119h725l-21 -119h-289l-139 -803h-149l139 803h-287z" />
<glyph unicode="&#x443;" horiz-adv-x="1083" d="M115 -512l356 512l-256 922h166l192 -744l453 744h166l-911 -1434h-166z" />
<glyph unicode="&#x444;" horiz-adv-x="1388" d="M172 461q38 212 192.5 341.5t368.5 129.5q17 0 49 -4l109 608h149l-108 -608q32 4 53 4q212 0 320 -129.5t71 -341.5t-190.5 -341.5t-366.5 -129.5q-23 0 -51 4l-90 -506h-150l90 506q-36 -4 -51 -4q-214 0 -323 129.5t-72 341.5zM328 461q-28 -152 44.5 -247t215.5 -95 q19 0 51 4l121 676q-32 4 -51 4q-143 0 -249 -95t-132 -247zM788 123q32 -4 52 -4q145 0 251 95t132 247t-46.5 247t-215.5 95q-24 0 -52 -4z" />
<glyph unicode="&#x445;" horiz-adv-x="1050" d="M63 0l447 469l-270 453h174l209 -355l338 355h174l-433 -453l285 -469h-174l-223 375l-354 -375h-173z" />
<glyph unicode="&#x446;" horiz-adv-x="1095" d="M150 0l161 922h150l-142 -803h457l142 803h149l-141 -803h110l-63 -365h-139l45 246h-729z" />
<glyph unicode="&#x447;" horiz-adv-x="972" d="M262 668l45 254h150l-45 -248q-15 -88 25.5 -144.5t140.5 -56.5q114 0 186 41l72 408h149l-162 -922h-149l67 385q-101 -35 -219 -35q-152 0 -219.5 86t-40.5 232z" />
<glyph unicode="&#x448;" horiz-adv-x="1454" d="M150 0l161 922h150l-142 -803h353l143 803h148l-142 -803h355l141 803h149l-161 -922h-1155z" />
<glyph unicode="&#x449;" horiz-adv-x="1495" d="M150 0l161 922h150l-142 -803h353l143 803h148l-142 -803h355l141 803h149l-143 -803h113l-66 -365h-139l45 246h-1126z" />
<glyph unicode="&#x44a;" horiz-adv-x="1048" d="M223 803l21 119h395l-68 -390h185q136 0 201.5 -73.5t43.5 -192.5q-21 -119 -111.5 -192.5t-227.5 -73.5h-332l139 803h-246zM498 115h178q67 0 116.5 42t59.5 109q12 66 -22.5 109t-100.5 43h-178z" />
<glyph unicode="&#x44b;" horiz-adv-x="1226" d="M150 0l161 922h150l-68 -390h182q137 0 203 -73.5t45 -192.5t-112 -192.5t-228 -73.5h-333zM317 115h181q67 0 116.5 42t59.5 109q12 66 -22.5 109t-100.5 43h-180zM928 0l162 922h149l-162 -922h-149z" />
<glyph unicode="&#x44c;" horiz-adv-x="870" d="M150 0l161 922h150l-68 -390h182q137 0 203 -73.5t45 -192.5t-112 -192.5t-228 -73.5h-333zM317 115h181q67 0 116.5 42t59.5 109q12 66 -22.5 109t-100.5 43h-180z" />
<glyph unicode="&#x44d;" horiz-adv-x="978" d="M94 123l109 94q72 -98 223 -98q132 0 234 80.5t139 212.5h-414l21 108h411q6 128 -67.5 205.5t-202.5 77.5q-152 0 -256 -96l-78 92q153 137 367 137q210 0 317 -131t70 -344q-38 -212 -191 -343.5t-364 -131.5q-210 0 -318 137z" />
<glyph unicode="&#x44e;" horiz-adv-x="1529" d="M150 0l161 922h150l-70 -396h232q53 186 195 298t329 112q203 0 305.5 -131.5t65.5 -343.5q-38 -213 -186.5 -344t-352.5 -131q-190 0 -293 115t-86 305h-231l-70 -406h-149zM762 461q-26 -152 40 -247t199 -95q135 0 235 94.5t128 247.5q26 152 -41 247t-201 95 q-133 0 -232.5 -94.5t-127.5 -247.5z" />
<glyph unicode="&#x44f;" horiz-adv-x="948" d="M113 0l297 389q-96 23 -138.5 92t-23.5 168q21 122 114.5 197.5t233.5 75.5h362l-161 -922h-150l68 379h-168l-277 -379h-157zM397 651q-12 -69 23 -113t104 -44h209l55 313h-208q-69 0 -120 -43.5t-63 -112.5z" />
<glyph unicode="&#x450;" horiz-adv-x="1040" d="M174 465q37 210 181.5 340.5t342.5 130.5t284 -137.5t44 -376.5h-702q-14 -138 59.5 -220.5t214.5 -82.5q155 0 262 96l74 -92q-153 -137 -369 -137q-213 0 -321 131.5t-70 347.5zM344 528h551q9 128 -47 202.5t-170 74.5q-117 0 -208 -75t-126 -202zM555 1305l92 77 l211 -256l-90 -77z" />
<glyph unicode="&#x451;" horiz-adv-x="1040" d="M174 465q37 210 181.5 340.5t342.5 130.5t284 -137.5t44 -376.5h-702q-14 -138 59.5 -220.5t214.5 -82.5q155 0 262 96l74 -92q-153 -137 -369 -137q-213 0 -321 131.5t-70 347.5zM344 528h551q9 128 -47 202.5t-170 74.5q-117 0 -208 -75t-126 -202zM444 1130 q8 40 41.5 68.5t73.5 28.5q39 0 61.5 -28.5t14.5 -68.5q-6 -39 -38.5 -66.5t-72.5 -27.5t-63 27t-17 67zM827 1130q7 41 41 69t74 28t62.5 -28t15.5 -69q-6 -40 -39 -67t-74 -27q-40 0 -63 27t-17 67z" />
<glyph unicode="&#x452;" horiz-adv-x="1101" d="M180 0l213 1212h-119l21 119h119l37 205h149l-37 -205h355l-21 -119h-356l-64 -368q131 92 287 92q158 0 233.5 -103.5t44.5 -273.5l-151 -866q-19 -99 -82.5 -156t-151.5 -57q-48 0 -67 8l18 100q53 0 88.5 27.5t44.5 81.5l154 862q19 108 -33.5 176t-156.5 68 q-145 0 -252 -92l-123 -711h-150z" />
<glyph unicode="&#x453;" horiz-adv-x="753" d="M150 0l161 922h520l-22 -119h-371l-139 -803h-149zM479 1126l301 256l64 -77l-301 -256z" />
<glyph unicode="&#x454;" horiz-adv-x="978" d="M172 461q38 212 192 343.5t365 131.5q208 0 315 -139l-108 -92q-72 98 -223 98q-130 0 -230.5 -77.5t-140.5 -205.5h475l-18 -108h-477q-9 -132 64.5 -212.5t205.5 -80.5q151 0 258 96l76 -92q-153 -137 -365 -137q-211 0 -318.5 131.5t-70.5 343.5z" />
<glyph unicode="&#x455;" horiz-adv-x="786" d="M98 109l109 92q29 -41 79.5 -65.5t104.5 -24.5q84 0 134 47t59 102q7 38 -12 66.5t-54 47t-78 35.5t-85.5 38.5t-76 49t-49.5 73t-6 104.5q21 109 105.5 185.5t220.5 76.5q80 0 149 -28t111 -81l-109 -92q-25 31 -71 52.5t-92 21.5q-70 0 -112.5 -41t-49.5 -92 q-7 -39 11 -69t52.5 -49t77.5 -36.5t85.5 -38.5t76 -48t49.5 -71t6 -102q-19 -112 -113.5 -194t-240.5 -82q-88 0 -162.5 32.5t-118.5 90.5z" />
<glyph unicode="&#x456;" d="M150 0l161 922h150l-162 -922h-149zM336 1198q6 41 41 70.5t76 29.5q42 0 66 -29t18 -71q-9 -42 -44 -71t-77 -29q-41 0 -65 29.5t-15 70.5z" />
<glyph unicode="&#x457;" d="M150 0l161 922h150l-162 -922h-149zM174 1147q7 40 40 67t73 27t62.5 -27t15.5 -67q-6 -40 -38.5 -68t-72.5 -28t-63 28t-17 68zM485 1147q8 40 40.5 68t72.5 28q41 0 63.5 -28t14.5 -68q-6 -40 -39 -68t-74 -28q-40 0 -62.5 28t-15.5 68z" />
<glyph unicode="&#x458;" d="M-53 -512l18 100q50 0 85.5 28t45.5 81l215 1225h150l-217 -1229q-17 -99 -80.5 -156t-153.5 -57q-44 0 -63 8zM336 1198q6 41 41 70.5t76 29.5q42 0 66 -29t18 -71q-9 -42 -44 -71t-77 -29q-41 0 -65 29.5t-15 70.5z" />
<glyph unicode="&#x459;" horiz-adv-x="1433" d="M78 0l16 100q78 0 132 44.5t69 129.5l115 648h624l-67 -390h184q136 0 202 -73.5t44 -192.5q-21 -119 -112 -192.5t-228 -73.5h-332l139 803h-327l-95 -535q-23 -130 -100 -203t-186 -73q-59 0 -78 8zM893 115h178q67 0 116.5 42t59.5 109q12 66 -22.5 109t-100.5 43 h-178z" />
<glyph unicode="&#x45a;" horiz-adv-x="1490" d="M150 0l161 922h150l-70 -396h471l70 396h149l-69 -396h196q134 0 197.5 -72.5t42.5 -191.5q-22 -119 -110 -190.5t-222 -71.5h-346l72 406h-473l-70 -406h-149zM938 115h192q64 0 111 40t57 105q12 67 -20 106.5t-96 39.5h-193z" />
<glyph unicode="&#x45b;" horiz-adv-x="1101" d="M180 0l213 1212h-119l21 119h119l37 205h149l-37 -205h355l-21 -119h-356l-64 -368q131 92 287 92q158 0 233.5 -103.5t44.5 -273.5l-96 -559h-149l98 559q19 108 -33.5 176t-156.5 68q-145 0 -252 -92l-123 -711h-150z" />
<glyph unicode="&#x45c;" horiz-adv-x="952" d="M150 0l161 922h150l-76 -426l455 426h178l-467 -437l340 -485h-178l-332 473l-82 -473h-149zM547 1126l303 256l63 -77l-301 -256z" />
<glyph unicode="&#x45d;" horiz-adv-x="1091" d="M150 0l161 922h150l-119 -682l641 682h121l-162 -922h-149l118 682l-641 -682h-120zM565 1305l92 77l211 -256l-90 -77z" />
<glyph unicode="&#x45e;" horiz-adv-x="1083" d="M115 -512l356 512l-256 922h166l192 -744l453 744h166l-911 -1434h-166zM465 1202l92 78q68 -88 195 -88t223 86l63 -78q-134 -121 -307 -121q-167 0 -266 123z" />
<glyph unicode="&#x45f;" horiz-adv-x="1054" d="M150 0l161 922h150l-142 -803h457l142 803h149l-162 -922h-307l-45 -246h-139l45 246h-309z" />
<glyph unicode="&#x490;" horiz-adv-x="950" d="M156 0l252 1434h565l45 256h119l-68 -385h-530l-230 -1305h-153z" />
<glyph unicode="&#x491;" horiz-adv-x="747" d="M150 0l161 922h381l35 204h119l-58 -323h-350l-139 -803h-149z" />
<glyph unicode="&#x4d8;" horiz-adv-x="1527" d="M227 717l13 59h1157q23 239 -105.5 386t-365.5 147q-263 0 -449 -166l-82 98q114 99 258 153t303 54q213 0 361 -92t209 -258t22 -381q-38 -215 -149.5 -381t-278 -258t-360.5 -92t-328.5 92t-188.5 258t-16 381zM381 647q-26 -235 84 -378.5t319 -143.5q208 0 368.5 143 t219.5 379h-991z" />
<glyph unicode="&#x4d9;" horiz-adv-x="1040" d="M180 500h703q14 138 -60 220.5t-215 82.5q-155 0 -262 -96l-76 92q156 137 373 137q213 0 320 -131.5t69 -347.5q-37 -210 -181.5 -340.5t-340.5 -130.5q-198 0 -285 138t-45 376zM311 393q-9 -129 46.5 -202.5t170.5 -73.5q116 0 207.5 74.5t128.5 201.5h-553z" />
<glyph unicode="&#x2000;" horiz-adv-x="921" />
<glyph unicode="&#x2001;" horiz-adv-x="1843" />
<glyph unicode="&#x2002;" horiz-adv-x="921" />
<glyph unicode="&#x2003;" horiz-adv-x="1843" />
<glyph unicode="&#x2004;" horiz-adv-x="614" />
<glyph unicode="&#x2005;" horiz-adv-x="460" />
<glyph unicode="&#x2006;" horiz-adv-x="307" />
<glyph unicode="&#x2007;" horiz-adv-x="307" />
<glyph unicode="&#x2008;" horiz-adv-x="230" />
<glyph unicode="&#x2009;" horiz-adv-x="368" />
<glyph unicode="&#x200a;" horiz-adv-x="102" />
<glyph unicode="&#x2010;" horiz-adv-x="696" d="M209 483l20 119h449l-23 -119h-446z" />
<glyph unicode="&#x2011;" horiz-adv-x="696" d="M209 483l20 119h449l-23 -119h-446z" />
<glyph unicode="&#x2012;" horiz-adv-x="1024" d="M238 657l22 119h776l-22 -119h-776z" />
<glyph unicode="&#x2013;" horiz-adv-x="1024" d="M209 483l20 119h777l-23 -119h-774z" />
<glyph unicode="&#x2014;" horiz-adv-x="1433" d="M209 483l20 119h1186l-22 -119h-1184z" />
<glyph unicode="&#x2018;" d="M330 1163q23 129 209 285l45 -53q-100 -82 -123 -150q35 -4 54 -32t13 -66q-8 -41 -42.5 -70.5t-77.5 -29.5q-40 0 -64.5 29t-13.5 87z" />
<glyph unicode="&#x2019;" d="M307 1100q96 85 121 149q-35 6 -54.5 34t-13.5 65q7 42 42.5 71t78.5 29q40 0 64.5 -29t13.5 -88q-21 -126 -209 -284z" />
<glyph unicode="&#x201a;" d="M84 -162q98 83 123 150q-35 5 -54.5 32.5t-13.5 65.5q6 41 41 70.5t76 29.5t65.5 -28.5t16.5 -87.5q-23 -129 -209 -285z" />
<glyph unicode="&#x201c;" horiz-adv-x="722" d="M338 1212q22 124 209 285l43 -53q-95 -80 -121 -150q35 -5 54.5 -32.5t13.5 -65.5q-8 -42 -42.5 -71t-76.5 -29q-41 0 -65.5 28.5t-14.5 87.5zM612 1212q12 75 69 145t140 140l43 -53q-98 -84 -121 -150q35 -5 54.5 -32.5t13.5 -65.5q-8 -41 -43 -70.5t-78 -29.5 q-40 0 -64.5 29t-13.5 87z" />
<glyph unicode="&#x201d;" horiz-adv-x="722" d="M315 1149q98 84 121 149q-34 6 -53.5 34.5t-13.5 64.5q9 43 43 71.5t77 28.5q40 0 64.5 -29t13.5 -88q-21 -126 -209 -284zM588 1149q97 83 123 149q-35 6 -54.5 34t-13.5 65q7 42 42.5 71t78.5 29q40 0 64 -28.5t14 -88.5q-21 -126 -209 -284z" />
<glyph unicode="&#x201e;" horiz-adv-x="722" d="M84 -162q98 83 123 150q-35 5 -54.5 32.5t-13.5 65.5q6 41 41 70.5t76 29.5t65.5 -28.5t16.5 -87.5q-23 -129 -209 -285zM358 -162q98 84 121 150q-34 5 -53.5 32.5t-13.5 65.5q8 42 42 71t76 29q40 0 65 -29t15 -87q-23 -129 -209 -285z" />
<glyph unicode="&#x2020;" horiz-adv-x="1024" d="M264 803l23 119h313l109 614h147l-108 -614h313l-23 -119h-311l-233 -1315h-148l232 1315h-314z" />
<glyph unicode="&#x2021;" horiz-adv-x="1024" d="M147 135l21 119h313l97 549h-314l23 119h313l109 614h147l-108 -614h313l-23 -119h-311l-96 -549h313l-22 -119h-312l-116 -647h-148l115 647h-314z" />
<glyph unicode="&#x2022;" horiz-adv-x="530" d="M217 563q10 61 60 103.5t112 42.5q61 0 96.5 -42t24.5 -104q-10 -61 -60 -103t-112 -42t-96.5 42t-24.5 103z" />
<glyph unicode="&#x2026;" horiz-adv-x="1349" d="M139 86q6 41 41 70.5t76 29.5t65.5 -29.5t18.5 -70.5q-7 -43 -41.5 -71.5t-77.5 -28.5q-42 0 -65.5 29t-16.5 71zM588 86q8 42 42.5 71t76.5 29q41 0 65 -29.5t16 -70.5q-6 -42 -40 -71t-76 -29q-43 0 -66.5 28.5t-17.5 71.5zM1038 86q6 41 41 70.5t76 29.5q42 0 66 -29 t18 -71q-7 -42 -41 -71t-76 -29q-43 0 -67 28.5t-17 71.5z" />
<glyph unicode="&#x202f;" horiz-adv-x="368" />
<glyph unicode="&#x2030;" horiz-adv-x="2553" d="M274 1102q28 155 142 250.5t268 95.5q155 0 234 -95.5t51 -250.5t-141 -250.5t-267 -95.5q-155 0 -234 95.5t-53 250.5zM410 1102q-19 -102 29.5 -167t142.5 -65t164.5 64.5t87.5 167.5q19 103 -28.5 167t-141.5 64t-164.5 -64t-89.5 -167zM424 0l1006 1434h151 l-1006 -1434h-151zM1032 332q28 155 141 250.5t267 95.5q155 0 234.5 -95.5t51.5 -250.5t-140 -250.5t-267 -95.5t-234 95.5t-53 250.5zM1167 332q-19 -103 28.5 -167.5t141.5 -64.5t164.5 64.5t89.5 167.5t-28.5 167t-141.5 64q-95 0 -165 -64t-89 -167zM1835 332 q28 155 141 250.5t267 95.5q155 0 233.5 -95.5t50.5 -250.5q-26 -155 -138.5 -250.5t-266.5 -95.5q-155 0 -234 95.5t-53 250.5zM1970 332q-19 -103 28.5 -167.5t141.5 -64.5t164.5 64.5t89.5 167.5t-29 167t-143 64q-94 0 -163.5 -64t-88.5 -167z" />
<glyph unicode="&#x2039;" horiz-adv-x="614" d="M164 512l409 350l64 -78l-318 -272l224 -272l-92 -78z" />
<glyph unicode="&#x203a;" horiz-adv-x="614" d="M145 240l322 272l-227 272l94 78l289 -350l-414 -350z" />
<glyph unicode="&#x2044;" horiz-adv-x="1085" d="M109 0l1005 1434h115l-1006 -1434h-114z" />
<glyph unicode="&#x205f;" horiz-adv-x="460" />
<glyph unicode="&#x20ac;" horiz-adv-x="1529" d="M176 532l17 91h120q2 35 13 94q4 33 20 94h-121l15 90h137q99 251 313.5 399t487.5 148q159 0 283.5 -53.5t203.5 -153.5l-117 -98q-131 166 -389 166q-204 0 -369 -110t-249 -298h549l-15 -90h-567q-14 -42 -23 -94q-9 -51 -12 -94h567l-14 -91h-551 q17 -188 143.5 -297.5t331.5 -109.5q259 0 447 164l84 -96q-240 -207 -561 -207q-273 0 -435.5 147.5t-173.5 398.5h-135z" />
<glyph unicode="&#x20b4;" horiz-adv-x="874" d="M150 326q20 118 122 223h-88l15 90h174l188 160h-332l15 90h424l34 29q53 46 81.5 85.5t39.5 100.5q17 92 -36 150.5t-150 58.5q-139 0 -238 -99l-77 97q143 137 340 137q167 0 254 -94t59 -246q-20 -118 -121 -219h88l-14 -90h-172l-189 -160h330l-14 -90h-420l-39 -33 q-54 -45 -82.5 -84.5t-38.5 -101.5q-17 -92 35 -150.5t149 -58.5q140 0 238 98l80 -96q-143 -137 -340 -137q-168 0 -255.5 94t-59.5 246z" />
<glyph unicode="&#x2122;" horiz-adv-x="1400" d="M287 1356l14 78h492l-13 -78h-198l-115 -639h-94l114 639h-200zM764 717l127 717h70l194 -424l346 424h72l-127 -717h-94l92 526l-293 -369h-37l-164 369l-94 -526h-92z" />
<glyph unicode="&#x25fc;" horiz-adv-x="921" d="M0 0v922h922v-922h-922z" />
<glyph horiz-adv-x="1671" d="M18 -307l76 436h117l803 1305h147l342 -1305h117l-78 -436h-143l55 307h-1237l-55 -307h-144zM389 129h938l-274 1110z" />
<glyph horiz-adv-x="1533" d="M57 0l889 1434h148l383 -1434h-183l-311 1233l-743 -1233h-183z" />
<glyph horiz-adv-x="2050" d="M57 0l889 1434h148l168 -633h409q187 0 282 -109t64 -291q-34 -182 -167 -291.5t-320 -109.5h-236l-311 1233l-743 -1233h-183zM1296 668l144 -533h112q117 0 200.5 73t105.5 193t-36.5 193.5t-174.5 73.5h-351z" />
<glyph horiz-adv-x="1212" d="M31 -246l63 365h101l503 803h142l217 -803h100l-63 -365h-140l45 246h-784l-45 -246h-139zM358 119h535l-154 633z" />
<glyph horiz-adv-x="1083" d="M53 0l580 922h141l256 -922h-166l-192 743l-453 -743h-166z" />
<glyph horiz-adv-x="1447" d="M53 0l580 922h141l107 -390h284q137 0 202.5 -73.5t43.5 -192.5q-21 -119 -112 -192.5t-228 -73.5h-207l-192 743l-453 -743h-166zM911 418l86 -303h88q68 0 117.5 42t61.5 109q11 66 -24 109t-101 43h-228z" />
<glyph horiz-adv-x="1103" d="M80 -387l108 92q79 -98 232 -98q145 0 246 87.5t127 237.5l22 129q-122 -75 -270 -75q-203 0 -306.5 131.5t-66.5 343.5q38 213 193 344t370 131q122 0 214.5 -39.5t142.5 -110.5l-150 -854q-37 -210 -183 -334t-353 -124q-218 0 -326 139zM328 461q-28 -152 44.5 -247 t215.5 -95q147 0 254 96l90 516q-82 72 -223 72q-144 0 -249.5 -94.5t-131.5 -247.5z" />
<glyph horiz-adv-x="1085" d="M193.5 334.5q-27.5 162.5 7.5 382.5q59 326 224 528.5t372 202.5q138 0 228.5 -93t117.5 -255.5t-8 -382.5q-59 -326 -223 -528.5t-371 -202.5q-138 0 -229 93t-118.5 255.5zM356 717q-47 -266 10.5 -432t196.5 -166q138 0 254 166.5t162 431.5q47 266 -10.5 432 t-196.5 166q-138 0 -254 -166.5t-162 -431.5z" />
<glyph horiz-adv-x="1626" d="M217 717q59 326 295.5 528.5t558.5 202.5q215 0 364 -91t208 -243t26 -338q-16 -90 -50 -162t-76.5 -117.5t-93 -76t-98 -43t-94.5 -12.5q-61 0 -104.5 19.5t-60.5 55.5q-96 -75 -224 -75q-148 0 -222 97.5t-46 254.5q29 157 144 254.5t274 97.5q187 0 264 -113l-74 -413 q-6 -35 21 -54.5t69 -19.5q37 0 73 15.5t71 48t63 92t41 139.5q21 123 -1 229t-83.5 183.5t-166.5 122t-242 44.5q-178 0 -329.5 -78t-252 -220.5t-133.5 -327.5q-33 -186 17 -328.5t175 -220.5t306 -78q140 0 271 45.5t226 130.5l60 -71q-113 -101 -263.5 -155t-314.5 -54 q-214 0 -363.5 92t-211 258t-23.5 381zM721 717q-20 -114 32 -181t160 -67q103 0 177 59l67 385q-55 52 -160 52q-107 0 -181.5 -67.5t-94.5 -180.5z" />
<glyph horiz-adv-x="610" d="M224 280.5q-16 185.5 26 436.5q43 243 127.5 434.5t189.5 295t211 103.5l-20 -114q-45 0 -96 -53t-98.5 -146t-90 -229.5t-70.5 -292.5q-37 -216 -34.5 -376t38.5 -251.5t97 -91.5l-19 -113q-107 0 -176 106t-85 291.5z" />
<glyph horiz-adv-x="610" d="M82 -117l20 115q94 0 196.5 202.5t158.5 516.5q37 217 35 376.5t-38.5 251t-97.5 91.5l21 114q107 0 175.5 -105.5t84 -291t-26.5 -436.5q-42 -243 -126 -434.5t-189.5 -295.5t-212.5 -104z" />
<glyph horiz-adv-x="608" d="M131 -102l289 1638h356l-22 -119h-207l-246 -1401h205l-19 -118h-356z" />
<glyph horiz-adv-x="608" d="M86 -102l20 118h205l246 1401h-205l23 119h354l-289 -1638h-354z" />
<glyph horiz-adv-x="651" d="M197 657l20 115q69 0 131 75t82 191l29 158q27 156 136.5 255t246.5 99l-21 -114q-69 0 -130.5 -72.5t-82.5 -187.5l-26 -156q-20 -109 -81 -189t-147 -116q74 -38 106.5 -117.5t14.5 -187.5l-29 -152q-20 -114 16 -187t105 -73l-20 -115q-137 0 -211 99.5t-47 255.5 l26 153q21 116 -14 191t-104 75z" />
<glyph horiz-adv-x="651" d="M61 -117l21 115q68 0 129.5 73t81.5 187l26 152q18 107 80 187t148 118q-73 36 -106 116.5t-13 188.5l27 156q21 114 -15 187t-104 73l20 114q137 0 210 -99t46 -255l-26 -158q-21 -116 13.5 -191t102.5 -75l-20 -115q-68 0 -129.5 -75t-81.5 -191l-27 -153 q-27 -156 -136.5 -255.5t-246.5 -99.5z" />
<glyph d="M150 0l184 1040h147l-182 -1040h-149zM360 1348q7 42 42 71t77 29q43 0 66.5 -28.5t15.5 -71.5q-6 -41 -41 -71t-76 -30q-42 0 -66 29.5t-18 71.5z" />
<glyph horiz-adv-x="964" d="M154 354q11 62 37.5 111t60.5 82t73 61.5t78 58t73 62.5t60 82.5t37 112.5l23 116h149l-22 -116q-13 -76 -41.5 -137.5t-63 -101.5t-73.5 -73t-77.5 -60t-71 -53.5t-56 -62.5t-31.5 -80q-4 -33 -3 -66.5t16 -64t38.5 -54.5t64 -38t91.5 -14q82 0 167 31t146 83l80 -98 q-187 -149 -417 -149q-97 0 -170 30.5t-112.5 82.5t-54 117t-1.5 138zM623 1348q9 43 43 71.5t75 28.5q43 0 67 -29t15 -71q-6 -41 -40.5 -71t-75.5 -30q-42 0 -66 29.5t-18 71.5z" />
<glyph horiz-adv-x="962" d="M199 717l409 350l66 -78l-320 -272l224 -273l-93 -77zM545 717l411 350l66 -78l-322 -272l224 -273l-90 -77z" />
<glyph horiz-adv-x="962" d="M180 444l322 273l-226 272l93 78l288 -350l-411 -350zM528 444l320 273l-223 272l90 78l289 -350l-412 -350z" />
<glyph horiz-adv-x="1085" d="M229 0l21 119h235l209 1181l-260 -43l23 121l411 64l-233 -1323h237l-20 -119h-623z" />
<glyph horiz-adv-x="614" d="M180 444l322 273l-226 272l93 78l288 -350l-411 -350z" />
<glyph horiz-adv-x="696" d="M238 657l22 119h449l-23 -119h-448z" />
<glyph horiz-adv-x="1024" d="M238 657l22 119h776l-22 -119h-776z" />
<glyph horiz-adv-x="1433" d="M238 657l22 119h1186l-23 -119h-1185z" />
<glyph d="M131 -102l289 1638h149l-288 -1638h-150z" />
<glyph horiz-adv-x="1024" d="M297 981l20 119h314l78 436h147l-78 -436h314l-21 -119h-311l-193 -1083h-147l190 1083h-313z" />
<glyph horiz-adv-x="1024" d="M188 367l21 118h313l88 496h-313l20 119h314l78 436h147l-78 -436h314l-21 -119h-311l-88 -496h313l-22 -118h-312l-84 -469h-147l82 469h-314z" />
<glyph horiz-adv-x="1200" d="M55 0l658 1032h135l297 -1032h-166l-80 268h-508l-170 -268h-166zM467 397h405l-124 449z" />
<glyph horiz-adv-x="884" d="M125 0l180 1032h309q133 0 201.5 -73t46.5 -197q-24 -144 -153 -217q76 -30 110 -97.5t17 -158.5q-22 -131 -122.5 -210t-242.5 -79h-346zM295 125h192q80 0 137 47.5t70 126.5q14 77 -26.5 124.5t-118.5 47.5h-193zM379 596h151q71 0 123 43t64 113t-24 112.5t-107 42.5 h-152z" />
<glyph horiz-adv-x="1112" d="M182 516q41 235 218.5 381.5t420.5 146.5q241 0 369 -147l-109 -92q-90 110 -276 110q-179 0 -310 -110.5t-163 -288.5t60.5 -288.5t271.5 -110.5q188 0 315 108l78 -90q-177 -147 -422 -147q-243 0 -368.5 146.5t-84.5 381.5z" />
<glyph horiz-adv-x="1107" d="M125 0l180 1032h346q244 0 370 -141t85 -375t-216 -375t-419 -141h-346zM295 125h197q178 0 305 106.5t159 284.5q31 178 -59 284.5t-268 106.5h-195z" />
<glyph horiz-adv-x="794" d="M125 0l180 1032h576l-21 -119h-430l-59 -335h381l-21 -119h-383l-59 -340h438l-20 -119h-582z" />
<glyph horiz-adv-x="757" d="M125 0l180 1032h553l-20 -119h-408l-59 -335h358l-20 -119h-361l-80 -459h-143z" />
<glyph horiz-adv-x="1159" d="M182 516q41 235 218.5 381.5t420.5 146.5q241 0 369 -147l-109 -92q-90 110 -276 110q-179 0 -310 -110.5t-163 -288.5t60.5 -288.5t271.5 -110.5q146 0 256 69l45 250h-252l20 119h397l-73 -420q-177 -147 -422 -147q-243 0 -368.5 146.5t-84.5 381.5z" />
<glyph horiz-adv-x="1095" d="M125 0l180 1032h144l-78 -454h557l80 454h143l-180 -1032h-144l80 459h-559l-80 -459h-143z" />
<glyph horiz-adv-x="387" d="M121 0l180 1032h145l-180 -1032h-145z" />
<glyph horiz-adv-x="389" d="M123 0l180 1032h143l-180 -1032h-143zM315 1196q8 37 37.5 62.5t65.5 25.5q38 0 59 -25.5t15 -62.5q-6 -36 -36.5 -61t-68.5 -25q-36 0 -57 25t-15 61z" />
<glyph horiz-adv-x="735" d="M90 72l109 92q38 -47 116 -47q77 0 133.5 47t69.5 123l131 745h144l-129 -745q-25 -133 -126.5 -216t-238.5 -83q-66 0 -121 22.5t-88 61.5z" />
<glyph horiz-adv-x="970" d="M121 0l180 1032h145l-180 -1032h-145zM365 530l512 502h182l-514 -502l368 -530h-186z" />
<glyph horiz-adv-x="753" d="M125 0l180 1032h144l-160 -913h407l-20 -119h-551z" />
<glyph horiz-adv-x="753" d="M125 0l180 1032h144l-160 -913h407l-20 -119h-551zM555 479q6 37 34.5 62.5t65.5 25.5t59.5 -25.5t16.5 -62.5q-8 -37 -37.5 -62.5t-66.5 -25.5t-57.5 25.5t-14.5 62.5z" />
<glyph horiz-adv-x="1273" d="M125 0l180 1032h109l297 -600l510 600h108l-180 -1032h-143l129 737l-430 -512h-58l-248 512l-131 -737h-143z" />
<glyph horiz-adv-x="1132" d="M125 0l180 1032h94l512 -758l131 758h146l-180 -1032h-95l-512 758l-133 -758h-143z" />
<glyph horiz-adv-x="1275" d="M182 516q41 235 218.5 381.5t420.5 146.5t367.5 -146.5t83.5 -381.5t-217.5 -381.5t-419.5 -146.5t-368.5 146.5t-84.5 381.5zM332 516q-32 -178 58 -288.5t265 -110.5q177 0 306.5 110.5t160.5 288.5q32 178 -58 288.5t-267 110.5q-175 0 -304 -110.5t-161 -288.5z" />
<glyph horiz-adv-x="843" d="M125 0l180 1032h303q146 0 222 -81t51 -216q-23 -135 -126.5 -216t-250.5 -81h-154l-76 -438h-149zM373 563h151q79 0 137 47.5t72 124.5q13 78 -27 125t-120 47h-152z" />
<glyph horiz-adv-x="1275" d="M182 516q41 235 218.5 381.5t420.5 146.5t367.5 -146.5t83.5 -381.5q-34 -194 -172 -336l108 -123l-108 -92l-107 125q-158 -102 -358 -102q-243 0 -368.5 146.5t-84.5 381.5zM332 516q-32 -178 58 -288.5t265 -110.5q154 0 258 65l-137 158l107 92l127 -145 q92 98 112 229q32 178 -58 288.5t-267 110.5q-175 0 -304 -110.5t-161 -288.5z" />
<glyph horiz-adv-x="870" d="M125 0l180 1032h316q147 0 222 -80.5t52 -216.5q-20 -106 -90.5 -180t-175.5 -102l184 -453h-166l-164 438h-133l-76 -438h-149zM373 563h166q78 0 135.5 48t70.5 124q12 78 -27.5 125t-117.5 47h-166z" />
<glyph horiz-adv-x="868" d="M102 131l105 90q40 -48 101 -76t126 -28q98 0 160 53t74 117q7 43 -15.5 75t-63.5 52.5t-92.5 39.5t-101.5 43t-89.5 55t-58.5 84t-7 122q22 122 116 204t242 82q92 0 170 -33.5t131 -95.5l-106 -90q-32 38 -88 64t-115 26q-86 0 -138 -47.5t-63 -107.5q-7 -44 15 -76.5 t63.5 -54t92.5 -41t101 -43.5t89.5 -54.5t59 -81.5t7.5 -118q-23 -128 -126.5 -215.5t-264.5 -87.5q-100 0 -184 37.5t-140 105.5z" />
<glyph horiz-adv-x="897" d="M238 913l20 119h741l-20 -119h-299l-160 -913h-143l160 913h-299z" />
<glyph horiz-adv-x="1085" d="M113 0l22 133l735 621q98 82 127 241q25 141 -39.5 229.5t-191.5 88.5q-126 0 -220 -88.5t-120 -229.5h-154q37 202 180.5 327.5t338.5 125.5q198 0 296.5 -125t63.5 -328q-37 -206 -199 -342l-620 -524h667l-22 -129h-864z" />
<glyph horiz-adv-x="1085" d="M164 416h153q-23 -132 44 -214.5t198 -82.5q132 0 228.5 82.5t119.5 214.5t-44 215.5t-197 83.5h-95l21 127h94q104 0 181 66t96 171q19 104 -35.5 170t-157.5 66t-179 -66t-93 -170h-154q28 164 153.5 266.5t297.5 102.5q173 0 261.5 -102t59.5 -267 q-18 -102 -78.5 -179t-148.5 -118q103 -45 149 -140t23 -226q-34 -192 -178.5 -311t-345.5 -119q-200 0 -303.5 119t-69.5 311z" />
<glyph horiz-adv-x="1085" d="M117 279l12 73l829 1082h154l-182 -1026h129l-23 -129h-123l-47 -279h-149l47 279h-647zM324 408h467l143 798z" />
<glyph horiz-adv-x="1085" d="M170 410h147q-22 -128 44.5 -208.5t195.5 -80.5q126 0 221 88t121 229q26 154 -46.5 250t-215.5 96q-150 0 -256 -88l-100 43l213 695h628l-22 -129h-498l-137 -433q85 48 205 48q209 0 315 -133.5t68 -348.5q-35 -202 -178 -327t-340 -125q-196 0 -297.5 117.5 t-67.5 306.5z" />
<glyph horiz-adv-x="1085" d="M168 446q14 79 42 150.5t80 154t120.5 171t176.5 216t235 274.5q7 8 11 12t10 11t11 13l115 -74q-276 -308 -443 -534q77 41 172 41q200 0 304 -123.5t69 -323.5t-182.5 -324t-349.5 -124q-203 0 -306 124.5t-65 335.5zM319 434q-25 -139 43.5 -227t200.5 -88t231 88 t124 227q25 141 -43.5 229.5t-200.5 88.5t-231 -88.5t-124 -229.5z" />
<glyph horiz-adv-x="1085" d="M297 0l717 1305h-676l22 129h869l-10 -56l-762 -1378h-160z" />
<glyph horiz-adv-x="1085" d="M164 416q23 131 102.5 226t198.5 140q-75 41 -108 118t-13 179q28 164 154.5 266.5t298.5 102.5q173 0 262.5 -102.5t60.5 -266.5q-18 -102 -78.5 -179t-148.5 -118q103 -45 150 -140t24 -226q-34 -192 -179.5 -311t-346.5 -119q-202 0 -306.5 119t-70.5 311zM317 416 q-23 -132 45.5 -214.5t200.5 -82.5t229.5 82.5t120.5 214.5t-45 214.5t-200 82.5t-230 -82.5t-121 -214.5zM498 1079q-19 -104 35 -169.5t157 -65.5t180.5 65.5t96.5 169.5t-36 170t-159 66q-103 0 -179 -66t-95 -170z" />
<glyph horiz-adv-x="1085" d="M266 999q35 200 183 324.5t350 124.5q203 0 304.5 -124.5t63.5 -336.5q-17 -96 -55 -182.5t-118.5 -198t-182 -233.5t-274.5 -323q-37 -42 -56 -64l-116 73q253 277 444 535q-77 -41 -172 -41q-201 0 -304.5 123t-66.5 323zM420 999q-25 -141 43.5 -229t200.5 -88 t229.5 88t122.5 229q25 140 -43 228t-201 88q-132 0 -229.5 -88t-122.5 -228z" />
<glyph horiz-adv-x="614" d="M199 717l409 350l66 -78l-320 -272l224 -273l-93 -77z" />
<glyph horiz-adv-x="1200" d="M236 1032h170l227 -842l522 842h170l-657 -1032h-136z" />
<glyph horiz-adv-x="1759" d="M236 1032h167l158 -807l424 807h150l141 -807l442 807h168l-577 -1032h-146l-147 782l-418 -782h-147z" />
<glyph horiz-adv-x="1159" d="M57 0l506 522l-313 510h186l252 -409l393 409h189l-494 -510l326 -522h-187l-262 426l-409 -426h-187z" />
<glyph horiz-adv-x="1073" d="M236 1032h165l236 -457l393 457h168l-516 -600l-74 -432h-145l76 434z" />
<glyph horiz-adv-x="1001" d="M92 0l8 45l754 868h-592l21 119h804l-8 -45l-755 -868h606l-21 -119h-817z" />
<glyph horiz-adv-x="1200" d="M55 0l658 1032h135l297 -1032h-166l-80 268h-508l-170 -268h-166zM467 397h405l-124 449z" />
<glyph horiz-adv-x="868" d="M125 0l180 1032h565l-20 -119h-416l-57 -319h178q146 0 220.5 -81t51.5 -216q-25 -136 -127 -216.5t-249 -80.5h-326zM295 125h176q80 0 137 47t70 125q14 77 -26.5 124.5t-119.5 47.5h-176z" />
<glyph horiz-adv-x="884" d="M125 0l180 1032h309q133 0 201.5 -73t46.5 -197q-24 -144 -153 -217q76 -30 110 -97.5t17 -158.5q-22 -131 -122.5 -210t-242.5 -79h-346zM295 125h192q80 0 137 47.5t70 126.5q14 77 -26.5 124.5t-118.5 47.5h-193zM379 596h151q71 0 123 43t64 113t-24 112.5t-107 42.5 h-152z" />
<glyph horiz-adv-x="753" d="M125 0l180 1032h551l-20 -119h-406l-162 -913h-143z" />
<glyph horiz-adv-x="1089" d="M29 -221l57 336q81 0 138 58.5t77 168.5l121 690h668l-160 -913h112l-61 -340h-135l41 221h-684l-41 -221h-133zM328 119h452l142 794h-371l-100 -571q-26 -148 -123 -223z" />
<glyph horiz-adv-x="794" d="M125 0l180 1032h576l-21 -119h-430l-59 -335h381l-21 -119h-383l-59 -340h438l-20 -119h-582z" />
<glyph horiz-adv-x="794" d="M125 0l180 1032h576l-21 -119h-430l-59 -335h381l-21 -119h-383l-59 -340h438l-20 -119h-582zM391 1178q6 34 34 58t62 24q35 0 55 -24t15 -58q-8 -35 -35.5 -58.5t-62.5 -23.5t-54.5 23.5t-13.5 58.5zM682 1178q6 34 34 58t62 24q35 0 55.5 -24t14.5 -58 q-6 -35 -34.5 -58.5t-63.5 -23.5q-34 0 -54 23.5t-14 58.5z" />
<glyph horiz-adv-x="1454" d="M57 0l518 530l-309 502h166l311 -502l-514 -530h-172zM655 0l181 1032h143l-180 -1032h-144zM897 530l485 502h166l-483 -502l332 -530h-172z" />
<glyph horiz-adv-x="884" d="M100 135l107 90q95 -112 237 -112q102 0 169 51t81 135q14 77 -26.5 124.5t-118.5 47.5h-160l23 125h116q77 0 131.5 42.5t67.5 117.5q12 76 -26.5 120t-122.5 44q-127 0 -254 -105l-72 88q171 141 358 141q148 0 216.5 -76.5t47.5 -199.5q-27 -152 -165 -223 q75 -30 109.5 -97.5t17.5 -160.5q-25 -138 -133.5 -218.5t-268.5 -80.5q-209 0 -334 147z" />
<glyph horiz-adv-x="1118" d="M125 0l180 1032h144l-132 -758l760 758h97l-181 -1032h-145l133 758l-762 -758h-94z" />
<glyph horiz-adv-x="1118" d="M125 0l180 1032h144l-132 -758l760 758h97l-181 -1032h-145l133 758l-762 -758h-94zM543 1190l82 70q57 -60 145 -60q94 0 164 60l57 -70q-110 -92 -239 -92q-130 0 -209 92z" />
<glyph horiz-adv-x="970" d="M121 0l180 1032h145l-180 -1032h-145zM365 530l512 502h182l-514 -502l368 -530h-186z" />
<glyph horiz-adv-x="1050" d="M74 0l14 92q82 0 139 45.5t70 128.5l135 766h674l-180 -1032h-152l162 913h-375l-115 -641q-23 -127 -102.5 -202.5t-189.5 -75.5q-56 0 -80 6z" />
<glyph horiz-adv-x="1273" d="M125 0l180 1032h109l297 -600l510 600h108l-180 -1032h-143l129 737l-430 -512h-58l-248 512l-131 -737h-143z" />
<glyph horiz-adv-x="1095" d="M125 0l180 1032h144l-78 -454h557l80 454h143l-180 -1032h-144l80 459h-559l-80 -459h-143z" />
<glyph horiz-adv-x="1275" d="M182 516q41 235 218.5 381.5t420.5 146.5t367.5 -146.5t83.5 -381.5t-217.5 -381.5t-419.5 -146.5t-368.5 146.5t-84.5 381.5zM332 516q-32 -178 58 -288.5t265 -110.5q177 0 306.5 110.5t160.5 288.5q32 178 -58 288.5t-267 110.5q-175 0 -304 -110.5t-161 -288.5z" />
<glyph horiz-adv-x="1046" d="M125 0l180 1032h797l-180 -1032h-144l160 913h-508l-162 -913h-143z" />
<glyph horiz-adv-x="843" d="M125 0l180 1032h303q146 0 222 -81t51 -216q-23 -135 -126.5 -216t-250.5 -81h-154l-76 -438h-149zM373 563h151q79 0 137 47.5t72 124.5q13 78 -27 125t-120 47h-152z" />
<glyph horiz-adv-x="1112" d="M182 516q41 235 218.5 381.5t420.5 146.5q241 0 369 -147l-109 -92q-90 110 -276 110q-179 0 -310 -110.5t-163 -288.5t60.5 -288.5t271.5 -110.5q188 0 315 108l78 -90q-177 -147 -422 -147q-243 0 -368.5 146.5t-84.5 381.5z" />
<glyph horiz-adv-x="897" d="M238 913l20 119h741l-20 -119h-299l-160 -913h-143l160 913h-299z" />
<glyph horiz-adv-x="976" d="M231 1032h154l190 -538l377 538h154l-715 -1032h-155l239 324z" />
<glyph horiz-adv-x="1245" d="M182 516q32 186 180.5 302t352.5 116l16 98h143l-16 -98q204 0 309.5 -116t73.5 -302t-179 -302t-351 -116l-17 -98h-143l16 98q-204 0 -310.5 116t-74.5 302zM332 516q-23 -129 49 -209t209 -80l100 578q-137 0 -236 -80t-122 -209zM733 227q139 0 238.5 80t122.5 209 q22 129 -49 209t-209 80z" />
<glyph horiz-adv-x="1159" d="M57 0l506 522l-313 510h186l252 -409l393 409h189l-494 -510l326 -522h-187l-262 426l-409 -426h-187z" />
<glyph horiz-adv-x="1153" d="M125 0l180 1032h144l-160 -913h563l162 913h143l-160 -913h107l-60 -340h-135l41 221h-825z" />
<glyph horiz-adv-x="927" d="M254 745l51 287h139l-49 -282q-19 -106 21.5 -158.5t146.5 -52.5q113 0 199 26l82 467h139l-180 -1032h-139l77 451q-111 -27 -227 -27q-153 0 -219.5 82.5t-40.5 238.5z" />
<glyph horiz-adv-x="1579" d="M125 0l180 1032h144l-160 -913h448l160 913h145l-161 -913h450l160 913h143l-180 -1032h-1329z" />
<glyph horiz-adv-x="1630" d="M125 0l180 1032h144l-160 -913h448l160 913h145l-161 -913h450l160 913h143l-159 -913h108l-61 -340h-136l41 221h-1302z" />
<glyph horiz-adv-x="1048" d="M238 913l20 119h385l-78 -438h168q147 0 222.5 -81t52.5 -216q-25 -136 -127.5 -216.5t-249.5 -80.5h-318l160 913h-235zM483 125h168q80 0 137.5 47.5t69.5 124.5q14 77 -26 124.5t-119 47.5h-168z" />
<glyph horiz-adv-x="1179" d="M125 0l180 1032h150l-78 -438h170q145 0 220 -81t52 -216q-23 -136 -126 -216.5t-249 -80.5h-319zM295 125h170q78 0 135 47t70 125q14 77 -26 124.5t-118 47.5h-170zM911 0l181 1032h143l-180 -1032h-144z" />
<glyph horiz-adv-x="860" d="M125 0l180 1032h150l-78 -438h170q145 0 220 -81t52 -216q-23 -136 -126 -216.5t-249 -80.5h-319zM295 125h170q78 0 135 47t70 125q14 77 -26 124.5t-118 47.5h-170z" />
<glyph horiz-adv-x="1112" d="M100 135l107 90q94 -108 278 -108q164 0 289.5 93.5t169.5 248.5h-516l21 119h516q9 152 -83 244.5t-255 92.5q-187 0 -316 -110l-78 92q181 147 422 147q244 0 369 -146.5t84 -381.5t-218 -381.5t-421 -146.5q-241 0 -369 147z" />
<glyph horiz-adv-x="1622" d="M125 0l180 1032h144l-78 -454h262q56 210 213.5 338t365.5 128q223 0 336 -146.5t72 -381.5t-206 -381.5t-388 -146.5q-210 0 -322 129t-92 342h-264l-80 -459h-143zM768 516q-32 -178 45.5 -288.5t233.5 -110.5q157 0 274.5 110.5t148.5 288.5q32 178 -46.5 288.5 t-235.5 110.5q-155 0 -271.5 -110.5t-148.5 -288.5z" />
<glyph horiz-adv-x="880" d="M66 0l333 449q-102 23 -150 99t-28 187q25 136 127.5 216.5t249.5 80.5h338l-180 -1032h-150l78 438h-147l-308 -438h-163zM371 735q-14 -77 26.5 -124.5t118.5 -47.5h189l61 344h-188q-80 0 -137.5 -47.5t-69.5 -124.5z" />
<glyph horiz-adv-x="749" d="M125 0l180 1032h416l33 185h110l-53 -304h-381l-162 -913h-143z" />
<glyph horiz-adv-x="1099" d="M238 913l20 119h741l-20 -119h-299l-59 -340q95 64 208 64q119 0 177 -77t36 -202l-34 -196q-14 -77 -66 -122.5t-129 -45.5q-43 0 -55 6l14 92q35 0 60 19t32 55l33 192q12 68 -23 111t-104 43q-104 0 -170 -57l-80 -455h-143l160 913h-299z" />
<glyph horiz-adv-x="753" d="M125 0l180 1032h551l-20 -119h-406l-162 -913h-143zM496 1151l235 195l57 -70l-237 -197z" />
<glyph horiz-adv-x="1112" d="M182 516q41 235 218.5 381.5t420.5 146.5q241 0 369 -147l-109 -92q-90 110 -276 110q-164 0 -288.5 -92t-168.5 -245h606l-20 -119h-606q-11 -156 80 -249t256 -93q188 0 315 108l78 -90q-177 -147 -422 -147q-243 0 -368.5 146.5t-84.5 381.5z" />
<glyph horiz-adv-x="868" d="M102 131l105 90q40 -48 101 -76t126 -28q98 0 160 53t74 117q7 43 -15.5 75t-63.5 52.5t-92.5 39.5t-101.5 43t-89.5 55t-58.5 84t-7 122q22 122 116 204t242 82q92 0 170 -33.5t131 -95.5l-106 -90q-32 38 -88 64t-115 26q-86 0 -138 -47.5t-63 -107.5q-7 -44 15 -76.5 t63.5 -54t92.5 -41t101 -43.5t89.5 -54.5t59 -81.5t7.5 -118q-23 -128 -126.5 -215.5t-264.5 -87.5q-100 0 -184 37.5t-140 105.5z" />
<glyph horiz-adv-x="387" d="M121 0l180 1032h145l-180 -1032h-145z" />
<glyph horiz-adv-x="389" d="M123 0l180 1032h143l-180 -1032h-143zM193 1178q6 34 34.5 58t63.5 24q34 0 53.5 -24t13.5 -58q-6 -35 -34 -58.5t-62 -23.5q-35 0 -55 23.5t-14 58.5zM442 1178q6 34 34.5 58t62.5 24q35 0 55.5 -24t15.5 -58q-7 -35 -36 -58.5t-64 -23.5q-34 0 -54 23.5t-14 58.5z" />
<glyph horiz-adv-x="735" d="M90 72l109 92q38 -47 116 -47q77 0 133.5 47t69.5 123l131 745h144l-129 -745q-25 -133 -126.5 -216t-238.5 -83q-66 0 -121 22.5t-88 61.5z" />
<glyph horiz-adv-x="1490" d="M74 0l14 92q82 0 139 45.5t70 128.5l135 766h651l-77 -438h170q147 0 222 -81t50 -216q-23 -136 -125.5 -216.5t-249.5 -80.5h-317l159 913h-354l-115 -641q-23 -127 -102.5 -202.5t-189.5 -75.5q-56 0 -80 6zM924 125h170q79 0 135.5 47.5t68.5 124.5q15 76 -25 124 t-118 48h-170z" />
<glyph horiz-adv-x="1484" d="M125 0l180 1032h144l-76 -438h479l78 438h149l-78 -438h170q145 0 220.5 -81.5t52.5 -215.5q-25 -136 -127.5 -216.5t-247.5 -80.5h-319l81 469h-481l-82 -469h-143zM920 125h170q79 0 135.5 47.5t68.5 124.5q14 77 -25.5 124.5t-117.5 47.5h-170z" />
<glyph horiz-adv-x="1099" d="M238 913l20 119h741l-20 -119h-299l-59 -340q95 64 208 64q119 0 177 -77t36 -202l-61 -358h-145l61 358q12 68 -23 111t-104 43q-104 0 -170 -57l-80 -455h-143l160 913h-299z" />
<glyph horiz-adv-x="970" d="M121 0l180 1032h145l-180 -1032h-145zM365 530l512 502h182l-514 -502l368 -530h-186zM582 1151l235 195l60 -70l-240 -197z" />
<glyph horiz-adv-x="976" d="M231 1032h154l190 -538l377 538h154l-715 -1032h-155l239 324zM473 1190l84 70q50 -60 141 -60q96 0 166 60l58 -70q-110 -92 -240 -92t-209 92z" />
<glyph horiz-adv-x="1101" d="M125 0l180 1032h144l-160 -913h563l162 913h143l-180 -1032h-359l-40 -221h-134l41 221h-360z" />
<glyph horiz-adv-x="1118" d="M125 0l180 1032h144l-132 -758l760 758h97l-181 -1032h-145l133 758l-762 -758h-94zM616 1276l82 70l168 -195l-84 -72z" />
<glyph horiz-adv-x="794" d="M125 0l180 1032h576l-21 -119h-430l-59 -335h381l-21 -119h-383l-59 -340h438l-20 -119h-582zM471 1276l82 70l170 -195l-86 -72z" />
<glyph horiz-adv-x="1179" d="M182 516l11 55h839q9 155 -82.5 249.5t-255.5 94.5q-186 0 -315 -110l-76 92q181 147 420 147q244 0 369 -146.5t84 -381.5t-204.5 -381.5t-385.5 -146.5q-221 0 -333 146.5t-71 381.5zM326 451q-11 -152 65.5 -243t216.5 -91t250.5 91.5t151.5 242.5h-684z" />
<glyph horiz-adv-x="776" d="M123 0l180 1032h143l-180 -1032h-143zM193 1178q6 34 34.5 58t63.5 24q34 0 53.5 -24t13.5 -58q-6 -35 -34 -58.5t-62 -23.5q-35 0 -55 23.5t-14 58.5zM510 0l180 1032h146l-181 -1032h-145zM512 1178q5 34 33 58t63 24t55.5 -24t14.5 -58q-6 -35 -34.5 -58.5 t-63.5 -23.5q-36 0 -55.5 23.5t-12.5 58.5zM831 1178q4 34 33 58t64 24t55 -24t14 -58q-6 -35 -34.5 -58.5t-63.5 -23.5q-36 0 -55.5 23.5t-12.5 58.5z" />
<glyph horiz-adv-x="493" d="M179.5 201q-14.5 134 15.5 315q47 265 162.5 433.5t244.5 168.5l-18 -104q-65 0 -137 -141.5t-109 -358.5q-26 -149 -24 -259.5t27 -173.5t67 -63l-19 -104q-84 0 -139.5 76.5t-70 210.5z" />
<glyph horiz-adv-x="493" d="M72 -86l20 104q65 0 136 140.5t110 357.5q25 150 23 261t-27.5 174t-67.5 63l19 104q129 0 186 -168.5t10 -433.5q-47 -266 -163 -434t-246 -168z" />
<glyph horiz-adv-x="497" d="M106 -74l209 1180h289l-18 -109h-150l-170 -962h148l-19 -109h-289z" />
<glyph horiz-adv-x="497" d="M74 -74l18 109h150l172 962h-150l19 109h288l-209 -1180h-288z" />
<glyph horiz-adv-x="522" d="M158 461l18 104q46 0 88 51.5t55 131.5l19 108q21 115 107.5 188.5t195.5 73.5l-18 -104q-45 0 -87 -50t-55 -126l-18 -109q-13 -74 -59 -131t-111 -84q56 -28 80.5 -84t11.5 -133l-16 -104q-13 -75 11 -125t69 -50l-19 -104q-110 0 -170.5 73t-40.5 189l19 105 q13 78 -11 129t-69 51z" />
<glyph horiz-adv-x="522" d="M61 -86l19 104q45 0 87.5 50t55.5 125l17 104q13 76 58 132t110 85q-55 27 -79.5 84t-11.5 131l19 109q13 76 -11 126t-69 50l16 104q110 0 171 -73.5t40 -188.5l-18 -108q-13 -80 11 -131.5t69 -51.5l-19 -104q-46 0 -88 -51t-55 -129l-18 -105q-20 -115 -107 -188.5 t-197 -73.5z" />
<glyph horiz-adv-x="382" d="M121 0l129 739h139l-129 -739h-139zM270 956q8 37 38 62.5t67 25.5q36 0 56.5 -25.5t14.5 -62.5q-6 -36 -35 -61t-67 -25q-37 0 -58.5 25.5t-15.5 60.5z" />
<glyph horiz-adv-x="770" d="M129 258q8 44 27.5 78.5t44.5 58t53.5 44t57.5 41t54 43t44 56t26 74.5l15 86h139l-15 -86q-11 -61 -37 -110.5t-57 -78.5t-65.5 -56t-63.5 -45.5t-51 -45t-27 -57.5q-10 -58 25 -103.5t119 -45.5q57 0 116.5 21t104.5 56l74 -90q-147 -110 -320 -110q-146 0 -215.5 78 t-48.5 192zM471 956q6 37 36.5 62.5t67.5 25.5t57.5 -25.5t14.5 -62.5q-6 -35 -35.5 -60.5t-66.5 -25.5t-58.5 25.5t-15.5 60.5z" />
<glyph horiz-adv-x="382" d="M106 -74l209 1180h140l-209 -1180h-140z" />
<glyph horiz-adv-x="808" d="M223 690l21 109h229l55 307h140l-56 -307h232l-19 -109h-231l-135 -764h-140l136 764h-232z" />
<glyph horiz-adv-x="808" d="M145 248l21 108h229l60 334h-232l21 109h229l55 307h140l-56 -307h232l-19 -109h-231l-59 -334h231l-18 -108h-232l-57 -322h-140l58 322h-232z" />
<glyph horiz-adv-x="907" d="M182 516q41 235 167.5 381.5t287.5 146.5q160 0 233.5 -146.5t32.5 -381.5t-166.5 -381.5t-285.5 -146.5q-161 0 -235.5 146.5t-33.5 381.5zM328 516q-32 -180 8 -292.5t135 -112.5q97 0 177 112.5t112 292.5q32 179 -9 292.5t-137 113.5q-95 0 -175 -113t-111 -293z" />
<glyph horiz-adv-x="542" d="M223 881l19 110l317 47l-182 -1038h-139l159 909z" />
<glyph horiz-adv-x="837" d="M90 0l19 119l540 440q66 57 82 156q17 91 -26.5 148t-129.5 57q-84 0 -147 -57t-80 -148h-143q26 148 135 238.5t258 90.5q151 0 226.5 -90.5t49.5 -238.5q-27 -154 -145 -248l-428 -348h469l-20 -119h-660z" />
<glyph horiz-adv-x="862" d="M137 305h144q-14 -86 32.5 -140t135.5 -54q88 0 153 54t80 140q15 85 -31 139t-135 54h-70l21 118h70q70 0 122 43t64 109q11 68 -26 111t-107 43t-121.5 -43t-62.5 -111h-144q20 123 117.5 199.5t232.5 76.5t205.5 -76.5t48.5 -199.5q-26 -139 -159 -209 q72 -34 103.5 -99.5t14.5 -154.5q-25 -141 -135 -229t-264 -88t-234 88t-55 229z" />
<glyph horiz-adv-x="892" d="M109 190l12 66l616 776h142l-127 -723h92l-21 -119h-88l-33 -190h-139l33 190h-487zM305 309h318l90 512z" />
<glyph horiz-adv-x="837" d="M131 303h139q-14 -84 31.5 -137t132.5 -53q85 0 149 57t79 147q17 101 -33 163.5t-148 62.5q-99 0 -174 -58l-94 35l154 512h483l-21 -119h-360l-86 -268q61 23 129 23q159 0 240 -97t53 -254q-26 -148 -134 -238.5t-259 -90.5q-150 0 -228 87t-53 228z" />
<glyph horiz-adv-x="854" d="M141 326q14 80 50 157t103.5 166.5t147 177.5t205.5 217l109 -69q-185 -182 -320 -359q46 21 105 21q152 0 230 -88.5t52 -235.5q-25 -145 -135 -235t-264 -90q-155 0 -232.5 90.5t-50.5 247.5zM283 313q-15 -90 29.5 -146t133.5 -56q88 0 153.5 56.5t80.5 145.5 q15 91 -30 148t-134 57q-88 0 -153 -57t-80 -148z" />
<glyph horiz-adv-x="854" d="M236 0l503 913h-485l18 119h670l-8 -45l-549 -987h-149z" />
<glyph horiz-adv-x="864" d="M139 305q17 89 71.5 154.5t137.5 99.5q-110 70 -84 209q22 123 118.5 199.5t231.5 76.5q136 0 207 -76.5t49 -199.5q-26 -139 -159 -209q72 -34 103.5 -99.5t14.5 -154.5q-25 -141 -135.5 -229t-265.5 -88q-152 0 -233 88t-56 229zM285 305q-15 -86 31.5 -140t134.5 -54 q89 0 154.5 54t78.5 140q17 85 -29 139t-135 54t-154.5 -54t-80.5 -139zM410 768q-12 -66 24.5 -108t106.5 -42t122 42t64 108q11 68 -26 111t-107 43t-121.5 -43t-62.5 -111z" />
<glyph horiz-adv-x="854" d="M211 719q25 145 135 235t264 90q155 0 232.5 -90t50.5 -247q-14 -80 -50 -157t-103.5 -167t-147 -178.5t-205.5 -216.5l-108 69q181 178 319 359q-46 -21 -104 -21q-152 0 -230.5 88.5t-52.5 235.5zM354 719q-15 -91 29.5 -148t132.5 -57q89 0 154 57t82 148 q15 90 -30 146.5t-134 56.5q-88 0 -153.5 -57t-80.5 -146z" />
<glyph horiz-adv-x="868" d="M102 131l105 90q35 -44 89 -72t114 -32l61 346q-23 9 -38.5 15.5t-37.5 17t-36.5 19t-33 21t-30 25t-24.5 28.5t-20 34t-12 38.5t-4.5 45t5.5 51.5q20 116 107.5 196.5t225.5 87.5l25 138h80l-25 -140q156 -19 246 -125l-106 -90q-27 32 -70.5 55.5t-91.5 30.5l-58 -329 q52 -21 79.5 -33t69.5 -38.5t61.5 -53.5t31 -70.5t2.5 -95.5q-21 -119 -113 -204.5t-235 -96.5l-25 -137h-79l22 137q-181 12 -285 141zM389 760q-8 -51 20.5 -84.5t88.5 -61.5l53 297q-69 -11 -111 -55.5t-51 -95.5zM492 123q74 16 120 64t56 100q8 51 -23.5 83.5 t-97.5 61.5z" />
<glyph horiz-adv-x="1181" d="M143 377l15 80h88q5 43 8 59l12 59h-90l17 80h100q74 178 235 283.5t365 105.5q241 0 369 -147l-107 -92q-93 110 -278 110q-140 0 -254 -69.5t-174 -190.5h385l-15 -80h-401q-10 -32 -15 -59q-6 -30 -6 -59h402l-13 -80h-387q19 -121 107.5 -190.5t228.5 -69.5 q188 0 318 108l75 -90q-181 -147 -421 -147q-205 0 -328.5 105t-134.5 284h-101z" />
<glyph horiz-adv-x="833" d="M72 0q10 67 51.5 116t101.5 70l49 275h-116l20 110h115l31 174q23 133 124 216t238 83q136 0 209 -83l-109 -93q-38 47 -116 47q-77 0 -133.5 -47t-69.5 -123l-31 -174h264l-20 -110h-264l-47 -273q29 -9 91.5 -46.5t104.5 -37.5q38 0 65.5 23t33.5 59h112 q-15 -89 -78.5 -143.5t-148.5 -54.5q-43 0 -82.5 14.5t-64.5 32.5t-58 32.5t-63 14.5q-37 0 -64 -22t-33 -60h-112z" />
<glyph horiz-adv-x="1073" d="M236 1032h165l236 -457l393 457h168l-516 -600l-8 -39h209l-15 -80h-206l-19 -106h207l-14 -80h-207l-21 -127h-145l22 127h-206l14 80h207l18 106h-207l15 80h204l9 41z" />
<glyph horiz-adv-x="702" d="M127 242q14 78 74 145h-54l15 80h127l125 102h-234l13 80h319l20 17q36 29 55.5 54.5t24.5 63.5q11 60 -25.5 98t-103.5 38q-90 0 -161 -64l-74 88q114 100 258 100q132 0 201 -70t49 -183q-14 -80 -70 -142h49l-14 -80h-123l-127 -102h234l-15 -80h-315l-25 -20 q-36 -29 -55.5 -55t-26.5 -64q-9 -60 27 -97.5t102 -37.5q95 0 164 63l72 -88q-111 -100 -258 -100q-130 0 -199 70.5t-49 183.5z" />
<glyph horiz-adv-x="983" d="M119 244l20 110h127l107 324h-125l20 110h142l84 244h139l-84 -244h244l81 244h140l-82 -244h110l-20 -110h-125l-109 -324h127l-20 -110h-143l-82 -244h-140l80 244h-241l-82 -244h-140l80 244h-108zM406 354h243l107 324h-242z" />
<glyph horiz-adv-x="382" d="M117 76q4 35 34.5 60.5t67.5 25.5q36 0 57 -25t15 -61q-6 -37 -36 -62.5t-67 -25.5t-57.5 25.5t-13.5 62.5zM172 293l129 739h139l-129 -739h-139z" />
<glyph horiz-adv-x="958" d="M139 305q17 89 72.5 154.5t138.5 99.5q-112 69 -86 209q22 123 118.5 199.5t231.5 76.5q136 0 207 -76.5t49 -199.5h-143q11 68 -26 111t-107 43t-121.5 -43t-62.5 -111q-12 -66 24 -109t105 -43h43l-21 -118h-41q-89 0 -154.5 -54t-80.5 -139q-15 -86 31.5 -140 t134.5 -54q89 0 154.5 54t78.5 140l37 193h-105l19 118h354l-20 -118h-105l-35 -193q-25 -141 -135.5 -229t-265.5 -88q-152 0 -233 88t-56 229z" />
<glyph horiz-adv-x="892" d="M76 -74l782 1180h139l-780 -1180h-141z" />
<glyph horiz-adv-x="892" d="M285 1106h141l362 -1180h-139z" />
<glyph horiz-adv-x="770" d="M236 934q147 110 321 110q145 0 214 -78t48 -192q-9 -50 -33 -89.5t-54.5 -63t-66 -49t-66 -48t-54.5 -60t-33 -85.5l-14 -86h-140l15 86q11 61 37 110.5t57 78.5t65.5 56t63.5 45.5t51 45t27 57.5q12 58 -23.5 104t-118.5 46q-117 0 -223 -78zM301 76q6 35 35.5 60.5 t66.5 25.5q36 0 57.5 -25t16.5 -61q-8 -37 -37 -62.5t-65 -25.5q-37 0 -59 26t-15 62z" />
<glyph horiz-adv-x="1384" d="M215 786q20 115 107.5 186.5t207.5 71.5t183 -71.5t43 -186.5q-22 -115 -110 -186.5t-208 -71.5t-181.5 71.5t-41.5 186.5zM338 0l749 1032h142l-752 -1032h-139zM340 786q-12 -69 20.5 -111t98.5 -42q65 0 112.5 42t59.5 111q12 68 -21.5 111t-97.5 43t-112 -43 t-60 -111zM809 246q22 116 109 187t208 71q120 0 182 -71.5t42 -186.5q-22 -116 -109 -187t-207 -71t-182.5 71.5t-42.5 186.5zM936 246q-12 -68 20.5 -111t96.5 -43t113 43t61 111q10 69 -23 111t-98 42q-64 0 -112 -42.5t-58 -110.5z" />
<glyph horiz-adv-x="1994" d="M215 786q20 115 107.5 186.5t207.5 71.5t183 -71.5t43 -186.5q-22 -115 -110 -186.5t-208 -71.5t-181.5 71.5t-41.5 186.5zM338 0l749 1032h142l-752 -1032h-139zM340 786q-12 -69 20.5 -111t98.5 -42q65 0 112.5 42t59.5 111q12 68 -21.5 111t-97.5 43t-112 -43 t-60 -111zM809 246q22 116 109 187t208 71q120 0 182 -71.5t42 -186.5q-22 -116 -109 -187t-207 -71t-182.5 71.5t-42.5 186.5zM936 246q-12 -68 20.5 -111t96.5 -43t113 43t61 111q10 69 -23 111t-98 42q-64 0 -112 -42.5t-58 -110.5zM1421 246q20 115 107 186.5t207 71.5 q121 0 184 -71.5t41 -186.5q-20 -115 -107.5 -186.5t-207.5 -71.5t-183 71.5t-41 186.5zM1544 246q-12 -68 21.5 -111t97.5 -43t112 43t60 111q12 69 -21 111t-98 42t-112.5 -42t-59.5 -111z" />
<glyph horiz-adv-x="696" d="M27 -281l102 88q47 -63 141 -63q66 0 114.5 38.5t59.5 98.5q14 78 -32 129l-258 299l108 92l260 -301q89 -100 66 -221q-20 -116 -114 -188t-226 -72q-150 0 -221 100zM223 784q20 116 114 188t226 72q148 0 223 -100l-104 -88q-48 64 -141 64q-66 0 -114.5 -39 t-59.5 -99q-14 -78 32 -129l260 -299l-110 -90l-260 299q-89 99 -66 221z" />
<glyph horiz-adv-x="958" d="M227 745q22 130 122.5 208.5t242.5 78.5h174l-180 -1032h-135l79 459h-38q-142 0 -215 78t-50 208zM702 0l181 1032h135l-180 -1032h-136z" />
<glyph horiz-adv-x="561" d="M186 1059q97 79 123 149q-35 5 -55 33t-14 66q9 42 43.5 71t76.5 29q40 0 64.5 -29.5t13.5 -87.5q-20 -125 -209 -284zM295 0l180 1032h143l-180 -1032h-143zM614 1178q6 34 34.5 58t62.5 24q35 0 55.5 -24t15.5 -58q-7 -35 -36 -58.5t-64 -23.5q-34 0 -54 23.5t-14 58.5 z" />
<glyph horiz-adv-x="618" d="M115 256q28 163 112 265t191 102t155.5 -102t20.5 -265q-29 -163 -113.5 -265t-191.5 -102t-155 102t-19 265zM207 256q-23 -127 3.5 -206t92.5 -79q65 0 119.5 79t77.5 206t-4.5 206t-92.5 79q-66 0 -120 -78.5t-76 -206.5z" />
<glyph horiz-adv-x="372" d="M143 514l13 72l209 32l-127 -720h-91l113 637z" />
<glyph horiz-adv-x="571" d="M49 -102l12 77l363 308q44 38 57 110q11 66 -17 107t-85 41q-59 0 -102.5 -41t-53.5 -107h-94q19 103 91.5 166.5t172.5 63.5q98 0 148.5 -63.5t33.5 -166.5q-18 -104 -100 -170l-289 -248h314l-13 -77h-438z" />
<glyph horiz-adv-x="587" d="M84 109h92q-10 -61 21.5 -99.5t91.5 -38.5t105 38.5t55 99.5q11 62 -20.5 100.5t-92.5 38.5h-47l14 76h47q47 0 82.5 30.5t44.5 79.5q9 47 -16 77t-72 30t-82.5 -30t-44.5 -77h-94q15 83 80 136t153 53q90 0 136.5 -52.5t31.5 -136.5q-17 -98 -106 -147q99 -50 78 -178 q-17 -98 -91.5 -159t-177.5 -61q-102 0 -154.5 61t-33.5 159z" />
<glyph horiz-adv-x="608" d="M63 33l9 41l413 540h90l-88 -505h64l-14 -76h-60l-22 -135h-90l22 135h-324zM190 109h216l65 368z" />
<glyph horiz-adv-x="571" d="M80 106h90q-11 -60 19 -97.5t90 -37.5q57 0 100 41t53 107q12 71 -21.5 115.5t-97.5 44.5q-71 0 -118 -41l-62 24l105 352h321l-14 -77h-242l-59 -195q41 18 88 18q106 0 159.5 -67t34.5 -174q-19 -103 -91.5 -166.5t-170.5 -63.5q-100 0 -151.5 60t-32.5 157z" />
<glyph horiz-adv-x="585" d="M86 123q17 101 89 201.5t253 298.5l68 -45q-141 -153 -215 -254q28 14 71 14q101 0 154.5 -61.5t34.5 -161.5t-93 -163t-176 -63q-103 0 -154.5 63.5t-31.5 170.5zM178 115q-12 -64 19 -104t90 -40q60 0 103.5 39.5t55.5 104.5q11 66 -18.5 106.5t-89.5 40.5 q-59 0 -104.5 -41t-55.5 -106z" />
<glyph horiz-adv-x="581" d="M145 -102l342 639h-325l14 77h442l-4 -28l-372 -688h-97z" />
<glyph horiz-adv-x="589" d="M84 109q21 128 141 178q-75 48 -55 147q14 83 79 136t154 53t136 -53t32 -136q-17 -99 -108 -147q47 -24 68.5 -69.5t11.5 -108.5q-19 -99 -93 -159.5t-176 -60.5q-101 0 -154 61t-36 159zM178 109q-11 -62 20 -100t91 -38q61 0 105 38t55 100q10 61 -20.5 99t-90.5 38 t-105 -38t-55 -99zM264 434q-9 -49 15.5 -78.5t70.5 -29.5q50 0 85 29.5t44 78.5q8 47 -17.5 77t-72.5 30t-82.5 -30t-42.5 -77z" />
<glyph horiz-adv-x="585" d="M135 397q17 100 90.5 163t175.5 63q103 0 155 -63.5t32 -170.5q-17 -101 -89 -201.5t-253 -298.5l-70 45q136 144 217 254q-28 -14 -71 -14q-102 0 -154 61t-33 162zM227 397q-12 -66 18.5 -106.5t90.5 -40.5q59 0 103.5 40.5t56.5 106.5q11 65 -19 104.5t-90 39.5 q-59 0 -104.5 -40t-55.5 -104z" />
<glyph horiz-adv-x="268" d="M39 -188q49 46 63 79q-19 3 -29 18.5t-7 37.5q4 25 24 41t45 16q22 0 36 -15.5t7 -49.5q-11 -70 -115 -156z" />
<glyph horiz-adv-x="268" d="M66 -53q4 24 23.5 40.5t43.5 16.5q25 0 38 -16t9 -41q-3 -25 -22.5 -41.5t-44.5 -16.5q-23 0 -36.5 16.5t-10.5 41.5z" />
<glyph horiz-adv-x="342" d="M121 256q32 183 109.5 300.5t162.5 117.5l-12 -68q-43 0 -92 -99.5t-74 -250.5q-28 -157 -14.5 -253.5t57.5 -96.5l-12 -68q-85 0 -121.5 117.5t-3.5 300.5z" />
<glyph horiz-adv-x="342" d="M37 -162l12 68q44 0 92.5 98.5t75.5 251.5q27 157 13 253.5t-58 96.5l12 68q86 0 122.5 -117t4.5 -301q-33 -184 -110.5 -301t-163.5 -117z" />
<glyph horiz-adv-x="387" d="M115 219l12 74h235l-12 -74h-235z" />
<glyph horiz-adv-x="618" d="M258 1075q29 163 113.5 265t191.5 102q106 0 154.5 -102t19.5 -265t-113 -264.5t-190 -101.5q-107 0 -156 101.5t-20 264.5zM350 1075q-22 -128 4 -206t92 -78q65 0 120 78.5t77 205.5q23 127 -3 206t-91 79q-66 0 -121 -78.5t-78 -206.5z" />
<glyph horiz-adv-x="372" d="M289 1333l12 72l207 33l-127 -721h-90l112 637z" />
<glyph horiz-adv-x="571" d="M193 717l14 78l360 307q49 39 58 110q12 66 -16 107t-85 41q-58 0 -101.5 -41t-55.5 -107h-95q20 103 93 166.5t172 63.5q100 0 150.5 -63.5t31.5 -166.5q-18 -103 -98 -170l-291 -247h315l-14 -78h-438z" />
<glyph horiz-adv-x="587" d="M227 928h95q-11 -62 19.5 -99.5t90.5 -37.5t105 38t55 99q11 62 -20.5 100.5t-92.5 38.5h-47l14 76h48q49 0 83.5 30t43.5 80q9 47 -16.5 77t-72.5 30t-82 -30t-44 -77h-95q15 83 81 136t155 53t135 -52.5t31 -136.5q-14 -98 -107 -147q47 -24 68.5 -69.5t11.5 -108.5 q-19 -99 -92.5 -159t-175.5 -60t-155 60.5t-36 158.5z" />
<glyph horiz-adv-x="608" d="M209 852l6 41l416 541h90l-88 -506h61l-12 -76h-59l-25 -135h-90l24 135h-323zM334 928h215l65 368z" />
<glyph horiz-adv-x="571" d="M223 926h90q-11 -60 19 -97.5t90 -37.5q57 0 100.5 40.5t55.5 106.5q12 71 -21.5 115.5t-97.5 44.5q-72 0 -119 -41l-61 24l104 353h322l-15 -78h-241l-60 -195q40 19 88 19q106 0 160 -67.5t35 -174.5q-19 -103 -91.5 -166t-172.5 -63t-151 60t-34 157z" />
<glyph horiz-adv-x="585" d="M229 942q19 101 90.5 201t251.5 299l70 -45q-128 -135 -215 -254q28 14 72 14q101 0 153 -61.5t33 -161.5t-92.5 -162.5t-175.5 -62.5t-154 62.5t-33 170.5zM322 934q-10 -64 19.5 -103.5t88.5 -39.5q60 0 105 39.5t55 103.5q12 66 -18 106.5t-89 40.5 q-60 0 -104.5 -40.5t-56.5 -106.5z" />
<glyph horiz-adv-x="581" d="M289 717l344 639h-326l15 78h442l-4 -29l-375 -688h-96z" />
<glyph horiz-adv-x="589" d="M229 928q10 63 47 108.5t93 69.5q-73 47 -56 147q15 83 80.5 136t153.5 53q90 0 136.5 -52.5t31.5 -136.5q-14 -97 -109 -147q49 -24 70.5 -69.5t9.5 -108.5q-17 -98 -91 -158.5t-177 -60.5q-102 0 -155 60.5t-34 158.5zM322 928q-11 -62 19.5 -99.5t90.5 -37.5 q62 0 107 38t55 99q9 62 -21.5 99.5t-91.5 37.5q-60 0 -104.5 -38t-54.5 -99zM408 1253q-9 -49 15.5 -78.5t72.5 -29.5t83 29.5t44 78.5q8 47 -16.5 77t-71.5 30q-48 0 -84 -30t-43 -77z" />
<glyph horiz-adv-x="585" d="M279 1217q19 100 92 162.5t174 62.5q102 0 154.5 -63t33.5 -171q-19 -101 -90 -200t-252 -299l-72 45q129 132 218 254q-30 -15 -72 -15q-102 0 -153.5 61.5t-32.5 162.5zM371 1217q-11 -66 19.5 -107t90.5 -41q59 0 103.5 41t54.5 107q12 64 -18 103.5t-89 39.5 q-60 0 -104.5 -39.5t-56.5 -103.5z" />
<glyph horiz-adv-x="268" d="M182 631q54 50 66 80q-20 3 -30.5 18t-6.5 37q3 24 23 40.5t45 16.5q23 0 37 -15.5t8 -49.5q-11 -70 -115 -156z" />
<glyph horiz-adv-x="268" d="M211 766q3 24 23 40.5t45 16.5q24 0 37 -16t10 -41q-4 -25 -23.5 -41t-44.5 -16t-38 16t-9 41z" />
<glyph horiz-adv-x="342" d="M264 1075q33 184 111 301t164 117l-13 -68q-44 0 -93 -99.5t-75 -250.5q-27 -157 -13 -253.5t58 -96.5l-12 -68q-86 0 -122.5 117t-4.5 301z" />
<glyph horiz-adv-x="342" d="M180 657l13 68q44 0 92 98.5t75 251.5q27 157 13 253.5t-58 96.5l13 68q87 0 123 -116.5t4 -301.5q-32 -184 -110 -301t-165 -117z" />
<glyph horiz-adv-x="387" d="M258 1038l14 74h236l-14 -74h-236z" />
<glyph horiz-adv-x="628" d="M266 1180q22 117 108 189.5t204 72.5q144 0 200 -88l-76 -428h-94l6 39q-65 -47 -153 -47q-107 0 -161 72.5t-34 189.5zM365 1180q-13 -79 24.5 -127.5t112.5 -48.5q78 0 127 40l47 277q-41 35 -115 35q-73 0 -127.5 -49t-68.5 -127z" />
<glyph horiz-adv-x="628" d="M262 1004l137 768h95l-66 -369q64 39 145 39q110 0 166.5 -72.5t36.5 -189.5q-22 -118 -107 -190t-204 -72q-141 0 -199 86h-4zM362 1028q12 1 51.5 -11.5t67.5 -12.5q74 0 129 48.5t68 127.5q14 78 -23 127t-110 49q-76 0 -135 -53z" />
<glyph horiz-adv-x="557" d="M266 1180q22 117 106 189.5t201 72.5q116 0 175 -78l-68 -57q-40 49 -117 49q-74 0 -129.5 -49t-68.5 -127q-13 -79 24.5 -127.5t112.5 -48.5q80 0 133 47l47 -58q-81 -75 -201 -75q-117 0 -176 72.5t-39 189.5z" />
<glyph horiz-adv-x="630" d="M266 1180q22 117 105 189.5t198 72.5q75 0 125 -35l66 365h94l-149 -846h-95l6 41q-67 -49 -155 -49q-107 0 -161 72.5t-34 189.5zM365 1180q-13 -79 24.5 -127.5t112.5 -48.5q77 0 129 43l47 264q-39 45 -115 45q-74 0 -129.5 -49t-68.5 -127z" />
<glyph horiz-adv-x="591" d="M266 1182q22 116 102.5 188t188.5 72q110 0 157.5 -77.5t22.5 -213.5h-375q-5 -67 33.5 -107t110.5 -40q82 0 135 47l47 -58q-84 -75 -205 -75q-117 0 -177 72t-40 192zM375 1221h280q5 64 -23 100.5t-87 36.5q-58 0 -104 -37t-66 -100z" />
<glyph horiz-adv-x="391" d="M227 645l127 713h-69l14 76h68l30 168q13 81 70 129.5t137 48.5q35 0 58 -13l-15 -79q-17 10 -41 10q-42 0 -72 -26.5t-38 -69.5l-29 -168h137l-14 -76h-137l-125 -713h-101z" />
<glyph horiz-adv-x="595" d="M172 795q9 48 45.5 83.5t91.5 53.5q-56 29 -47 84q10 60 84 86q-77 44 -57 151q13 85 78 137t155 52q88 0 133 -45q45 45 97 45q5 0 14 -1t14 -1l-14 -78q-6 4 -23 4q-26 0 -53 -27q9 -40 4 -82q-15 -83 -80 -133.5t-157 -50.5q-44 0 -72 -15t-31 -40q-3 -24 24 -37.5 t79 -13.5q109 0 168 -44t47 -116q-13 -76 -96 -124t-197 -48q-106 0 -162.5 44.5t-44.5 115.5zM270 795q-8 -39 25 -62.5t96 -23.5q70 0 122 27.5t58 68.5q7 39 -28.5 62.5t-100.5 23.5q-70 0 -117 -26.5t-55 -69.5zM383 1257q-8 -50 16.5 -80t73.5 -30q50 0 86 30.5 t43 79.5q9 47 -17 78t-73 31q-49 0 -84.5 -30.5t-44.5 -78.5z" />
<glyph horiz-adv-x="608" d="M250 926l149 846h95l-68 -381q74 51 156 51q85 0 126.5 -58t26.5 -153l-55 -305h-94l53 305q9 57 -16.5 91t-79.5 34q-82 0 -131 -49l-68 -381h-94z" />
<glyph horiz-adv-x="272" d="M250 926l90 508h94l-90 -508h-94zM352 1585q4 26 26 44t48 18t40 -18t9 -44q-4 -26 -25 -43.5t-47 -17.5t-40.5 17.5t-10.5 43.5z" />
<glyph horiz-adv-x="270" d="M141 645l11 62q57 0 69 57l117 670h96l-119 -672q-9 -57 -45 -90t-90 -33q-27 0 -39 6zM352 1585q4 26 25.5 44t46.5 18q26 0 41 -18t10 -44q-4 -26 -25.5 -43.5t-48.5 -17.5q-25 0 -39 17.5t-10 43.5z" />
<glyph horiz-adv-x="550" d="M250 926l149 846h95l-101 -564l232 226h114l-247 -238l182 -270h-115l-170 256l-45 -256h-94z" />
<glyph horiz-adv-x="303" d="M270 1044l129 728h95l-127 -725q-6 -28 9 -43t44 -15l-12 -63q-16 -4 -43 -4q-54 0 -79 32.5t-16 89.5z" />
<glyph horiz-adv-x="878" d="M250 926l90 508h94l-8 -43q70 51 156 51q87 0 116 -72q78 72 187 72q72 0 107.5 -49t21.5 -129l-62 -338h-94l60 338q7 41 -12.5 66.5t-59.5 25.5q-79 0 -133 -45q0 -15 -4 -47l-62 -338h-94l61 338q6 42 -13 67t-58 25q-82 0 -131 -49l-68 -381h-94z" />
<glyph horiz-adv-x="606" d="M250 926l90 508h94l-8 -43q70 51 156 51q85 0 126.5 -58t26.5 -153l-55 -305h-94l53 305q9 57 -16.5 91t-79.5 34q-82 0 -131 -49l-68 -381h-94z" />
<glyph horiz-adv-x="630" d="M201 645l139 789h94l-8 -43q70 51 156 51q109 0 162.5 -72.5t33.5 -189.5q-22 -117 -105 -189.5t-198 -72.5q-71 0 -127 32l-53 -305h-94zM367 1049q36 -45 112 -45q75 0 130.5 48.5t68.5 127.5q15 78 -22.5 127t-112.5 49q-82 0 -131 -49z" />
<glyph horiz-adv-x="628" d="M266 1180q22 117 108 189.5t204 72.5q143 0 202 -88l-2 -2l-125 -707h-94l53 309q-62 -36 -143 -36q-110 0 -166.5 72.5t-36.5 189.5zM365 1180q-13 -79 24 -127.5t109 -48.5q78 0 131 47l49 278q-12 0 -51 13.5t-66 13.5q-73 0 -127.5 -49t-68.5 -127z" />
<glyph horiz-adv-x="409" d="M250 926l90 508h94l-10 -60q69 66 145 66q11 0 31 -4l-14 -82q-12 4 -39 4q-79 0 -137 -68h-2l-64 -364h-94z" />
<glyph horiz-adv-x="454" d="M225 985l70 59q15 -21 41.5 -34t54.5 -13q40 0 65.5 23t30.5 51q4 26 -16.5 44t-52.5 30t-63 27.5t-49.5 46t-10.5 75.5q10 61 58.5 104.5t123.5 43.5q45 0 85 -16.5t63 -45.5l-70 -59q-12 17 -36.5 28t-49.5 11q-34 0 -54.5 -19.5t-23.5 -44.5q-5 -27 15.5 -46t52.5 -32 t63.5 -28.5t50 -45.5t11.5 -73q-11 -63 -65 -108t-136 -45q-103 0 -158 67z" />
<glyph horiz-adv-x="387" d="M285 1358l12 76h63l21 112h98l-20 -112h131l-15 -76h-129l-49 -271q-6 -39 13 -64.5t57 -25.5q21 0 47 13l-14 -82q-25 -10 -64 -10q-76 0 -112.5 45.5t-24.5 123.5l49 271h-63z" />
<glyph horiz-adv-x="616" d="M287 1137l53 297h98l-53 -297q-10 -60 18 -96.5t82 -36.5q56 0 97.5 37t50.5 96l53 297h94l-53 -297q-17 -98 -88.5 -158.5t-169.5 -60.5t-148.5 60.5t-33.5 158.5z" />
<glyph horiz-adv-x="614" d="M285 1434h106l98 -390l238 390h104l-317 -508h-90z" />
<glyph horiz-adv-x="909" d="M285 1434h110l64 -394l200 394h97l57 -394l205 394h110l-286 -508h-99l-61 374l-193 -374h-98z" />
<glyph horiz-adv-x="602" d="M201 926l245 258l-147 250h113l108 -189l174 189h111l-236 -250l154 -258h-111l-114 198l-187 -198h-110z" />
<glyph horiz-adv-x="614" d="M227 645l197 281l-139 508h106l98 -394l238 394h104l-497 -789h-107z" />
<glyph horiz-adv-x="548" d="M225 926l6 32l355 400h-279l15 76h415l-6 -33l-352 -400h283l-15 -75h-422z" />
<glyph horiz-adv-x="647" d="M266 1180q22 117 107 189.5t202 72.5t178.5 -72.5t39.5 -189.5q-20 -117 -106.5 -189.5t-203.5 -72.5t-177 72.5t-40 189.5zM365 1180q-13 -79 24 -127.5t109 -48.5q74 0 128.5 48.5t69.5 127.5q14 78 -24 127t-111 49t-127.5 -49t-68.5 -127z" />
<glyph horiz-adv-x="460" d="M238 979l12 70h127l24 129h72l-24 -129h129l-11 -70h-131l-22 -131h-70l23 131h-129z" />
<glyph horiz-adv-x="460" d="M199 758l12 71h330l-13 -71h-329zM240 989l12 74h129l22 127h72l-22 -127h129l-15 -74h-129l-22 -127h-70l23 127h-129z" />
<glyph horiz-adv-x="460" d="M92 160l14 69h127l23 129h72l-23 -129h129l-12 -69h-129l-23 -131h-71l22 131h-129z" />
<glyph horiz-adv-x="460" d="M55 -61l11 71h329l-12 -71h-328zM94 170l15 74h127l22 127h72l-23 -127h129l-12 -74h-129l-23 -127h-71l22 127h-129z" />
<glyph horiz-adv-x="2048" d="M311 1305l23 129h1044l19 102h149l-123 -692q131 92 287 92q158 0 234 -104t45 -273l-97 -559h-149l98 559q19 108 -33.5 176t-156.5 68q-146 0 -250 -90l-125 -713h-150l230 1305h-479l-230 -1305h-153l229 1305h-412z" />
<glyph horiz-adv-x="1062" d="M190 379l115 653h144l-115 -653q-20 -117 39.5 -189.5t175.5 -72.5q117 0 203 72.5t106 189.5l117 653h143l-114 -653q-31 -175 -163 -283t-315 -108q-181 0 -274 108t-62 283z" />
<glyph horiz-adv-x="1206" d="M172 516q41 235 211.5 380.5t402.5 145.5t350.5 -145.5t77.5 -380.5t-211.5 -380.5t-402.5 -145.5t-350.5 145.5t-77.5 380.5zM264 516q-35 -203 61.5 -330t286.5 -127q192 0 333.5 127t176.5 330q37 202 -60 329.5t-288 127.5t-333 -127.5t-177 -329.5zM442 516 q22 117 107.5 190.5t202.5 73.5q115 0 176 -73l-56 -48q-43 56 -127 56q-86 0 -149 -55.5t-78 -143.5t27.5 -143.5t128.5 -55.5q83 0 147 54l39 -45q-87 -74 -203 -74q-117 0 -176 73.5t-39 190.5z" />
<glyph horiz-adv-x="1206" d="M172 516q41 235 211.5 380.5t402.5 145.5t350.5 -145.5t77.5 -380.5t-211.5 -380.5t-402.5 -145.5t-350.5 145.5t-77.5 380.5zM264 516q-35 -203 61.5 -330t286.5 -127q192 0 333.5 127t176.5 330q37 202 -60 329.5t-288 127.5t-333 -127.5t-177 -329.5zM498 256l90 516 h153q70 0 106.5 -40t24.5 -107q-11 -54 -44.5 -92.5t-82.5 -51.5l86 -225h-83l-76 219h-62l-37 -219h-75zM623 539h77q37 0 64 24t33 62q8 37 -11 60.5t-57 23.5h-78z" />
</font>
</defs>
</svg>
