<?xml version="1.0" standalone="no"?>
<!DOCTYPE svg PUBLIC "-//W3C//DTD SVG 1.1//EN" "http://www.w3.org/Graphics/SVG/1.1/DTD/svg11.dtd" >
<svg xmlns="http://www.w3.org/2000/svg">
<metadata></metadata>
<defs>
<font id="proba_prothin_italic" horiz-adv-x="430" >
<font-face units-per-em="2048" ascent="1536" descent="-512" />
<missing-glyph horiz-adv-x="471" />
<glyph unicode="&#xfb00;" horiz-adv-x="1105" d="M123 -512l246 1393h-144l8 41h144l65 368q20 114 101.5 185t193.5 71q53 0 105 -20l-8 -47q-44 26 -105 26q-93 0 -161 -59.5t-85 -155.5l-65 -368h440l66 368q20 114 101.5 185t193.5 71q52 0 104 -20l-8 -47q-44 26 -105 26q-93 0 -160.5 -59.5t-84.5 -155.5l-66 -368 h318l-9 -41h-317l-246 -1393h-41l246 1393h-440l-246 -1393h-41z" />
<glyph unicode="&#xfb01;" horiz-adv-x="931" d="M123 -512l246 1393h-144l8 41h144l65 368q20 114 101.5 185t193.5 71q53 0 105 -20l-8 -47q-44 26 -105 26q-93 0 -161 -59.5t-85 -155.5l-65 -368h481l-162 -922h-41l154 881h-440l-246 -1393h-41zM877 1198q3 22 20 36.5t39 14.5t34 -14.5t9 -36.5q-5 -22 -22 -36.5 t-39 -14.5t-33.5 14.5t-7.5 36.5z" />
<glyph unicode="&#xfb03;" horiz-adv-x="1413" d="M123 -512l246 1393h-144l8 41h144l65 368q20 114 101.5 185t193.5 71q53 0 105 -20l-8 -47q-44 26 -105 26q-93 0 -161 -59.5t-85 -155.5l-65 -368h440l66 368q20 114 101.5 185t193.5 71q52 0 104 -20l-8 -47q-44 26 -105 26q-93 0 -160.5 -59.5t-84.5 -155.5l-66 -368 h481l-161 -922h-41l153 881h-440l-246 -1393h-41l246 1393h-440l-246 -1393h-41zM1358 1198q3 22 20 36.5t39 14.5t34 -14.5t9 -36.5q-5 -22 -22 -36.5t-39 -14.5t-33.5 14.5t-7.5 36.5z" />
<glyph unicode="fj" horiz-adv-x="931" d="M123 -512l246 1393h-144l8 41h144l65 368q20 114 101.5 185t193.5 71q53 0 105 -20l-8 -47q-44 26 -105 26q-93 0 -161 -59.5t-85 -155.5l-65 -368h481l-225 -1274q-14 -81 -63 -123.5t-105 -42.5q-32 0 -41 6l6 31q64 0 107 32t55 97l217 1233h-440l-246 -1393h-41z M877 1198q3 22 20 36.5t39 14.5t34 -14.5t9 -36.5q-5 -22 -22 -36.5t-39 -14.5t-33.5 14.5t-7.5 36.5z" />
<glyph unicode="&#x457;&#x457;" horiz-adv-x="860" d="M195 0l161 922h41l-161 -922h-41zM229 1137q4 22 22 36.5t40 14.5t33.5 -14.5t7.5 -36.5q-3 -22 -20.5 -37t-39.5 -15t-34 15t-9 37zM578 1137q5 22 22 36.5t39 14.5t33.5 -14.5t7.5 -36.5q-3 -22 -20 -37t-39 -15t-34 15t-9 37zM625 0l161 922h41l-161 -922h-41z M926 1137q5 22 22 36.5t39 14.5t33.5 -14.5t7.5 -36.5q-3 -22 -20 -37t-39 -15t-34 15t-9 37z" />
<glyph unicode="&#x456;&#x457;" horiz-adv-x="860" d="M195 0l161 922h41l-161 -922h-41zM375 1198q3 22 20 36.5t39 14.5t34 -14.5t9 -36.5q-5 -22 -22 -36.5t-39 -14.5t-33.5 14.5t-7.5 36.5zM625 0l161 922h41l-161 -922h-41zM659 1137q4 22 22 36.5t40 14.5t33.5 -14.5t7.5 -36.5q-3 -22 -20.5 -37t-39.5 -15t-34 15t-9 37 zM926 1137q5 22 22 36.5t39 14.5t33.5 -14.5t7.5 -36.5q-3 -22 -20 -37t-39 -15t-34 15t-9 37z" />
<glyph unicode="&#x2019;&#x457;" horiz-adv-x="552" d="M260 1137q86 71 96 123q-22 0 -35 14.5t-10 36.5q5 22 23 36.5t41 14.5q47 0 37 -68q-15 -86 -129 -184zM317 0l162 922h41l-162 -922h-41zM618 1137q4 22 22 36.5t40 14.5t33.5 -14.5t7.5 -36.5q-3 -22 -20 -37t-39 -15t-34.5 15t-9.5 37z" />
<glyph unicode="&#x407;&#x407;" horiz-adv-x="860" d="M195 0l251 1434h41l-251 -1434h-41zM307 1628q3 22 20.5 36.5t39.5 14.5t34 -14.5t9 -36.5q-4 -22 -22 -36.5t-40 -14.5t-33.5 14.5t-7.5 36.5zM625 0l252 1434h41l-252 -1434h-41zM664 1628q3 22 20 36.5t39 14.5t34 -14.5t9 -36.5q-5 -22 -22 -36.5t-39 -14.5 t-33.5 14.5t-7.5 36.5zM1024 1628q3 22 20 36.5t39 14.5t34 -14.5t9 -36.5q-5 -22 -22 -36.5t-39 -14.5t-33.5 14.5t-7.5 36.5z" />
<glyph unicode="ffj" horiz-adv-x="1413" d="M123 -512l246 1393h-144l8 41h144l65 368q20 114 101.5 185t193.5 71q53 0 105 -20l-8 -47q-44 26 -105 26q-93 0 -161 -59.5t-85 -155.5l-65 -368h440l66 368q20 114 101.5 185t193.5 71q52 0 104 -20l-8 -47q-44 26 -105 26q-93 0 -160.5 -59.5t-84.5 -155.5l-66 -368 h481l-225 -1274q-14 -81 -63 -123.5t-105 -42.5q-32 0 -41 6l6 31q64 0 107 32t55 97l217 1233h-440l-246 -1393h-41l246 1393h-440l-246 -1393h-41zM1358 1198q3 22 20 36.5t39 14.5t34 -14.5t9 -36.5q-5 -22 -22 -36.5t-39 -14.5t-33.5 14.5t-7.5 36.5z" />
<glyph horiz-adv-x="0" />
<glyph horiz-adv-x="682" />
<glyph unicode=" "  horiz-adv-x="471" />
<glyph unicode="&#x09;" horiz-adv-x="471" />
<glyph unicode="&#xa0;" horiz-adv-x="471" />
<glyph unicode="!" d="M170 41q3 22 20 36.5t39 14.5t34 -14.5t9 -36.5t-20 -36.5t-39 -14.5t-34 14.5t-9 36.5zM256 358l190 1076h41l-190 -1076h-41z" />
<glyph unicode="&#x22;" horiz-adv-x="718" d="M356 922l90 512h41l-90 -512h-41zM643 922l90 512h41l-90 -512h-41z" />
<glyph unicode="#" horiz-adv-x="1191" d="M174 410l6 41h191l184 532h-190l8 41h198l142 410h43l-144 -410h430l142 410h43l-144 -410h187l-8 -41h-193l-186 -532h198l-6 -41h-205l-141 -410h-43l141 410h-428l-141 -410h-43l141 410h-182zM412 451h430l184 532h-428z" />
<glyph unicode="$" horiz-adv-x="1028" d="M125 152l33 28q48 -73 138 -110t191 -39l121 686q-30 13 -51 22.5t-48.5 23t-46.5 25.5t-42 28t-38 32.5t-30.5 36.5t-24 42t-14 48t-5 56t6.5 63q12 64 41.5 123t79 111t127.5 83.5t174 32.5l35 194h41l-35 -196q93 -6 174 -43t129 -101l-34 -30q-41 56 -116 91.5 t-161 41.5l-115 -653q146 -63 202 -102q130 -91 118 -236q-1 -17 -4 -35q-10 -52 -32 -103t-60.5 -101t-88 -88.5t-119 -64t-149.5 -28.5l-35 -195h-41l35 195q-116 3 -211 45.5t-145 116.5zM350.5 1041q-0.5 -25 4.5 -47t12.5 -41.5t20.5 -37t26.5 -32.5t32.5 -29t37 -25.5 t42 -24t44 -22t46 -20.5l113 641q-84 0 -153.5 -28t-113 -75t-70 -99t-36.5 -107q-5 -28 -5.5 -53zM528 31q92 5 167.5 40t122 87.5t74.5 107t38 109.5q12 67 -4.5 118t-67 90.5t-91 60.5t-120.5 56z" />
<glyph unicode="%" horiz-adv-x="1632" d="M299 1126q26 141 127.5 229.5t237.5 88.5q137 0 206 -88.5t43 -229.5q-25 -141 -125.5 -229t-236.5 -88q-137 0 -207 88t-45 229zM340 1126q-22 -123 39 -199.5t180 -76.5q118 0 204.5 76.5t108.5 199.5q23 123 -37.5 200t-179.5 77q-118 0 -205 -77t-110 -200zM428 0 l983 1434h47l-983 -1434h-47zM969 307q25 141 125.5 229.5t236.5 88.5t206.5 -88.5t45.5 -229.5t-125.5 -229t-236.5 -88q-137 0 -207 88t-45 229zM1010 307q-22 -123 38.5 -199.5t178.5 -76.5q119 0 206 76.5t109 199.5t-38.5 200t-178.5 77t-205.5 -77t-109.5 -200z" />
<glyph unicode="&#x26;" horiz-adv-x="1269" d="M193 399q26 148 124.5 253t239.5 139q-94 34 -136.5 117.5t-21.5 197.5q26 151 136.5 244.5t261.5 93.5t227.5 -93.5t50.5 -244.5h-41q23 132 -45.5 214.5t-200.5 82.5t-228.5 -82.5t-119.5 -214.5t44.5 -214.5t199.5 -82.5h64l-7 -41h-63q-169 0 -292.5 -102.5 t-152.5 -266.5t58 -266t256 -102t292 102t152 266l66 369h-205l6 41h451l-6 -41h-205l-66 -369q-32 -183 -168 -296t-323 -113q-188 0 -284 113t-64 296z" />
<glyph unicode="'" d="M356 922l90 512h41l-90 -512h-41z" />
<glyph unicode="(" horiz-adv-x="624" d="M201.5 -29q-0.5 230 52.5 541q39 225 98 419.5t125.5 328.5t138.5 210t138 76l-9 -41q-76 0 -160.5 -123.5t-162 -352.5t-127.5 -517q-51 -288 -54 -517t37.5 -352.5t116.5 -123.5l-6 -41q-88 0 -137.5 131.5t-50 361.5z" />
<glyph unicode=")" horiz-adv-x="624" d="M51 -522l6 41q57 0 120.5 73t124 201.5t115.5 315.5t93 403q50 288 53 517t-38 352.5t-117 123.5l8 41q88 0 137 -131.5t49 -361.5t-51 -541q-40 -226 -99.5 -420t-125.5 -328t-138 -210t-137 -76z" />
<glyph unicode="*" horiz-adv-x="897" d="M330 1182l22 39l273 -95l55 308h41l-55 -308l313 97l2 -39l-309 -97l139 -249l-39 -23l-137 248l-223 -250l-29 27l223 247z" />
<glyph unicode="+" horiz-adv-x="921" d="M270 604l6 41h277l49 277h41l-49 -277h276l-6 -41h-276l-49 -276h-41l49 276h-277z" />
<glyph unicode="," d="M119 -133q87 74 96 123q-22 0 -35 14.5t-10 36.5t20.5 36.5t40.5 14.5q49 0 39 -67q-15 -88 -129 -185z" />
<glyph unicode="-" horiz-adv-x="696" d="M254 512l6 41h369l-6 -41h-369z" />
<glyph unicode="." d="M170 41q3 22 20 36.5t39 14.5t34 -14.5t9 -36.5t-20 -36.5t-39 -14.5t-34 14.5t-9 36.5z" />
<glyph unicode="/" horiz-adv-x="1085" d="M135 -102l1022 1638h45l-1022 -1638h-45z" />
<glyph unicode="0" horiz-adv-x="1167" d="M240 336.5q-27 161.5 8 380.5q38 214 125 379.5t208 256.5t257 91q135 0 224.5 -92.5t115.5 -254t-9 -380.5q-57 -324 -219.5 -525.5t-367.5 -201.5q-136 0 -225.5 92.5t-116.5 254zM289 717q-54 -306 29 -496t270 -190t336.5 190t203.5 496t-29 496t-270 190 t-336.5 -190t-203.5 -496z" />
<glyph unicode="1" horiz-adv-x="583" d="M297 0l244 1391l-234 -50l8 41l275 58l-252 -1440h-41z" />
<glyph unicode="2" horiz-adv-x="1044" d="M135 0l8 57l752 639q127 108 162 312q31 175 -51.5 285t-243.5 110t-281 -110t-151 -285h-41q35 195 168 315.5t313 120.5q182 0 272.5 -120.5t55.5 -315.5q-41 -226 -176 -340l-738 -627h744l-6 -41h-787z" />
<glyph unicode="3" horiz-adv-x="1075" d="M182 399h41q-29 -164 58 -266t256 -102t292 102t152 266t-57.5 266.5t-255.5 102.5h-95l7 41h94q132 0 229.5 82.5t120.5 214.5t-45.5 214.5t-200.5 82.5t-228.5 -82.5t-119.5 -214.5h-41q26 151 136 244.5t261 93.5t228 -93.5t51 -244.5q-21 -114 -93 -197.5 t-175 -117.5q129 -34 190 -139t35 -253q-32 -183 -168 -296t-324 -113t-284 113t-64 296z" />
<glyph unicode="4" horiz-adv-x="1079" d="M156 307l6 41l856 1086h49l-193 -1086h142l-6 -41h-142l-53 -307h-41l53 307h-671zM211 348h623l180 1016z" />
<glyph unicode="5" horiz-adv-x="1044" d="M178 383h41q-28 -157 56 -254.5t245 -97.5t282 110t152 285q34 192 -55.5 311t-267.5 119q-186 0 -316 -102l-22 28l213 652h567l-8 -41h-530l-191 -574q125 78 295 78q196 0 294.5 -130t61.5 -341q-34 -195 -167 -315.5t-314 -120.5q-180 0 -273.5 109t-62.5 284z" />
<glyph unicode="6" horiz-adv-x="1085" d="M188 430q7 40 15 68.5t18 57t37 70t52 79.5t85 116t114 148.5t159.5 208t203.5 266.5l31 -21l-471 -624q120 71 262 71q192 0 290.5 -122t64.5 -318q-35 -197 -175.5 -318.5t-332.5 -121.5t-290 122t-63 318zM229 430q-32 -178 56 -288.5t262 -110.5q173 0 301 110.5 t160 288.5q31 178 -58 288.5t-262 110.5q-174 0 -301 -110.5t-158 -288.5z" />
<glyph unicode="7" horiz-adv-x="1038" d="M305 0l807 1393h-745l8 41h792l-8 -41l-807 -1393h-47z" />
<glyph unicode="8" horiz-adv-x="1085" d="M193 399q26 148 124 253t240 139q-95 34 -137.5 117t-20.5 198q26 151 136.5 244.5t261.5 93.5t227.5 -93.5t50.5 -244.5q-21 -114 -93 -197.5t-175 -117.5q129 -34 190 -139t35 -253q-32 -183 -168 -296t-323 -113q-188 0 -284 113t-64 296zM233 399q-29 -164 58 -266 t256 -102t292 102t152 266t-57.5 266.5t-255.5 102.5t-292.5 -102.5t-152.5 -266.5zM440 1106q-23 -132 44.5 -214.5t199.5 -82.5t229.5 82.5t120.5 214.5t-45.5 214.5t-200.5 82.5t-228.5 -82.5t-119.5 -214.5z" />
<glyph unicode="9" horiz-adv-x="1085" d="M289 1004q34 196 175 318t333 122t289 -121.5t63 -318.5q-7 -40 -15.5 -68.5t-18.5 -57t-37 -70t-52.5 -79.5t-85 -115.5t-113.5 -148.5t-159 -208.5t-203 -266.5l-33 20l471 625q-122 -72 -262 -72q-192 0 -289.5 122.5t-62.5 318.5zM330 1004q-32 -178 56.5 -289 t262.5 -111q173 0 300 110.5t159 289.5q31 178 -58 288.5t-262 110.5t-300 -110.5t-158 -288.5z" />
<glyph unicode=":" d="M170 41q3 22 20 36.5t39 14.5t34 -14.5t9 -36.5t-20 -36.5t-39 -14.5t-34 14.5t-9 36.5zM317 881q4 22 22 36.5t40 14.5t33.5 -14.5t7.5 -36.5q-3 -22 -20.5 -37t-39.5 -15t-34 15t-9 37z" />
<glyph unicode=";" d="M119 -133q87 74 96 123q-22 0 -35 14.5t-10 36.5t20.5 36.5t40.5 14.5q49 0 39 -67q-15 -88 -129 -185zM317 881q4 22 22 36.5t40 14.5t33.5 -14.5t7.5 -36.5q-3 -22 -20.5 -37t-39.5 -15t-34 15t-9 37z" />
<glyph unicode="&#x3c;" horiz-adv-x="839" d="M209 614l612 381l25 -28l-570 -353l445 -352l-33 -29z" />
<glyph unicode="=" horiz-adv-x="1024" d="M227 369l9 41h696l-8 -41h-697zM289 717l8 41h696l-8 -41h-696z" />
<glyph unicode="&#x3e;" horiz-adv-x="839" d="M188 262l568 352l-443 353l33 28l477 -381l-610 -381z" />
<glyph unicode="?" horiz-adv-x="946" d="M330 1298q79 71 185 108.5t210 37.5q78 0 137 -20.5t93 -55.5t54.5 -81t21 -96t-6.5 -101q-11 -65 -38 -115.5t-61.5 -83.5t-75 -62t-81 -60t-76 -68t-64.5 -95.5t-42 -134.5l-21 -113h-41l21 113q15 81 44.5 144.5t65.5 102.5t76.5 71.5t80.5 60t74.5 58t60.5 76.5 t36 106q6 44 5.5 88t-19 84.5t-48 72t-82 50t-120.5 18.5q-97 0 -197 -36t-166 -99zM438 41q3 22 20.5 36.5t39.5 14.5t34 -14.5t9 -36.5t-20.5 -36.5t-39.5 -14.5t-34 14.5t-9 36.5z" />
<glyph unicode="@" horiz-adv-x="2129" d="M193 461q38 216 140.5 399.5t250 311.5t338.5 200t401 72q126 0 236 -24t196 -68.5t156 -107t114.5 -140t72 -167.5t29 -189t-15.5 -205q-21 -119 -65 -216t-98 -158.5t-119 -103t-126 -58.5t-120 -17q-81 0 -131.5 26t-56.5 74q-140 -100 -316 -100q-206 0 -311 130 t-68 341t185.5 341t353.5 130q215 0 322 -113l-123 -694v-2q-7 -43 33.5 -67.5t115.5 -24.5q53 0 108 15.5t114.5 53.5t109.5 95t91 147t61 201q15 98 14.5 191.5t-26.5 179t-67.5 160t-108 135t-148.5 104t-188 67t-228 23.5q-201 0 -384.5 -69t-325.5 -192t-241 -298.5 t-135 -382.5q-48 -276 29.5 -490.5t267 -333t459.5 -118.5q214 0 411.5 73t342.5 205l22 -26q-154 -139 -358 -216t-426 -77q-283 0 -480 123.5t-277.5 347t-30.5 512.5zM741 461q-34 -192 61.5 -311t282.5 -119q181 0 314 108l117 660q-98 92 -285 92t-321.5 -118.5 t-168.5 -311.5z" />
<glyph unicode="A" horiz-adv-x="1499" d="M92 0l887 1434h45l383 -1434h-45l-135 512h-774l-316 -512h-45zM477 553h737l-221 836z" />
<glyph unicode="B" horiz-adv-x="1089" d="M205 0l252 1434h327q160 0 240 -98q59 -72 59 -180q0 -38 -8 -81q-21 -118 -90 -203t-170 -124q123 -26 183 -124q41 -68 42 -159q0 -40 -8 -84q-31 -173 -151.5 -277t-286.5 -104h-389zM252 41h348q150 0 257.5 93.5t133.5 246.5q8 41 8 77q1 98 -55 166q-76 92 -225 93 h-348zM379 758h287q141 0 242 87t126 230q7 37 7 71q0 96 -53 160q-71 88 -212 87h-287z" />
<glyph unicode="C" horiz-adv-x="1449" d="M248 717q57 324 288 525.5t547 201.5q157 0 280.5 -54.5t201.5 -154.5l-37 -31q-72 95 -187.5 147t-265.5 52q-296 0 -514 -190t-272 -496q-14 -80 -14 -153q-1 -203 111 -343q152 -190 448 -190q304 0 522 196l26 -28q-236 -209 -555 -209q-209 0 -353 91t-204 257 q-36 101 -37 220q0 76 15 159z" />
<glyph unicode="D" horiz-adv-x="1402" d="M205 0l252 1434h368q208 0 353 -88t205 -252q37 -100 36 -219q0 -75 -14 -158q-57 -323 -286.5 -520t-545.5 -197h-368zM252 41h328q298 0 513 185.5t269 490.5q14 81 14 153q0 202 -110 338q-150 186 -449 185h-328z" />
<glyph unicode="E" horiz-adv-x="1064" d="M205 0l252 1434h727l-8 -41h-687l-112 -645h614l-8 -41h-614l-117 -666h696l-6 -41h-737z" />
<glyph unicode="F" horiz-adv-x="997" d="M205 0l252 1434h686l-8 -41h-646l-112 -645h563l-8 -41h-563l-123 -707h-41z" />
<glyph unicode="G" horiz-adv-x="1552" d="M248 717q57 324 288 525.5t547 201.5q157 0 280.5 -54.5t201.5 -154.5l-37 -31q-72 95 -187.5 147t-265.5 52q-296 0 -514 -190t-272 -496q-14 -80 -14 -153q0 -203 111 -343q152 -190 448 -190q294 0 509 184l82 461h-477l6 41h519l-93 -520q-111 -100 -253 -153.5 t-300 -53.5q-209 0 -353.5 91t-203.5 257q-37 100 -37 220q0 76 15 159z" />
<glyph unicode="H" horiz-adv-x="1433" d="M205 0l252 1434h41l-121 -686h942l121 686h41l-252 -1434h-41l123 707h-942l-123 -707h-41z" />
<glyph unicode="I" d="M195 0l251 1434h41l-251 -1434h-41z" />
<glyph unicode="J" horiz-adv-x="933" d="M119 98l35 31q72 -98 221 -98q146 0 253.5 93.5t133.5 244.5l188 1065h41l-188 -1065q-29 -169 -149 -274t-285 -105q-169 0 -250 108z" />
<glyph unicode="K" horiz-adv-x="1157" d="M195 0l251 1434h41l-251 -1434h-41zM430 733l784 701h52l-785 -701l574 -733h-51z" />
<glyph unicode="L" horiz-adv-x="962" d="M205 0l252 1434h41l-246 -1393h614l-6 -41h-655z" />
<glyph unicode="M" horiz-adv-x="1691" d="M205 0l252 1434h37l424 -1024l784 1024h37l-252 -1434h-41l235 1341l-749 -972h-45l-406 972l-235 -1341h-41z" />
<glyph unicode="N" horiz-adv-x="1474" d="M205 0l252 1434h41l741 -1364l242 1364h41l-252 -1434h-41l-744 1364l-239 -1364h-41z" />
<glyph unicode="O" horiz-adv-x="1658" d="M248 717q57 324 288 525.5t547 201.5q208 0 352.5 -91t204.5 -257q36 -101 36 -220q0 -76 -15 -159q-57 -324 -288 -525.5t-546 -201.5q-209 0 -353 91t-204 257q-36 101 -37 220q0 76 15 159zM289 717q-14 -80 -14 -153q-1 -203 111 -343q152 -190 448 -190 q297 0 514.5 190t271.5 496q14 79 14 151q0 112 -34 207q-56 156 -192.5 242t-332.5 86q-296 0 -514 -190t-272 -496z" />
<glyph unicode="P" horiz-adv-x="1034" d="M205 0l252 1434h338q165 0 249 -102q62 -76 62 -190q0 -39 -8 -83q-31 -168 -150 -270.5t-284 -102.5h-297l-121 -686h-41zM373 727h297q148 0 254.5 91.5t132.5 240.5q7 39 7 74q0 101 -56 169q-74 92 -222 91h-297z" />
<glyph unicode="Q" horiz-adv-x="1658" d="M248 717q57 324 288 525.5t547 201.5q208 0 352.5 -91t204.5 -257q36 -100 36 -220q0 -76 -15 -159q-55 -317 -285 -522l189 -228l-35 -28l-187 227q-223 -176 -516 -176q-209 0 -353.5 91t-203.5 257q-37 100 -37 220q0 76 15 159zM289 717q-14 -81 -14 -154 q0 -202 110 -342q150 -190 446 -190q278 0 486 166l-227 276l34 29l228 -277q214 192 266 492q14 79 14 151q0 112 -34 207q-56 156 -192.5 242t-332.5 86q-296 0 -513 -190t-271 -496z" />
<glyph unicode="R" horiz-adv-x="1054" d="M205 0l252 1434h348q165 0 249 -102q62 -76 62 -190q0 -39 -8 -83q-31 -167 -148 -269t-280 -104l283 -686h-50l-280 686h-266l-121 -686h-41zM373 727h307q148 0 254.5 91.5t132.5 240.5q7 39 7 74q0 101 -55 169q-74 92 -222 91h-308z" />
<glyph unicode="S" horiz-adv-x="1028" d="M125 152l33 28q49 -75 143.5 -112t198.5 -37q80 0 149 22.5t116 58t83 82.5t55 92t27 89q4 26 4 49q0 36 -10 66q-16 50 -53 84.5t-87.5 62.5t-108 52t-114.5 48.5t-107 56t-86 71t-51 97.5q-8 31 -8 67q0 31 6 65q12 64 42 123.5t79.5 111.5t128 83.5t174.5 31.5 q104 0 197 -37.5t145 -108.5l-34 -30q-45 63 -133 99t-185 36q-84 0 -153.5 -28t-113 -75t-70 -99t-36.5 -107q-5 -28 -5 -54q0 -35 9 -65q16 -53 52.5 -88.5t87 -65t108 -53.5t115 -48.5t107.5 -55.5t86.5 -69t51.5 -94q8 -31 8 -67q0 -28 -5 -59q-12 -68 -46.5 -133 t-91 -123t-145 -93.5t-194.5 -35.5q-118 0 -217.5 43t-151.5 119z" />
<glyph unicode="T" horiz-adv-x="1142" d="M346 1393l8 41h942l-8 -41h-450l-244 -1393h-41l244 1393h-451z" />
<glyph unicode="U" horiz-adv-x="1425" d="M295 512l162 922h41l-162 -922q-10 -57 -10 -108q0 -142 77 -240q105 -133 312 -133q209 0 362 133t191 348l162 922h43l-162 -922q-41 -233 -207.5 -377.5t-392.5 -144.5q-227 0 -342 144q-85 107 -85 262q0 55 11 116z" />
<glyph unicode="V" horiz-adv-x="1499" d="M344 1434h47l367 -1387l854 1387h47l-887 -1434h-45z" />
<glyph unicode="W" horiz-adv-x="2400" d="M344 1434h45l297 -1383l744 1383h45l256 -1383l784 1383h45l-815 -1434h-45l-258 1374l-742 -1374h-45z" />
<glyph unicode="X" horiz-adv-x="1433" d="M102 0l715 723l-452 711h51l432 -680l674 680h51l-705 -711l463 -723h-51l-442 692l-684 -692h-52z" />
<glyph unicode="Y" horiz-adv-x="1331" d="M344 1434h51l393 -732l652 732h51l-690 -775l-115 -659h-41l115 659z" />
<glyph unicode="Z" horiz-adv-x="1280" d="M123 0l6 41l1210 1352h-956l8 41h1008l-8 -41l-1211 -1352h983l-6 -41h-1034z" />
<glyph unicode="[" horiz-adv-x="604" d="M102 -512l363 2048h266l-8 -41h-225l-346 -1966h225l-8 -41h-267z" />
<glyph unicode="\" horiz-adv-x="1085" d="M424 1536h45l444 -1638h-45z" />
<glyph unicode="]" horiz-adv-x="604" d="M51 -512l8 41h226l346 1966h-225l8 41h266l-363 -2048h-266z" />
<glyph unicode="^" horiz-adv-x="966" d="M268 948l449 381l313 -381l-33 -28l-290 352l-414 -352z" />
<glyph unicode="_" horiz-adv-x="921" d="M-43 -246l8 41h920l-8 -41h-920z" />
<glyph unicode="`" horiz-adv-x="532" d="M371 1300l35 29l178 -217l-33 -29z" />
<glyph unicode="a" horiz-adv-x="1103" d="M193 461q37 211 185 341t353 130q215 0 322 -113l-144 -819h-41l15 86q-135 -96 -312 -96q-207 0 -311 130q-77 96 -77 236q0 50 10 105zM233 461q-9 -50 -9 -96q0 -127 70 -215q96 -119 284 -119q184 0 315 110l115 658q-98 92 -285 92t-321.5 -118.5t-168.5 -311.5z " />
<glyph unicode="b" horiz-adv-x="1103" d="M211 102l123 695l131 739h41l-123 -700q135 96 311 96q206 0 310 -130q77 -96 77 -236q0 -50 -10 -105q-37 -211 -184 -341t-352 -130q-218 0 -324 112zM256 123q95 -92 285 -92q187 0 321 118.5t168 311.5q9 50 9 96q-1 127 -71 215q-96 119 -282 119q-180 0 -313 -111z " />
<glyph unicode="c" horiz-adv-x="1003" d="M193 461q37 210 187.5 340.5t356.5 130.5q208 0 312 -135l-33 -29q-96 123 -287 123q-188 0 -325 -119t-171 -311q-9 -50 -9 -96q0 -127 70 -215q96 -119 284 -119q190 0 329 123l23 -31q-149 -133 -359 -133q-207 0 -311 130q-77 96 -77 236q0 50 10 105z" />
<glyph unicode="d" horiz-adv-x="1110" d="M193 461q37 210 187.5 340.5t356.5 130.5q177 0 283 -103l125 707h41l-271 -1536h-41l17 90q-133 -100 -320 -100q-207 0 -311 130q-77 96 -77 236q0 50 10 105zM233 461q-9 -50 -9 -96q0 -127 70 -215q96 -119 284 -119q189 0 323 116l109 627q-96 117 -281 117 q-188 0 -325 -119t-171 -311z" />
<glyph unicode="e" horiz-adv-x="1054" d="M195 465q35 206 175.5 336.5t327.5 130.5q186 0 274 -130q61 -91 61 -222q0 -56 -11 -119h-789q-9 -50 -9 -96q0 -127 70 -215q96 -119 284 -119q190 0 329 123l23 -31q-149 -133 -359 -133q-206 0 -310 130q-76 96 -76 236q0 52 10 109zM242 502h745q4 35 4 67 q0 133 -64 217q-79 105 -235 105q-159 0 -283.5 -105.5t-166.5 -283.5z" />
<glyph unicode="f" horiz-adv-x="624" d="M123 -512l246 1393h-144l8 41h144l65 368q20 114 101.5 185t193.5 71q53 0 105 -20l-8 -47q-44 26 -105 26q-93 0 -161 -59.5t-85 -155.5l-65 -368h317l-8 -41h-317l-246 -1393h-41z" />
<glyph unicode="g" horiz-adv-x="1003" d="M25 -256q19 96 93.5 165t188.5 99q-66 22 -96 62q-23 30 -23 68q0 12 2 24q11 55 60 98.5t129 63.5q-86 34 -122 110q-24 49 -24 110q0 32 7 68q26 144 132 232t253 88q122 0 198 -66q81 66 174 66q21 0 45 -4l-6 -41q-28 4 -43 4q-78 0 -143 -53q51 -65 51 -157 q0 -32 -6 -67q-25 -141 -132 -229t-255 -88q-116 0 -191 -37t-84 -96q-1 -8 -1 -15q0 -49 62 -81q71 -37 202 -37q185 0 280 -71q77 -58 77 -149q0 -19 -3 -40q-23 -128 -163 -210.5t-329 -82.5q-175 0 -264 73q-72 60 -72 152q0 20 3 41zM66 -256q-3 -18 -3 -34 q0 -78 66 -129q80 -62 236 -62q169 0 296.5 71.5t147.5 180.5q3 16 3 31q0 78 -74 128q-87 60 -246 60q-176 0 -290.5 -68t-135.5 -178zM281 614q-5 -31 -5 -58q0 -84 50 -142q66 -76 194 -76q127 0 219.5 76.5t114.5 199.5q6 32 6 60q0 83 -50 140q-66 77 -194 77 q-127 0 -219.5 -77t-115.5 -200z" />
<glyph unicode="h" horiz-adv-x="1089" d="M195 0l270 1536h41l-125 -705q144 101 319 101q155 0 234 -100q58 -73 59 -179q0 -38 -8 -80l-100 -573h-41l100 573q7 37 7 70q-1 93 -53 159q-70 88 -206 89q-185 0 -321 -117l-135 -774h-41z" />
<glyph unicode="i" d="M195 0l161 922h41l-161 -922h-41zM375 1198q3 22 20 36.5t39 14.5q22 -1 34 -15q10 -12 10 -28q0 -4 -1 -8q-5 -22 -22 -36.5t-39 -14.5q-22 1 -34 15q-9 11 -8 25q0 5 1 11z" />
<glyph unicode="j" d="M-35 -512l6 31q63 0 105.5 32t54.5 97l225 1274h41l-225 -1274q-14 -81 -63 -123.5t-105 -42.5q-30 0 -39 6zM375 1198q3 22 20 36.5t39 14.5t34 -15q10 -11 10 -28q0 -4 -1 -8q-5 -22 -22 -36.5t-39 -14.5t-34 15q-8 10 -8 25q0 5 1 11z" />
<glyph unicode="k" horiz-adv-x="907" d="M195 0l270 1536h41l-270 -1536h-41zM348 487l512 435h55l-512 -435l402 -487h-55z" />
<glyph unicode="l" horiz-adv-x="481" d="M221 160l244 1376h41l-244 -1376q-3 -18 -3 -33q0 -41 23 -64q32 -32 97 -32l-4 -31q-12 -6 -43 -6q-57 0 -91 42q-24 30 -24 80q0 20 4 44z" />
<glyph unicode="m" horiz-adv-x="1564" d="M195 0l161 922h41l-16 -91q144 101 319 101q77 0 131 -35t76 -96q157 131 361 131q118 0 178 -77q44 -56 45 -138q0 -30 -6 -62l-115 -655h-41l115 655q5 28 5 53q1 68 -37 117q-52 66 -152 66q-194 0 -340 -133q3 -22 3 -44q0 -29 -5 -59l-115 -655h-41l115 655 q5 28 5 53q0 69 -38 117q-52 66 -152 66q-185 0 -321 -117l-135 -774h-41z" />
<glyph unicode="n" horiz-adv-x="1079" d="M195 0l161 922h41l-16 -91q144 101 319 101q155 0 234 -100q58 -73 59 -179q0 -38 -8 -80l-100 -573h-41l100 573q7 37 7 70q-1 93 -53 159q-70 88 -206 89q-185 0 -321 -117l-135 -774h-41z" />
<glyph unicode="o" horiz-adv-x="1146" d="M193 461q37 210 187.5 340.5t356.5 130.5q205 0 309 -130q77 -96 78 -236q0 -50 -10 -105q-37 -211 -187 -341t-356 -130q-207 0 -311 130q-77 96 -77 236q0 50 10 105zM233 461q-9 -50 -9 -96q0 -127 70 -215q96 -119 284 -119q187 0 324 119t171 311q9 50 9 96 q0 127 -70 215q-96 119 -283 119q-188 0 -325 -119t-171 -311z" />
<glyph unicode="p" horiz-adv-x="1110" d="M102 -512l254 1434h41l-16 -91q141 101 319 101q205 0 310 -130q77 -96 77 -236q0 -50 -10 -105q-37 -211 -186.5 -341t-355.5 -130q-183 0 -285 102l-107 -604h-41zM260 147q90 -116 281 -116q187 0 324 119t171 311q9 50 9 96q0 127 -71 215q-95 119 -282 119 q-185 0 -321 -117z" />
<glyph unicode="q" horiz-adv-x="1103" d="M193 461q37 211 185 341t353 130q215 0 322 -113l-123 -694l-113 -637h-41l105 598q-135 -96 -310 -96q-206 0 -311 130q-77 96 -77 236q0 50 10 105zM233 461q-9 -50 -9 -96q0 -127 70 -215q96 -119 284 -119q180 0 313 108l117 660q-98 92 -285 92t-321.5 -118.5 t-168.5 -311.5z" />
<glyph unicode="r" horiz-adv-x="696" d="M195 0l161 922h41l-20 -111q140 121 309 121q23 0 59 -4l-6 -41q-40 4 -61 4q-174 0 -311 -143l-131 -748h-41z" />
<glyph unicode="s" horiz-adv-x="778" d="M119 94l33 29q32 -46 92.5 -69t128.5 -23q63 0 115 20.5t83.5 54t49.5 68.5t24 70q3 16 3 30q0 32 -14 58q-20 37 -58.5 60t-87 42.5t-96 40.5t-85.5 47q-38 28 -57 72q-12 28 -12 62q0 20 4 42q16 94 88 164t196 70q70 0 133.5 -24t100.5 -70l-35 -29q-29 37 -87 59.5 t-120 22.5q-103 0 -163 -58.5t-72 -134.5q-3 -17 -3 -33q0 -32 13 -58q20 -39 58.5 -62.5t86.5 -43.5t96 -40.5t86 -46.5t57 -69q12 -28 13 -63q0 -18 -4 -38q-16 -98 -98.5 -176t-220.5 -78q-79 0 -146 27.5t-102 76.5z" />
<glyph unicode="t" horiz-adv-x="614" d="M215 881l8 41h133l35 204h41l-35 -204h308l-9 -41h-307l-113 -645q-5 -25 -4 -47q0 -60 33 -101q46 -57 137 -57q59 0 109 26l-8 -47q-58 -20 -107 -20q-108 0 -164 68q-41 50 -41 123q0 26 5 55l112 645h-133z" />
<glyph unicode="u" horiz-adv-x="1110" d="M256 358l100 564h41l-100 -564q-6 -37 -7 -71q0 -97 54 -165q72 -90 215 -91q143 0 247.5 90.5t129.5 236.5l100 564h41l-100 -564q-29 -165 -146 -266.5t-278 -101.5t-243 102q-61 75 -62 185q0 38 8 81z" />
<glyph unicode="v" horiz-adv-x="1085" d="M254 922h45l250 -877l561 877h45l-590 -922h-45z" />
<glyph unicode="w" horiz-adv-x="1634" d="M254 922h45l188 -877l469 877h45l158 -877l500 877h45l-528 -922h-46l-161 870l-465 -870h-45z" />
<glyph unicode="x" horiz-adv-x="1015" d="M102 0l461 467l-289 455h52l268 -424l420 424h51l-451 -455l299 -467h-51l-278 436l-430 -436h-52z" />
<glyph unicode="y" horiz-adv-x="1085" d="M186 -512l334 512l-266 922h45l250 -877l561 877h45l-924 -1434h-45z" />
<glyph unicode="z" horiz-adv-x="952" d="M123 0l6 41l807 840h-653l8 41h700l-8 -41l-807 -840h660l-7 -41h-706z" />
<glyph unicode="{" horiz-adv-x="675" d="M188 492l7 40q91 0 172 106.5t110 272.5l37 215q33 183 128.5 301.5t203.5 118.5l-8 -41q-91 0 -172 -106.5t-111 -272.5l-37 -215q-26 -148 -93.5 -254.5t-152.5 -144.5q71 -39 101 -146t4 -253l-37 -215q-30 -166 13 -272.5t134 -106.5l-6 -41q-108 0 -161.5 118.5 t-20.5 301.5l37 215q30 166 -13.5 272.5t-134.5 106.5z" />
<glyph unicode="|" d="M102 -512l363 2048h41l-363 -2048h-41z" />
<glyph unicode="}" horiz-adv-x="675" d="M10 -522l6 41q91 0 172 106.5t111 272.5l37 215q26 146 93.5 253t154.5 146q-72 38 -102.5 144.5t-4.5 254.5l37 215q30 166 -13 272.5t-134 106.5l8 41q108 0 160.5 -118.5t19.5 -301.5l-37 -215q-29 -166 14 -272.5t134 -106.5l-7 -40q-91 0 -171.5 -106.5 t-110.5 -272.5l-37 -215q-33 -183 -128 -301.5t-202 -118.5z" />
<glyph unicode="~" horiz-adv-x="886" d="M195 526q13 83 73 134t140 51q47 0 80 -15.5t52 -38t37 -45t48.5 -38t74.5 -15.5q63 0 109.5 39.5t56.5 103.5h41q-15 -83 -73.5 -133.5t-141.5 -50.5q-48 0 -81.5 15.5t-52 38t-36.5 45t-48 38t-73 15.5q-63 0 -109 -40t-56 -104h-41z" />
<glyph unicode="&#xa1;" d="M102 -512l191 1075h41l-191 -1075h-41zM317 881q4 22 22 36.5t40 14.5t33.5 -14.5t7.5 -36.5q-3 -22 -20.5 -37t-39.5 -15t-34 15t-9 37z" />
<glyph unicode="&#xa2;" horiz-adv-x="1003" d="M193 461q34 196 168.5 324t322.5 145l35 196h41l-35 -194h12q208 0 312 -135l-33 -29q-96 123 -287 123h-10l-152 -860h11q190 0 329 123l23 -31q-149 -133 -359 -133h-12l-33 -195h-41l35 197q-182 17 -272 145t-55 324zM233 461q-32 -179 48.5 -295t244.5 -133l150 854 q-170 -17 -291 -133t-152 -293z" />
<glyph unicode="&#xa3;" horiz-adv-x="1030" d="M102 0q12 76 64.5 126t126.5 56l90 514h-160l8 41h160l58 328q31 169 151 274t285 105q166 0 248 -109l-33 -30q-76 98 -223 98q-146 0 -254 -93.5t-134 -244.5l-57 -328h404l-9 -41h-403l-90 -514q52 -3 106.5 -27.5t92.5 -51.5t91 -49.5t105 -22.5q63 0 109.5 39.5 t56.5 103.5h41q-14 -83 -72 -133.5t-141 -50.5q-59 0 -116.5 24t-97 52.5t-94 52.5t-106.5 24q-63 0 -109.5 -39.5t-56.5 -103.5h-41z" />
<glyph unicode="&#xa5;" horiz-adv-x="1331" d="M344 1434h51l393 -732l652 732h51l-690 -775l-23 -127h328l-6 -40h-330l-39 -226h328l-6 -41h-328l-39 -225h-41l39 225h-328l6 41h328l39 226h-326l7 40h327l23 127z" />
<glyph unicode="&#xa7;" horiz-adv-x="849" d="M43 -389l35 31q80 -123 250 -123q125 0 217 75t112 193q26 151 -61 254l-356 432l34 29l357 -432q98 -119 67 -285q-25 -137 -128.5 -222t-247.5 -85q-189 0 -279 133zM311 1137q25 137 129.5 222t249.5 85q93 0 164 -34.5t113 -98.5l-33 -31q-84 123 -252 123 q-124 0 -216 -74.5t-114 -193.5q-28 -161 62 -254l356 -432l-33 -29l-358 432q-95 116 -68 285z" />
<glyph unicode="&#xa8;" horiz-adv-x="839" d="M391 1178q3 22 20.5 36.5t39.5 14.5t34 -14.5t9 -36.5q-5 -22 -22.5 -37t-39.5 -15t-34 15t-7 37zM760 1178q3 22 20 36.5t39 14.5t34 -14.5t9 -36.5q-5 -22 -22 -37t-39 -15t-34 15t-7 37z" />
<glyph unicode="&#xa9;" horiz-adv-x="1658" d="M248 717q57 324 288 525.5t547 201.5q208 0 352.5 -91t204 -256.5t21.5 -379.5q-57 -324 -288 -525.5t-546 -201.5q-209 0 -353.5 91t-204 256.5t-21.5 379.5zM289 717q-54 -306 97.5 -496t447.5 -190q297 0 514.5 190t271.5 496q36 202 -20 358t-192.5 242t-332.5 86 q-296 0 -514 -190t-272 -496zM608 717q29 163 145.5 263.5t276.5 100.5q158 0 242 -104l-35 -29q-72 94 -213 94t-244 -90t-129 -235q-25 -145 46 -235.5t212 -90.5q139 0 246 92l25 -26q-121 -105 -279 -105q-159 0 -240 101t-53 264z" />
<glyph unicode="&#xaa;" horiz-adv-x="628" d="M276 1180q20 116 102 188t197 72q126 0 183 -70l-78 -444h-41l8 43q-70 -49 -166 -49q-113 0 -169 71.5t-36 188.5zM317 1180q-17 -99 32 -160.5t145 -61.5q93 0 159 56l62 342q-51 45 -146 45q-96 0 -165.5 -61t-86.5 -160z" />
<glyph unicode="&#xab;" horiz-adv-x="962" d="M193 512l399 340l22 -29l-364 -311l256 -311l-35 -29zM520 512l400 340l22 -29l-364 -311l256 -311l-35 -29z" />
<glyph unicode="&#xac;" horiz-adv-x="1024" d="M268 594l6 41h697l-51 -287h-41l45 246h-656z" />
<glyph unicode="&#xad;" horiz-adv-x="696" d="M254 512l6 41h369l-6 -41h-369z" />
<glyph unicode="&#xae;" horiz-adv-x="1658" d="M248 717q57 324 288 525.5t547 201.5q208 0 352.5 -91t204 -256.5t21.5 -379.5q-57 -324 -288 -525.5t-546 -201.5q-209 0 -353.5 91t-204 256.5t-21.5 379.5zM289 717q-54 -306 97.5 -496t447.5 -190q297 0 514.5 190t271.5 496q36 202 -20 358t-192.5 242t-332.5 86 q-296 0 -514 -190t-272 -496zM717 356l127 717h184q86 0 129.5 -52t28.5 -140q-15 -81 -69.5 -132t-133.5 -59l135 -334h-49l-129 334h-121l-59 -334h-43zM825 727h142q68 0 117 42.5t61 111.5t-22 111t-101 42h-141z" />
<glyph unicode="&#xaf;" horiz-adv-x="819" d="M385 1147l8 41h451l-8 -41h-451z" />
<glyph unicode="&#xb0;" horiz-adv-x="604" d="M332 1249q15 87 77.5 141t147.5 54q86 0 128.5 -53.5t27.5 -141.5t-77.5 -141t-148.5 -53q-85 0 -127.5 53t-27.5 141zM373 1249q-12 -69 22.5 -111t100.5 -42t115 42t61 111q12 68 -23 111t-100 43q-66 0 -115 -42.5t-61 -111.5z" />
<glyph unicode="&#xb1;" horiz-adv-x="921" d="M201 215l8 41h594l-8 -41h-594zM270 604l6 41h277l49 277h41l-49 -277h276l-6 -41h-276l-49 -276h-41l49 276h-277z" />
<glyph unicode="&#xb4;" horiz-adv-x="532" d="M338 1112l256 217l22 -29l-254 -217z" />
<glyph unicode="&#xb5;" horiz-adv-x="1110" d="M-16 -410l6 31q63 0 105.5 32t54.5 97l100 574l6 34l100 564h41l-104 -592q-14 -136 58 -217.5t208 -81.5q143 0 247.5 90.5t129.5 236.5l100 564h41l-100 -564q-29 -165 -146 -266.5t-278 -101.5q-109 0 -184 48t-105 134l-74 -422q-14 -81 -62.5 -123.5t-104.5 -42.5 q-30 0 -39 6z" />
<glyph unicode="&#xb6;" horiz-adv-x="1034" d="M319 1059q29 169 149.5 272t285.5 103h133l-252 -1434h-41l121 686h-92q-165 0 -250 102.5t-54 270.5zM799 0l252 1434h41l-252 -1434h-41z" />
<glyph unicode="&#xb7;" d="M254 512q3 22 20 36.5t39 14.5t34 -14.5t9 -36.5q-5 -22 -22 -36.5t-39 -14.5t-33.5 14.5t-7.5 36.5z" />
<glyph unicode="&#xb8;" horiz-adv-x="520" d="M45 -375l35 29q26 -33 74 -33q47 0 82.5 29t44.5 76q8 47 -19 75.5t-92 28.5l31 170h41l-25 -133q58 -8 86.5 -46t18.5 -97q-12 -64 -61.5 -104t-115.5 -40q-64 0 -100 45z" />
<glyph unicode="&#xba;" horiz-adv-x="651" d="M276 1180q20 116 104 188t198 72t172 -72t38 -188q-20 -117 -103.5 -188.5t-197.5 -71.5t-172.5 71.5t-38.5 188.5zM317 1180q-17 -99 32 -160.5t145 -61.5t166.5 61.5t87.5 160.5q17 98 -32.5 159.5t-144.5 61.5t-166 -61.5t-88 -159.5z" />
<glyph unicode="&#xbb;" horiz-adv-x="962" d="M178 201l367 311l-258 311l35 29l280 -340l-401 -340zM506 201l366 311l-258 311l35 29l281 -340l-402 -340z" />
<glyph unicode="&#xbf;" horiz-adv-x="946" d="M76.5 -269q-0.5 50 5.5 101q12 65 39 115.5t61.5 83.5t75 62t81 60t76 68t64 95.5t41.5 134.5l21 112h41l-21 -112q-14 -81 -43.5 -144.5t-65.5 -102.5t-76.5 -71.5t-80.5 -60t-74.5 -58t-61 -76.5t-36.5 -106q-8 -36 -5.5 -73.5t10.5 -72t29 -65t51 -53.5t76 -36 t103 -13q97 0 197.5 36t167.5 99l24 -31q-76 -71 -182 -108t-211 -37q-78 0 -137 20.5t-93 55.5t-55 81t-21.5 96zM565 881q4 22 22 36.5t40 14.5t33.5 -14.5t7.5 -36.5q-3 -22 -20.5 -37t-39.5 -15t-34 15t-9 37z" />
<glyph unicode="&#xf7;" horiz-adv-x="1024" d="M254 512l6 41h696l-6 -41h-696zM492 184q5 22 22 37t39 15t34 -15t7 -37q-3 -22 -20 -36.5t-39 -14.5t-34 14.5t-9 36.5zM614 881q4 22 22 36.5t40 14.5t33.5 -14.5t7.5 -36.5q-3 -22 -20.5 -37t-39.5 -15t-34 15t-9 37z" />
<glyph unicode="&#x13f;" horiz-adv-x="962" d="M205 0l252 1434h41l-246 -1393h614l-6 -41h-655zM782 666q3 22 20.5 36.5t39.5 14.5t34 -14.5t9 -36.5q-5 -22 -22.5 -37t-39.5 -15t-34 15t-7 37z" />
<glyph unicode="&#x140;" horiz-adv-x="706" d="M221 160l244 1376h41l-244 -1376q-12 -65 20 -97t97 -32l-4 -31q-12 -6 -43 -6q-57 0 -91 42.5t-20 123.5zM639 666q3 22 20 36.5t39 14.5t34 -14.5t9 -36.5q-5 -22 -22 -37t-39 -15t-34 15t-7 37z" />
<glyph unicode="&#x192;" horiz-adv-x="624" d="M-14 -512l6 31q63 0 105.5 32t54.5 97l217 1233h-144l8 41h144l65 368q20 114 101.5 185t193.5 71q53 0 105 -20l-8 -47q-44 26 -105 26q-93 0 -161 -59.5t-85 -155.5l-65 -368h317l-8 -41h-317l-217 -1233q-14 -81 -63 -123.5t-105 -42.5q-30 0 -39 6z" />
<glyph unicode="&#x2c6;" horiz-adv-x="720" d="M338 1112l256 217l178 -217l-33 -29l-155 189l-222 -189z" />
<glyph unicode="&#x2c7;" horiz-adv-x="720" d="M371 1300l35 29l155 -188l221 188l23 -29l-254 -217z" />
<glyph unicode="&#x2d8;" horiz-adv-x="714" d="M317 1231l37 31q82 -99 207 -99q123 0 240 99l24 -31q-125 -109 -272 -109q-145 0 -236 109z" />
<glyph unicode="&#x2d9;" d="M375 1198q3 22 20 36.5t39 14.5t34 -14.5t9 -36.5q-5 -22 -22 -36.5t-39 -14.5t-33.5 14.5t-7.5 36.5z" />
<glyph unicode="&#x2da;" horiz-adv-x="563" d="M332 1249q13 78 69 126t131 48q76 0 115 -48t25 -126q-13 -78 -68.5 -126t-132.5 -48q-75 0 -113.5 48t-25.5 126zM373 1249q-10 -60 19.5 -96.5t86.5 -36.5t99.5 36.5t52.5 96.5q10 59 -19.5 96t-85.5 37q-57 0 -100 -36.5t-53 -96.5z" />
<glyph unicode="&#x2db;" horiz-adv-x="520" d="M96 -92q7 55 41 92h41q-31 -36 -41 -90q-12 -63 17.5 -100t87.5 -37q60 0 100 37l27 -29q-55 -49 -136 -49q-76 0 -114 47.5t-23 128.5z" />
<glyph unicode="&#x2dc;" horiz-adv-x="661" d="M283 1141q10 64 55.5 103.5t107.5 39.5q32 0 55 -11.5t37 -27.5t27 -32t33 -27.5t47 -11.5q44 0 77 28t40 74h41q-11 -65 -56.5 -104t-109.5 -39q-33 0 -56.5 11.5t-36.5 27.5t-25.5 32t-31.5 27.5t-45 11.5q-45 0 -78 -28.5t-40 -73.5h-41z" />
<glyph unicode="&#x2dd;" horiz-adv-x="798" d="M338 1112l256 217l22 -29l-254 -217zM604 1112l256 217l23 -29l-254 -217z" />
<glyph unicode="&#x400;" horiz-adv-x="1064" d="M205 0l252 1434h727l-8 -41h-687l-112 -645h614l-8 -41h-614l-117 -666h696l-6 -41h-737zM717 1751l35 29l178 -217l-33 -29z" />
<glyph unicode="&#x401;" horiz-adv-x="1064" d="M205 0l252 1434h727l-8 -41h-687l-112 -645h614l-8 -41h-614l-117 -666h696l-6 -41h-737zM625 1628q3 22 20 36.5t39 14.5t34 -14.5t9 -36.5q-5 -22 -22 -36.5t-39 -14.5t-33.5 14.5t-7.5 36.5zM993 1628q3 22 20.5 36.5t39.5 14.5t34 -14.5t9 -36.5q-4 -22 -22 -36.5 t-40 -14.5t-33.5 14.5t-7.5 36.5z" />
<glyph unicode="&#x402;" horiz-adv-x="1447" d="M346 1393l8 41h942l-8 -41h-450l-109 -623q140 100 318 100q155 0 234.5 -99t51.5 -259l-63 -352q-14 -81 -63 -123.5t-105 -42.5q-33 0 -39 6l4 31q64 0 107 32t55 97l63 352q25 141 -45 229t-207 88q-186 0 -321 -116l-125 -713h-41l244 1393h-451z" />
<glyph unicode="&#x403;" horiz-adv-x="966" d="M205 0l252 1434h655l-8 -41h-615l-243 -1393h-41zM717 1563l256 217l22 -29l-254 -217z" />
<glyph unicode="&#x404;" horiz-adv-x="1449" d="M248 717q57 324 288 525.5t547 201.5q157 0 280.5 -54.5t201.5 -154.5l-37 -31q-72 95 -187.5 147t-265.5 52q-289 0 -503.5 -180.5t-276.5 -474.5h973l-8 -41h-973q-33 -199 24 -353t193 -238.5t330 -84.5q304 0 522 196l26 -28q-236 -209 -555 -209q-209 0 -353.5 91 t-204 256.5t-21.5 379.5z" />
<glyph unicode="&#x405;" horiz-adv-x="1028" d="M125 152l33 28q49 -75 143.5 -112t198.5 -37q80 0 149 22.5t116 58t83 82.5t55 92t27 89q11 64 -5.5 114.5t-53.5 85t-87.5 62.5t-108 52t-114.5 48.5t-107 56t-86 71t-51 98t-2 131.5q12 64 42 123.5t79.5 111.5t128 83.5t174.5 31.5q104 0 197 -37.5t145 -108.5 l-34 -30q-45 63 -133 99t-185 36q-84 0 -153.5 -28t-113 -75t-70 -99t-36.5 -107q-12 -66 4 -119t52.5 -88.5t87 -65t108 -53.5t115 -48.5t107.5 -55.5t86.5 -69t51.5 -94t3 -126q-12 -68 -46.5 -133t-91 -123t-145 -93.5t-194.5 -35.5q-118 0 -217.5 43t-151.5 119z" />
<glyph unicode="&#x406;" d="M195 0l251 1434h41l-251 -1434h-41z" />
<glyph unicode="&#x407;" d="M195 0l251 1434h41l-251 -1434h-41zM307 1628q3 22 20.5 36.5t39.5 14.5t34 -14.5t9 -36.5q-4 -22 -22 -36.5t-40 -14.5t-33.5 14.5t-7.5 36.5zM594 1628q3 22 20 36.5t39 14.5t34 -14.5t9 -36.5q-5 -22 -22 -36.5t-39 -14.5t-33.5 14.5t-7.5 36.5z" />
<glyph unicode="&#x408;" horiz-adv-x="933" d="M119 98l35 31q72 -98 221 -98q146 0 253.5 93.5t133.5 244.5l188 1065h41l-188 -1065q-29 -169 -149 -274t-285 -105q-169 0 -250 108z" />
<glyph unicode="&#x409;" horiz-adv-x="1914" d="M96 0l4 31q117 0 196 63.5t101 192.5l203 1147h758l-121 -686h317q165 0 249 -102.5t55 -270.5q-31 -170 -150.5 -272.5t-284.5 -102.5h-358l244 1393h-676l-193 -1096q-26 -145 -107 -224t-171 -79q-54 0 -66 6zM1112 41h318q148 0 253.5 91.5t133.5 242.5 q26 149 -48.5 240.5t-222.5 91.5h-317z" />
<glyph unicode="&#x40a;" horiz-adv-x="1894" d="M205 0l252 1434h41l-121 -686h799l120 686h41l-120 -686h317q165 0 248.5 -102.5t54.5 -270.5q-31 -170 -150 -272.5t-284 -102.5h-359l123 707h-798l-123 -707h-41zM1092 41h317q148 0 253.5 91.5t133.5 242.5q26 149 -48 240.5t-222 91.5h-318z" />
<glyph unicode="&#x40b;" horiz-adv-x="1447" d="M346 1393l8 41h942l-8 -41h-450l-109 -623q140 100 318 100q155 0 234.5 -99t51.5 -259l-90 -512h-41l90 512q25 141 -45 229t-207 88q-186 0 -321 -116l-125 -713h-41l244 1393h-451z" />
<glyph unicode="&#x40c;" horiz-adv-x="1157" d="M195 0l251 1434h41l-251 -1434h-41zM430 733l784 701h52l-785 -701l574 -733h-51zM770 1563l256 217l23 -29l-254 -217z" />
<glyph unicode="&#x40d;" horiz-adv-x="1474" d="M205 0l252 1434h41l-242 -1364l1225 1364h41l-252 -1434h-41l239 1364l-1222 -1364h-41zM881 1751l34 29l179 -217l-33 -29z" />
<glyph unicode="&#x40e;" horiz-adv-x="1249" d="M344 1434h45l322 -938l653 938h45l-997 -1434h-45l313 451zM666 1681l36 31q81 -98 205 -98q126 0 242 98l25 -31q-127 -108 -273 -108q-148 0 -235 108z" />
<glyph unicode="&#x40f;" horiz-adv-x="1454" d="M205 0l252 1434h41l-246 -1393h962l246 1393h41l-252 -1434h-501l-56 -307h-41l56 307h-502z" />
<glyph unicode="&#x410;" horiz-adv-x="1499" d="M92 0l887 1434h45l383 -1434h-45l-135 512h-774l-316 -512h-45zM477 553h737l-221 836z" />
<glyph unicode="&#x411;" horiz-adv-x="1085" d="M205 0l252 1434h655l-8 -41h-615l-112 -645h348q165 0 248.5 -102.5t54.5 -270.5q-31 -170 -150 -272.5t-284 -102.5h-389zM252 41h348q148 0 253.5 91.5t133.5 242.5q26 149 -48 240.5t-222 91.5h-348z" />
<glyph unicode="&#x412;" horiz-adv-x="1089" d="M205 0l252 1434h327q159 0 239.5 -98.5t51.5 -260.5q-21 -118 -90 -203t-170 -124q124 -27 183.5 -124.5t33.5 -242.5q-31 -173 -151.5 -277t-286.5 -104h-389zM252 41h348q150 0 257.5 93.5t133.5 246.5q28 151 -47.5 243.5t-224.5 92.5h-348zM379 758h287q141 0 242 87 t126 230t-46 230.5t-212 87.5h-287z" />
<glyph unicode="&#x413;" horiz-adv-x="966" d="M205 0l252 1434h655l-8 -41h-615l-243 -1393h-41z" />
<glyph unicode="&#x414;" horiz-adv-x="1372" d="M47 -307l62 348q247 0 301 317l190 1076h778l-245 -1393h143l-62 -348h-40l55 307h-1086l-55 -307h-41zM266 41h826l237 1352h-696l-182 -1037q-40 -232 -185 -315z" />
<glyph unicode="&#x415;" horiz-adv-x="1064" d="M205 0l252 1434h727l-8 -41h-687l-112 -645h614l-8 -41h-614l-117 -666h696l-6 -41h-737z" />
<glyph unicode="&#x416;" horiz-adv-x="1759" d="M100 0l770 733l-487 701h51l488 -701l-770 -733h-52zM858 0l252 1434h41l-252 -1434h-41zM1094 733l733 701h51l-733 -701l512 -733h-51z" />
<glyph unicode="&#x417;" horiz-adv-x="1089" d="M137 199l35 28q73 -99 161.5 -147.5t213.5 -48.5q180 0 298 94.5t146 253.5q28 153 -47 245.5t-225 92.5h-225l8 41h164q143 0 243 87t127 242q26 144 -37 230t-215 86q-207 0 -415 -178l-25 30q220 189 447 189q172 0 243.5 -97.5t42.5 -261.5q-44 -252 -262 -337 q124 -27 183.5 -124t33.5 -245q-31 -178 -162.5 -283.5t-328.5 -105.5q-132 0 -228.5 51.5t-175.5 157.5z" />
<glyph unicode="&#x418;" horiz-adv-x="1474" d="M205 0l252 1434h41l-242 -1364l1225 1364h41l-252 -1434h-41l239 1364l-1222 -1364h-41z" />
<glyph unicode="&#x419;" horiz-adv-x="1474" d="M205 0l252 1434h41l-242 -1364l1225 1364h41l-252 -1434h-41l239 1364l-1222 -1364h-41zM778 1681l37 31q81 -98 205 -98q126 0 242 98l24 -31q-127 -108 -272 -108q-149 0 -236 108z" />
<glyph unicode="&#x41a;" horiz-adv-x="1157" d="M195 0l251 1434h41l-251 -1434h-41zM430 733l784 701h52l-785 -701l574 -733h-51z" />
<glyph unicode="&#x41b;" horiz-adv-x="1351" d="M96 0l4 31q117 0 196 63.5t101 192.5l203 1147h799l-252 -1434h-41l244 1393h-717l-193 -1096q-26 -145 -107 -224t-171 -79q-54 0 -66 6z" />
<glyph unicode="&#x41c;" horiz-adv-x="1691" d="M205 0l252 1434h37l424 -1024l784 1024h37l-252 -1434h-41l235 1341l-749 -972h-45l-406 972l-235 -1341h-41z" />
<glyph unicode="&#x41d;" horiz-adv-x="1433" d="M205 0l252 1434h41l-121 -686h942l121 686h41l-252 -1434h-41l123 707h-942l-123 -707h-41z" />
<glyph unicode="&#x41e;" horiz-adv-x="1658" d="M248 717q57 324 288 525.5t547 201.5q208 0 352.5 -91t204 -256.5t21.5 -379.5q-57 -324 -288 -525.5t-546 -201.5q-209 0 -353.5 91t-204 256.5t-21.5 379.5zM289 717q-54 -306 97.5 -496t447.5 -190q297 0 514.5 190t271.5 496q36 202 -20 358t-192.5 242t-332.5 86 q-296 0 -514 -190t-272 -496z" />
<glyph unicode="&#x41f;" horiz-adv-x="1392" d="M205 0l252 1434h983l-252 -1434h-41l244 1393h-902l-243 -1393h-41z" />
<glyph unicode="&#x420;" horiz-adv-x="1034" d="M205 0l252 1434h338q165 0 248.5 -102.5t54.5 -272.5q-31 -168 -150 -270.5t-284 -102.5h-297l-121 -686h-41zM373 727h297q148 0 254.5 91.5t132.5 240.5q26 151 -48.5 242.5t-222.5 91.5h-297z" />
<glyph unicode="&#x421;" horiz-adv-x="1449" d="M248 717q57 324 288 525.5t547 201.5q157 0 280.5 -54.5t201.5 -154.5l-37 -31q-72 95 -187.5 147t-265.5 52q-296 0 -514 -190t-272 -496t97.5 -496t447.5 -190q304 0 522 196l26 -28q-236 -209 -555 -209q-209 0 -353.5 91t-204 256.5t-21.5 379.5z" />
<glyph unicode="&#x422;" horiz-adv-x="1142" d="M346 1393l8 41h942l-8 -41h-450l-244 -1393h-41l244 1393h-451z" />
<glyph unicode="&#x423;" horiz-adv-x="1249" d="M344 1434h45l322 -938l653 938h45l-997 -1434h-45l313 451z" />
<glyph unicode="&#x424;" horiz-adv-x="1482" d="M248 717q44 255 238.5 414t461.5 159l25 144h41l-25 -144q267 0 403.5 -159t92.5 -414t-238 -414.5t-461 -159.5l-24 -143h-41l24 143q-267 0 -404 159.5t-93 414.5zM289 717q-41 -237 87 -385t376 -148l188 1065q-164 0 -303 -67t-230 -188t-118 -277zM793 184 q250 0 430 148t221 385t-86 384.5t-377 147.5z" />
<glyph unicode="&#x425;" horiz-adv-x="1433" d="M102 0l715 723l-452 711h51l432 -680l674 680h51l-705 -711l463 -723h-51l-442 692l-684 -692h-52z" />
<glyph unicode="&#x426;" horiz-adv-x="1495" d="M205 0l252 1434h41l-246 -1393h962l246 1393h41l-246 -1393h144l-62 -348h-41l56 307h-1147z" />
<glyph unicode="&#x427;" horiz-adv-x="1191" d="M391 1063l66 371h41l-66 -371q-20 -112 1.5 -194t97.5 -132.5t204 -50.5q79 0 176.5 12t163.5 35l123 701h41l-252 -1434h-41l121 692q-152 -47 -340 -47q-197 0 -284 107.5t-52 310.5z" />
<glyph unicode="&#x428;" horiz-adv-x="2150" d="M205 0l252 1434h41l-246 -1393h809l246 1393h41l-246 -1393h809l246 1393h41l-252 -1434h-1741z" />
<glyph unicode="&#x429;" horiz-adv-x="2191" d="M205 0l252 1434h41l-246 -1393h809l246 1393h41l-246 -1393h809l246 1393h41l-246 -1393h143l-61 -348h-41l55 307h-1843z" />
<glyph unicode="&#x42a;" horiz-adv-x="1280" d="M346 1393l8 41h369l-121 -686h318q165 0 248.5 -102.5t54.5 -270.5q-31 -170 -150.5 -272.5t-284.5 -102.5h-358l244 1393h-328zM477 41h318q148 0 253.5 91.5t133.5 242.5q26 149 -48.5 240.5t-222.5 91.5h-317z" />
<glyph unicode="&#x42b;" horiz-adv-x="1433" d="M205 0l252 1434h41l-121 -686h317q165 0 248.5 -102.5t54.5 -270.5q-31 -170 -150 -272.5t-284 -102.5h-358zM252 41h317q148 0 253.5 91.5t133.5 242.5q26 149 -48 240.5t-222 91.5h-317zM1188 0l252 1434h41l-252 -1434h-41z" />
<glyph unicode="&#x42c;" horiz-adv-x="1054" d="M205 0l252 1434h41l-121 -686h317q165 0 248.5 -102.5t54.5 -270.5q-31 -170 -150 -272.5t-284 -102.5h-358zM252 41h317q148 0 253.5 91.5t133.5 242.5q26 149 -48 240.5t-222 91.5h-317z" />
<glyph unicode="&#x42d;" horiz-adv-x="1449" d="M137 199l35 28q71 -95 186.5 -145.5t266.5 -50.5q194 0 360 84.5t276.5 238.5t147.5 353h-819l8 41h819q28 193 -31 342t-194 231t-326 82q-301 0 -522 -199l-25 31q112 100 254.5 154.5t300.5 54.5q156 0 279 -53t197 -148.5t103 -229.5t-1 -296q-57 -324 -287.5 -525.5 t-546.5 -201.5q-158 0 -281.5 54t-199.5 155z" />
<glyph unicode="&#x42e;" horiz-adv-x="2107" d="M205 0l252 1434h41l-121 -686h471q63 312 271 504t485 192q186 0 314 -91t178.5 -256.5t12.5 -379.5q-57 -324 -267.5 -525.5t-493.5 -201.5q-186 0 -314 90t-178.5 253t-15.5 374h-471l-123 -707h-41zM883 717q-36 -202 11 -358t166.5 -242t293.5 -86q265 0 462.5 190 t251.5 496t-77 496t-396 190q-264 0 -461 -190t-251 -496z" />
<glyph unicode="&#x42f;" horiz-adv-x="1095" d="M113 0l512 686h-13q-165 0 -249.5 102.5t-53.5 270.5q29 169 149 272t285 103h400l-252 -1434h-41l121 686h-299l-510 -686h-49zM350 1059q-26 -149 47 -240.5t221 -91.5h359l117 666h-359q-148 0 -253.5 -91.5t-131.5 -242.5z" />
<glyph unicode="&#x430;" horiz-adv-x="1103" d="M193 461q37 211 185 341t353 130q215 0 322 -113l-144 -819h-41l15 86q-135 -96 -312 -96q-206 0 -310.5 130t-67.5 341zM233 461q-34 -192 61.5 -311t283.5 -119q184 0 315 110l115 658q-98 92 -285 92t-321.5 -118.5t-168.5 -311.5z" />
<glyph unicode="&#x431;" horiz-adv-x="1167" d="M223 430.5q3 88.5 21 194.5q25 139 65.5 249.5t91 184.5t109 129.5t121.5 89.5t126 59.5t126.5 45.5t118 40t105.5 51t85 72l25 -30q-39 -42 -93 -75t-109 -54.5t-117 -43t-122 -46t-120 -57t-114.5 -82.5t-101.5 -117t-84.5 -166.5t-60.5 -223.5h10q71 136 189 208.5 t262 72.5q207 0 311.5 -130t67.5 -341q-37 -212 -188 -341.5t-365 -129.5q-53 0 -98.5 8.5t-88 29t-74.5 53t-55.5 82.5t-34.5 114.5t-8 153zM273.5 320.5q1.5 -64.5 23.5 -117.5t59.5 -91.5t97 -59.5t136.5 -21q191 0 330.5 119.5t173.5 312.5q34 191 -61.5 309.5 t-284.5 118.5q-184 0 -306.5 -116t-158.5 -316q-11 -74 -9.5 -138.5z" />
<glyph unicode="&#x432;" horiz-adv-x="890" d="M195 0l161 922h271q107 0 160 -64t34 -166q-12 -70 -52.5 -122.5t-102.5 -82.5q77 -23 111.5 -84.5t19.5 -150.5q-20 -114 -102 -183t-199 -69h-301zM242 41h260q99 0 168 57.5t86 153.5q17 94 -32.5 151.5t-148.5 57.5h-260zM324 502h229q89 0 150.5 51.5t76.5 138.5 q15 85 -29 137t-133 52h-229z" />
<glyph unicode="&#x433;" horiz-adv-x="757" d="M195 0l161 922h461l-8 -41h-420l-153 -881h-41z" />
<glyph unicode="&#x434;" horiz-adv-x="1064" d="M57 -246l52 287q83 0 148 68t85 178l113 635h542l-155 -881h112l-51 -287h-41l45 246h-764l-45 -246h-41zM233 41h568l147 840h-461l-104 -594q-25 -152 -150 -246z" />
<glyph unicode="&#x435;" horiz-adv-x="1054" d="M195 465q35 206 175.5 336.5t327.5 130.5q186 0 273.5 -129.5t50.5 -341.5h-789q-34 -192 61.5 -311t283.5 -119q190 0 329 123l23 -31q-149 -133 -359 -133q-206 0 -310 130.5t-66 344.5zM242 502h745q19 179 -60 284t-235 105q-159 0 -283.5 -105.5t-166.5 -283.5z" />
<glyph unicode="&#x436;" horiz-adv-x="1253" d="M102 0l508 477l-315 445h51l316 -445l-508 -477h-52zM606 0l162 922h41l-162 -922h-41zM760 477l471 445h51l-471 -445l340 -477h-51z" />
<glyph unicode="&#x437;" horiz-adv-x="823" d="M113 123l34 31q96 -123 254 -123q114 0 195 59.5t98 157.5q17 96 -33.5 154.5t-152.5 58.5h-139l8 41h108q96 0 162.5 53t83.5 143q15 87 -37.5 140t-156.5 53q-137 0 -258 -103l-23 29q131 115 289 115q121 0 183.5 -64.5t43.5 -169.5q-14 -72 -57.5 -127t-112.5 -84 q81 -23 114.5 -85.5t18.5 -151.5q-20 -117 -113 -188.5t-225 -71.5q-177 0 -284 133z" />
<glyph unicode="&#x438;" horiz-adv-x="1116" d="M195 0l161 922h41l-151 -856l796 856h41l-161 -922h-41l149 856l-794 -856h-41z" />
<glyph unicode="&#x439;" horiz-adv-x="1116" d="M195 0l161 922h41l-151 -856l796 856h41l-161 -922h-41l149 856l-794 -856h-41zM518 1231l37 31q82 -99 207 -99q122 0 239 99l25 -31q-125 -109 -272 -109q-145 0 -236 109z" />
<glyph unicode="&#x43a;" horiz-adv-x="897" d="M195 0l161 922h41l-161 -922h-41zM348 477l522 445h56l-523 -445l392 -477h-56z" />
<glyph unicode="&#x43b;" horiz-adv-x="1013" d="M96 0l4 31q88 0 148 48t78 146l123 697h532l-162 -922h-41l154 881h-451l-114 -656q-20 -113 -84 -172t-136 -59q-42 0 -51 6z" />
<glyph unicode="&#x43c;" horiz-adv-x="1228" d="M195 0l161 922h41l260 -674l498 674h41l-162 -922h-41l148 840l-469 -635h-45l-244 635l-147 -840h-41z" />
<glyph unicode="&#x43d;" horiz-adv-x="1095" d="M195 0l161 922h41l-75 -430h624l76 430h41l-162 -922h-41l78 451h-625l-77 -451h-41z" />
<glyph unicode="&#x43e;" horiz-adv-x="1146" d="M193 461q37 210 187.5 340.5t356.5 130.5q205 0 309.5 -130t67.5 -341t-187 -341t-356 -130t-310.5 130t-67.5 341zM233 461q-34 -192 61.5 -311t283.5 -119q187 0 324 119t171 311t-61.5 311t-282.5 119q-188 0 -325 -119t-171 -311z" />
<glyph unicode="&#x43f;" horiz-adv-x="1064" d="M195 0l161 922h676l-162 -922h-41l154 881h-594l-153 -881h-41z" />
<glyph unicode="&#x440;" horiz-adv-x="1110" d="M102 -512l254 1434h41l-16 -91q141 101 319 101q205 0 309.5 -130t67.5 -341t-186.5 -341t-355.5 -130q-183 0 -285 102l-107 -604h-41zM260 147q90 -116 281 -116q187 0 324 119t171 311t-61.5 311t-282.5 119q-185 0 -321 -117z" />
<glyph unicode="&#x441;" horiz-adv-x="1003" d="M193 461q37 210 187.5 340.5t356.5 130.5q208 0 312 -135l-33 -29q-96 123 -287 123q-188 0 -325 -119t-171 -311t61.5 -311t283.5 -119q190 0 329 123l23 -31q-149 -133 -359 -133q-206 0 -310.5 130t-67.5 341z" />
<glyph unicode="&#x442;" horiz-adv-x="876" d="M256 881l8 41h676l-8 -41h-318l-153 -881h-41l153 881h-317z" />
<glyph unicode="&#x443;" horiz-adv-x="1085" d="M186 -512l334 512l-266 922h45l250 -877l561 877h45l-924 -1434h-45z" />
<glyph unicode="&#x444;" horiz-adv-x="1310" d="M193 461q37 210 187.5 340.5t356.5 130.5q24 0 60 -4l108 608h41l-108 -608q40 4 63 4q205 0 309.5 -130t67.5 -341t-187 -341t-356 -130q-25 0 -61 4l-90 -506h-41l90 506q-40 -4 -62 -4q-206 0 -310.5 130t-67.5 341zM233 461q-34 -192 61.5 -311t283.5 -119q21 0 61 4 l152 852q-40 4 -62 4q-188 0 -325 -119t-171 -311zM680 35q36 -4 61 -4q188 0 325 119t171 311t-61.5 311t-282.5 119q-26 0 -62 -4z" />
<glyph unicode="&#x445;" horiz-adv-x="1015" d="M102 0l461 467l-289 455h52l268 -424l420 424h51l-451 -455l299 -467h-51l-278 436l-430 -436h-52z" />
<glyph unicode="&#x446;" horiz-adv-x="1085" d="M195 0l161 922h41l-155 -881h594l155 881h41l-155 -881h102l-51 -287h-41l45 246h-737z" />
<glyph unicode="&#x447;" horiz-adv-x="966" d="M303 684l43 238h41l-43 -238q-19 -113 35.5 -188.5t191.5 -75.5q142 0 242 47l80 455h41l-162 -922h-41l74 422q-110 -43 -242 -43q-148 0 -216 83t-44 222z" />
<glyph unicode="&#x448;" horiz-adv-x="1454" d="M195 0l161 922h41l-155 -881h471l155 881h41l-155 -881h471l155 881h41l-161 -922h-1065z" />
<glyph unicode="&#x449;" horiz-adv-x="1474" d="M195 0l161 922h41l-155 -881h471l155 881h41l-155 -881h471l155 881h41l-155 -881h102l-51 -287h-41l45 246h-1126z" />
<glyph unicode="&#x44a;" horiz-adv-x="1019" d="M256 881l8 41h297l-76 -430h246q114 0 171 -68t38 -178q-20 -110 -100.5 -178t-194.5 -68h-287l154 881h-256zM406 41h245q96 0 163.5 56t84.5 149q15 93 -32.5 149t-143.5 56h-246z" />
<glyph unicode="&#x44b;" horiz-adv-x="1173" d="M195 0l161 922h41l-75 -430h245q114 0 171 -68t38 -178q-20 -110 -100.5 -178t-194.5 -68h-286zM242 41h245q96 0 163.5 56t84.5 149q15 93 -32.5 149t-143.5 56h-246zM938 0l162 922h41l-162 -922h-41z" />
<glyph unicode="&#x44c;" horiz-adv-x="856" d="M195 0l161 922h41l-75 -430h245q114 0 171 -68t38 -178q-20 -110 -100.5 -178t-194.5 -68h-286zM242 41h245q96 0 163.5 56t84.5 149q15 93 -32.5 149t-143.5 56h-246z" />
<glyph unicode="&#x44d;" horiz-adv-x="1003" d="M115 123l35 31q93 -123 284 -123q185 0 321 115.5t173 304.5h-510l8 41h508q22 180 -73 289.5t-275 109.5q-192 0 -328 -123l-25 29q148 135 361 135q205 0 309.5 -130t67.5 -341t-187 -341t-356 -130q-208 0 -313 133z" />
<glyph unicode="&#x44e;" horiz-adv-x="1515" d="M195 0l161 922h41l-75 -430h307q43 197 182.5 318.5t325.5 121.5q192 0 287.5 -130t58.5 -341t-178.5 -341t-333.5 -130q-190 0 -287 127.5t-63 333.5h-308l-77 -451h-41zM664 461q-34 -192 53 -311t260 -119t302 119t163 311t-53.5 311t-260.5 119t-301.5 -119 t-162.5 -311z" />
<glyph unicode="&#x44f;" horiz-adv-x="927" d="M150 0l335 418q-112 3 -166 72.5t-34 179.5q20 113 102.5 182.5t200.5 69.5h307l-162 -922h-41l72 418h-229l-336 -418h-49zM326 670q-17 -96 32 -153.5t148 -57.5h266l74 422h-266q-99 0 -168 -57.5t-86 -153.5z" />
<glyph unicode="&#x450;" horiz-adv-x="1054" d="M195 465q35 206 175.5 336.5t327.5 130.5q186 0 273.5 -129.5t50.5 -341.5h-789q-34 -192 61.5 -311t283.5 -119q190 0 329 123l23 -31q-149 -133 -359 -133q-206 0 -310 130.5t-66 344.5zM242 502h745q19 179 -60 284t-235 105q-159 0 -283.5 -105.5t-166.5 -283.5z M600 1300l35 29l178 -217l-33 -29z" />
<glyph unicode="&#x451;" horiz-adv-x="1054" d="M195 465q35 206 175.5 336.5t327.5 130.5q186 0 273.5 -129.5t50.5 -341.5h-789q-34 -192 61.5 -311t283.5 -119q190 0 329 123l23 -31q-149 -133 -359 -133q-206 0 -310 130.5t-66 344.5zM242 502h745q19 179 -60 284t-235 105q-159 0 -283.5 -105.5t-166.5 -283.5z M498 1126q5 22 22 37t39 15t34 -15t7 -37q-3 -22 -20 -36.5t-39 -14.5t-34 14.5t-9 36.5zM866 1126q5 22 22.5 37t39.5 15t34 -15t7 -37q-3 -22 -20.5 -36.5t-39.5 -14.5t-34 14.5t-9 36.5z" />
<glyph unicode="&#x452;" horiz-adv-x="1089" d="M195 0l227 1290h-133l6 41h133l37 205h41l-37 -205h410l-7 -41h-409l-82 -459q144 101 319 101q155 0 234 -99.5t51 -259.5l-164 -925q-14 -81 -63 -123.5t-105 -42.5q-32 0 -41 6l6 31q64 0 107 32t55 97l164 925q25 141 -45.5 229.5t-206.5 88.5q-185 0 -321 -117 l-135 -774h-41z" />
<glyph unicode="&#x453;" horiz-adv-x="757" d="M195 0l161 922h461l-8 -41h-420l-153 -881h-41zM532 1112l256 217l23 -29l-254 -217z" />
<glyph unicode="&#x454;" horiz-adv-x="1003" d="M193 461q37 210 187.5 340.5t356.5 130.5q208 0 312 -135l-33 -29q-96 123 -287 123q-180 0 -314 -109.5t-175 -289.5h602l-8 -41h-603q-31 -189 65 -304.5t282 -115.5q190 0 329 123l23 -31q-149 -133 -359 -133q-206 0 -310.5 130t-67.5 341z" />
<glyph unicode="&#x455;" horiz-adv-x="778" d="M119 94l33 29q32 -46 92.5 -69t128.5 -23q63 0 115 20.5t83.5 54t49.5 68.5t24 70q9 51 -11 88t-58.5 60t-87 42.5t-96 40.5t-85.5 47.5t-57 71t-8 104.5q16 94 88 164t196 70q70 0 133.5 -24t100.5 -70l-35 -29q-29 37 -87 59.5t-120 22.5q-103 0 -163 -58.5t-72 -134.5 q-10 -52 10 -91t58.5 -62.5t86.5 -43.5t96 -40.5t86 -46.5t57 -69t9 -101q-16 -98 -98.5 -176t-220.5 -78q-79 0 -146 27.5t-102 76.5z" />
<glyph unicode="&#x456;" d="M195 0l161 922h41l-161 -922h-41zM375 1198q3 22 20 36.5t39 14.5t34 -14.5t9 -36.5q-5 -22 -22 -36.5t-39 -14.5t-33.5 14.5t-7.5 36.5z" />
<glyph unicode="&#x457;" d="M195 0l161 922h41l-161 -922h-41zM229 1137q4 22 22 36.5t40 14.5t33.5 -14.5t7.5 -36.5q-3 -22 -20.5 -37t-39.5 -15t-34 15t-9 37zM496 1137q5 22 22 36.5t39 14.5t33.5 -14.5t7.5 -36.5q-3 -22 -20 -37t-39 -15t-34 15t-9 37z" />
<glyph unicode="&#x458;" d="M-35 -512l6 31q63 0 105.5 32t54.5 97l225 1274h41l-225 -1274q-14 -81 -63 -123.5t-105 -42.5q-30 0 -39 6zM375 1198q3 22 20 36.5t39 14.5t34 -14.5t9 -36.5q-5 -22 -22 -36.5t-39 -14.5t-33.5 14.5t-7.5 36.5z" />
<glyph unicode="&#x459;" horiz-adv-x="1419" d="M96 0l4 31q88 0 148 48t78 146l123 697h532l-76 -430h246q114 0 171 -68t38 -178q-20 -110 -100.5 -178t-194.5 -68h-287l154 881h-451l-114 -656q-20 -113 -84 -172t-136 -59q-42 0 -51 6zM825 41h246q96 0 163.5 56t84.5 149q15 93 -32.5 149t-143.5 56h-246z" />
<glyph unicode="&#x45a;" horiz-adv-x="1480" d="M195 0l161 922h41l-75 -430h604l75 430h41l-75 -430h256q107 0 162 -68.5t36 -177.5q-20 -109 -98.5 -177.5t-185.5 -68.5h-297l78 451h-605l-77 -451h-41zM887 41h256q89 0 154.5 56.5t82.5 148.5q15 92 -31 148.5t-135 56.5h-256z" />
<glyph unicode="&#x45b;" horiz-adv-x="1089" d="M195 0l227 1290h-133l6 41h133l37 205h41l-37 -205h410l-7 -41h-409l-82 -459q144 101 319 101q155 0 234 -99.5t51 -259.5l-100 -573h-41l100 573q25 141 -45.5 229.5t-206.5 88.5q-185 0 -321 -117l-135 -774h-41z" />
<glyph unicode="&#x45c;" horiz-adv-x="897" d="M195 0l161 922h41l-161 -922h-41zM348 477l522 445h56l-523 -445l392 -477h-56zM561 1112l256 217l23 -29l-254 -217z" />
<glyph unicode="&#x45d;" horiz-adv-x="1116" d="M195 0l161 922h41l-151 -856l796 856h41l-161 -922h-41l149 856l-794 -856h-41zM621 1300l34 29l179 -217l-33 -29z" />
<glyph unicode="&#x45e;" horiz-adv-x="1085" d="M186 -512l334 512l-266 922h45l250 -877l561 877h45l-924 -1434h-45zM504 1231l37 31q82 -99 207 -99q122 0 239 99l25 -31q-125 -109 -273 -109q-144 0 -235 109z" />
<glyph unicode="&#x45f;" horiz-adv-x="1064" d="M195 0l161 922h41l-155 -881h594l155 881h41l-162 -922h-317l-45 -246h-41l45 246h-317z" />
<glyph unicode="&#x490;" horiz-adv-x="966" d="M205 0l252 1434h594l45 256h41l-54 -297h-594l-243 -1393h-41z" />
<glyph unicode="&#x491;" horiz-adv-x="747" d="M195 0l161 922h400l35 204h40l-43 -245h-399l-153 -881h-41z" />
<glyph unicode="&#x4d8;" horiz-adv-x="1556" d="M248 717l4 20h1270q44 297 -107 481.5t-442 184.5q-303 0 -522 -197l-25 29q111 101 253.5 155t301.5 54q156 0 279 -53t197 -148.5t103 -229.5t-1 -296q-57 -324 -274 -525.5t-509 -201.5q-193 0 -326.5 91t-186.5 256.5t-15 379.5zM285 696q-30 -197 21 -348 t174.5 -234t301.5 -83q270 0 471 183.5t260 481.5h-1228z" />
<glyph unicode="&#x4d9;" horiz-adv-x="1054" d="M193 461h788q34 192 -61.5 311t-282.5 119q-192 0 -328 -123l-24 31q149 133 360 133q206 0 310.5 -130.5t66.5 -344.5q-37 -206 -177 -336.5t-327 -130.5q-186 0 -274 129.5t-51 341.5zM229 420q-20 -179 58.5 -284t234.5 -105q159 0 284 105.5t169 283.5h-746z" />
<glyph unicode="&#x2000;" horiz-adv-x="890" />
<glyph unicode="&#x2001;" horiz-adv-x="1780" />
<glyph unicode="&#x2002;" horiz-adv-x="890" />
<glyph unicode="&#x2003;" horiz-adv-x="1780" />
<glyph unicode="&#x2004;" horiz-adv-x="593" />
<glyph unicode="&#x2005;" horiz-adv-x="445" />
<glyph unicode="&#x2006;" horiz-adv-x="296" />
<glyph unicode="&#x2007;" horiz-adv-x="296" />
<glyph unicode="&#x2008;" horiz-adv-x="222" />
<glyph unicode="&#x2009;" horiz-adv-x="356" />
<glyph unicode="&#x200a;" horiz-adv-x="98" />
<glyph unicode="&#x2010;" horiz-adv-x="696" d="M254 512l6 41h369l-6 -41h-369z" />
<glyph unicode="&#x2011;" horiz-adv-x="696" d="M254 512l6 41h369l-6 -41h-369z" />
<glyph unicode="&#x2012;" horiz-adv-x="1024" d="M285 696l8 41h696l-8 -41h-696z" />
<glyph unicode="&#x2013;" horiz-adv-x="1024" d="M254 512l6 41h696l-6 -41h-696z" />
<glyph unicode="&#x2014;" horiz-adv-x="1433" d="M254 512l6 41h1106l-6 -41h-1106z" />
<glyph unicode="&#x2018;" d="M387 1260q15 86 129 184l23 -27q-90 -74 -97 -123q22 0 35 -14.5t10 -36.5q-5 -22 -22.5 -36.5t-40.5 -14.5q-50 0 -37 68z" />
<glyph unicode="&#x2019;" d="M356 1219q87 72 97 122q-22 0 -35 15t-10 37q5 22 22.5 36.5t40.5 14.5q50 0 37 -68q-15 -86 -129 -184z" />
<glyph unicode="&#x201a;" d="M119 -133q87 74 96 123q-22 0 -35 14.5t-10 36.5t20.5 36.5t40.5 14.5q49 0 39 -67q-15 -88 -129 -185z" />
<glyph unicode="&#x201c;" horiz-adv-x="634" d="M387 1260q15 86 129 184l23 -27q-90 -74 -97 -123q22 0 35 -14.5t10 -36.5q-5 -22 -22.5 -36.5t-40.5 -14.5q-50 0 -37 68zM592 1260q15 86 129 184l22 -27q-89 -73 -96 -123q22 0 35 -14.5t10 -36.5q-5 -22 -22.5 -36.5t-40.5 -14.5q-50 0 -37 68z" />
<glyph unicode="&#x201d;" horiz-adv-x="634" d="M356 1219q87 72 97 122q-22 0 -35 15t-10 37q5 22 22.5 36.5t40.5 14.5q50 0 37 -68q-15 -86 -129 -184zM561 1219q86 71 96 122q-22 0 -35 15t-10 37q5 22 23 36.5t41 14.5q50 0 37 -68q-15 -86 -129 -184z" />
<glyph unicode="&#x201e;" horiz-adv-x="634" d="M119 -133q87 74 96 123q-22 0 -35 14.5t-10 36.5t20.5 36.5t40.5 14.5q49 0 39 -67q-15 -88 -129 -185zM324 -133q87 74 96 123q-22 0 -35 14.5t-10 36.5t20.5 36.5t40.5 14.5q49 0 39 -67q-15 -88 -129 -185z" />
<glyph unicode="&#x2020;" horiz-adv-x="1024" d="M317 881l9 41h327l109 614h41l-109 -614h328l-8 -41h-328l-246 -1393h-41l246 1393h-328z" />
<glyph unicode="&#x2021;" horiz-adv-x="1024" d="M193 164l6 41h327l119 676h-328l9 41h327l109 614h41l-109 -614h328l-8 -41h-328l-119 -676h328l-6 -41h-328l-121 -676h-41l121 676h-327z" />
<glyph unicode="&#x2022;" horiz-adv-x="532" d="M262 563q8 43 43 73t78 30t67.5 -30t16.5 -73q-7 -43 -42.5 -72.5t-78.5 -29.5t-67.5 29.5t-16.5 72.5z" />
<glyph unicode="&#x2026;" horiz-adv-x="1290" d="M170 41q3 22 20 36.5t39 14.5t34 -14.5t9 -36.5t-20 -36.5t-39 -14.5t-34 14.5t-9 36.5zM600 41q3 22 20 36.5t39 14.5t34 -14.5t9 -36.5t-20 -36.5t-39 -14.5t-34 14.5t-9 36.5zM1030 41q3 22 20.5 36.5t39.5 14.5t34 -14.5t9 -36.5t-20.5 -36.5t-39.5 -14.5t-34 14.5 t-9 36.5z" />
<glyph unicode="&#x202f;" horiz-adv-x="356" />
<glyph unicode="&#x2030;" horiz-adv-x="2400" d="M299 1126q26 141 127.5 229.5t237.5 88.5q137 0 206 -88.5t43 -229.5q-25 -141 -125.5 -229t-236.5 -88q-137 0 -207 88t-45 229zM340 1126q-22 -123 39 -199.5t180 -76.5q118 0 204.5 76.5t108.5 199.5q23 123 -37.5 200t-179.5 77q-118 0 -205 -77t-110 -200zM428 0 l983 1434h47l-983 -1434h-47zM969 307q25 141 125.5 229.5t236.5 88.5t206.5 -88.5t45.5 -229.5t-125.5 -229t-236.5 -88q-137 0 -207 88t-45 229zM1010 307q-22 -123 38.5 -199.5t178.5 -76.5q119 0 206 76.5t109 199.5t-38.5 200t-178.5 77t-205.5 -77t-109.5 -200z M1737 307q25 141 125.5 229.5t236.5 88.5t206.5 -88.5t45.5 -229.5t-125.5 -229t-236.5 -88q-137 0 -207 88t-45 229zM1778 307q-22 -123 38.5 -199.5t178.5 -76.5q119 0 206 76.5t109 199.5t-38.5 200t-178.5 77t-205.5 -77t-109.5 -200z" />
<glyph unicode="&#x2039;" horiz-adv-x="634" d="M193 512l399 340l22 -29l-364 -311l256 -311l-35 -29z" />
<glyph unicode="&#x203a;" horiz-adv-x="634" d="M178 201l367 311l-258 311l35 29l280 -340l-401 -340z" />
<glyph unicode="&#x2044;" horiz-adv-x="1085" d="M154 0l983 1434h47l-983 -1434h-47z" />
<glyph unicode="&#x205f;" horiz-adv-x="445" />
<glyph unicode="&#x20ac;" horiz-adv-x="1552" d="M199 553l8 41h129q3 66 14 123q7 48 29 123h-129l6 41h137q93 257 306.5 410t486.5 153q157 0 280 -54.5t201 -154.5l-37 -31q-72 95 -187 147t-265 52q-253 0 -453.5 -142t-290.5 -380h651l-6 -41h-657q-26 -90 -31 -123q-11 -57 -14 -123h659l-8 -41h-651 q6 -239 156 -380.5t403 -141.5q304 0 522 196l27 -28q-236 -209 -555 -209q-274 0 -433 152.5t-161 410.5h-137z" />
<glyph unicode="&#x20b4;" horiz-adv-x="849" d="M164 297q16 86 57 142.5t117 119.5l16 14h-141l6 41h182l242 205h-387l8 41h426l47 39q47 40 71.5 64.5t51 70.5t35.5 101q22 118 -44.5 193t-191.5 75q-169 0 -292 -123l-25 31q139 133 326 133q145 0 219 -85t49 -222q-14 -85 -55 -141.5t-117 -121.5l-16 -14h141 l-8 -41h-183l-239 -205h385l-6 -41h-428l-45 -38q-48 -39 -73 -64.5t-51.5 -71t-35.5 -100.5q-20 -119 45.5 -193.5t189.5 -74.5q169 0 295 123l23 -31q-136 -133 -324 -133q-145 0 -220 85.5t-50 221.5z" />
<glyph unicode="&#x2122;" horiz-adv-x="1411" d="M303 1397l6 37h477l-6 -37h-217l-121 -680h-43l121 680h-217zM780 717l127 717h33l207 -486l379 486h35l-127 -717h-43l110 629l-350 -453h-27l-192 453l-111 -629h-41z" />
<glyph unicode="&#x25fc;" horiz-adv-x="921" d="M0 0v922h922v-922h-922z" />
<glyph horiz-adv-x="1724" d="M47 -307l62 348h131l852 1393h45l360 -1393h131l-61 -348h-41l55 307h-1438l-55 -307h-41zM287 41h1163l-344 1345z" />
<glyph horiz-adv-x="1499" d="M92 0l887 1434h45l383 -1434h-47l-367 1386l-854 -1386h-47z" />
<glyph horiz-adv-x="1996" d="M92 0l887 1434h45l182 -686h430q165 0 248.5 -102.5t54.5 -270.5q-31 -170 -150 -272.5t-284 -102.5h-145l-367 1386l-854 -1386h-47zM1217 707l178 -666h116q148 0 253.5 91.5t133.5 242.5q26 149 -48 240.5t-222 91.5h-411z" />
<glyph horiz-adv-x="1269" d="M57 -246l52 287h110l555 881h45l242 -881h113l-52 -287h-41l45 246h-983l-45 -246h-41zM264 41h752l-228 836z" />
<glyph horiz-adv-x="1085" d="M92 0l590 922h45l266 -922h-45l-252 877l-559 -877h-45z" />
<glyph horiz-adv-x="1419" d="M92 0l590 922h45l123 -430h301q114 0 171 -68t38 -178q-20 -110 -100.5 -178t-194.5 -68h-117l-252 877l-559 -877h-45zM862 451l117 -410h92q96 0 163.5 56t84.5 149q15 93 -32.5 149t-143.5 56h-281z" />
<glyph horiz-adv-x="1103" d="M94 -387l35 29q44 -59 117.5 -91t163.5 -32q168 0 288.5 104.5t151.5 274.5l33 188q-138 -96 -312 -96q-206 0 -310.5 130t-67.5 341t185 341t353 130q215 0 322 -113l-162 -921q-34 -188 -167.5 -304t-320.5 -116q-99 0 -179 35t-130 100zM233 461q-34 -192 61.5 -311 t283.5 -119q180 0 313 108l117 660q-98 92 -285 92t-321.5 -118.5t-168.5 -311.5z" />
<glyph horiz-adv-x="1085" d="M208 336.5q-26 161.5 9 380.5q57 324 218 525.5t362 201.5q132 0 219 -92.5t112 -254t-10 -380.5q-57 -324 -216.5 -525.5t-360.5 -201.5q-133 0 -220 92.5t-113 254zM246.5 357.5q22.5 -152.5 101 -239.5t199.5 -87q183 0 329.5 190t200.5 496q34 207 11.5 359.5 t-101 239.5t-199.5 87q-183 0 -329.5 -190t-200.5 -496q-34 -207 -11.5 -359.5z" />
<glyph horiz-adv-x="1634" d="M238 717q38 213 156 379t295 257t384 91q162 0 286.5 -53t196.5 -144t99 -212.5t2 -258.5q-15 -88 -47.5 -159t-73 -116.5t-88.5 -76t-93 -43t-89 -12.5q-59 0 -99 18t-49 51q-97 -69 -225 -69q-152 0 -230.5 96.5t-50.5 251.5q28 156 138 252t262 96q159 0 237 -84 l-90 -512q-4 -28 27.5 -43.5t87.5 -15.5q50 0 99 18t98.5 57.5t88.5 114t56 176.5q17 84 9.5 163.5t-30 149t-70 127.5t-111 99.5t-152 64.5t-193.5 23q-301 0 -518 -188t-272 -498q-54 -311 96 -498.5t454 -187.5q159 0 304.5 52t250.5 148l23 -24q-114 -103 -267.5 -160 t-318.5 -57q-210 0 -355.5 91t-205.5 256.5t-22 379.5zM653 717q-25 -142 42.5 -224.5t205.5 -82.5q127 0 219 71l84 482q-67 61 -198 61q-139 0 -233.5 -82.5t-119.5 -224.5z" />
<glyph horiz-adv-x="624" d="M256.5 282.5q-8.5 184.5 32.5 434.5q65 365 198 597t267 232l-9 -41q-116 0 -235.5 -222t-179.5 -568q-40 -237 -35 -412t50.5 -276t121.5 -101l-6 -39q-88 0 -142 105.5t-62.5 290z" />
<glyph horiz-adv-x="624" d="M123 -113l6 41q116 0 236 222t180 567q41 238 36 413t-51 275t-122 100l8 41q88 0 142 -105t62 -289.5t-34 -434.5q-63 -364 -196 -597t-267 -233z" />
<glyph horiz-adv-x="604" d="M176 -102l289 1638h266l-8 -41h-225l-275 -1556h226l-7 -41h-266z" />
<glyph horiz-adv-x="604" d="M125 -102l6 41h225l275 1556h-225l8 41h266l-289 -1638h-266z" />
<glyph horiz-adv-x="675" d="M223 696l8 41q91 0 168.5 85t100.5 218l30 170q26 147 117 241.5t199 94.5l-8 -41q-91 0 -168 -84.5t-101 -216.5l-28 -170q-21 -118 -85 -202.5t-149 -114.5q73 -31 107 -116.5t14 -201.5l-31 -170q-23 -132 24 -216.5t138 -84.5l-6 -41q-108 0 -165.5 94.5t-31.5 241.5 l29 170q24 133 -23.5 218t-138.5 85z" />
<glyph horiz-adv-x="675" d="M82 -113l6 41q91 0 168 85t100 216l31 170q20 116 83.5 201t147.5 117q-72 30 -105.5 115t-12.5 202l28 170q24 131 -23 216t-138 85l8 41q108 0 165 -94.5t31 -241.5l-30 -170q-23 -133 23.5 -218t137.5 -85l-8 -41q-91 0 -167.5 -85t-100.5 -218l-29 -170 q-26 -147 -116.5 -241.5t-198.5 -94.5z" />
<glyph d="M195 0l188 1075h41l-188 -1075h-41zM408 1393q5 22 22 36.5t39 14.5t33.5 -14.5t7.5 -36.5q-3 -22 -20 -37t-39 -15t-34 15t-9 37z" />
<glyph horiz-adv-x="946" d="M166.5 243q-0.5 50 5.5 101q12 65 39 115.5t61.5 83.5t75 62t81 60t76 68t64 95.5t41.5 134.5l21 112h41l-21 -112q-13 -72 -37 -129.5t-53.5 -94.5t-65 -70t-70 -55.5t-69 -50t-62.5 -55t-50 -69.5t-31 -95q-8 -36 -5.5 -73.5t10.5 -72t29 -65t51 -53.5t76 -36t103 -13 q97 0 197.5 36t167.5 99l24 -31q-76 -71 -182 -108t-211 -37q-78 0 -137 20.5t-93 55.5t-55 81t-21.5 96zM655 1393q4 22 22 36.5t40 14.5t33.5 -14.5t7.5 -36.5q-3 -22 -20.5 -37t-39.5 -15t-34 15t-9 37z" />
<glyph horiz-adv-x="962" d="M227 717l400 340l24 -29l-366 -311l256 -311l-33 -29zM555 717l399 340l25 -29l-367 -311l256 -311l-32 -29z" />
<glyph horiz-adv-x="962" d="M213 406l367 311l-256 311l32 29l281 -340l-399 -340zM541 406l366 311l-256 311l33 29l281 -340l-400 -340z" />
<glyph horiz-adv-x="1085" d="M279 0l6 41h250l237 1350l-270 -50l8 41l311 58l-246 -1399h250l-6 -41h-540z" />
<glyph horiz-adv-x="634" d="M213 406l367 311l-256 311l32 29l281 -340l-399 -340z" />
<glyph horiz-adv-x="696" d="M285 696l8 41h369l-9 -41h-368z" />
<glyph horiz-adv-x="1024" d="M285 696l8 41h696l-8 -41h-696z" />
<glyph horiz-adv-x="1433" d="M285 696l8 41h1106l-8 -41h-1106z" />
<glyph d="M176 -102l289 1638h41l-289 -1638h-41z" />
<glyph horiz-adv-x="1024" d="M346 1034l6 41h328l82 461h41l-82 -461h328l-7 -41h-327l-201 -1136h-41l201 1136h-328z" />
<glyph horiz-adv-x="1024" d="M238 420l6 41h327l103 573h-328l6 41h328l82 461h41l-82 -461h328l-7 -41h-327l-103 -573h328l-6 -41h-328l-92 -522h-41l92 522h-327z" />
<glyph horiz-adv-x="1167" d="M86 0l657 1032h43l295 -1032h-45l-104 358h-574l-225 -358h-47zM385 397h539l-168 586z" />
<glyph horiz-adv-x="860" d="M170 0l180 1032h252q121 0 183 -71t40 -189q-15 -83 -65 -143t-125 -90q93 -20 137 -90.5t25 -172.5q-22 -125 -112.5 -200.5t-217.5 -75.5h-297zM217 39h256q109 0 186.5 65t96.5 172q19 106 -35.5 171t-163.5 65h-256zM307 551h211q102 0 175.5 61t90.5 160 q17 100 -35 160.5t-153 60.5h-211z" />
<glyph horiz-adv-x="1128" d="M201 516q41 233 213.5 378.5t408.5 145.5q241 0 365 -149l-35 -31q-114 139 -334 139q-218 0 -378.5 -134t-198.5 -349t74.5 -349t330.5 -134q227 0 383 137l27 -29q-176 -149 -418 -149q-236 0 -357.5 145.5t-80.5 378.5z" />
<glyph horiz-adv-x="1095" d="M170 0l180 1032h283q237 0 360 -142t82 -374t-213 -374t-409 -142h-283zM217 39h242q220 0 376.5 131t194.5 346t-72.5 346t-330.5 131h-242z" />
<glyph horiz-adv-x="835" d="M170 0l180 1032h549l-6 -39h-508l-80 -450h455l-6 -39h-455l-82 -465h514l-6 -39h-555z" />
<glyph horiz-adv-x="786" d="M170 0l180 1032h518l-6 -39h-477l-80 -450h418l-6 -39h-418l-88 -504h-41z" />
<glyph horiz-adv-x="1202" d="M201 516q41 233 213.5 378.5t408.5 145.5q241 0 365 -149l-35 -31q-114 139 -334 139q-218 0 -378.5 -134t-198.5 -349t74.5 -349t330.5 -134q216 0 369 125l57 323h-348l6 39h391l-65 -379q-175 -149 -418 -149q-236 0 -357.5 145.5t-80.5 378.5z" />
<glyph horiz-adv-x="1116" d="M170 0l180 1032h41l-86 -489h692l86 489h43l-180 -1032h-43l88 504h-692l-88 -504h-41z" />
<glyph horiz-adv-x="364" d="M162 0l180 1032h41l-180 -1032h-41z" />
<glyph horiz-adv-x="364" d="M162 0l180 1032h41l-180 -1032h-41zM348 1188q3 19 16.5 31t32.5 12t29.5 -12t7.5 -31q-3 -17 -17.5 -29t-33.5 -12t-28.5 12t-6.5 29z" />
<glyph horiz-adv-x="741" d="M109 72l32 28q51 -67 162 -67q106 0 184.5 65t98.5 170l133 764h41l-133 -764q-23 -124 -114 -200t-216 -76q-124 0 -188 80z" />
<glyph horiz-adv-x="915" d="M162 0l180 1032h41l-180 -1032h-41zM340 528l578 504h53l-578 -504l428 -528h-53z" />
<glyph horiz-adv-x="763" d="M170 0l180 1032h41l-174 -993h457l-6 -39h-498z" />
<glyph horiz-adv-x="763" d="M170 0l180 1032h41l-174 -993h457l-6 -39h-498zM600 479q3 19 16.5 31t32.5 12t29.5 -12t7.5 -31t-17.5 -31t-33.5 -12t-28.5 12t-6.5 31z" />
<glyph horiz-adv-x="1306" d="M170 0l180 1032h35l322 -723l575 723h35l-180 -1032h-41l166 942l-545 -680h-37l-303 680l-166 -942h-41z" />
<glyph horiz-adv-x="1146" d="M170 0l180 1032h37l561 -958l168 958h41l-180 -1032h-37l-561 958l-168 -958h-41z" />
<glyph horiz-adv-x="1284" d="M201 516q41 233 213.5 378.5t408.5 145.5q238 0 360 -145.5t81 -378.5t-214 -378.5t-411 -145.5q-236 0 -357.5 145.5t-80.5 378.5zM242 516q-38 -215 74 -349t329 -134q219 0 378.5 133.5t197.5 349.5t-73.5 349.5t-330.5 133.5q-217 0 -377 -134t-198 -349z" />
<glyph horiz-adv-x="819" d="M170 0l180 1032h258q127 0 191.5 -74t42.5 -198q-22 -123 -113 -198t-217 -75h-217l-84 -487h-41zM303 528h217q107 0 184.5 64t96.5 168t-36.5 168.5t-162.5 64.5h-217z" />
<glyph horiz-adv-x="1284" d="M201 516q41 233 213.5 378.5t408.5 145.5q238 0 360 -145.5t81 -378.5q-39 -225 -207 -373l137 -157l-33 -29l-137 160q-166 -125 -385 -125q-236 0 -357.5 145.5t-80.5 378.5zM242 516q-38 -215 73.5 -349t329.5 -134q210 0 352 112l-168 195l33 29l170 -193 q152 133 189 340q38 215 -74 349t-330 134t-377.5 -134t-197.5 -349z" />
<glyph horiz-adv-x="835" d="M170 0l180 1032h266q127 0 191.5 -74t42.5 -198q-22 -118 -106.5 -192.5t-204.5 -80.5l211 -487h-50l-208 487h-197l-84 -487h-41zM303 528h225q107 0 184.5 64t96.5 168t-36.5 168.5t-162.5 64.5h-225z" />
<glyph horiz-adv-x="817" d="M111 111l32 28q37 -54 107 -80t147 -26q72 0 131.5 23t96 60t58 76.5t28.5 79.5q10 56 -13 98t-67.5 68t-99.5 48t-109.5 46t-98 54.5t-65.5 80.5t-10 117q8 48 30.5 91.5t60.5 81.5t97.5 60.5t132.5 22.5q80 0 150.5 -27t111.5 -79l-34 -31q-33 45 -98 70.5t-136 25.5 q-118 0 -188 -65.5t-84 -149.5q-10 -58 12.5 -102t66.5 -71t98.5 -49.5t109 -46.5t98 -53t65.5 -77.5t11 -112.5q-9 -50 -35 -97.5t-68.5 -89.5t-109 -67.5t-146.5 -25.5q-89 0 -165 32t-117 87z" />
<glyph horiz-adv-x="899" d="M270 993l6 39h711l-6 -39h-336l-174 -993h-41l174 993h-334z" />
<glyph horiz-adv-x="1085" d="M152 0l8 57l760 639q125 107 161 312q31 175 -52.5 285t-246.5 110t-284 -110t-152 -285h-41q35 195 169.5 315.5t316.5 120.5q183 0 274.5 -120.5t56.5 -315.5q-41 -226 -176 -340l-745 -627h751l-6 -41h-794z" />
<glyph horiz-adv-x="1085" d="M186 399h41q-29 -164 58 -266t256 -102q170 0 293.5 102t152.5 266t-58 266.5t-257 102.5h-94l6 41h94q133 0 231 82.5t121 214.5t-46 214.5t-202 82.5q-132 0 -228.5 -82.5t-119.5 -214.5h-41q26 151 136.5 244.5t261.5 93.5q152 0 229 -93.5t51 -244.5 q-21 -114 -93 -197.5t-175 -117.5q129 -34 190 -139t35 -253q-32 -183 -168 -296t-325 -113q-188 0 -284.5 113t-64.5 296z" />
<glyph horiz-adv-x="1085" d="M158 307l6 41l858 1086h49l-192 -1086h141l-6 -41h-142l-53 -307h-41l53 307h-673zM213 348h625l180 1016z" />
<glyph horiz-adv-x="1085" d="M195 383h41q-28 -157 57 -254.5t248 -97.5t285 110t153 285q34 192 -57 311t-271 119q-189 0 -319 -102l-23 28l215 652h574l-8 -41h-537l-193 -574q125 78 299 78q198 0 298 -130t63 -341q-34 -195 -168 -315.5t-317 -120.5q-182 0 -276.5 109t-63.5 284z" />
<glyph horiz-adv-x="1085" d="M184 430q6 36 11 59t18.5 56t25 54.5t42.5 68.5t58.5 83.5t86.5 114t112 145.5t149 192t185 241l31 -21l-475 -624q123 71 266 71q194 0 293.5 -122t65.5 -318q-35 -197 -177 -318.5t-335 -121.5q-194 0 -293 122t-64 318zM225 430q-32 -178 57.5 -288.5t264.5 -110.5 t304 110.5t161 288.5q31 178 -59 288.5t-265 110.5t-303.5 -110.5t-159.5 -288.5z" />
<glyph horiz-adv-x="1085" d="M326 0l815 1393h-756l8 41h803l-8 -41l-815 -1393h-47z" />
<glyph horiz-adv-x="1085" d="M186 399q26 148 125.5 253t243.5 139q-96 34 -139 117t-21 198q26 151 138 244.5t264 93.5t230 -93.5t52 -244.5q-22 -114 -94 -197.5t-176 -117.5q130 -34 192.5 -139t36.5 -253q-32 -183 -169.5 -296t-327.5 -113q-191 0 -289 113t-66 296zM227 399q-29 -164 59.5 -266 t260.5 -102t296.5 102t153.5 266t-59 266.5t-260 102.5t-297 -102.5t-154 -266.5zM436 1106q-23 -132 46 -214.5t202 -82.5q134 0 232.5 82.5t121.5 214.5t-46.5 214.5t-203.5 82.5q-133 0 -231 -82.5t-121 -214.5z" />
<glyph horiz-adv-x="1085" d="M283 1004q34 196 176.5 318t337.5 122t293.5 -121.5t64.5 -318.5q-7 -40 -15.5 -68.5t-18.5 -57t-37.5 -70t-52.5 -79t-86 -116t-115 -148.5t-161.5 -208.5t-205.5 -266.5l-33 20l477 625q-125 -72 -266 -72q-195 0 -294 122t-64 319zM324 1004q-32 -178 58 -289 t267 -111t305 110.5t160 289.5q31 179 -59 289t-267 110t-305 -110t-159 -289z" />
<glyph horiz-adv-x="634" d="M227 717l400 340l24 -29l-366 -311l256 -311l-33 -29z" />
<glyph horiz-adv-x="1167" d="M266 1032h47l279 -981l622 981h48l-656 -1032h-43z" />
<glyph horiz-adv-x="1832" d="M266 1032h47l224 -975l538 975h43l195 -975l567 975h47l-600 -1032h-45l-197 969l-534 -969h-45z" />
<glyph horiz-adv-x="1122" d="M94 0l529 520l-340 512h53l321 -481l490 481h53l-522 -512l350 -520h-53l-328 492l-500 -492h-53z" />
<glyph horiz-adv-x="1042" d="M266 1032h51l293 -518l475 518h52l-514 -561l-82 -471h-41l82 471z" />
<glyph horiz-adv-x="1001" d="M111 0l4 31l886 962h-704l6 39h760l-4 -31l-887 -962h725l-6 -39h-780z" />
<glyph horiz-adv-x="1167" d="M86 0l657 1032h43l295 -1032h-45l-104 358h-574l-225 -358h-47zM385 397h539l-168 586z" />
<glyph horiz-adv-x="856" d="M170 0l180 1032h498l-6 -39h-457l-80 -448h254q126 0 191 -75t43 -198q-22 -124 -111.5 -198t-216.5 -74h-295zM217 39h254q107 0 184.5 64.5t96.5 168.5t-36.5 168t-162.5 64h-254z" />
<glyph horiz-adv-x="860" d="M170 0l180 1032h252q121 0 183 -71t40 -189q-15 -83 -65 -143t-125 -90q93 -20 137 -90.5t25 -172.5q-22 -125 -112.5 -200.5t-217.5 -75.5h-297zM217 39h256q109 0 186.5 65t96.5 172q19 106 -35.5 171t-163.5 65h-256zM307 551h211q102 0 175.5 61t90.5 160 q17 100 -35 160.5t-153 60.5h-211z" />
<glyph horiz-adv-x="765" d="M170 0l180 1032h498l-6 -39h-457l-174 -993h-41z" />
<glyph horiz-adv-x="1071" d="M53 -221l47 260q184 0 224 227l135 766h590l-175 -993h109l-47 -260h-41l41 221h-801l-41 -221h-41zM229 39h605l167 954h-507l-129 -727q-27 -164 -136 -227z" />
<glyph horiz-adv-x="835" d="M170 0l180 1032h549l-6 -39h-508l-80 -450h455l-6 -39h-455l-82 -465h514l-6 -39h-555z" />
<glyph horiz-adv-x="835" d="M170 0l180 1032h549l-6 -39h-508l-80 -450h455l-6 -39h-455l-82 -465h514l-6 -39h-555zM473 1174q1 17 15.5 28.5t33.5 11.5q17 0 27 -11.5t8 -28.5q-5 -19 -18.5 -31.5t-30.5 -12.5q-19 0 -29 12.5t-6 31.5zM752 1174q1 17 15 28.5t32 11.5t28.5 -11t8.5 -29 q-5 -19 -19.5 -31.5t-32.5 -12.5q-17 0 -26.5 12.5t-5.5 31.5z" />
<glyph horiz-adv-x="1370" d="M92 0l567 528l-364 504h51l365 -504l-568 -528h-51zM664 0l180 1032h41l-180 -1032h-41zM842 528l540 504h50l-539 -504l383 -528h-51z" />
<glyph horiz-adv-x="860" d="M121 141l33 29q54 -70 120.5 -104.5t157.5 -34.5q132 0 218.5 66.5t105.5 178.5q19 106 -35.5 171t-163.5 65h-168l6 39h123q104 0 176 60.5t92 168.5q18 101 -28 161t-158 60q-150 0 -305 -127l-25 29q166 137 336 137q131 0 187.5 -71t35.5 -189q-32 -179 -192 -241 q91 -21 134.5 -90.5t25.5 -174.5q-23 -130 -122 -206t-247 -76q-100 0 -173.5 36.5t-133.5 112.5z" />
<glyph horiz-adv-x="1144" d="M170 0l180 1032h41l-168 -958l895 958h37l-180 -1032h-41l168 958l-895 -958h-37z" />
<glyph horiz-adv-x="1144" d="M170 0l180 1032h41l-168 -958l895 958h37l-180 -1032h-41l168 958l-895 -958h-37zM592 1208l31 27q63 -70 155 -70q88 0 178 70l23 -27q-100 -80 -207 -80q-113 0 -180 80z" />
<glyph horiz-adv-x="915" d="M162 0l180 1032h41l-180 -1032h-41zM340 528l578 504h53l-578 -504l428 -528h-53z" />
<glyph horiz-adv-x="1054" d="M90 0l4 29q87 0 145.5 46t75.5 138l144 819h606l-180 -1032h-43l174 993h-522l-138 -774q-19 -106 -81 -164.5t-134 -58.5q-45 0 -51 4z" />
<glyph horiz-adv-x="1306" d="M170 0l180 1032h35l322 -723l575 723h35l-180 -1032h-41l166 942l-545 -680h-37l-303 680l-166 -942h-41z" />
<glyph horiz-adv-x="1116" d="M170 0l180 1032h41l-86 -489h692l86 489h43l-180 -1032h-43l88 504h-692l-88 -504h-41z" />
<glyph horiz-adv-x="1284" d="M201 516q41 233 213.5 378.5t408.5 145.5q238 0 360 -145.5t81 -378.5t-214 -378.5t-411 -145.5q-236 0 -357.5 145.5t-80.5 378.5zM242 516q-38 -215 74 -349t329 -134q219 0 378.5 133.5t197.5 349.5t-73.5 349.5t-330.5 133.5q-217 0 -377 -134t-198 -349z" />
<glyph horiz-adv-x="1083" d="M170 0l180 1032h744l-181 -1032h-41l175 993h-662l-174 -993h-41z" />
<glyph horiz-adv-x="819" d="M170 0l180 1032h258q127 0 191.5 -74t42.5 -198q-22 -123 -113 -198t-217 -75h-217l-84 -487h-41zM303 528h217q107 0 184.5 64t96.5 168t-36.5 168.5t-162.5 64.5h-217z" />
<glyph horiz-adv-x="1128" d="M201 516q41 233 213.5 378.5t408.5 145.5q241 0 365 -149l-35 -31q-114 139 -334 139q-218 0 -378.5 -134t-198.5 -349t74.5 -349t330.5 -134q227 0 383 137l27 -29q-176 -149 -418 -149q-236 0 -357.5 145.5t-80.5 378.5z" />
<glyph horiz-adv-x="899" d="M270 993l6 39h711l-6 -39h-336l-174 -993h-41l174 993h-334z" />
<glyph horiz-adv-x="978" d="M266 1032h45l242 -661l473 661h47l-737 -1032h-45l231 324z" />
<glyph horiz-adv-x="1161" d="M201 516q32 184 177 299t345 115l16 102h43l-16 -102q199 0 303 -114.5t72 -299.5q-32 -184 -177.5 -299t-345.5 -115l-16 -102h-43l16 102q-199 0 -302.5 114.5t-71.5 299.5zM242 516q-29 -166 66 -269.5t276 -103.5l131 746q-181 0 -312.5 -103.5t-160.5 -269.5z M627 143q183 0 313.5 103.5t159.5 269.5t-65 269.5t-277 103.5z" />
<glyph horiz-adv-x="1122" d="M94 0l529 520l-340 512h53l321 -481l490 481h53l-522 -512l350 -520h-53l-328 492l-500 -492h-53z" />
<glyph horiz-adv-x="1161" d="M170 0l180 1032h41l-174 -993h707l174 993h43l-174 -993h106l-47 -260h-41l41 221h-856z" />
<glyph horiz-adv-x="935" d="M303 764l47 268h41l-47 -268q-22 -123 31 -194.5t192 -71.5q152 0 250 34l88 500h41l-180 -1032h-41l86 494q-112 -33 -254 -33q-149 0 -214.5 77.5t-39.5 225.5z" />
<glyph horiz-adv-x="1648" d="M170 0l180 1032h41l-174 -993h592l174 993h41l-174 -993h592l174 993h43l-180 -1032h-1309z" />
<glyph horiz-adv-x="1679" d="M170 0l180 1032h41l-174 -993h592l174 993h41l-174 -993h592l174 993h43l-174 -993h106l-47 -260h-41l41 221h-1374z" />
<glyph horiz-adv-x="1005" d="M270 993l6 39h287l-86 -487h232q126 0 190.5 -75t42.5 -198q-22 -124 -111.5 -198t-216.5 -74h-272l174 993h-246zM389 39h232q107 0 184 64.5t96 168.5t-36.5 168t-162.5 64h-231z" />
<glyph horiz-adv-x="1122" d="M170 0l180 1032h41l-86 -487h234q125 0 190 -75.5t43 -197.5q-22 -124 -112.5 -198t-215.5 -74h-274zM217 39h234q107 0 183 64t95 169q19 104 -35.5 168t-161.5 64h-233zM911 0l181 1032h41l-181 -1032h-41z" />
<glyph horiz-adv-x="835" d="M170 0l180 1032h41l-86 -487h234q125 0 190 -75.5t43 -197.5q-22 -124 -112.5 -198t-215.5 -74h-274zM217 39h234q107 0 183 64t95 169q19 104 -35.5 168t-161.5 64h-233z" />
<glyph horiz-adv-x="1128" d="M121 141l33 29q112 -137 335 -137q216 0 374.5 129.5t199.5 341.5h-606l6 39h606q29 204 -83.5 330t-323.5 126q-228 0 -386 -139l-24 31q176 149 416 149q238 0 359.5 -145.5t80.5 -378.5t-214 -378.5t-411 -145.5t-362 149z" />
<glyph horiz-adv-x="1622" d="M170 0l180 1032h41l-86 -489h346q47 222 202 359.5t361 137.5q214 0 321.5 -145.5t66.5 -378.5t-199.5 -378.5t-372.5 -145.5q-211 0 -316.5 141t-68.5 371h-346l-88 -504h-41zM688 516q-38 -215 58.5 -349t289.5 -134q195 0 341 134t184 349t-60 349t-293 134 q-193 0 -337.5 -134t-182.5 -349z" />
<glyph horiz-adv-x="864" d="M100 0l375 487q-126 0 -189.5 75t-41.5 198q22 124 111.5 198t215.5 74h303l-180 -1032h-41l84 487h-219l-368 -487h-50zM285 760q-19 -104 36 -168t162 -64h262l82 465h-262q-107 0 -184 -64.5t-96 -168.5z" />
<glyph horiz-adv-x="765" d="M170 0l180 1032h443l32 185h39l-39 -224h-440l-174 -993h-41z" />
<glyph horiz-adv-x="1124" d="M270 993l6 39h711l-6 -39h-336l-76 -436q106 72 236 72q117 0 176 -72.5t39 -189.5l-43 -246q-11 -61 -49.5 -93t-83.5 -32q-29 0 -31 4l4 29q46 0 78 23t41 69l43 246q17 98 -34.5 159.5t-149.5 61.5q-138 0 -236 -82l-88 -506h-41l174 993h-334z" />
<glyph horiz-adv-x="765" d="M170 0l180 1032h498l-6 -39h-457l-174 -993h-41zM547 1128l192 160l23 -26l-197 -160z" />
<glyph horiz-adv-x="1128" d="M201 516q41 233 213.5 378.5t408.5 145.5q241 0 365 -149l-35 -31q-114 139 -334 139q-212 0 -369.5 -126t-201.5 -330h717l-7 -39h-716q-34 -212 77 -341.5t328 -129.5q227 0 383 137l27 -29q-176 -149 -418 -149q-236 0 -357.5 145.5t-80.5 378.5z" />
<glyph horiz-adv-x="817" d="M111 111l32 28q37 -54 107 -80t147 -26q72 0 131.5 23t96 60t58 76.5t28.5 79.5q10 56 -13 98t-67.5 68t-99.5 48t-109.5 46t-98 54.5t-65.5 80.5t-10 117q8 48 30.5 91.5t60.5 81.5t97.5 60.5t132.5 22.5q80 0 150.5 -27t111.5 -79l-34 -31q-33 45 -98 70.5t-136 25.5 q-118 0 -188 -65.5t-84 -149.5q-10 -58 12.5 -102t66.5 -71t98.5 -49.5t109 -46.5t98 -53t65.5 -77.5t11 -112.5q-9 -50 -35 -97.5t-68.5 -89.5t-109 -67.5t-146.5 -25.5q-89 0 -165 32t-117 87z" />
<glyph horiz-adv-x="364" d="M162 0l180 1032h41l-180 -1032h-41z" />
<glyph horiz-adv-x="364" d="M162 0l180 1032h41l-180 -1032h-41zM238 1174q1 17 15.5 28.5t33.5 11.5q17 0 27.5 -11.5t9.5 -28.5q-4 -19 -19.5 -31.5t-32.5 -12.5q-19 0 -28.5 12.5t-5.5 31.5zM457 1174q1 17 15 28.5t32 11.5t28.5 -11t8.5 -29q-5 -19 -19.5 -31.5t-32.5 -12.5q-17 0 -26.5 12.5 t-5.5 31.5z" />
<glyph horiz-adv-x="741" d="M109 72l32 28q51 -67 162 -67q106 0 184.5 65t98.5 170l133 764h41l-133 -764q-23 -124 -114 -200t-216 -76q-124 0 -188 80z" />
<glyph horiz-adv-x="1476" d="M90 0l4 29q87 0 145.5 46t75.5 138l144 819h575l-86 -487h232q126 0 190.5 -75t42.5 -198q-22 -124 -111.5 -198t-216.5 -74h-272l174 993h-493l-138 -774q-19 -106 -81 -164.5t-134 -58.5q-45 0 -51 4zM860 39h232q107 0 184 64.5t96 168.5t-36 168t-162 64h-232z" />
<glyph horiz-adv-x="1464" d="M170 0l180 1032h41l-86 -487h588l86 487h43l-86 -487h231q125 0 190.5 -75.5t43.5 -197.5q-22 -124 -112.5 -198t-215.5 -74h-274l88 504h-588l-88 -504h-41zM848 39h231q107 0 184.5 64.5t96.5 168.5t-36.5 168t-162.5 64h-231z" />
<glyph horiz-adv-x="1124" d="M270 993l6 39h711l-6 -39h-336l-76 -436q106 72 236 72q117 0 176 -72.5t39 -189.5l-64 -367h-41l64 367q17 98 -34.5 159.5t-149.5 61.5q-138 0 -236 -82l-88 -506h-41l174 993h-334z" />
<glyph horiz-adv-x="915" d="M162 0l180 1032h41l-180 -1032h-41zM340 528l578 504h53l-578 -504l428 -528h-53zM590 1128l192 160l23 -26l-197 -160z" />
<glyph horiz-adv-x="978" d="M266 1032h45l242 -661l473 661h47l-737 -1032h-45l231 324zM508 1208l33 27q60 -70 153 -70q91 0 178 70l23 -27q-100 -80 -207 -80q-113 0 -180 80z" />
<glyph horiz-adv-x="1130" d="M170 0l180 1032h41l-174 -993h707l174 993h43l-180 -1032h-375l-41 -221h-41l41 221h-375z" />
<glyph horiz-adv-x="1144" d="M170 0l180 1032h41l-168 -958l895 958h37l-180 -1032h-41l168 958l-895 -958h-37zM668 1262l28 26l142 -160l-33 -26z" />
<glyph horiz-adv-x="835" d="M170 0l180 1032h549l-6 -39h-508l-80 -450h455l-6 -39h-455l-82 -465h514l-6 -39h-555zM543 1262l28 26l142 -160l-33 -26z" />
<glyph horiz-adv-x="1204" d="M201 516l4 19h942q28 208 -83.5 336t-324.5 128q-229 0 -385 -137l-24 29q176 149 415 149q237 0 358.5 -145t80.5 -379t-202.5 -379t-381.5 -145t-330 145.5t-69 378.5zM240 496q-32 -207 69 -335t297 -128t343 128t190 335h-899z" />
<glyph horiz-adv-x="731" d="M162 0l180 1032h41l-180 -1032h-41zM238 1174q1 17 15.5 28.5t33.5 11.5q17 0 27.5 -11.5t9.5 -28.5q-4 -19 -19.5 -31.5t-32.5 -12.5q-19 0 -28.5 12.5t-5.5 31.5zM528 0l181 1032h41l-181 -1032h-41zM528 1174q1 17 16 28.5t34 11.5q17 0 27.5 -11.5t8.5 -28.5 q-5 -19 -19.5 -31.5t-31.5 -12.5q-19 0 -29 12.5t-6 31.5zM821 1174q1 17 15.5 28.5t33.5 11.5q18 0 28.5 -11t8.5 -29q-5 -19 -19 -31.5t-32 -12.5q-19 0 -29 12.5t-6 31.5z" />
<glyph horiz-adv-x="507" d="M207 203q-8 133 22 313q47 263 146.5 430.5t202.5 167.5l-7 -37q-85 0 -172 -158.5t-129 -404.5q-28 -168 -23.5 -292.5t39 -195.5t89.5 -71l-8 -37q-67 0 -109.5 76t-50.5 209z" />
<glyph horiz-adv-x="507" d="M109 -82l8 37q85 0 171.5 157.5t129.5 403.5q28 169 23.5 294t-39 196t-89.5 71l6 37q67 0 110 -76t51.5 -209t-21.5 -313q-46 -263 -146.5 -430.5t-203.5 -167.5z" />
<glyph horiz-adv-x="495" d="M147 -74l209 1180h209l-6 -37h-168l-196 -1106h167l-6 -37h-209z" />
<glyph horiz-adv-x="495" d="M111 -74l6 37h168l196 1106h-168l6 37h209l-209 -1180h-208z" />
<glyph horiz-adv-x="546" d="M182 498l8 37q66 0 121 60t72 155l20 120q20 106 89.5 175t152.5 69l-6 -37q-65 0 -120.5 -60t-72.5 -153l-20 -121q-15 -84 -62.5 -144t-111.5 -83q55 -24 81 -84t11 -143l-20 -121q-17 -92 17.5 -152.5t100.5 -60.5l-8 -37q-83 0 -128 69t-27 175l22 121 q17 94 -18 154.5t-101 60.5z" />
<glyph horiz-adv-x="546" d="M80 -82l8 37q65 0 120.5 60t72.5 153l20 121q15 83 62 143t112 84q-56 22 -81.5 82t-10.5 145l20 121q17 92 -17.5 152.5t-100.5 60.5l6 37q84 0 129.5 -69t25.5 -175l-20 -120q-17 -95 18 -155t101 -60l-8 -37q-65 0 -120.5 -60.5t-72.5 -154.5l-22 -121 q-19 -106 -88.5 -175t-153.5 -69z" />
<glyph horiz-adv-x="364" d="M162 0l135 770h41l-135 -770h-41zM313 997q3 19 18 31t34 12t28 -12t6 -31q-3 -18 -17 -29.5t-32 -11.5q-19 0 -29.5 12t-7.5 29z" />
<glyph horiz-adv-x="751" d="M141 174.5q-1 36.5 4 73.5q8 47 28 83t46 60t56 45t60 43t56.5 48t47 67t30.5 94l14 82h41l-14 -82q-10 -58 -32 -103t-48.5 -73.5t-57 -51.5t-60.5 -42.5t-55.5 -41t-44.5 -53.5t-26 -73q-4 -31 -3 -62t14.5 -59.5t35.5 -50t60 -34.5t88 -13q71 0 144.5 25.5t121.5 70.5 l27 -29q-59 -52 -138.5 -79t-158.5 -27q-59 0 -104.5 15t-71.5 40t-42.5 58t-17.5 69.5zM500 997q3 18 18 30.5t33 12.5q19 0 28.5 -12t6.5 -31q-3 -18 -17 -29.5t-32 -11.5t-29 12t-8 29z" />
<glyph horiz-adv-x="364" d="M147 -74l209 1180h41l-209 -1180h-41z" />
<glyph horiz-adv-x="808" d="M268 739l6 37h244l60 330h40l-59 -330h246l-6 -37h-246l-143 -813h-41l143 813h-244z" />
<glyph horiz-adv-x="808" d="M190 297l7 37h243l72 405h-244l6 37h244l60 330h40l-59 -330h246l-6 -37h-246l-72 -405h246l-6 -37h-246l-65 -371h-41l65 371h-244z" />
<glyph horiz-adv-x="915" d="M201 516q41 233 162.5 378.5t275.5 145.5q155 0 226 -145.5t30 -378.5t-163 -378.5t-277 -145.5q-154 0 -224.5 145.5t-29.5 378.5zM242 516q-38 -216 23 -350.5t196 -134.5q137 0 246 134.5t147 350.5q38 217 -23 351t-198 134q-135 0 -244 -134.5t-147 -350.5z" />
<glyph horiz-adv-x="483" d="M242 0l174 991l-174 -35l6 39l217 41l-182 -1036h-41z" />
<glyph horiz-adv-x="825" d="M119 0l8 49l557 459q43 36 74 92.5t43 124.5q22 122 -38.5 199t-178.5 77q-117 0 -204.5 -77t-109.5 -199h-41q25 141 125.5 228t235.5 87q138 0 207.5 -87t44.5 -228q-30 -164 -131 -246l-539 -440h549l-6 -39h-596z" />
<glyph horiz-adv-x="847" d="M152 289h41q-20 -115 44 -186.5t187 -71.5t212 71.5t109 186.5q22 115 -42 186.5t-187 71.5h-70l7 39h69q97 0 167 57.5t87 149.5q15 93 -34.5 150.5t-145.5 57.5q-97 0 -168 -58t-86 -150h-41q19 110 102 178.5t199 68.5q115 0 174.5 -68.5t40.5 -178.5 q-15 -80 -67.5 -139.5t-128.5 -86.5q96 -25 140.5 -99t24.5 -179q-23 -132 -125 -214.5t-243 -82.5t-215 82.5t-51 214.5z" />
<glyph horiz-adv-x="856" d="M133 217l6 35l633 780h47l-135 -776h104l-8 -39h-104l-37 -217h-41l37 217h-502zM190 256h453l125 709z" />
<glyph horiz-adv-x="825" d="M150 279h40q-19 -109 43 -178.5t179 -69.5q118 0 205.5 77t109.5 199q23 135 -43 218t-197 83q-133 0 -229 -71l-25 22l156 473h430l-6 -39h-393l-135 -397q86 51 211 51q149 0 223.5 -93.5t48.5 -246.5q-25 -141 -124.5 -228t-237.5 -87q-135 0 -206.5 80t-49.5 207z " />
<glyph horiz-adv-x="854" d="M156 311q5 30 12.5 53t15.5 44.5t29.5 53.5t40 59.5t63.5 84.5t83.5 105t117 145.5t146.5 183.5l30 -20l-346 -440q87 49 191 49q145 0 218.5 -88.5t47.5 -231.5q-25 -141 -130 -229t-251 -88q-145 0 -219 88t-49 231zM197 309q-22 -123 42.5 -200.5t190.5 -77.5 q127 0 219.5 77.5t114.5 200.5q22 125 -43.5 203t-192.5 78q-126 0 -217.5 -78t-113.5 -203z" />
<glyph horiz-adv-x="823" d="M248 0l590 993h-553l6 39h602l-4 -31l-594 -1001h-47z" />
<glyph horiz-adv-x="856" d="M160 289q20 105 91 179t173 99q-68 27 -99 86t-16 140q19 110 102 178.5t199 68.5q115 0 174.5 -68.5t40.5 -178.5q-15 -80 -67.5 -139.5t-128.5 -86.5q96 -25 141 -99t25 -179q-23 -132 -125.5 -214.5t-243.5 -82.5t-215 82.5t-51 214.5zM201 289q-20 -115 44 -186.5 t187 -71.5t212.5 71.5t109.5 186.5q22 115 -42.5 186.5t-187.5 71.5t-212 -71t-111 -187zM350 793q-17 -92 33 -149.5t147 -57.5t167 57.5t87 149.5q15 93 -34.5 150.5t-145.5 57.5q-97 0 -168 -58t-86 -150z" />
<glyph horiz-adv-x="854" d="M229 723q25 141 129.5 229t249.5 88q146 0 221 -88t50 -231q-5 -30 -12.5 -53t-15.5 -44.5t-29.5 -53.5t-40 -59.5t-63.5 -84.5t-83.5 -105t-117 -145.5t-146.5 -183.5l-33 20q33 41 346 441q-85 -50 -188 -50q-145 0 -219 89t-48 231zM270 723q-23 -124 42.5 -202.5 t191.5 -78.5q127 0 219 78t115 203q22 123 -43.5 200.5t-192.5 77.5q-126 0 -218 -77.5t-114 -200.5z" />
<glyph horiz-adv-x="817" d="M111 111l32 28q36 -52 102 -78t142 -28l84 477q-59 24 -94.5 42.5t-74 50.5t-51.5 77t-3 104q8 47 30.5 90.5t59.5 81t96 60.5t131 24l25 140h35l-25 -142q71 -5 132.5 -31.5t98.5 -72.5l-34 -31q-30 40 -85 64.5t-120 29.5l-80 -454q65 -26 100 -43.5t78.5 -49.5 t57.5 -76t4 -102q-9 -48 -33.5 -94.5t-64.5 -87.5t-102 -67.5t-136 -30.5l-25 -139h-35l25 139q-87 3 -159 34.5t-111 84.5zM291 784q-8 -46 2.5 -82t41.5 -63t62 -44t82 -38l78 442q-60 -1 -109.5 -21t-81 -52.5t-50.5 -68.5t-25 -73zM422 33q66 4 120.5 28.5t88 60.5 t53.5 74t27 76q7 37 -2.5 68.5t-25 52t-49.5 42t-59 33t-71 30.5z" />
<glyph horiz-adv-x="1204" d="M166 395l6 35h96q0 29 11 86q4 27 20 86h-98l6 35h104q68 184 227 293.5t363 109.5q239 0 363 -149l-33 -31q-114 139 -334 139q-186 0 -332 -98t-213 -264h479l-6 -35h-485q-18 -66 -21 -86q-6 -30 -10 -86h488l-6 -35h-482q8 -167 119 -264.5t297 -97.5q227 0 383 137 l25 -29q-176 -149 -416 -149q-204 0 -325 109.5t-124 293.5h-102z" />
<glyph horiz-adv-x="815" d="M94 0q9 58 49 95t97 42l61 361h-121l8 37h121l39 229q22 123 112 199.5t216 76.5q125 0 188 -79l-30 -29q-58 67 -164 67t-184 -65t-97 -170l-39 -229h299l-8 -37h-299l-61 -361q37 -3 76 -20.5t66.5 -36.5t66 -34t75.5 -15q47 0 81 28t42 72h39q-10 -63 -56.5 -101 t-109.5 -38q-45 0 -88 17t-72.5 37t-69.5 37t-79 17q-46 0 -79 -27.5t-40 -72.5h-39z" />
<glyph horiz-adv-x="1042" d="M266 1032h51l293 -518l475 518h52l-514 -561l-15 -86h244l-6 -35h-244l-29 -157h244l-6 -35h-244l-26 -158h-41l26 158h-241l6 35h241l29 157h-242l7 35h241l15 86z" />
<glyph horiz-adv-x="679" d="M139 217q11 62 42.5 103t90.5 88l2 2h-100l6 34h135l174 144h-284l6 35h319l33 26q36 30 53.5 46.5t37 48t26.5 69.5q14 83 -34.5 135.5t-139.5 52.5q-123 0 -215 -86l-23 29q104 96 244 96q110 0 168 -62.5t41 -162.5q-11 -62 -42.5 -104t-88.5 -86l-2 -2h98l-6 -35 h-135l-176 -144h286l-6 -34h-321l-33 -27q-36 -31 -52.5 -46.5t-36 -48t-26.5 -69.5q-14 -83 34.5 -135.5t139.5 -52.5q123 0 215 86l23 -29q-99 -96 -244 -96q-110 0 -168 62.5t-41 162.5z" />
<glyph horiz-adv-x="942" d="M145 289l9 39h141l131 377h-141l8 38h149l101 289h41l-101 -289h316l100 289h41l-100 -289h137l-8 -38h-144l-133 -377h148l-9 -39h-153l-100 -289h-43l100 289h-313l-101 -289h-41l99 289h-134zM336 328h315l131 377h-313z" />
<glyph horiz-adv-x="364" d="M143 35q3 17 18 29t34 12q18 0 27.5 -11.5t6.5 -29.5q-3 -19 -16.5 -31t-32.5 -12t-29.5 12t-7.5 31zM207 262l135 770h41l-135 -770h-41z" />
<glyph horiz-adv-x="991" d="M160 289q20 105 91.5 179t172.5 99q-67 27 -98.5 86.5t-16.5 139.5q19 110 102 178.5t199 68.5q115 0 174.5 -68.5t40.5 -178.5h-41q15 93 -34.5 150.5t-145.5 57.5q-97 0 -168 -58t-86 -150q-17 -92 33 -149.5t147 -57.5h48l-7 -39h-47q-123 0 -212 -71t-111 -187 q-20 -115 44 -186.5t187 -71.5t212.5 71.5t109.5 186.5l47 258h-150l6 39h340l-6 -39h-149l-47 -258q-23 -132 -125.5 -214.5t-243.5 -82.5t-215 82.5t-51 214.5z" />
<glyph horiz-adv-x="858" d="M117 -74l762 1180h43l-762 -1180h-43z" />
<glyph horiz-adv-x="858" d="M326 1106h43l344 -1180h-43z" />
<glyph horiz-adv-x="751" d="M258 934q59 52 138.5 79t158.5 27q58 0 103.5 -15t71.5 -40t42.5 -58t17.5 -69.5t-4 -73.5q-8 -47 -28 -83t-46 -60t-56 -45t-60.5 -43t-56.5 -48t-47 -67t-31 -94l-15 -82h-40l14 82q10 58 31.5 103t48.5 73.5t57 51.5t59.5 42.5t55 41t45 53.5t26.5 73q4 31 3.5 62 t-14 59.5t-35 50t-59.5 34.5t-87 13q-71 0 -145 -25.5t-125 -70.5zM342 35q3 17 18 29t33 12q19 0 28.5 -12t6.5 -29q-3 -19 -16.5 -31t-32.5 -12q-18 0 -29 12.5t-8 30.5z" />
<glyph horiz-adv-x="1277" d="M238 809q19 103 94.5 167t179.5 64q105 0 159.5 -64.5t35.5 -166.5q-19 -103 -96 -167t-181 -64t-157.5 64t-34.5 167zM276 809q-15 -86 29.5 -140.5t130.5 -54.5q88 0 151.5 54.5t78.5 140.5q15 87 -29 141t-131 54q-86 0 -150.5 -54.5t-79.5 -140.5zM342 0l731 1032h45 l-731 -1032h-45zM752 223q19 103 95.5 167.5t180.5 64.5t158 -64.5t35 -167.5t-95 -167t-180 -64t-158.5 64t-35.5 167zM793 223q-15 -86 29 -140t130 -54t150.5 54t79.5 140t-30.5 140.5t-131.5 54.5t-149 -54.5t-78 -140.5z" />
<glyph horiz-adv-x="1857" d="M238 809q19 103 94.5 167t179.5 64q105 0 159.5 -64.5t35.5 -166.5q-19 -103 -96 -167t-181 -64t-157.5 64t-34.5 167zM276 809q-15 -86 29.5 -140.5t130.5 -54.5q88 0 151.5 54.5t78.5 140.5q15 87 -29 141t-131 54q-86 0 -150.5 -54.5t-79.5 -140.5zM342 0l731 1032h45 l-731 -1032h-45zM752 223q19 103 95.5 167.5t180.5 64.5t158 -64.5t35 -167.5t-95 -167t-180 -64t-158.5 64t-35.5 167zM793 223q-15 -86 29 -140t130 -54t150.5 54t79.5 140t-30.5 140.5t-131.5 54.5t-149 -54.5t-78 -140.5zM1331 223q19 103 96 167.5t181 64.5 q103 0 157 -64.5t35 -167.5t-95 -167t-179 -64q-105 0 -159.5 64.5t-35.5 166.5zM1372 223q-15 -87 29 -140.5t131 -53.5q86 0 150 54t79 140t-30.5 140.5t-131.5 54.5q-87 0 -149.5 -54t-77.5 -141z" />
<glyph horiz-adv-x="679" d="M51 -281l35 29q60 -86 182 -86q91 0 159 52.5t83 135.5q18 103 -47 177l-268 311l32 27l269 -310q75 -82 53 -207q-17 -100 -97 -162.5t-190 -62.5q-143 0 -211 96zM246 815q17 100 96.5 162.5t189.5 62.5q143 0 211 -96l-32 -29q-63 86 -185 86q-91 0 -157.5 -52.5 t-79.5 -135.5q-20 -105 43 -178l272 -307l-37 -29l-268 309q-75 82 -53 207z" />
<glyph horiz-adv-x="829" d="M252 760q22 124 111.5 198t216.5 74h106l-180 -1032h-41l86 489h-66q-126 0 -190.5 75t-42.5 196zM629 0l180 1032h39l-180 -1032h-39z" />
<glyph horiz-adv-x="468" d="M201 1137q86 71 96 123q-22 0 -35 14.5t-10 36.5q5 22 22.5 36.5t40.5 14.5q47 0 37 -68q-15 -86 -129 -184zM266 0l180 1032h41l-180 -1032h-41zM561 1174q1 17 15 28.5t32 11.5t28.5 -11t8.5 -29q-5 -19 -19 -31.5t-32 -12.5t-27.5 13t-5.5 31z" />
<glyph horiz-adv-x="622" d="M123 256q28 163 110.5 264t186.5 101t151 -101t19 -264q-29 -163 -112 -264t-187 -101t-150.5 101t-17.5 264zM164 256q-26 -146 11.5 -236t123.5 -90q85 0 153.5 90t94.5 236q25 146 -11.5 236t-121.5 90q-87 0 -156 -90t-94 -236z" />
<glyph horiz-adv-x="344" d="M150 -102l118 677l-116 -22l6 35l159 30l-127 -720h-40z" />
<glyph horiz-adv-x="565" d="M63 -102l7 43l372 315q59 52 74 143q14 82 -23 132.5t-110 50.5q-75 0 -131.5 -51t-69.5 -132h-41q17 99 86 160.5t162 61.5q92 0 138.5 -62t29.5 -160q-19 -109 -92 -170l-344 -295h354l-6 -36h-406z" />
<glyph horiz-adv-x="581" d="M90 100h41q-12 -75 28.5 -122.5t116.5 -47.5q78 0 134.5 47.5t68.5 122.5q14 77 -25.5 124.5t-117.5 47.5h-47l6 37h47q62 0 107 38t55 99q11 60 -20.5 98t-92.5 38q-60 0 -105 -38t-55 -98h-43q14 77 72.5 126t136.5 49q79 0 120.5 -49t27.5 -126q-10 -56 -43.5 -96 t-81.5 -59q58 -19 85 -69.5t15 -121.5q-17 -94 -86 -151.5t-166 -57.5q-96 0 -145.5 58t-32.5 151z" />
<glyph horiz-adv-x="587" d="M74 45l6 27l422 542h45l-92 -532h67l-8 -37h-68l-24 -147h-41l25 147h-332zM133 82h283l82 467z" />
<glyph horiz-adv-x="565" d="M88 94h41q-13 -73 25.5 -118.5t113.5 -45.5q74 0 129 51t68 132q15 89 -26.5 143.5t-123.5 54.5q-86 0 -145 -47l-27 17l107 333h293l-6 -36h-258l-84 -261q53 33 131 33q100 0 149.5 -65.5t30.5 -171.5q-17 -98 -85.5 -160t-160.5 -62q-94 0 -141.5 56t-30.5 147z" />
<glyph horiz-adv-x="585" d="M92 115q3 18 7 33t8.5 28.5t14.5 31l18 31.5t26 38.5t32 43.5t43 56t52 65t66 82t77 97l31 -21q-135 -171 -229 -295q50 29 112 29q98 0 148.5 -61t31.5 -160q-17 -99 -88.5 -160.5t-169.5 -61.5t-147.5 61.5t-32.5 162.5zM133 113q-13 -81 28.5 -132t119.5 -51 t135.5 50.5t70.5 132.5q15 83 -25 133.5t-118 50.5q-79 0 -137.5 -50.5t-73.5 -133.5z" />
<glyph horiz-adv-x="565" d="M152 -102l385 680h-359l6 36h410l-4 -22l-393 -694h-45z" />
<glyph horiz-adv-x="585" d="M94 100q12 71 58 121.5t114 69.5q-44 19 -63.5 59t-9.5 96q14 77 72 126t136 49q79 0 120.5 -49t27.5 -126q-10 -56 -43.5 -96t-81.5 -59q58 -19 85 -69.5t15 -121.5q-17 -94 -86 -151.5t-166 -57.5q-96 0 -145.5 58t-32.5 151zM135 100q-12 -75 29 -122.5t117 -47.5 q78 0 134 47.5t68 122.5q14 77 -25.5 123.5t-117.5 46.5q-77 0 -134.5 -47t-70.5 -123zM236 446q-11 -62 19.5 -99.5t90.5 -37.5q62 0 107 38t55 99q11 60 -20.5 98t-92.5 38q-60 0 -104 -38t-55 -98z" />
<glyph horiz-adv-x="585" d="M143 399q17 99 88.5 160.5t169.5 61.5q97 0 147.5 -61.5t33.5 -162.5q-4 -22 -10 -40.5t-12 -35t-22.5 -41.5t-29 -44t-44.5 -59.5t-56 -71t-76 -96t-94 -118.5l-31 21q135 171 229 295q-53 -29 -112 -29q-99 0 -149.5 61t-31.5 160zM184 399q-15 -83 26 -133.5 t120 -50.5q78 0 136 50.5t73 133.5q14 82 -26 132.5t-118 50.5q-79 0 -138.5 -51t-72.5 -132z" />
<glyph horiz-adv-x="258" d="M55 -174q44 38 51 65q-13 1 -20.5 11t-5.5 24q3 15 15.5 25t27.5 10q14 0 21 -11t3 -32q-7 -49 -77 -111z" />
<glyph horiz-adv-x="258" d="M80 -74q3 15 15 25t26 10q15 0 23.5 -10t5.5 -25q-2 -14 -14 -24.5t-27 -10.5q-13 0 -22 10.5t-7 24.5z" />
<glyph horiz-adv-x="348" d="M135.5 -45q-28.5 115 3.5 301q32 183 101 299.5t141 116.5l-6 -35q-54 0 -110 -107.5t-85 -273.5q-29 -170 -10.5 -276.5t72.5 -106.5l-6 -33q-72 0 -100.5 115z" />
<glyph horiz-adv-x="348" d="M55 -160l6 35q54 0 110.5 107t86.5 274q28 170 9.5 275.5t-72.5 105.5l6 35q73 0 101 -115t-3 -301q-33 -184 -102 -300t-142 -116z" />
<glyph horiz-adv-x="387" d="M135 238l6 36h199l-6 -36h-199z" />
<glyph horiz-adv-x="622" d="M266 1075q29 163 111 264t186 101t151.5 -101.5t18.5 -263.5q-29 -163 -111 -263.5t-186 -100.5t-151.5 101t-18.5 263zM307 1075q-26 -146 11.5 -235.5t123.5 -89.5q85 0 153.5 89.5t94.5 235.5t-11 236t-122 90q-86 0 -155 -90t-95 -236z" />
<glyph horiz-adv-x="344" d="M293 717l121 678l-117 -23l6 35l158 31l-127 -721h-41z" />
<glyph horiz-adv-x="565" d="M207 717l8 43l371 315q57 48 73 144q15 81 -22 131.5t-111 50.5q-75 0 -130 -50t-70 -132h-41q19 99 86.5 160t160.5 61t140 -61.5t28 -159.5q-19 -108 -90 -170l-346 -295h354l-6 -37h-405z" />
<glyph horiz-adv-x="581" d="M236 920h40q-13 -75 27 -122.5t117 -47.5q78 0 134.5 47.5t70.5 122.5q12 77 -28 124.5t-118 47.5h-47l8 36h47q61 0 105 38t55 100q11 60 -20 97.5t-92 37.5q-60 0 -105 -37.5t-55 -97.5h-43q13 76 72 125t137 49q79 0 120 -48.5t27 -125.5q-9 -55 -42.5 -96t-82.5 -60 q59 -19 87 -69t16 -121q-17 -94 -86 -151.5t-166 -57.5q-96 0 -145.5 58t-32.5 151z" />
<glyph horiz-adv-x="587" d="M219 864l4 27l424 543h45l-94 -533h68l-7 -37h-67l-27 -147h-41l27 147h-332zM276 901h283l82 467z" />
<glyph horiz-adv-x="565" d="M231 913h41q-12 -72 26.5 -117.5t113.5 -45.5q74 0 128.5 50t69.5 132q15 89 -26 143.5t-123 54.5q-90 0 -146 -47l-28 17l108 334h293l-6 -37h-258l-86 -260q51 32 131 32q100 0 150.5 -65.5t31.5 -171.5q-19 -99 -86 -160t-159 -61q-94 0 -142 55.5t-33 146.5z" />
<glyph horiz-adv-x="585" d="M238 934q3 20 7 35t12.5 34.5t15 32.5t24.5 39.5t30.5 43.5t44 57t54 68.5t70 88.5t84.5 107l32 -21q-49 -60 -231 -295q53 29 115 29q97 0 147 -61t33 -160q-19 -99 -89.5 -160t-168.5 -61q-99 0 -149 61t-31 162zM279 932q-15 -81 25.5 -131.5t119.5 -50.5q78 0 136 50 t73 132q13 83 -26.5 133.5t-117.5 50.5q-79 0 -138 -51t-72 -133z" />
<glyph horiz-adv-x="565" d="M295 717l387 680h-358l6 37h409l-4 -23l-395 -694h-45z" />
<glyph horiz-adv-x="585" d="M240 920q12 71 57.5 121t112.5 69q-43 19 -63 59.5t-11 96.5q13 76 72 125t137 49q79 0 120 -48.5t27 -125.5q-9 -55 -42.5 -96t-82.5 -60q59 -19 87 -69t16 -121q-17 -94 -86 -151.5t-166 -57.5q-96 0 -145.5 58t-32.5 151zM281 920q-13 -75 26.5 -122.5t116.5 -47.5 q78 0 134.5 47.5t70.5 122.5q12 77 -28 123.5t-118 46.5q-77 0 -133.5 -47t-68.5 -123zM379 1266q-10 -61 21.5 -99.5t91.5 -38.5q61 0 104.5 38t54.5 100q11 60 -20 97.5t-92 37.5q-60 0 -105 -37.5t-55 -97.5z" />
<glyph horiz-adv-x="585" d="M287 1219q19 99 89.5 160t168.5 61t148.5 -61.5t31.5 -161.5q-4 -22 -9.5 -40.5t-11.5 -35t-22 -41t-29.5 -44.5t-44 -59.5t-56 -71.5t-76 -95.5t-93.5 -118.5l-33 20q71 87 232 295q-56 -29 -115 -29q-98 0 -147.5 61t-32.5 161zM328 1219q-13 -83 28 -134t119 -51 t136 51t71 134q15 81 -25 131.5t-118 50.5t-137 -50.5t-74 -131.5z" />
<glyph horiz-adv-x="258" d="M199 645q45 36 53 66q-14 2 -22 11.5t-5 22.5q1 15 14.5 25t28.5 10q31 0 25 -43q-10 -52 -80 -110z" />
<glyph horiz-adv-x="258" d="M225 745q1 14 14 24.5t27 10.5q15 0 23 -10t6 -25q-3 -14 -14.5 -24t-26.5 -10q-14 0 -23 10.5t-6 23.5z" />
<glyph horiz-adv-x="348" d="M267.5 856.5q-5.5 92.5 15.5 218.5q32 183 101.5 299.5t141.5 116.5l-6 -35q-54 0 -110.5 -108t-85.5 -273q-29 -170 -11 -276.5t72 -106.5l-6 -33q-47 0 -76.5 52.5t-35 145z" />
<glyph horiz-adv-x="348" d="M199 659l6 35q54 0 110 107t86 274q29 170 11 275.5t-72 105.5l6 35q73 0 100 -115t-4 -301q-32 -184 -101 -300t-142 -116z" />
<glyph horiz-adv-x="387" d="M279 1057l8 37h198l-8 -37h-198z" />
<glyph horiz-adv-x="628" d="M276 1180q20 116 102 188t197 72q126 0 183 -70l-78 -444h-41l8 43q-70 -49 -166 -49q-113 0 -169 71.5t-36 188.5zM317 1180q-17 -99 32 -160.5t145 -61.5q93 0 159 56l62 342q-51 45 -146 45q-96 0 -165.5 -61t-86.5 -160z" />
<glyph horiz-adv-x="628" d="M283 987l139 785h41l-70 -383q73 51 166 51q112 0 169.5 -72t37.5 -188q-20 -117 -102 -188.5t-197 -71.5q-125 0 -180 67h-4zM324 993q19 1 68 -17t83 -18q95 0 164 61t86 161q17 99 -31.5 160t-144.5 61q-88 0 -164 -60z" />
<glyph horiz-adv-x="569" d="M276 1180q20 116 103.5 188t198.5 72t172 -76l-31 -27q-48 64 -148 64q-95 0 -166 -61.5t-88 -159.5q-17 -99 32 -160.5t145 -61.5q100 0 168 62l22 -27q-79 -73 -197 -73q-115 0 -173 71.5t-38 188.5z" />
<glyph horiz-adv-x="632" d="M276 1180q20 116 102.5 188t196.5 72q93 0 150 -51l68 383h41l-150 -846h-41l8 47q-71 -53 -170 -53q-113 0 -169 71.5t-36 188.5zM317 1180q-17 -99 32 -160.5t145 -61.5q99 0 165 60l58 321q-49 62 -146 62q-95 0 -166 -61.5t-88 -159.5z" />
<glyph horiz-adv-x="598" d="M276 1182q20 114 98.5 186t182.5 72t152 -73.5t26 -195.5h-418q-15 -95 34.5 -154t144.5 -59q100 0 168 62l22 -27q-82 -73 -199 -73q-114 0 -172.5 72t-38.5 190zM324 1206h376q9 90 -30.5 142.5t-118.5 52.5t-141.5 -52.5t-85.5 -142.5z" />
<glyph horiz-adv-x="370" d="M238 645l133 752h-76l6 37h76l35 192q10 67 59 109.5t115 42.5q32 0 55 -13l-6 -39q-19 13 -53 13q-50 0 -85 -31t-42 -82l-35 -192h164l-6 -37h-164l-133 -752h-43z" />
<glyph horiz-adv-x="577" d="M182 786q9 52 50 90.5t102 53.5q-69 26 -60 86q5 28 31 52t68 36q-44 19 -62.5 60t-9.5 96q13 82 72.5 131t142.5 49q75 0 119 -41q48 41 92 41q5 0 14 -1t13 -1l-6 -37q-6 2 -23 2q-35 0 -72 -29q30 -49 19 -112q-14 -78 -74.5 -127.5t-144.5 -49.5q-58 0 -96.5 -19 t-43.5 -50q-5 -30 32.5 -49t103.5 -19q103 0 156.5 -40t41.5 -107q-12 -71 -90.5 -117.5t-185.5 -46.5q-98 0 -149 41t-40 108zM223 786q-9 -51 33 -81.5t123 -30.5q87 0 151.5 36t73.5 91q9 51 -35.5 81.5t-126.5 30.5q-90 0 -149 -35t-70 -92zM342 1262q-11 -63 22 -102.5 t99 -39.5q65 0 112.5 39.5t57.5 102.5t-23 102t-98 39q-66 0 -112.5 -39t-57.5 -102z" />
<glyph horiz-adv-x="618" d="M272 926l150 846h41l-70 -388q78 56 170 56q86 0 129.5 -55.5t28.5 -145.5l-55 -313h-41l55 313q12 72 -23.5 117t-105.5 45q-99 0 -166 -64l-72 -411h-41z" />
<glyph horiz-adv-x="262" d="M272 926l90 508h41l-90 -508h-41zM373 1585q3 15 15.5 26t27.5 11t24 -11t6 -26t-15.5 -26t-27.5 -11t-24 11t-6 26z" />
<glyph horiz-adv-x="260" d="M150 645l4 27q72 0 84 67l122 695h41l-122 -695q-7 -47 -36 -72.5t-67 -25.5q-22 0 -26 4zM371 1585q3 15 15.5 26t27.5 11t24 -11t6 -26t-15.5 -26t-27.5 -11t-24 11t-6 26z" />
<glyph horiz-adv-x="528" d="M272 926l150 846h41l-150 -846h-41zM369 1194l272 240h53l-274 -240l211 -268h-51z" />
<glyph horiz-adv-x="290" d="M289 1022l133 750h41l-133 -750q-6 -34 11.5 -51t51.5 -17l-6 -28q-12 -4 -29 -4q-36 0 -56 25.5t-13 74.5z" />
<glyph horiz-adv-x="882" d="M272 926l90 508h41l-8 -50q75 56 168 56q87 0 117 -74q80 74 194 74q66 0 100.5 -45t22.5 -115l-63 -354h-41l63 354q9 54 -17 87.5t-77 33.5q-98 0 -174 -66q2 -17 -2 -55l-63 -354h-41l63 354q9 54 -16.5 87.5t-77.5 33.5q-96 0 -164 -62l-74 -413h-41z" />
<glyph horiz-adv-x="614" d="M272 926l90 508h41l-8 -50q75 56 168 56q86 0 129.5 -55.5t28.5 -145.5l-55 -313h-41l55 313q12 72 -23.5 117t-105.5 45q-96 0 -164 -62l-74 -413h-41z" />
<glyph horiz-adv-x="632" d="M223 645l139 789h41l-8 -50q75 56 168 56q112 0 169.5 -72t37.5 -188q-20 -117 -102.5 -188.5t-196.5 -71.5q-93 0 -149 47l-58 -322h-41zM330 1016q49 -58 143 -58q97 0 167 61t87 161q17 99 -31.5 160t-144.5 61t-164 -62z" />
<glyph horiz-adv-x="628" d="M276 1180q20 116 102 188t197 72q125 0 185 -70h-2l-127 -725h-41l55 324q-67 -49 -162 -49q-113 0 -170 71.5t-37 188.5zM317 1180q-17 -99 32 -160.5t145 -61.5q97 0 159 56l62 348q-16 1 -64.5 20t-81.5 19q-96 0 -165.5 -61t-86.5 -160z" />
<glyph horiz-adv-x="405" d="M272 926l90 508h41l-12 -66q77 70 164 70q23 0 33 -2l-6 -37q-10 2 -35 2q-92 0 -162 -76h-2l-70 -399h-41z" />
<glyph horiz-adv-x="450" d="M236 979l30 27q18 -24 50.5 -37t66.5 -13q59 0 93.5 33.5t41.5 73.5q6 35 -16.5 58t-58 36.5t-70.5 28.5t-56.5 45.5t-13.5 75.5q8 53 50 93t112 40q91 0 135 -56l-33 -26q-13 20 -43.5 31.5t-62.5 11.5q-51 0 -80.5 -28t-36.5 -66q-6 -36 16 -60t57.5 -38t70.5 -29.5 t56.5 -44.5t14.5 -72q-10 -57 -57 -100t-125 -43q-95 0 -141 59z" />
<glyph horiz-adv-x="366" d="M291 1397l6 37h72l20 112h41l-20 -112h159l-6 -37h-160l-59 -334q-8 -46 16.5 -76.5t69.5 -30.5q23 0 57 15l-6 -41q-33 -10 -61 -10q-64 0 -96 39t-21 104l59 334h-71z" />
<glyph horiz-adv-x="628" d="M307 1126l55 308h41l-55 -308q-12 -75 25.5 -121.5t109.5 -46.5t125.5 46.5t65.5 121.5l55 308h41l-55 -308q-15 -92 -81 -149t-157 -57q-92 0 -138.5 56.5t-31.5 149.5z" />
<glyph horiz-adv-x="614" d="M305 1434h45l127 -459l291 459h45l-324 -508h-40z" />
<glyph horiz-adv-x="915" d="M305 1434h47l92 -461l244 461h43l80 -461l256 461h47l-291 -508h-43l-82 452l-239 -452h-43z" />
<glyph horiz-adv-x="583" d="M221 926l252 258l-156 250h50l139 -224l215 224h49l-246 -250l162 -258h-49l-141 229l-226 -229h-49z" />
<glyph horiz-adv-x="614" d="M262 645l187 281l-144 508h45l127 -461l291 461h45l-504 -789h-47z" />
<glyph horiz-adv-x="544" d="M236 926l4 24l422 447h-338l6 37h393l-4 -27l-422 -444h342l-6 -37h-397z" />
<glyph horiz-adv-x="651" d="M276 1180q20 116 104 188t198 72t172 -72t38 -188q-20 -117 -103.5 -188.5t-197.5 -71.5t-172.5 71.5t-38.5 188.5zM317 1180q-17 -99 32 -160.5t145 -61.5t166.5 61.5t87.5 160.5q17 98 -32.5 159.5t-144.5 61.5t-166 -61.5t-88 -159.5z" />
<glyph horiz-adv-x="475" d="M260 1008l6 34h135l25 136h35l-25 -136h137l-6 -34h-137l-24 -138h-35l24 138h-135z" />
<glyph horiz-adv-x="475" d="M225 805l6 35h308l-7 -35h-307zM260 1010l8 37h135l23 135h35l-23 -135h137l-8 -37h-137l-22 -136h-35l22 136h-135z" />
<glyph horiz-adv-x="475" d="M117 188l6 35h135l23 135h34l-22 -135h137l-6 -35h-137l-25 -137h-35l25 137h-135z" />
<glyph horiz-adv-x="475" d="M80 -14l6 34h307l-6 -34h-307zM117 190l6 37h135l25 135h34l-24 -135h137l-6 -37h-137l-25 -135h-35l25 135h-135z" />
<glyph horiz-adv-x="2068" d="M346 1393l8 41h1071l19 102h41l-125 -705q144 101 319 101q155 0 234 -99.5t51 -259.5l-100 -573h-41l100 573q25 141 -45.5 229.5t-206.5 88.5q-185 0 -321 -117l-136 -774h-40l243 1393h-579l-244 -1393h-41l244 1393h-451z" />
<glyph horiz-adv-x="1105" d="M233 371l117 661h41l-117 -661q-26 -152 52 -245t229 -93q154 0 264.5 93t136.5 245l117 661h43l-117 -661q-29 -169 -153.5 -274t-294.5 -105q-172 0 -259.5 105t-58.5 274z" />
<glyph horiz-adv-x="1212" d="M186 516q41 234 207.5 379t394.5 145q227 0 343 -145.5t75 -378.5t-208 -378.5t-394 -145.5q-228 0 -343.5 145t-74.5 379zM223 516q-38 -218 69 -353.5t318 -135.5q212 0 366.5 135.5t192.5 353.5q38 219 -68.5 354.5t-318.5 135.5q-211 0 -366 -136t-193 -354zM446 516 q20 117 105 189.5t201 72.5q113 0 174 -73l-29 -25q-49 65 -149 65q-99 0 -172.5 -63.5t-92.5 -165.5q-19 -101 32 -165t151 -64q98 0 174 63l20 -22q-87 -74 -203 -74q-115 0 -173 72.5t-38 189.5z" />
<glyph horiz-adv-x="1212" d="M186 516q41 234 207.5 379t394.5 145q227 0 343 -145.5t75 -378.5t-208 -378.5t-394 -145.5q-228 0 -343.5 145t-74.5 379zM223 516q-38 -218 69 -353.5t318 -135.5q212 0 366.5 135.5t192.5 353.5q38 219 -68.5 354.5t-318.5 135.5q-211 0 -366 -136t-193 -354zM522 256 l90 516h136q63 0 94.5 -38t21.5 -101q-10 -57 -48.5 -94t-94.5 -45l96 -238h-41l-92 238h-84l-41 -238h-37zM606 526h99q47 0 82 30t42 77q8 47 -16.5 76.5t-71.5 29.5h-98z" />
</font>
</defs>
</svg>
