<?xml version="1.0" standalone="no"?>
<!DOCTYPE svg PUBLIC "-//W3C//DTD SVG 1.1//EN" "http://www.w3.org/Graphics/SVG/1.1/DTD/svg11.dtd" >
<svg xmlns="http://www.w3.org/2000/svg">
<metadata></metadata>
<defs>
<font id="proba_promedium_italic" horiz-adv-x="456" >
<font-face units-per-em="2048" ascent="1536" descent="-512" />
<missing-glyph horiz-adv-x="471" />
<glyph unicode="&#xfb00;" horiz-adv-x="1212" d="M96 -512l228 1286h-123l26 148h123l53 301q26 151 130 240t255 89q68 0 109 -20l-29 -158q-32 19 -75 19q-75 0 -129 -47.5t-66 -122.5l-53 -301h340l53 301q26 151 130 240t255 89q68 0 109 -20l-29 -158q-32 19 -76 19q-75 0 -128.5 -47.5t-65.5 -122.5l-54 -301h244 l-27 -148h-243l-228 -1286h-194l227 1286h-340l-227 -1286h-195z" />
<glyph unicode="&#xfb01;" horiz-adv-x="1044" d="M96 -512l228 1286h-123l26 148h123l53 301q26 151 130 240t255 89q68 0 109 -20l-29 -158q-32 19 -75 19q-75 0 -129 -47.5t-66 -122.5l-53 -301h526l-162 -922h-186l135 774h-340l-227 -1286h-195zM909 1198q7 49 48 83t92 34q49 0 76.5 -33.5t19.5 -83.5 q-9 -50 -49.5 -84.5t-89.5 -34.5t-77.5 34.5t-19.5 84.5z" />
<glyph unicode="&#xfb03;" horiz-adv-x="1579" d="M96 -512l228 1286h-123l26 148h123l53 301q26 151 130 240t255 89q68 0 109 -20l-29 -158q-32 19 -75 19q-75 0 -129 -47.5t-66 -122.5l-53 -301h340l53 301q26 151 130 240t255 89q68 0 109 -20l-29 -158q-32 19 -76 19q-75 0 -128.5 -47.5t-65.5 -122.5l-54 -301h527 l-162 -922h-187l136 774h-340l-228 -1286h-194l227 1286h-340l-227 -1286h-195zM1444 1198q7 49 47.5 83t91.5 34q49 0 76.5 -33.5t19.5 -83.5q-9 -50 -49.5 -84.5t-89.5 -34.5t-77 34.5t-19 84.5z" />
<glyph unicode="fj" horiz-adv-x="1044" d="M96 -512l228 1286h-123l26 148h123l53 301q26 151 130 240t255 89q68 0 109 -20l-29 -158q-32 19 -75 19q-75 0 -129 -47.5t-66 -122.5l-53 -301h526l-213 -1213q-19 -105 -87.5 -168t-168.5 -63q-49 0 -76 10l23 123q47 0 80.5 27t42.5 75l186 1061h-340l-227 -1286 h-195zM909 1198q7 49 48 83t92 34q49 0 76.5 -33.5t19.5 -83.5q-9 -50 -49.5 -84.5t-89.5 -34.5t-77.5 34.5t-19.5 84.5z" />
<glyph unicode="&#x457;&#x457;" horiz-adv-x="913" d="M135 0l162 922h186l-161 -922h-187zM156 1149q7 47 45 80t84 33q47 0 74 -33t18 -80q-8 -46 -45.5 -78.5t-83.5 -32.5q-47 0 -74 32.5t-18 78.5zM547 1149q9 47 47 80t84 33q47 0 74 -33t18 -80q-8 -46 -46 -78.5t-85 -32.5q-46 0 -73 32.5t-19 78.5zM592 0l162 922h186 l-162 -922h-186zM938 1149q7 47 46 80t85 33q47 0 74 -33t18 -80q-8 -46 -46 -78.5t-85 -32.5q-46 0 -73 32.5t-19 78.5z" />
<glyph unicode="&#x456;&#x457;" horiz-adv-x="913" d="M135 0l162 922h186l-161 -922h-187zM322 1198q7 49 47 83t90 34q51 0 78.5 -33.5t19.5 -83.5q-9 -50 -49.5 -84.5t-89.5 -34.5q-51 0 -78 34.5t-18 84.5zM592 0l162 922h186l-162 -922h-186zM635 1149q9 47 47 80t84 33t72.5 -33t19.5 -80q-8 -46 -46 -78.5t-85 -32.5 q-46 0 -73 32.5t-19 78.5zM938 1149q7 47 46 80t85 33q47 0 74 -33t18 -80q-8 -46 -46 -78.5t-85 -32.5q-46 0 -73 32.5t-19 78.5z" />
<glyph unicode="&#x2019;&#x457;" horiz-adv-x="645" d="M227 1030q94 78 133 160q-40 8 -61.5 39.5t-15.5 75.5q11 50 50.5 83t90.5 33q47 0 75.5 -32t16.5 -101q-7 -45 -30 -90t-59.5 -87.5t-69 -74.5t-76.5 -69zM324 0l161 922h189l-162 -922h-188zM670 1149q9 47 48 80t85 33q47 0 73 -33t17 -80q-8 -46 -46 -78.5t-85 -32.5 q-46 0 -73 32.5t-19 78.5z" />
<glyph unicode="&#x407;&#x407;" horiz-adv-x="925" d="M135 0l252 1434h193l-252 -1434h-193zM242 1634q8 46 46 78.5t85 32.5q45 0 71.5 -32.5t20.5 -78.5q-9 -46 -48 -78t-85 -32t-72 32t-18 78zM598 0l252 1434h194l-251 -1434h-195zM639 1634q9 48 46.5 80.5t84.5 32.5t74 -33t18 -80q-7 -46 -46.5 -78t-86.5 -32 q-46 0 -72 32t-18 78zM1038 1634q7 47 45.5 80t85.5 33q46 0 74 -33t19 -80q-7 -46 -47 -78t-87 -32q-46 0 -72 32t-18 78z" />
<glyph unicode="ffj" horiz-adv-x="1579" d="M96 -512l228 1286h-123l26 148h123l53 301q26 151 130 240t255 89q68 0 109 -20l-29 -158q-32 19 -75 19q-75 0 -129 -47.5t-66 -122.5l-53 -301h340l53 301q26 151 130 240t255 89q68 0 109 -20l-29 -158q-32 19 -76 19q-75 0 -128.5 -47.5t-65.5 -122.5l-54 -301h527 l-213 -1213q-19 -105 -87.5 -168t-168.5 -63q-49 0 -76 10l22 123q47 0 80.5 27t42.5 75l187 1061h-340l-228 -1286h-194l227 1286h-340l-227 -1286h-195zM1444 1198q7 49 47.5 83t91.5 34q49 0 76.5 -33.5t19.5 -83.5q-9 -50 -49.5 -84.5t-89.5 -34.5t-77 34.5t-19 84.5z " />
<glyph horiz-adv-x="0" />
<glyph horiz-adv-x="682" />
<glyph unicode=" "  horiz-adv-x="471" />
<glyph unicode="&#x09;" horiz-adv-x="471" />
<glyph unicode="&#xa0;" horiz-adv-x="471" />
<glyph unicode="!" d="M127 100q8 50 48 84.5t91 34.5q49 0 76.5 -34.5t19.5 -84.5q-7 -49 -47 -82.5t-90 -33.5q-49 0 -77.5 33t-20.5 83zM205 406l182 1028h186l-180 -1028h-188z" />
<glyph unicode="&#x22;" horiz-adv-x="757" d="M297 922l90 512h160l-90 -512h-160zM623 922l90 512h161l-90 -512h-161z" />
<glyph unicode="#" horiz-adv-x="1255" d="M135 342l27 147h168l147 453h-168l27 148h188l115 344h188l-114 -344h323l115 344h188l-116 -344h147l-24 -148h-168l-150 -453h170l-27 -147h-192l-111 -342h-188l111 342h-322l-113 -342h-188l113 342h-146zM516 489h324l149 453h-323z" />
<glyph unicode="$" horiz-adv-x="1105" d="M111 182l141 121q45 -62 117.5 -100.5t152.5 -44.5l86 485q-31 13 -51.5 22t-49.5 23t-49 26.5t-44.5 29.5t-40 34.5t-32.5 39.5t-26 47t-15.5 53.5t-6 62.5t7.5 72q28 161 146.5 273.5t304.5 121.5l32 190h107l-35 -192q99 -12 184 -57t142 -115l-144 -123 q-35 44 -91.5 76.5t-121.5 42.5l-82 -463q141 -61 196 -98q140 -97 132 -256q-1 -25 -6 -52q-14 -78 -51.5 -148.5t-95.5 -127t-140.5 -94t-179.5 -45.5l-33 -191h-106l33 191q-245 19 -381 196zM502 1057q-13 -72 25 -119.5t118 -87.5l74 422q-91 -16 -147 -79t-70 -136z M631 166q97 22 158.5 89.5t74.5 141.5q12 72 -29 118.5t-128 86.5z" />
<glyph unicode="%" horiz-adv-x="1794" d="M266 1094q29 159 147 257.5t279 98.5q160 0 242 -99t53 -257q-28 -160 -145.5 -259.5t-278.5 -99.5q-160 0 -242.5 99.5t-54.5 259.5zM422 0l1014 1434h188l-1014 -1434h-188zM434 1094q-17 -97 26.5 -157t129.5 -60q85 0 149.5 60.5t81.5 156.5q17 95 -26 155t-129 60 q-85 0 -150 -60t-82 -155zM1055 340q29 160 146.5 259t277.5 99q161 0 243.5 -99t53.5 -259q-28 -159 -144.5 -257.5t-277.5 -98.5t-244 99t-55 257zM1223 340q-17 -95 25.5 -156t127.5 -61q86 0 151.5 61t80.5 156q19 96 -24 156.5t-130 60.5q-86 0 -150 -60t-81 -157z" />
<glyph unicode="&#x26;" horiz-adv-x="1222" d="M164 422q21 125 95 217t185 139q-70 42 -100 117.5t-12 173.5q29 169 160.5 275t312.5 106q180 0 272.5 -106t63.5 -275h-193q15 95 -33.5 154t-140.5 59q-94 0 -162.5 -59t-85.5 -154q-17 -94 31 -154.5t141 -60.5h56l-27 -158h-55q-118 0 -206 -77t-110 -197 q-20 -120 40.5 -196t178.5 -76q117 0 204.5 76t109.5 196l47 274h-137l26 158h471l-26 -158h-140l-47 -274q-35 -195 -183.5 -316.5t-352.5 -121.5q-206 0 -312 121.5t-71 316.5z" />
<glyph unicode="'" horiz-adv-x="430" d="M297 922l90 512h160l-90 -512h-160z" />
<glyph unicode="(" horiz-adv-x="604" d="M158 -32q-10 231 43 544q53 303 149 542t210.5 368.5t227.5 129.5l-26 -141q-41 0 -91 -66t-99.5 -182t-96 -286t-80.5 -365q-47 -260 -54.5 -468.5t20 -320.5t83.5 -112l-22 -139q-114 0 -184 132.5t-80 363.5z" />
<glyph unicode=")" horiz-adv-x="604" d="M-2 -528l22 139q41 0 91 66.5t99.5 182.5t97 286.5t81.5 365.5q46 260 53.5 468t-20.5 319.5t-84 111.5l27 141q113 0 182 -132.5t79 -363.5t-42 -544q-40 -227 -105.5 -422.5t-143 -330t-165.5 -211t-172 -76.5z" />
<glyph unicode="*" horiz-adv-x="917" d="M279 1110l65 131l248 -84l49 277h139l-49 -277l281 86l18 -131l-280 -88l127 -225l-129 -80l-123 223l-203 -225l-96 82l200 225z" />
<glyph unicode="+" horiz-adv-x="880" d="M201 518l26 148h256l45 256h148l-45 -256h256l-25 -148h-258l-45 -258h-147l45 258h-256z" />
<glyph unicode="," d="M72 -174q98 88 131 160q-40 7 -61 39t-15 75q8 50 48 84.5t91 34.5q46 0 75.5 -33t18.5 -102q-27 -146 -235 -320z" />
<glyph unicode="-" horiz-adv-x="696" d="M193 471l26 147h475l-26 -147h-475z" />
<glyph unicode="." d="M127 100q8 50 48 84.5t91 34.5q49 0 76.5 -34.5t19.5 -84.5q-7 -49 -47 -82.5t-90 -33.5q-49 0 -77.5 33t-20.5 83z" />
<glyph unicode="/" horiz-adv-x="1138" d="M76 -102l1050 1638h189l-1051 -1638h-188z" />
<glyph unicode="0" horiz-adv-x="1153" d="M214 333q-29 163 7 384q59 327 227.5 530t382.5 203q142 0 236 -93t122.5 -256t-7.5 -384q-57 -327 -225.5 -530t-383.5 -203q-142 0 -236 93t-123 256zM416 717q-44 -252 7.5 -409.5t178.5 -157.5q128 0 235.5 157.5t151.5 409.5q28 170 15.5 295.5t-66 197.5t-137.5 72 q-127 0 -234 -156.5t-151 -408.5z" />
<glyph unicode="1" horiz-adv-x="669" d="M281 1229l26 147l424 66l-254 -1442h-186l221 1268z" />
<glyph unicode="2" horiz-adv-x="1064" d="M92 0l27 160l723 614q86 74 112 217q23 129 -33 210t-169 81q-112 0 -197.5 -81t-108.5 -210h-194q37 205 183.5 332t346.5 127t301 -127t66 -332q-18 -103 -70.5 -191t-128.5 -153l-573 -487h624l-26 -160h-883z" />
<glyph unicode="3" horiz-adv-x="1095" d="M160 422h194q-22 -120 38.5 -196t178.5 -76t205 76t109 196t-38.5 197t-178.5 77h-95l27 158h94q93 0 163 60.5t87 154.5q15 95 -32.5 154t-141.5 59t-162.5 -59t-85.5 -154h-192q29 169 160 275t311 106q181 0 274 -106t64 -275q-18 -98 -75 -173.5t-140 -117.5 q95 -46 136 -138t19 -218q-34 -195 -182.5 -316.5t-353.5 -121.5t-311 121.5t-72 316.5z" />
<glyph unicode="4" horiz-adv-x="1136" d="M123 266l14 88l830 1080h190l-178 -1006h123l-27 -162h-117l-47 -266h-188l47 266h-647zM383 428h422l127 723z" />
<glyph unicode="5" horiz-adv-x="1083" d="M152 420h186q-20 -119 39 -193.5t176 -74.5q112 0 197 80.5t108 209.5q25 141 -41 229.5t-196 88.5q-132 0 -232 -84l-127 49l211 709h645l-28 -162h-480l-116 -381q72 35 170 35q212 0 319.5 -133.5t67.5 -350.5q-35 -205 -181 -331.5t-346 -126.5t-303 120.5t-69 315.5 z" />
<glyph unicode="6" horiz-adv-x="1085" d="M164 451q13 73 38 143t70.5 148t94 147t131 167t156.5 180.5t194 213.5l145 -92q-271 -284 -430 -504q63 29 137 29q201 0 305.5 -123t69.5 -324q-35 -203 -183 -327.5t-353 -124.5t-309 125.5t-66 341.5zM356 436q-23 -127 35.5 -206.5t175.5 -79.5t204.5 79.5 t109.5 206.5q23 128 -35.5 207.5t-175.5 79.5t-204 -79.5t-110 -207.5z" />
<glyph unicode="7" horiz-adv-x="1083" d="M287 0l682 1272h-650l29 162h891l-10 -62l-742 -1372h-200z" />
<glyph unicode="8" horiz-adv-x="1097" d="M164 422q21 125 94 217t182 139q-69 42 -97.5 117.5t-10.5 173.5q29 169 160.5 275t312.5 106q180 0 272.5 -106t63.5 -275q-19 -99 -74.5 -174t-138.5 -117q94 -47 135 -138.5t20 -217.5q-35 -195 -183.5 -316.5t-352.5 -121.5q-206 0 -312 121.5t-71 316.5zM356 422 q-20 -120 40.5 -196t178.5 -76q117 0 204.5 76t109.5 196t-38.5 196t-178.5 76t-206 -76t-110 -196zM526 1069q-17 -94 30.5 -153.5t141.5 -59.5t163.5 59.5t86.5 153.5q15 95 -33.5 154t-140.5 59q-94 0 -162.5 -59t-85.5 -154z" />
<glyph unicode="9" horiz-adv-x="1085" d="M260 997q37 203 185.5 328t353.5 125t307.5 -125.5t64.5 -341.5q-15 -88 -53 -177t-86.5 -168.5t-140.5 -193.5t-174 -207t-228 -253l-147 92q269 282 432 504q-71 -31 -139 -31q-201 0 -305.5 123.5t-69.5 324.5zM455 997q-22 -128 37 -207t176 -79t203.5 79t109.5 207 q22 127 -37 206t-176 79t-204 -79t-109 -206z" />
<glyph unicode=":" d="M127 100q8 50 48 84.5t91 34.5q49 0 76.5 -34.5t19.5 -84.5q-7 -49 -47 -82.5t-90 -33.5q-49 0 -77.5 33t-20.5 83zM254 821q9 49 49 83t90 34t77.5 -34t18.5 -83q-8 -50 -48 -84.5t-91 -34.5q-49 0 -76.5 34.5t-19.5 84.5z" />
<glyph unicode=";" d="M72 -174q98 88 131 160q-40 7 -61 39t-15 75q8 50 48 84.5t91 34.5q46 0 75.5 -33t18.5 -102q-27 -146 -235 -320zM254 821q9 49 49 83t90 34t77.5 -34t18.5 -83q-8 -50 -48 -84.5t-91 -34.5q-49 0 -76.5 34.5t-19.5 84.5z" />
<glyph unicode="&#x3c;" horiz-adv-x="839" d="M168 614l655 394l90 -109l-481 -285l381 -286l-127 -109z" />
<glyph unicode="=" horiz-adv-x="956" d="M160 289l26 147h736l-25 -147h-737zM223 649l27 148h737l-26 -148h-738z" />
<glyph unicode="&#x3e;" horiz-adv-x="839" d="M133 328l479 286l-376 285l126 109l515 -394l-654 -395z" />
<glyph unicode="?" horiz-adv-x="970" d="M297 1296q199 154 430 154q98 0 172 -30.5t116 -82.5t57.5 -119.5t2.5 -142.5q-11 -61 -37 -109.5t-60 -81t-73 -61t-78 -56.5t-72.5 -60t-59.5 -78.5t-36 -104.5l-20 -118h-186l20 118q15 86 50.5 154t77 108.5t88 77.5t85.5 63.5t68 64t37 81.5q15 80 -31.5 144.5 t-157.5 64.5q-75 0 -154.5 -29t-140.5 -77zM375 100q8 50 48 84.5t89 34.5t77.5 -34.5t20.5 -84.5q-7 -49 -47.5 -82.5t-91.5 -33.5q-49 0 -76.5 33t-19.5 83z" />
<glyph unicode="@" horiz-adv-x="2129" d="M166 461q39 218 143 402t255 313t347.5 201.5t413.5 72.5q218 0 389.5 -71.5t274.5 -194t143 -289t6 -354.5q-21 -122 -67.5 -219.5t-104 -159.5t-127.5 -103t-135.5 -58t-130.5 -17q-86 0 -146.5 28t-83.5 80q-136 -108 -305 -108q-195 0 -292.5 132t-59.5 345 q37 214 195 345.5t376 131.5q127 0 223 -43.5t146 -120.5l-90 -512q-10 -54 21 -83t85 -29q42 0 85 20.5t85 61.5t76 115t51 171q39 218 -25.5 391.5t-225.5 273t-394 99.5q-174 0 -332 -60t-279.5 -167.5t-206 -260t-116.5 -333.5q-43 -241 23.5 -428.5t229.5 -291 t399 -103.5q179 0 349 59.5t292 169.5l98 -117q-151 -134 -352.5 -206t-419.5 -72q-219 0 -390.5 72.5t-277 201.5t-145 313t-0.5 402zM881 461q-25 -138 41 -224.5t196 -86.5q132 0 223 81l84 474q-65 65 -202 65q-129 0 -223 -85.5t-119 -223.5z" />
<glyph unicode="A" horiz-adv-x="1546" d="M45 0l889 1434h182l385 -1434h-225l-98 379h-678l-230 -379h-225zM600 553h537l-156 631z" />
<glyph unicode="B" horiz-adv-x="1126" d="M137 0l252 1434h416q176 0 266 -102q67 -76 67 -189q0 -39 -8 -82q-17 -100 -71 -178t-135 -125q101 -42 146 -136q30 -62 29 -140q0 -40 -7 -83q-32 -182 -166.5 -290.5t-323.5 -108.5h-465zM369 168h254q104 0 181 68t97 178q5 29 5 56q0 72 -38 120q-54 68 -159 67 h-256zM483 823h201q95 0 164 61t86 160q5 28 5 54q0 64 -34 107q-48 61 -143 61h-201z" />
<glyph unicode="C" horiz-adv-x="1425" d="M221 717q59 327 295.5 530t560.5 203q161 0 287 -53.5t205 -151.5l-146 -125q-124 156 -366 156q-238 0 -415 -155.5t-220 -403.5q-12 -66 -12 -125q0 -164 90 -278q122 -156 358 -156q246 0 422 153l102 -123q-240 -204 -563 -204q-214 0 -363.5 92t-211.5 259 q-38 103 -38 223q0 76 15 159z" />
<glyph unicode="D" horiz-adv-x="1423" d="M137 0l252 1434h463q161 0 286.5 -51t203.5 -143q78 -94 108 -228q15 -69 16 -144q0 -72 -14 -151q-39 -215 -158.5 -378.5t-299.5 -251t-394 -87.5h-463zM369 168h260q234 0 405.5 150.5t214.5 398.5q12 67 12 128q0 161 -86 271q-118 150 -352 150h-262z" />
<glyph unicode="E" horiz-adv-x="1005" d="M137 0l252 1434h768l-29 -162h-573l-82 -471h508l-29 -162h-508l-84 -479h582l-27 -160h-778z" />
<glyph unicode="F" horiz-adv-x="954" d="M137 0l252 1434h739l-26 -162h-547l-82 -471h477l-28 -162h-478l-112 -639h-195z" />
<glyph unicode="G" horiz-adv-x="1488" d="M221 717q59 327 295.5 530t560.5 203q161 0 287 -53.5t205 -151.5l-146 -125q-124 156 -366 156q-238 0 -415 -155.5t-220 -403.5q-12 -66 -12 -125q0 -164 90 -278q121 -156 358 -156q194 0 342 100l64 350h-334l26 162h529l-103 -582q-237 -204 -563 -204 q-214 0 -363.5 92t-211.5 259q-38 103 -38 223q0 76 15 159z" />
<glyph unicode="H" horiz-adv-x="1406" d="M137 0l252 1434h195l-111 -633h741l113 633h193l-252 -1434h-193l113 639h-744l-112 -639h-195z" />
<glyph unicode="I" horiz-adv-x="462" d="M135 0l252 1434h193l-252 -1434h-193z" />
<glyph unicode="J" horiz-adv-x="923" d="M92 98l148 125q49 -65 155 -65q100 0 175.5 65.5t95.5 171.5l182 1039h194l-184 -1039q-32 -184 -166.5 -297.5t-318.5 -113.5q-90 0 -163.5 30t-117.5 84z" />
<glyph unicode="K" horiz-adv-x="1243" d="M135 0l252 1434h193l-252 -1434h-193zM463 737l690 697h244l-690 -697l487 -737h-250z" />
<glyph unicode="L" horiz-adv-x="948" d="M137 0l252 1434h195l-224 -1274h541l-29 -160h-735z" />
<glyph unicode="M" horiz-adv-x="1644" d="M137 0l252 1434h148l389 -840l686 840h145l-252 -1434h-194l182 1036l-578 -721h-77l-324 721l-182 -1036h-195z" />
<glyph unicode="N" horiz-adv-x="1454" d="M137 0l252 1434h129l668 -1063l188 1063h195l-252 -1434h-129l-670 1063l-186 -1063h-195z" />
<glyph unicode="O" horiz-adv-x="1644" d="M221 717q59 327 295.5 530t560.5 203q215 0 364 -92t210 -258q37 -102 37 -222q0 -77 -15 -161q-57 -327 -293 -530t-561 -203q-214 0 -363.5 92t-211.5 259q-38 103 -38 223q0 76 15 159zM422 717q-12 -67 -12 -128q0 -163 87 -276q119 -155 353 -155t407 155t216 404 q12 68 12 129q1 163 -85 275q-118 155 -353 155q-234 0 -408 -155.5t-217 -403.5z" />
<glyph unicode="P" horiz-adv-x="1073" d="M137 0l252 1434h406q194 0 294 -112q76 -85 76 -214q0 -41 -8 -86q-34 -186 -173.5 -298t-334.5 -112h-203l-108 -612h-201zM475 780h205q104 0 180 66.5t96 175.5q5 29 5 55q-1 72 -39 122q-52 67 -156 67h-205z" />
<glyph unicode="Q" horiz-adv-x="1644" d="M221 717q59 327 295.5 530t560.5 203q215 0 364 -92t210 -258q37 -102 37 -222q0 -77 -15 -161q-50 -283 -233 -469l145 -174l-145 -123l-144 174q-212 -141 -477 -141q-214 0 -363.5 92t-211.5 259q-38 103 -38 223q0 76 15 159zM422 717q-12 -67 -12 -128 q0 -163 86 -276q119 -155 352 -155q205 0 342 94l-182 223l145 121l168 -205q123 139 152 326q12 67 12 128q0 163 -87 276q-118 155 -351 155q-234 0 -408 -155.5t-217 -403.5z" />
<glyph unicode="R" horiz-adv-x="1105" d="M137 0l252 1434h422q195 0 295 -112q75 -85 76 -213q0 -41 -8 -87q-27 -148 -123 -251t-236 -140l242 -631h-221l-215 612h-175l-108 -612h-201zM475 780h221q104 0 180.5 66.5t96.5 175.5q5 29 5 55q0 73 -39 122q-53 67 -157 67h-221z" />
<glyph unicode="S" horiz-adv-x="1105" d="M111 182l141 121q51 -67 132 -106t169 -39q68 0 125.5 22.5t95 59t60.5 77t30 80.5q3 16 3 30q1 30 -11 56q-16 38 -51 63t-82 48.5t-99.5 42.5t-105 45t-97.5 56t-77 75t-44 102q-6 27 -6 60q0 36 7 78q14 80 52 150.5t97 126t145 88t187 32.5q122 0 227.5 -46 t172.5 -130l-144 -123q-41 54 -114.5 89.5t-153.5 35.5q-59 0 -108 -20.5t-81 -53.5t-52 -70t-27 -75q-3 -16 -3 -31q-1 -32 11 -58q16 -40 51 -65.5t82 -50t99 -44t104.5 -46t97.5 -55.5t77 -73q33 -45 45 -100q6 -27 6 -59q0 -34 -7 -74q-15 -84 -56.5 -158t-106.5 -132.5 t-158.5 -92.5t-202.5 -34q-134 0 -244.5 51t-185.5 147z" />
<glyph unicode="T" horiz-adv-x="1140" d="M299 1272l29 162h989l-29 -162h-397l-223 -1272h-195l223 1272h-397z" />
<glyph unicode="U" horiz-adv-x="1361" d="M229 524l160 910h195l-160 -910q-8 -44 -8 -83q0 -106 58 -181q78 -102 231 -102q157 0 272 101.5t143 264.5l162 910h195l-160 -910q-43 -241 -220.5 -390.5t-420.5 -149.5q-242 0 -366 149q-92 111 -92 272q0 57 11 119z" />
<glyph unicode="V" horiz-adv-x="1546" d="M297 1434h229l291 -1180l707 1180h229l-889 -1434h-182z" />
<glyph unicode="W" horiz-adv-x="2291" d="M297 1434h227l199 -1131l575 1131h201l174 -1131l600 1131h226l-781 -1434h-194l-187 1098l-567 -1098h-197z" />
<glyph unicode="X" horiz-adv-x="1490" d="M49 0l680 727l-412 707h250l328 -574l530 574h252l-663 -707l428 -727h-250l-344 596l-549 -596h-250z" />
<glyph unicode="Y" horiz-adv-x="1378" d="M297 1434h225l305 -639l531 639h225l-692 -832l-107 -602h-194l106 604z" />
<glyph unicode="Z" horiz-adv-x="1282" d="M96 0l10 61l1014 1211h-788l28 162h1074l-11 -62l-1015 -1212h804l-26 -160h-1090z" />
<glyph unicode="[" horiz-adv-x="610" d="M43 -512l363 2048h385l-27 -147h-199l-309 -1754h199l-27 -147h-385z" />
<glyph unicode="\" horiz-adv-x="1138" d="M365 1536h188l473 -1638h-188z" />
<glyph unicode="]" horiz-adv-x="610" d="M0 -512l25 147h198l309 1754h-198l26 147h385l-362 -2048h-383z" />
<glyph unicode="^" horiz-adv-x="913" d="M240 1008l462 395l326 -395l-113 -95l-245 299l-353 -299z" />
<glyph unicode="_" horiz-adv-x="921" d="M-61 -352l26 147h920l-27 -147h-919z" />
<glyph unicode="`" horiz-adv-x="544" d="M319 1307l113 96l221 -270l-110 -97z" />
<glyph unicode="a" horiz-adv-x="1105" d="M166 461q38 214 195.5 345.5t375.5 131.5q127 0 223 -43.5t146 -120.5l-135 -774h-189l13 70q-124 -86 -275 -86q-196 0 -294 132q-70 95 -71 231q0 54 11 114zM360 461q-7 -38 -7 -72q1 -91 49 -153q66 -86 196 -86q131 0 225 81l82 476q-69 63 -203 63 q-129 0 -223 -85.5t-119 -223.5z" />
<glyph unicode="b" horiz-adv-x="1105" d="M160 147l246 1389h186l-119 -668q118 70 260 70q201 0 303 -132q74 -96 74 -237q0 -51 -10 -108q-38 -214 -195.5 -345.5t-376.5 -131.5q-129 0 -225 42.5t-143 120.5zM358 215q68 -65 203 -65q130 0 224.5 86t119.5 225q7 38 7 73q0 88 -47 150q-65 86 -193 86 q-137 0 -232 -92z" />
<glyph unicode="c" horiz-adv-x="970" d="M166 461q38 214 192.5 345.5t368.5 131.5q208 0 315 -139l-135 -117q-62 88 -200 88q-129 0 -225.5 -85.5t-121.5 -223.5q-7 -38 -7 -72q1 -91 49 -153q66 -86 196 -86q137 0 231 88l95 -117q-153 -137 -367 -137q-213 0 -321 132q-80 98 -80 240q0 50 10 105z" />
<glyph unicode="d" horiz-adv-x="1107" d="M166 461q38 214 191 345.5t364 131.5q126 0 217 -57l117 655h188l-270 -1536h-189l13 70q-128 -86 -277 -86q-196 0 -294 132q-70 95 -71 231q0 54 11 114zM360 461q-7 -38 -7 -72q1 -91 49 -153q66 -86 196 -86q135 0 227 83l80 461q-64 76 -198 76q-129 0 -225.5 -85.5 t-121.5 -223.5z" />
<glyph unicode="e" horiz-adv-x="1036" d="M168 467q37 210 183 340.5t345 130.5q202 0 288 -141q58 -94 58 -236q0 -71 -14 -153h-672q-1 -13 -1 -25q0 -101 59 -163q66 -70 192 -70q140 0 238 88l92 -117q-156 -137 -373 -137q-215 0 -325 132q-80 97 -81 240q0 52 11 111zM381 539h483v20q0 97 -44 153 q-49 62 -148 62q-101 0 -180 -64t-111 -171z" />
<glyph unicode="f" horiz-adv-x="677" d="M96 -512l228 1286h-123l26 148h123l53 301q26 151 130 240t255 89q68 0 109 -20l-29 -158q-32 19 -75 19q-75 0 -129 -47.5t-66 -122.5l-53 -301h243l-26 -148h-244l-227 -1286h-195z" />
<glyph unicode="g" horiz-adv-x="1050" d="M-4 -236q15 86 80 149.5t166 98.5q-86 46 -86 126q0 12 2 26q18 101 147 155q-66 40 -91 113q-17 46 -17 99q0 31 6 65q29 155 149.5 248.5t288.5 93.5q154 0 242 -82q85 82 176 82q35 0 51 -4l-27 -150q-21 7 -41 7q-45 0 -94 -46q11 -39 11 -83q0 -30 -5 -62 q-28 -150 -148 -243t-288 -93q-77 0 -123.5 -26.5t-54.5 -67.5q-1 -5 -1 -9q0 -36 42 -58q47 -25 135 -25q202 0 310 -80q91 -67 91 -168q0 -21 -4 -43q-17 -92 -92.5 -164t-191.5 -111.5t-252 -39.5q-196 0 -299 81q-86 67 -86 167q0 21 4 44zM188 -236q-2 -11 -2 -21 q0 -54 48 -87q56 -41 167 -41q120 0 212.5 47.5t105.5 120.5q1 9 1 18q0 55 -52 89q-61 40 -174 40q-124 0 -208 -46t-98 -120zM393 600q-5 -23 -5 -44q0 -54 32 -92q44 -52 129 -52q83 0 145.5 52.5t77.5 135.5q3 21 3 39q0 59 -33 99q-44 53 -128 53t-146 -53.5 t-75 -137.5z" />
<glyph unicode="h" horiz-adv-x="1064" d="M135 0l271 1536h186l-121 -686q124 88 277 88q157 0 232 -106q53 -75 54 -184q0 -45 -10 -95l-96 -553h-189l97 553q6 28 6 53q0 61 -34 104q-46 60 -138 60q-133 0 -228 -82l-120 -688h-187z" />
<glyph unicode="i" d="M135 0l162 922h186l-161 -922h-187zM322 1198q7 49 47 83t90 34q51 1 79 -33q21 -26 21 -62q0 -10 -2 -22q-9 -50 -49.5 -84.5t-89.5 -34.5q-51 1 -78 35q-20 26 -20 60q0 12 2 24z" />
<glyph unicode="j" d="M-59 -512l20 123q47 0 80.5 27t42.5 75l213 1209h186l-215 -1213q-19 -106 -86.5 -168.5t-167.5 -62.5q-46 0 -73 10zM322 1198q7 49 47 83t90 34q51 0 79 -33q21 -26 21 -62q0 -11 -2 -22q-9 -50 -49.5 -84.5t-89.5 -34.5q-51 0 -78 35q-20 25 -20 60q0 12 2 24z" />
<glyph unicode="k" horiz-adv-x="970" d="M135 0l271 1536h186l-178 -1012l403 398h223l-444 -430l326 -492h-224l-297 457l-79 -457h-187z" />
<glyph unicode="l" horiz-adv-x="514" d="M172 221l234 1315h186l-232 -1311q-2 -13 -3 -24q-1 -31 19 -51q26 -27 77 -27l-19 -123q-33 -10 -88 -10q-100 0 -146 63q-33 45 -34 111q0 27 6 57z" />
<glyph unicode="m" horiz-adv-x="1556" d="M135 0l162 922h186l-12 -72q124 88 277 88q75 0 130 -33t83 -92q147 125 335 125q134 0 196 -90q44 -64 43 -158q0 -39 -7 -82l-107 -608h-186l106 608q3 19 3 36q0 48 -24 81q-34 45 -101 45q-135 0 -234 -74v-12q0 -27 -6 -76l-107 -608h-188l107 608q3 19 3 36 q0 48 -24 81q-34 45 -100 45q-133 0 -228 -82l-120 -688h-187z" />
<glyph unicode="n" horiz-adv-x="1062" d="M135 0l162 922h186l-12 -72q124 88 277 88q157 0 232 -106q53 -75 54 -184q0 -45 -10 -95l-96 -553h-189l97 553q6 28 6 53q0 61 -34 104q-46 60 -138 60q-133 0 -228 -82l-120 -688h-187z" />
<glyph unicode="o" horiz-adv-x="1132" d="M166 461q38 213 194.5 345t370.5 132q215 0 324 -132q81 -98 81 -240q0 -50 -10 -105q-37 -214 -192.5 -345.5t-370.5 -131.5t-325 132q-82 98 -82 241q0 49 10 104zM360 461q-7 -39 -7 -73q1 -90 47 -152q64 -86 192 -86q127 0 222 86.5t120 224.5q7 38 7 72 q1 89 -47 151q-66 86 -194 86q-127 0 -221 -85.5t-119 -223.5z" />
<glyph unicode="p" horiz-adv-x="1107" d="M43 -512l254 1434h186l-12 -72q124 88 279 88q196 0 292 -132q70 -95 70 -233q0 -53 -10 -112q-38 -214 -190 -345.5t-361 -131.5q-132 0 -223 57l-99 -553h-186zM360 227q64 -77 201 -77q129 0 225 86.5t121 224.5q7 38 7 71q0 90 -48 152q-67 86 -196 86 q-136 0 -230 -84z" />
<glyph unicode="q" horiz-adv-x="1105" d="M166 461q38 214 195.5 345.5t375.5 131.5q127 0 223 -43.5t146 -120.5l-227 -1286h-189l98 561q-112 -65 -253 -65q-202 0 -305 132q-74 96 -74 236q0 51 10 109zM360 461q-7 -39 -7 -73q0 -89 47 -152q64 -86 192 -86q136 0 231 92l82 465q-69 63 -203 63 q-129 0 -223 -85.5t-119 -223.5z" />
<glyph unicode="r" horiz-adv-x="708" d="M135 0l162 922h186l-18 -105q125 119 258 119q27 0 57 -6l-28 -164q-31 8 -72 8q-141 0 -244 -121l-114 -653h-187z" />
<glyph unicode="s" horiz-adv-x="790" d="M92 113l135 114q27 -39 73.5 -63.5t96.5 -24.5q70 0 113.5 40t50.5 87q6 33 -12 58.5t-51.5 42.5t-75 33.5t-82 38t-72.5 49.5q-31 26 -46 72q-9 27 -9 60q0 22 4 46q22 114 111 193t227 79q84 0 156 -30t116 -85l-135 -114q-24 30 -65.5 50.5t-83.5 20.5 q-58 0 -94 -34.5t-43 -75.5q-2 -9 -1 -17q0 -25 13 -45q18 -26 51.5 -44t75 -35t82 -38.5t71.5 -48.5q32 -28 47 -72q9 -27 9 -58q0 -21 -4 -44q-20 -118 -119 -201t-248 -83q-92 0 -168.5 34t-122.5 95z" />
<glyph unicode="t" horiz-adv-x="667" d="M197 774l26 148h113l35 204h194l-35 -204h228l-27 -148h-227l-82 -473q-4 -21 -4 -39q0 -46 24 -76q34 -44 101 -43q40 0 80 19l-27 -158q-46 -20 -115 -20q-142 0 -211 86q-50 62 -50 156q0 35 7 75l82 473h-112z" />
<glyph unicode="u" horiz-adv-x="1079" d="M201 385l96 537h192l-94 -537q-4 -27 -4 -52q0 -69 35 -117q48 -66 143 -66q97 0 168 65t90 170l95 537h184l-94 -537q-32 -180 -163 -290.5t-312 -110.5q-182 0 -275 110q-69 82 -69 203q0 42 8 88z" />
<glyph unicode="v" horiz-adv-x="1083" d="M201 922h209l172 -689l415 689h209l-577 -922h-176z" />
<glyph unicode="w" horiz-adv-x="1617" d="M201 922h215l112 -693l349 693h188l104 -693l357 693h215l-514 -922h-197l-106 657l-336 -657h-197z" />
<glyph unicode="x" horiz-adv-x="1062" d="M49 0l440 471l-262 451h217l189 -332l307 332h217l-424 -451l281 -471h-217l-205 352l-326 -352h-217z" />
<glyph unicode="y" horiz-adv-x="1083" d="M90 -512l363 512l-252 922h209l172 -697l415 697h209l-909 -1434h-207z" />
<glyph unicode="z" horiz-adv-x="966" d="M96 0l10 61l623 713h-489l26 148h766l-10 -62l-625 -713h498l-25 -147h-774z" />
<glyph unicode="{" horiz-adv-x="643" d="M152 438l26 142q60 0 119.5 89.5t83.5 227.5l35 197q36 201 157 329.5t267 128.5l-25 -141q-62 0 -121.5 -89.5t-83.5 -227.5l-35 -197q-24 -136 -87.5 -237.5t-151.5 -151.5q71 -51 98.5 -152.5t3.5 -236.5l-32 -189q-26 -138 2 -228.5t90 -90.5l-25 -139 q-146 0 -221.5 128.5t-40.5 329.5l33 189q26 139 -2 229t-90 90z" />
<glyph unicode="|" d="M43 -512l363 2048h186l-363 -2048h-186z" />
<glyph unicode="}" horiz-adv-x="643" d="M-16 -528l22 139q60 0 119.5 90.5t85.5 228.5l33 189q24 135 88.5 236.5t152.5 152.5q-71 51 -99.5 152.5t-4.5 236.5l35 197q26 138 -2 227.5t-90 89.5l26 141q146 0 221 -129t39 -329l-35 -197q-24 -137 4.5 -227t88.5 -90l-25 -142q-60 0 -119.5 -90t-85.5 -229 l-32 -189q-35 -200 -155.5 -329t-266.5 -129z" />
<glyph unicode="~" horiz-adv-x="884" d="M152 504q17 102 94 166.5t176 64.5q43 0 77 -12.5t55.5 -30.5t41 -36.5t45.5 -31t57 -12.5q46 0 83 32.5t44 82.5h125q-19 -103 -96 -168t-178 -65q-53 0 -93 19.5t-60.5 42.5t-51.5 42.5t-68 19.5q-48 0 -84 -31t-45 -83h-122z" />
<glyph unicode="&#xa1;" d="M43 -512l182 1028h187l-183 -1028h-186zM254 821q9 49 49 83t90 34t77.5 -34t18.5 -83q-8 -50 -48 -84.5t-91 -34.5q-49 0 -76.5 34.5t-19.5 84.5z" />
<glyph unicode="&#xa2;" horiz-adv-x="970" d="M166 461q35 193 166.5 320.5t318.5 150.5l35 194h107l-33 -190q181 -9 282 -137l-135 -117q-61 80 -178 86l-108 -618q120 6 208 88l95 -117q-138 -126 -332 -135l-33 -191h-106l32 193q-179 22 -266.5 150.5t-52.5 322.5zM360 461q-22 -114 21 -195t135 -106l105 600 q-99 -27 -170 -106.5t-91 -192.5z" />
<glyph unicode="&#xa3;" horiz-adv-x="1054" d="M70 0q15 93 69 159t133 95l68 389h-154l29 148h152l45 247q32 184 167 298t318 114q91 0 163.5 -30t115.5 -85l-146 -125q-53 66 -156 66q-100 0 -175.5 -66.5t-92.5 -171.5l-45 -247h350l-26 -148h-350l-68 -385q40 -14 88 -44.5t89 -51.5t83 -21q51 0 87 32t44 83h152 q-22 -123 -106.5 -197.5t-198.5 -74.5q-57 0 -109.5 20.5t-85.5 45t-76 45t-84 20.5q-50 0 -86 -31.5t-45 -83.5h-149z" />
<glyph unicode="&#xa5;" horiz-adv-x="1378" d="M297 1434h225l305 -639l531 639h225l-692 -832l-10 -57h272l-16 -107h-275l-26 -151h272l-18 -109h-275l-31 -178h-194l31 178h-275l19 109h276l27 151h-275l19 107h274l10 59z" />
<glyph unicode="&#xa7;" horiz-adv-x="872" d="M4 -391l139 121q58 -90 187 -90q88 0 153 53.5t78 138.5q19 109 -41 184l-340 414l146 125l344 -420q118 -136 86 -303q-29 -161 -154.5 -260.5t-300.5 -99.5q-202 0 -297 137zM276 1090q29 161 155.5 260.5t301.5 99.5q199 0 297 -137l-139 -121q-62 90 -189 90 q-88 0 -152 -53.5t-79 -138.5q-19 -113 43 -185l340 -413l-145 -125l-347 417q-116 136 -86 306z" />
<glyph unicode="&#xa8;" horiz-adv-x="886" d="M336 1171q9 46 47 78.5t84 32.5t73 -32.5t19 -78.5q-9 -47 -47 -79.5t-84 -32.5t-72.5 32.5t-19.5 79.5zM725 1171q7 47 46 80t85 33q47 0 73.5 -32.5t18.5 -80.5q-7 -47 -45.5 -79.5t-85.5 -32.5q-46 0 -73.5 32.5t-18.5 79.5z" />
<glyph unicode="&#xa9;" horiz-adv-x="1644" d="M221 717q59 327 295.5 530t560.5 203q215 0 364 -92t210 -258.5t22 -382.5q-57 -327 -293 -530t-561 -203q-214 0 -363.5 92t-211.5 259t-23 382zM362 717q-47 -277 85 -450t391 -173t451.5 173t242.5 450q33 182 -15.5 324t-167.5 220t-290 78q-260 0 -454 -173 t-243 -449zM598 717q29 164 148.5 265t283.5 101t246 -102l-84 -70q-61 74 -174 74q-114 0 -198.5 -74.5t-104.5 -193.5q-22 -118 36.5 -193t172.5 -75q119 0 198 73l60 -69q-119 -103 -283 -103q-163 0 -246 101.5t-55 265.5z" />
<glyph unicode="&#xaa;" horiz-adv-x="628" d="M262 1180q22 117 109.5 189.5t208.5 72.5q151 0 204 -94l-73 -422h-115l6 35q-68 -46 -147 -46q-107 0 -160 73t-33 192zM381 1180q-12 -72 22 -117t101 -45q66 0 114 39l44 252q-37 32 -103 32q-67 0 -115.5 -45t-62.5 -116z" />
<glyph unicode="&#xab;" horiz-adv-x="962" d="M152 512l415 352l78 -94l-303 -258l213 -258l-113 -96zM506 512l416 352l77 -94l-303 -258l213 -258l-112 -96z" />
<glyph unicode="&#xac;" horiz-adv-x="1024" d="M205 541l26 147h803l-67 -381h-148l41 234h-655z" />
<glyph unicode="&#xad;" horiz-adv-x="696" d="M193 471l26 147h475l-26 -147h-475z" />
<glyph unicode="&#xae;" horiz-adv-x="1644" d="M221 717q59 327 295.5 530t560.5 203q215 0 364 -92t210 -258.5t22 -382.5q-57 -327 -293 -530t-561 -203q-214 0 -363.5 92t-211.5 259t-23 382zM362 717q-47 -277 85 -450t391 -173t451.5 173t242.5 450q33 182 -15.5 324t-167.5 220t-290 78q-260 0 -454 -173 t-243 -449zM670 356l127 717h217q100 0 151.5 -57t32.5 -152q-12 -73 -58 -124t-114 -72l117 -312h-127l-101 301h-77l-54 -301h-114zM854 752h102q48 0 83 30.5t44 81.5t-15 82t-71 31h-104z" />
<glyph unicode="&#xaf;" horiz-adv-x="751" d="M311 1100l19 114h518l-21 -114h-516z" />
<glyph unicode="&#xb0;" horiz-adv-x="589" d="M301 1229q17 96 86.5 155.5t163.5 59.5q95 0 142 -59t30 -156t-86 -156t-164 -59q-93 0 -141 59.5t-31 155.5zM397 1229q-9 -52 17.5 -84.5t77.5 -32.5t88.5 32.5t46.5 84.5t-18 84.5t-77 32.5t-88 -32.5t-47 -84.5z" />
<glyph unicode="&#xb1;" horiz-adv-x="880" d="M123 76l27 147h659l-25 -147h-661zM207 545l24 147h256l45 256h148l-45 -256h256l-25 -147h-256l-47 -258h-147l47 258h-256z" />
<glyph unicode="&#xb4;" horiz-adv-x="544" d="M289 1133l317 270l78 -96l-315 -271z" />
<glyph unicode="&#xb5;" horiz-adv-x="1079" d="M-41 -410l21 123q47 0 80 27t42 76l91 520l8 49l96 537h192l-94 -537q-17 -104 31 -169.5t143 -65.5q97 0 168 65t90 170l95 537h184l-94 -537q-32 -180 -163 -290.5t-312 -110.5q-128 0 -211 53l-39 -225q-19 -106 -86.5 -169t-167.5 -63q-47 0 -74 10z" />
<glyph unicode="&#xb6;" horiz-adv-x="1226" d="M283 1036q31 181 165 289.5t324 108.5h234l-252 -1434h-181l111 639h-51q-190 0 -287 108.5t-63 288.5zM911 0l252 1434h180l-251 -1434h-181z" />
<glyph unicode="&#xb7;" d="M201 512q7 49 47 83t90 34q51 0 78.5 -33.5t19.5 -83.5q-9 -50 -49.5 -84.5t-89.5 -34.5q-51 0 -78 34.5t-18 84.5z" />
<glyph unicode="&#xb8;" horiz-adv-x="548" d="M61 -395l70 59q26 -26 66 -26t70.5 24.5t37.5 63.5q6 41 -22.5 66.5t-96.5 25.5l35 182h80l-20 -117q60 -12 89 -54t17 -108q-13 -75 -70.5 -121t-134.5 -46q-79 0 -121 51z" />
<glyph unicode="&#xba;" horiz-adv-x="645" d="M262 1180q22 117 108.5 189.5t204.5 72.5q119 0 180.5 -72.5t39.5 -189.5q-20 -118 -107 -191.5t-207 -73.5q-117 0 -178 73.5t-41 191.5zM381 1180q-12 -72 21 -117t98 -45q66 0 115 45t63 117q12 71 -21.5 116t-99.5 45q-65 0 -113.5 -45t-62.5 -116z" />
<glyph unicode="&#xbb;" horiz-adv-x="962" d="M135 254l303 258l-215 258l115 94l291 -352l-416 -354zM489 254l304 258l-215 258l114 94l291 -352l-416 -354z" />
<glyph unicode="&#xbf;" horiz-adv-x="970" d="M57 -156q12 70 45.5 125.5t74 88t88 68t88 67t73.5 84.5t45 120l23 119h186l-23 -119q-13 -74 -40.5 -135t-61.5 -101t-72.5 -73t-76 -59.5t-69.5 -52t-55 -58t-30 -70.5q-14 -82 32.5 -146t155.5 -64q75 0 154 29.5t141 78.5l101 -121q-197 -153 -428 -153 q-129 0 -216.5 52.5t-120 136t-14.5 183.5zM522 821q9 49 49.5 83t90.5 34t77.5 -34t18.5 -83q-9 -50 -50 -84.5t-90 -34.5t-77 34.5t-19 84.5z" />
<glyph unicode="&#xf7;" horiz-adv-x="1024" d="M195 479l24 148h803l-25 -148h-802zM440 217q7 46 45 77.5t84 31.5q44 0 69 -31.5t19 -77.5q-9 -45 -45.5 -76.5t-81.5 -31.5t-71.5 31.5t-18.5 76.5zM559 887q7 45 44.5 76.5t82.5 31.5q46 0 71.5 -31t16.5 -77q-8 -45 -45 -77t-82 -32q-44 0 -70 32.5t-18 76.5z" />
<glyph unicode="&#x13f;" horiz-adv-x="948" d="M137 0l252 1434h195l-224 -1274h541l-29 -160h-735zM715 666q9 49 49 82.5t90 33.5t77.5 -33.5t18.5 -82.5q-9 -50 -48.5 -84.5t-88.5 -34.5q-50 0 -78.5 35t-19.5 84z" />
<glyph unicode="&#x140;" horiz-adv-x="794" d="M172 221l234 1315h186l-232 -1311q-9 -48 16.5 -75t76.5 -27l-19 -123q-33 -10 -88 -10q-100 0 -146.5 63t-27.5 168zM625 666q9 49 49 82.5t90 33.5t77.5 -33.5t18.5 -82.5q-9 -50 -48.5 -84.5t-88.5 -34.5q-50 0 -78.5 35t-19.5 84z" />
<glyph unicode="&#x192;" horiz-adv-x="677" d="M-6 -512l20 123q47 0 80.5 27t42.5 75l187 1061h-123l26 148h123l53 301q26 151 130 240t255 89q68 0 109 -20l-29 -158q-32 19 -75 19q-75 0 -129 -47.5t-66 -122.5l-53 -301h243l-26 -148h-244l-188 -1065q-19 -105 -90 -168t-172 -63q-51 0 -74 10z" />
<glyph unicode="&#x2c6;" horiz-adv-x="720" d="M289 1133l317 270l223 -270l-110 -97l-146 176l-204 -176z" />
<glyph unicode="&#x2c7;" horiz-adv-x="720" d="M319 1307l113 96l143 -176l207 176l78 -96l-317 -271z" />
<glyph unicode="&#x2d8;" horiz-adv-x="729" d="M274 1190l111 96q64 -84 190 -84q128 0 220 82l77 -94q-140 -127 -321 -127q-178 0 -277 127z" />
<glyph unicode="&#x2d9;" d="M322 1198q7 49 47 83t90 34q51 0 78.5 -33.5t19.5 -83.5q-9 -50 -49.5 -84.5t-89.5 -34.5q-51 0 -78 34.5t-18 84.5z" />
<glyph unicode="&#x2da;" horiz-adv-x="563" d="M311 1208q15 85 75 137t142 52q83 0 124 -52t26 -137q-13 -83 -73.5 -134.5t-143.5 -51.5q-80 0 -121.5 51.5t-28.5 134.5zM395 1208q-9 -45 14 -73.5t68 -28.5q44 0 77 28t42 74q8 46 -16 75.5t-68 29.5q-43 0 -76.5 -29.5t-40.5 -75.5z" />
<glyph unicode="&#x2db;" horiz-adv-x="526" d="M80 -76q6 44 31 76h92q-23 -25 -33 -76q-9 -52 15 -82t71 -30q46 0 84 30l53 -63q-64 -58 -151 -58q-90 0 -134.5 55.5t-27.5 147.5z" />
<glyph unicode="&#x2dc;" horiz-adv-x="700" d="M246 1092q15 85 76.5 137.5t140.5 52.5q34 0 60 -10t41.5 -24t29.5 -28t32.5 -24t41.5 -10q35 0 62.5 25t33.5 63h104q-15 -86 -76 -139.5t-143 -53.5q-35 0 -60.5 10t-40.5 24.5t-28 28.5t-30.5 24t-40.5 10q-37 0 -65 -24t-34 -62h-104z" />
<glyph unicode="&#x2dd;" horiz-adv-x="864" d="M289 1133l317 270l78 -96l-315 -271zM608 1133l318 270l78 -96l-316 -271z" />
<glyph unicode="&#x400;" horiz-adv-x="1005" d="M137 0l252 1434h768l-29 -162h-573l-82 -471h508l-29 -162h-508l-84 -479h582l-27 -160h-778zM612 1772l111 94l223 -271l-112 -94z" />
<glyph unicode="&#x401;" horiz-adv-x="1005" d="M137 0l252 1434h768l-29 -162h-573l-82 -471h508l-29 -162h-508l-84 -479h582l-27 -160h-778zM504 1634q7 46 46 78.5t85 32.5t73 -32.5t19 -78.5q-9 -46 -47 -78t-84 -32q-47 0 -73.5 32t-18.5 78zM893 1634q7 47 45.5 80t85.5 33t74 -33t18 -80q-7 -46 -46.5 -78 t-86.5 -32q-46 0 -72 32t-18 78z" />
<glyph unicode="&#x402;" horiz-adv-x="1411" d="M299 1272l29 162h989l-29 -162h-397l-84 -477q127 88 276 88q159 0 236.5 -106.5t46.5 -278.5l-49 -277q-19 -105 -89 -168t-173 -63q-51 0 -74 10l18 123q48 0 82 27t43 75l47 273q17 97 -28 158t-137 61q-131 0 -228 -84l-110 -633h-195l223 1272h-397z" />
<glyph unicode="&#x403;" horiz-adv-x="950" d="M137 0l252 1434h735l-26 -162h-543l-223 -1272h-195zM641 1595l317 271l80 -94l-317 -271z" />
<glyph unicode="&#x404;" horiz-adv-x="1425" d="M221 717q59 327 295.5 530t560.5 203q161 0 287 -53.5t205 -151.5l-146 -125q-124 156 -366 156q-216 0 -383.5 -130.5t-229.5 -344.5h807l-28 -162h-807q-17 -217 103.5 -349t338.5 -132q246 0 422 153l102 -123q-240 -204 -563 -204q-214 0 -363.5 92t-211.5 259 t-23 382z" />
<glyph unicode="&#x405;" horiz-adv-x="1105" d="M111 182l141 121q51 -67 132 -106t169 -39q68 0 125.5 22.5t95 59t60.5 77t30 80.5q8 48 -8.5 86t-51 63t-81.5 48.5t-99.5 42.5t-105 45t-97.5 56t-77 75t-44 102t1 138q14 80 52 150.5t97 126t145 88t187 32.5q122 0 227.5 -46t172.5 -130l-144 -123 q-41 54 -114.5 89.5t-153.5 35.5q-59 0 -108 -20.5t-81 -53.5t-52 -70t-27 -75q-8 -49 8.5 -88.5t51 -65.5t81.5 -50.5t99 -44t104.5 -46t97.5 -55.5t77 -73.5t44.5 -99.5t-0.5 -133q-15 -84 -56.5 -158t-106.5 -132.5t-158.5 -92.5t-202.5 -34q-134 0 -244.5 51t-185.5 147 z" />
<glyph unicode="&#x406;" horiz-adv-x="462" d="M135 0l252 1434h193l-252 -1434h-193z" />
<glyph unicode="&#x407;" horiz-adv-x="462" d="M135 0l252 1434h193l-252 -1434h-193zM242 1634q8 46 46 78.5t85 32.5q45 0 71.5 -32.5t20.5 -78.5q-9 -46 -48 -78t-85 -32t-72 32t-18 78zM575 1634q7 47 45.5 80t84.5 33q47 0 74.5 -33t19.5 -80q-9 -46 -47.5 -78t-85.5 -32q-46 0 -73 32t-18 78z" />
<glyph unicode="&#x408;" horiz-adv-x="923" d="M92 98l148 125q49 -65 155 -65q100 0 175.5 65.5t95.5 171.5l182 1039h194l-184 -1039q-32 -184 -166.5 -297.5t-318.5 -113.5q-90 0 -163.5 30t-117.5 84z" />
<glyph unicode="&#x409;" horiz-adv-x="1933" d="M72 0l18 123q109 0 185.5 64t97.5 180l186 1067h873l-109 -613h225q194 0 293.5 -112t67.5 -297q-34 -188 -172 -300t-334 -112h-424l223 1272h-469l-160 -897q-31 -176 -139 -280.5t-256 -104.5q-68 0 -106 10zM1208 168h224q104 0 180 67t96 177q20 108 -32.5 174.5 t-157.5 66.5h-226z" />
<glyph unicode="&#x40a;" horiz-adv-x="1927" d="M137 0l252 1434h195l-107 -613h639l107 613h200l-106 -613h223q196 0 295.5 -112t67.5 -297q-34 -188 -172.5 -300t-333.5 -112h-426l114 653h-639l-114 -653h-195zM1200 168h225q104 0 179.5 67t97.5 177q19 108 -34.5 174.5t-158.5 66.5h-223z" />
<glyph unicode="&#x40b;" horiz-adv-x="1411" d="M299 1272l29 162h989l-29 -162h-397l-84 -477q127 88 276 88q159 0 236.5 -106.5t46.5 -278.5l-86 -498h-195l86 498q17 97 -28 158t-137 61q-131 0 -228 -84l-110 -633h-195l223 1272h-397z" />
<glyph unicode="&#x40c;" horiz-adv-x="1243" d="M135 0l252 1434h193l-252 -1434h-193zM463 737l690 697h244l-690 -697l487 -737h-250zM758 1595l319 271l78 -94l-317 -271z" />
<glyph unicode="&#x40d;" horiz-adv-x="1433" d="M137 0l252 1434h195l-189 -1063l1026 1063h127l-252 -1434h-194l186 1063l-1022 -1063h-129zM805 1772l113 94l221 -271l-111 -94z" />
<glyph unicode="&#x40e;" horiz-adv-x="1247" d="M285 0l325 451l-319 983h209l243 -758l508 758h209l-966 -1434h-209zM614 1655l113 94q64 -84 188 -84q130 0 220 84l77 -96q-141 -125 -321 -125q-174 0 -277 127z" />
<glyph unicode="&#x40f;" horiz-adv-x="1413" d="M137 0l252 1434h195l-224 -1274h750l223 1274h195l-252 -1434h-477l-56 -307h-182l55 307h-479z" />
<glyph unicode="&#x410;" horiz-adv-x="1546" d="M45 0l889 1434h182l385 -1434h-225l-98 379h-678l-230 -379h-225zM600 553h537l-156 631z" />
<glyph unicode="&#x411;" horiz-adv-x="1103" d="M137 0l252 1434h756l-29 -162h-553l-80 -451h236q194 0 293 -112t67 -297q-34 -188 -172 -300t-334 -112h-436zM369 168h233q104 0 180.5 67t96.5 177q20 108 -33 174.5t-158 66.5h-235z" />
<glyph unicode="&#x412;" horiz-adv-x="1126" d="M137 0l252 1434h416q176 0 266 -102t59 -271q-17 -100 -71 -178t-135 -125q101 -42 146 -136t22 -223q-32 -182 -166.5 -290.5t-323.5 -108.5h-465zM369 168h254q104 0 181 68t97 178q20 108 -33.5 175.5t-158.5 67.5h-256zM483 823h201q95 0 164 61t86 160 q19 100 -29 161t-143 61h-201z" />
<glyph unicode="&#x413;" horiz-adv-x="950" d="M137 0l252 1434h735l-26 -162h-543l-223 -1272h-195z" />
<glyph unicode="&#x414;" horiz-adv-x="1398" d="M8 -307l80 461q108 0 185 81.5t104 235.5l170 963h891l-224 -1274h150l-84 -467h-180l55 307h-911l-56 -307h-180zM414 160h600l194 1112h-489l-141 -801q-37 -204 -164 -311z" />
<glyph unicode="&#x415;" horiz-adv-x="1005" d="M137 0l252 1434h768l-29 -162h-573l-82 -471h508l-29 -162h-508l-84 -479h582l-27 -160h-778z" />
<glyph unicode="&#x416;" horiz-adv-x="1884" d="M49 0l694 737l-405 697h223l408 -697l-690 -737h-230zM844 0l252 1434h194l-252 -1434h-194zM1174 737l651 697h225l-653 -697l438 -737h-229z" />
<glyph unicode="&#x417;" horiz-adv-x="1126" d="M109 188l143 123q123 -157 315 -157q133 0 222.5 71.5t111.5 188.5q20 108 -33.5 175.5t-158.5 67.5h-213l30 166h158q101 0 173 61t91 167t-33 167.5t-161 61.5q-171 0 -340 -143l-97 116q232 197 482 197q197 0 286.5 -106.5t59.5 -276.5q-37 -213 -221 -309 q100 -42 145.5 -136.5t22.5 -224.5q-34 -189 -180.5 -301t-360.5 -112q-282 0 -442 204z" />
<glyph unicode="&#x418;" horiz-adv-x="1433" d="M137 0l252 1434h195l-189 -1063l1026 1063h127l-252 -1434h-194l186 1063l-1022 -1063h-129z" />
<glyph unicode="&#x419;" horiz-adv-x="1433" d="M137 0l252 1434h195l-189 -1063l1026 1063h127l-252 -1434h-194l186 1063l-1022 -1063h-129zM709 1655l112 94q64 -84 189 -84q129 0 219 84l78 -96q-141 -125 -322 -125q-177 0 -276 127z" />
<glyph unicode="&#x41a;" horiz-adv-x="1243" d="M135 0l252 1434h193l-252 -1434h-193zM463 737l690 697h244l-690 -697l487 -737h-250z" />
<glyph unicode="&#x41b;" horiz-adv-x="1345" d="M72 0l18 123q109 0 185.5 64t97.5 180l186 1067h899l-252 -1434h-200l223 1272h-496l-160 -897q-31 -176 -139 -280.5t-256 -104.5q-68 0 -106 10z" />
<glyph unicode="&#x41c;" horiz-adv-x="1644" d="M137 0l252 1434h148l389 -840l686 840h145l-252 -1434h-194l182 1036l-578 -721h-77l-324 721l-182 -1036h-195z" />
<glyph unicode="&#x41d;" horiz-adv-x="1406" d="M137 0l252 1434h195l-111 -633h741l113 633h193l-252 -1434h-193l113 639h-744l-112 -639h-195z" />
<glyph unicode="&#x41e;" horiz-adv-x="1644" d="M221 717q59 327 295.5 530t560.5 203q215 0 364 -92t210 -258.5t22 -382.5q-57 -327 -293 -530t-561 -203q-214 0 -363.5 92t-211.5 259t-23 382zM422 717q-44 -249 75 -404t353 -155t407 155t216 404q44 249 -73.5 404t-352.5 155q-234 0 -408 -155.5t-217 -403.5z" />
<glyph unicode="&#x41f;" horiz-adv-x="1339" d="M137 0l252 1434h1063l-252 -1434h-192l223 1272h-676l-223 -1272h-195z" />
<glyph unicode="&#x420;" horiz-adv-x="1073" d="M137 0l252 1434h406q194 0 294 -112.5t68 -299.5q-34 -186 -173.5 -298t-334.5 -112h-203l-108 -612h-201zM475 780h205q104 0 180 66.5t96 175.5q19 110 -33.5 177t-156.5 67h-205z" />
<glyph unicode="&#x421;" horiz-adv-x="1425" d="M221 717q59 327 295.5 530t560.5 203q161 0 287 -53.5t205 -151.5l-146 -125q-124 156 -366 156q-238 0 -415 -155.5t-220 -403.5q-44 -248 77.5 -403.5t358.5 -155.5q246 0 422 153l102 -123q-240 -204 -563 -204q-214 0 -363.5 92t-211.5 259t-23 382z" />
<glyph unicode="&#x422;" horiz-adv-x="1140" d="M299 1272l29 162h989l-29 -162h-397l-223 -1272h-195l223 1272h-397z" />
<glyph unicode="&#x423;" horiz-adv-x="1247" d="M285 0l325 451l-319 983h209l243 -758l508 758h209l-966 -1434h-209z" />
<glyph unicode="&#x424;" horiz-adv-x="1605" d="M221 717q46 258 243.5 418.5t469.5 160.5l24 138h195l-25 -138q271 0 411.5 -160.5t94.5 -418.5q-44 -258 -240.5 -419t-469.5 -161l-23 -137h-194l22 137q-179 0 -305 73t-179.5 205t-23.5 302zM422 717q-32 -181 61.5 -293.5t276.5 -112.5l143 811q-183 0 -316.5 -112 t-164.5 -293zM954 311q183 0 316 112.5t164 293.5q32 182 -60.5 293.5t-275.5 111.5z" />
<glyph unicode="&#x425;" horiz-adv-x="1490" d="M49 0l680 727l-412 707h250l328 -574l530 574h252l-663 -707l428 -727h-250l-344 596l-549 -596h-250z" />
<glyph unicode="&#x426;" horiz-adv-x="1480" d="M137 0l252 1434h195l-224 -1274h750l223 1274h195l-225 -1274h143l-82 -467h-180l55 307h-1102z" />
<glyph unicode="&#x427;" horiz-adv-x="1181" d="M319 1034l70 400h189l-70 -392q-25 -148 28 -222.5t193 -74.5q163 0 264 37l115 652h186l-252 -1434h-186l111 629q-137 -37 -305 -37q-205 0 -292.5 113.5t-50.5 328.5z" />
<glyph unicode="&#x428;" horiz-adv-x="2050" d="M137 0l252 1434h195l-224 -1274h596l224 1274h194l-225 -1274h596l225 1274h195l-252 -1434h-1776z" />
<glyph unicode="&#x429;" horiz-adv-x="2117" d="M137 0l252 1434h195l-224 -1274h596l224 1274h194l-225 -1274h596l225 1274h195l-226 -1274h144l-82 -467h-182l55 307h-1737z" />
<glyph unicode="&#x42a;" horiz-adv-x="1345" d="M299 1272l29 162h514l-107 -613h223q196 0 295.5 -112t67.5 -297q-34 -188 -172.5 -300t-333.5 -112h-426l225 1272h-315zM621 168h223q104 0 180 67t96 177q20 108 -33.5 174.5t-158.5 66.5h-223z" />
<glyph unicode="&#x42b;" horiz-adv-x="1519" d="M137 0l252 1434h201l-107 -613h224q195 0 294.5 -111.5t67.5 -297.5q-34 -188 -172.5 -300t-333.5 -112h-426zM369 168h223q104 0 180 67t96 177q20 108 -33.5 174.5t-158.5 66.5h-223zM1186 0l252 1434h194l-252 -1434h-194z" />
<glyph unicode="&#x42c;" horiz-adv-x="1093" d="M137 0l252 1434h201l-107 -613h224q195 0 294.5 -111.5t67.5 -297.5q-34 -188 -172.5 -300t-333.5 -112h-426zM369 168h223q104 0 180 67t96 177q20 108 -33.5 174.5t-158.5 66.5h-223z" />
<glyph unicode="&#x42d;" horiz-adv-x="1425" d="M109 188l145 123q122 -153 367 -153q219 0 386.5 132t227.5 349h-686l29 162h686q12 215 -108.5 345t-336.5 130q-244 0 -424 -156l-100 125q114 98 258.5 151.5t304.5 53.5q214 0 363 -92t210.5 -258.5t22.5 -382.5q-38 -216 -158 -382.5t-301 -258.5t-395 -92 q-161 0 -286.5 53t-204.5 151z" />
<glyph unicode="&#x42e;" horiz-adv-x="2109" d="M137 0l252 1434h195l-111 -633h348q75 293 288 471t490 178q196 0 332 -92t190.5 -258.5t16.5 -382.5q-59 -327 -279 -530t-518 -203q-279 0 -428 179.5t-120 475.5h-349l-112 -639h-195zM1001 717q-43 -249 59.5 -404t309.5 -155q209 0 366 155t201 404q43 249 -59 404 t-309 155t-365.5 -155t-202.5 -404z" />
<glyph unicode="&#x42f;" horiz-adv-x="1120" d="M59 0l453 627q-136 34 -199.5 138.5t-36.5 256.5q32 187 171 299.5t335 112.5h453l-252 -1434h-201l107 612h-189l-419 -612h-222zM477 1022q-20 -109 32.5 -175.5t156.5 -66.5h252l86 486h-252q-105 0 -180.5 -67t-94.5 -177z" />
<glyph unicode="&#x430;" horiz-adv-x="1105" d="M166 461q38 214 195.5 345.5t375.5 131.5q127 0 223 -43.5t146 -120.5l-135 -774h-189l13 70q-124 -86 -275 -86q-197 0 -294.5 131.5t-59.5 345.5zM360 461q-25 -138 41.5 -224.5t196.5 -86.5q131 0 225 81l82 476q-69 63 -203 63q-129 0 -223 -85.5t-119 -223.5z" />
<glyph unicode="&#x431;" horiz-adv-x="1153" d="M191.5 399q1.5 99 23.5 224q31 173 84.5 302.5t120 206t141 128t156.5 82.5t155.5 55.5t149 61.5t127.5 87l84 -104q-72 -66 -152 -114t-145 -72.5t-131.5 -48.5t-120.5 -53t-102.5 -75t-87 -125t-64.5 -192h12q141 176 340 176q187 0 294.5 -134.5t70.5 -348.5 q-37 -212 -194 -341.5t-390 -129.5q-68 0 -122.5 12t-102.5 40t-79.5 76.5t-50 118t-17 168.5zM391 461q-25 -138 33 -224.5t186 -86.5t223.5 86.5t120.5 224.5t-40 223.5t-193 85.5q-127 0 -216 -84.5t-114 -224.5z" />
<glyph unicode="&#x432;" horiz-adv-x="911" d="M135 0l162 922h362q125 0 185 -65.5t41 -170.5q-10 -65 -47 -116.5t-95 -82.5q73 -27 104 -88t17 -145q-21 -115 -109 -184.5t-223 -69.5h-397zM346 141h176q58 0 103 38t57 97q9 60 -22 99t-89 39h-178zM416 541h147q51 0 89.5 34t47.5 87q9 52 -18 85t-78 33h-145z" />
<glyph unicode="&#x433;" horiz-adv-x="751" d="M135 0l162 922h541l-27 -148h-354l-135 -774h-187z" />
<glyph unicode="&#x434;" horiz-adv-x="1103" d="M20 -246l70 393q75 0 135.5 54t75.5 137l102 584h670l-137 -775h127l-70 -393h-174l45 246h-624l-45 -246h-175zM375 147h375l108 627h-293l-73 -420q-20 -123 -117 -207z" />
<glyph unicode="&#x435;" horiz-adv-x="1036" d="M168 467q37 210 183 340.5t345 130.5q202 0 288.5 -141t43.5 -389h-672q-8 -119 58 -188.5t192 -69.5q140 0 238 88l92 -117q-156 -137 -373 -137q-216 0 -325.5 132t-69.5 351zM381 539h483q5 110 -44 172.5t-148 62.5q-101 0 -180 -64t-111 -171z" />
<glyph unicode="&#x436;" horiz-adv-x="1396" d="M49 0l449 487l-252 435h215l231 -414l74 414h188l-73 -414l379 414h215l-404 -435l277 -487h-213l-261 465l-81 -465h-189l82 467l-424 -467h-213z" />
<glyph unicode="&#x437;" horiz-adv-x="839" d="M86 121l123 106q68 -90 199 -90q85 0 137 39.5t63 102.5q10 60 -20 94.5t-90 34.5h-142l23 127h104q55 0 97 35t51 87q7 50 -21.5 88.5t-97.5 38.5q-51 0 -107.5 -23t-97.5 -61l-88 105q152 133 338 133q143 0 213 -69.5t49 -180.5q-11 -66 -49 -120.5t-98 -86.5 q73 -29 103 -90.5t16 -146.5q-21 -119 -123.5 -189.5t-268.5 -70.5q-113 0 -185.5 34.5t-127.5 102.5z" />
<glyph unicode="&#x438;" horiz-adv-x="1083" d="M135 0l162 922h186l-108 -619l588 619h147l-162 -922h-188l108 618l-585 -618h-148z" />
<glyph unicode="&#x439;" horiz-adv-x="1083" d="M135 0l162 922h186l-108 -619l588 619h147l-162 -922h-188l108 618l-585 -618h-148zM451 1190l110 96q68 -84 191 -84q127 0 219 82l78 -94q-140 -127 -322 -127q-177 0 -276 127z" />
<glyph unicode="&#x43a;" horiz-adv-x="972" d="M135 0l162 922h186l-71 -408l415 408h224l-449 -435l322 -487h-222l-301 461l-79 -461h-187z" />
<glyph unicode="&#x43b;" horiz-adv-x="1026" d="M72 0l18 123q75 0 127.5 44t67.5 124l110 631h660l-162 -922h-188l135 774h-285l-84 -489q-25 -137 -107.5 -216t-203.5 -79q-61 0 -88 10z" />
<glyph unicode="&#x43c;" horiz-adv-x="1226" d="M135 0l162 922h178l209 -514l391 514h178l-161 -922h-174l110 631l-334 -453h-100l-174 453l-111 -631h-174z" />
<glyph unicode="&#x43d;" horiz-adv-x="1075" d="M135 0l162 922h186l-67 -383h432l67 383h187l-162 -922h-186l67 391h-432l-67 -391h-187z" />
<glyph unicode="&#x43e;" horiz-adv-x="1132" d="M166 461q38 213 194.5 345t370.5 132q215 0 324 -131.5t71 -345.5q-37 -214 -192.5 -345.5t-370.5 -131.5t-325 131.5t-72 345.5zM360 461q-25 -138 39.5 -224.5t192.5 -86.5q127 0 222 86.5t120 224.5t-40.5 223.5t-193.5 85.5q-127 0 -221 -85.5t-119 -223.5z" />
<glyph unicode="&#x43f;" horiz-adv-x="1050" d="M135 0l162 922h782l-161 -922h-189l135 774h-407l-135 -774h-187z" />
<glyph unicode="&#x440;" horiz-adv-x="1107" d="M43 -512l254 1434h186l-12 -72q124 88 279 88q196 0 292.5 -131.5t59.5 -345.5q-38 -214 -190 -345.5t-361 -131.5q-132 0 -223 57l-99 -553h-186zM360 227q64 -77 201 -77q129 0 225 86.5t121 224.5t-41.5 223.5t-195.5 85.5q-136 0 -230 -84z" />
<glyph unicode="&#x441;" horiz-adv-x="970" d="M166 461q38 214 192.5 345.5t368.5 131.5q208 0 315 -139l-135 -117q-62 88 -200 88q-129 0 -225.5 -85.5t-121.5 -223.5t41.5 -224.5t196.5 -86.5q137 0 231 88l95 -117q-153 -137 -367 -137q-213 0 -321 132t-70 345z" />
<glyph unicode="&#x442;" horiz-adv-x="892" d="M211 774l27 148h741l-27 -148h-276l-135 -774h-189l135 774h-276z" />
<glyph unicode="&#x443;" horiz-adv-x="1083" d="M90 -512l363 512l-252 922h209l172 -697l415 697h209l-909 -1434h-207z" />
<glyph unicode="&#x444;" horiz-adv-x="1417" d="M166 461q38 213 193.5 342t371.5 129q31 0 47 -2l107 606h188l-108 -606q16 2 49 2q216 0 325.5 -129t71.5 -342t-192.5 -342t-370.5 -129q-33 0 -47 2l-90 -504h-189l90 504q-16 -2 -47 -2q-216 0 -326.5 129t-72.5 342zM360 461q-25 -138 39.5 -224.5t192.5 -86.5 q17 0 49 4l109 612q-32 4 -50 4q-127 0 -221 -85.5t-119 -223.5zM827 154q28 -4 50 -4q128 0 222.5 86.5t117.5 224.5q25 138 -39.5 223.5t-192.5 85.5q-21 0 -49 -4z" />
<glyph unicode="&#x445;" horiz-adv-x="1062" d="M49 0l440 471l-262 451h217l189 -332l307 332h217l-424 -451l281 -471h-217l-205 352l-326 -352h-217z" />
<glyph unicode="&#x446;" horiz-adv-x="1097" d="M135 0l162 922h186l-137 -775h408l137 775h188l-137 -775h115l-70 -393h-174l45 246h-723z" />
<glyph unicode="&#x447;" horiz-adv-x="976" d="M248 664l45 258h186l-45 -252q-13 -79 23 -127.5t125 -48.5q103 0 163 36l70 392h189l-162 -922h-189l66 373q-101 -35 -211 -35q-153 0 -220 88t-40 238z" />
<glyph unicode="&#x448;" horiz-adv-x="1454" d="M135 0l162 922h186l-137 -775h311l138 775h188l-137 -775h311l137 775h187l-162 -922h-1184z" />
<glyph unicode="&#x449;" horiz-adv-x="1501" d="M135 0l162 922h186l-137 -775h311l138 775h188l-137 -775h311l137 775h187l-138 -775h117l-69 -393h-174l45 246h-1127z" />
<glyph unicode="&#x44a;" horiz-adv-x="1058" d="M211 774l27 148h430l-66 -375h162q145 0 213.5 -76t46.5 -199t-116.5 -197.5t-239.5 -74.5h-351l136 774h-242zM528 141h156q57 0 100 37t52 94q10 58 -19.5 96t-85.5 38h-156z" />
<glyph unicode="&#x44b;" horiz-adv-x="1247" d="M135 0l162 922h186l-65 -375h162q145 0 213.5 -76t46.5 -199q-21 -123 -116 -197.5t-241 -74.5h-348zM346 141h154q57 0 99.5 37t53.5 94q9 59 -21 96.5t-85 37.5h-156zM924 0l161 922h189l-162 -922h-188z" />
<glyph unicode="&#x44c;" horiz-adv-x="876" d="M135 0l162 922h186l-65 -375h162q145 0 213.5 -76t46.5 -199q-21 -123 -116 -197.5t-241 -74.5h-348zM346 141h154q57 0 99.5 37t53.5 94q9 59 -21 96.5t-85 37.5h-156z" />
<glyph unicode="&#x44d;" horiz-adv-x="970" d="M86 123l137 117q64 -90 201 -90q114 0 203 67t127 180h-379l22 133h379q-2 110 -67 175t-177 65q-139 0 -231 -86l-96 115q154 139 368 139q213 0 321 -131.5t71 -345.5q-38 -214 -192.5 -345.5t-366.5 -131.5q-209 0 -320 139z" />
<glyph unicode="&#x44e;" horiz-adv-x="1533" d="M135 0l162 922h186l-67 -383h205q56 182 199 290.5t331 108.5q207 0 311.5 -131.5t67.5 -345.5q-38 -214 -189 -345.5t-358 -131.5q-190 0 -295 111t-94 296h-205l-67 -391h-187zM797 461q-25 -138 35 -224.5t180 -86.5t209 86.5t114 224.5t-35 223.5t-180 85.5 t-209 -85.5t-114 -223.5z" />
<glyph unicode="&#x44f;" horiz-adv-x="954" d="M98 0l289 381q-91 26 -131 95t-23 167q22 124 119.5 201.5t245.5 77.5h383l-162 -922h-186l63 367h-143l-258 -367h-197zM422 645q-10 -61 20.5 -100t87.5 -39h191l47 274h-188q-58 0 -102.5 -38t-55.5 -97z" />
<glyph unicode="&#x450;" horiz-adv-x="1036" d="M168 467q37 210 183 340.5t345 130.5q202 0 288.5 -141t43.5 -389h-672q-8 -119 58 -188.5t192 -69.5q140 0 238 88l92 -117q-156 -137 -373 -137q-216 0 -325.5 132t-69.5 351zM381 539h483q5 110 -44 172.5t-148 62.5q-101 0 -180 -64t-111 -171zM539 1307l112 96 l223 -270l-110 -97z" />
<glyph unicode="&#x451;" horiz-adv-x="1036" d="M168 467q37 210 183 340.5t345 130.5q202 0 288.5 -141t43.5 -389h-672q-8 -119 58 -188.5t192 -69.5q140 0 238 88l92 -117q-156 -137 -373 -137q-216 0 -325.5 132t-69.5 351zM381 539h483q5 110 -44 172.5t-148 62.5q-101 0 -180 -64t-111 -171zM426 1133 q7 45 46 77.5t85 32.5q47 0 73 -32t17 -78q-8 -46 -45.5 -78.5t-83.5 -32.5t-73 32.5t-19 78.5zM815 1133q7 47 46 79.5t85 32.5q47 0 73.5 -32.5t18.5 -79.5q-8 -46 -46 -78.5t-85 -32.5t-74 32.5t-18 78.5z" />
<glyph unicode="&#x452;" horiz-adv-x="1105" d="M174 0l207 1184h-113l27 147h113l36 205h189l-37 -205h336l-27 -147h-336l-59 -334q127 88 276 88q157 0 232.5 -106t44.5 -279l-150 -844q-17 -105 -85.5 -168t-168.5 -63q-48 0 -75 10l20 123q48 0 82 27t43 75l148 840q17 97 -29.5 157t-138.5 60q-138 0 -228 -84 l-119 -686h-188z" />
<glyph unicode="&#x453;" horiz-adv-x="751" d="M135 0l162 922h541l-27 -148h-354l-135 -774h-187zM459 1133l319 270l76 -96l-315 -271z" />
<glyph unicode="&#x454;" horiz-adv-x="970" d="M166 461q38 214 192.5 345.5t368.5 131.5q208 0 315 -139l-135 -117q-62 88 -200 88q-112 0 -201 -65.5t-127 -174.5h430l-23 -133h-432q-2 -113 63.5 -180t180.5 -67q137 0 231 88l95 -117q-153 -137 -367 -137q-213 0 -321 132t-70 345z" />
<glyph unicode="&#x455;" horiz-adv-x="790" d="M92 113l135 114q27 -39 73.5 -63.5t96.5 -24.5q70 0 113.5 40t50.5 87q6 33 -12 58.5t-51.5 42.5t-75 33.5t-82 38t-72 49t-46.5 73t-5 105.5q22 114 111 193t227 79q84 0 156 -30t116 -85l-135 -114q-24 30 -65.5 50.5t-83.5 20.5q-58 0 -94 -34.5t-43 -75.5 q-6 -35 12 -61.5t51.5 -44.5t75 -35t82 -38.5t72 -48.5t46.5 -71.5t5 -102.5q-20 -118 -119 -201t-248 -83q-92 0 -168.5 34t-122.5 95z" />
<glyph unicode="&#x456;" d="M135 0l162 922h186l-161 -922h-187zM322 1198q7 49 47 83t90 34q51 0 78.5 -33.5t19.5 -83.5q-9 -50 -49.5 -84.5t-89.5 -34.5q-51 0 -78 34.5t-18 84.5z" />
<glyph unicode="&#x457;" d="M135 0l162 922h186l-161 -922h-187zM156 1149q7 47 45 80t84 33q47 0 74 -33t18 -80q-8 -46 -45.5 -78.5t-83.5 -32.5q-47 0 -74 32.5t-18 78.5zM481 1149q7 47 46 80t85 33q47 0 74.5 -33t18.5 -80q-8 -46 -46.5 -78.5t-85.5 -32.5q-46 0 -73 32.5t-19 78.5z" />
<glyph unicode="&#x458;" d="M-59 -512l20 123q47 0 80.5 27t42.5 75l213 1209h186l-215 -1213q-19 -106 -86.5 -168.5t-167.5 -62.5q-46 0 -73 10zM322 1198q7 49 47 83t90 34q51 0 78.5 -33.5t19.5 -83.5q-9 -50 -49.5 -84.5t-89.5 -34.5q-51 0 -78 34.5t-18 84.5z" />
<glyph unicode="&#x459;" horiz-adv-x="1439" d="M72 0l18 123q75 0 127.5 44t67.5 124l110 631h660l-68 -375h162q146 0 215 -76t47 -199t-116.5 -197.5t-239.5 -74.5h-350l135 774h-285l-84 -489q-25 -137 -107.5 -216t-203.5 -79q-61 0 -88 10zM915 141h156q56 0 99.5 37t52.5 94q10 58 -19.5 96t-85.5 38h-155z" />
<glyph unicode="&#x45a;" horiz-adv-x="1492" d="M135 0l162 922h186l-67 -383h424l67 383h189l-68 -383h176q143 0 209 -74t45 -197q-22 -122 -113.5 -195t-234.5 -73h-365l68 391h-424l-67 -391h-187zM956 141h170q55 0 95 34t49 91q10 57 -17.5 91t-81.5 34h-170z" />
<glyph unicode="&#x45b;" horiz-adv-x="1105" d="M174 0l207 1184h-113l27 147h113l36 205h189l-37 -205h336l-27 -147h-336l-59 -334q127 88 276 88q157 0 232.5 -106t44.5 -279l-96 -553h-187l97 553q17 97 -29.5 157t-138.5 60q-138 0 -228 -84l-119 -686h-188z" />
<glyph unicode="&#x45c;" horiz-adv-x="972" d="M135 0l162 922h186l-71 -408l415 408h224l-449 -435l322 -487h-222l-301 461l-79 -461h-187zM543 1133l317 270l78 -96l-315 -271z" />
<glyph unicode="&#x45d;" horiz-adv-x="1083" d="M135 0l162 922h186l-108 -619l588 619h147l-162 -922h-188l108 618l-585 -618h-148zM547 1307l112 96l222 -270l-111 -97z" />
<glyph unicode="&#x45e;" horiz-adv-x="1083" d="M90 -512l363 512l-252 922h209l172 -697l415 697h209l-909 -1434h-207zM451 1190l110 96q68 -84 193 -84t217 82l78 -94q-140 -127 -322 -127q-173 0 -276 127z" />
<glyph unicode="&#x45f;" horiz-adv-x="1050" d="M135 0l162 922h186l-137 -775h408l137 775h188l-161 -922h-306l-45 -246h-174l45 246h-303z" />
<glyph unicode="&#x490;" horiz-adv-x="944" d="M137 0l252 1434h555l45 256h148l-74 -418h-508l-223 -1272h-195z" />
<glyph unicode="&#x491;" horiz-adv-x="747" d="M135 0l162 922h373l35 204h147l-61 -352h-334l-135 -774h-187z" />
<glyph unicode="&#x4d8;" horiz-adv-x="1515" d="M221 717l15 74h1116q17 219 -104 352t-339 133q-245 0 -422 -156l-102 125q114 98 258.5 151.5t304.5 53.5q215 0 364 -92t210 -258.5t22 -382.5q-57 -327 -275 -530t-513 -203q-195 0 -330.5 92t-189.5 258.5t-15 382.5zM416 629q-19 -213 81 -342t287 -129t332.5 129 t204.5 342h-905z" />
<glyph unicode="&#x4d9;" horiz-adv-x="1036" d="M176 514h670q8 118 -58 187t-192 69q-144 0 -236 -86l-94 117q156 137 375 137q216 0 324.5 -132t70.5 -351q-38 -210 -183.5 -340.5t-344.5 -130.5q-202 0 -288.5 141t-43.5 389zM342 383q-6 -110 41.5 -173t146.5 -63q101 0 181 64.5t114 171.5h-483z" />
<glyph unicode="&#x2000;" horiz-adv-x="933" />
<glyph unicode="&#x2001;" horiz-adv-x="1866" />
<glyph unicode="&#x2002;" horiz-adv-x="933" />
<glyph unicode="&#x2003;" horiz-adv-x="1866" />
<glyph unicode="&#x2004;" horiz-adv-x="622" />
<glyph unicode="&#x2005;" horiz-adv-x="466" />
<glyph unicode="&#x2006;" horiz-adv-x="311" />
<glyph unicode="&#x2007;" horiz-adv-x="311" />
<glyph unicode="&#x2008;" horiz-adv-x="233" />
<glyph unicode="&#x2009;" horiz-adv-x="373" />
<glyph unicode="&#x200a;" horiz-adv-x="103" />
<glyph unicode="&#x2010;" horiz-adv-x="696" d="M193 471l26 147h475l-26 -147h-475z" />
<glyph unicode="&#x2011;" horiz-adv-x="696" d="M193 471l26 147h475l-26 -147h-475z" />
<glyph unicode="&#x2012;" horiz-adv-x="1024" d="M221 643l29 148h803l-29 -148h-803z" />
<glyph unicode="&#x2013;" horiz-adv-x="1024" d="M193 471l26 147h803l-27 -147h-802z" />
<glyph unicode="&#x2014;" horiz-adv-x="1433" d="M193 471l26 147h1213l-27 -147h-1212z" />
<glyph unicode="&#x2018;" d="M309 1130q27 147 238 320l51 -61q-98 -88 -131 -160q40 -8 61.5 -40.5t14.5 -74.5q-9 -50 -50 -84.5t-90 -34.5q-47 0 -76.5 33t-17.5 102z" />
<glyph unicode="&#x2019;" d="M289 1059q98 84 131 160q-40 8 -61.5 39t-14.5 75q9 49 49 83t90 34q47 0 77 -32.5t18 -100.5q-27 -144 -238 -322z" />
<glyph unicode="&#x201a;" d="M72 -174q98 88 131 160q-40 7 -61 39t-15 75q8 50 48 84.5t91 34.5q46 0 75.5 -33t18.5 -102q-27 -146 -235 -320z" />
<glyph unicode="&#x201c;" horiz-adv-x="753" d="M322 1196q27 145 237 322l49 -64q-96 -86 -129 -158q41 -9 62 -41t12 -75q-7 -49 -47.5 -83t-91.5 -34q-45 0 -74.5 32.5t-17.5 100.5zM621 1196q22 140 235 322l51 -64q-97 -84 -131 -158q40 -9 61.5 -40.5t14.5 -75.5q-9 -49 -49 -83t-90 -34q-47 0 -76.5 32.5 t-15.5 100.5z" />
<glyph unicode="&#x201d;" horiz-adv-x="753" d="M301 1124q98 88 131 160q-40 8 -61.5 40.5t-14.5 74.5q9 50 50 84.5t90 34.5q46 0 75.5 -33.5t18.5 -102.5q-27 -142 -238 -319zM598 1124q96 83 131 160q-40 7 -61 39.5t-15 75.5q9 50 50 84.5t92 34.5q46 0 75 -33.5t17 -102.5q-23 -143 -238 -319z" />
<glyph unicode="&#x201e;" horiz-adv-x="753" d="M72 -174q98 88 131 160q-40 7 -61 39t-15 75q8 50 48 84.5t91 34.5q46 0 75.5 -33t18.5 -102q-27 -146 -235 -320zM371 -174q98 88 131 160q-40 8 -61.5 40t-14.5 74q8 50 48 84.5t89 34.5q47 0 77 -33t19 -102q-30 -147 -237 -320z" />
<glyph unicode="&#x2020;" horiz-adv-x="1024" d="M246 774l26 148h308l108 614h189l-109 -614h307l-26 -148h-308l-227 -1286h-188l227 1286h-307z" />
<glyph unicode="&#x2021;" horiz-adv-x="1024" d="M131 123l27 147h307l88 504h-307l26 148h308l108 614h189l-109 -614h307l-26 -148h-308l-88 -504h308l-27 -147h-307l-113 -635h-188l112 635h-307z" />
<glyph unicode="&#x2022;" horiz-adv-x="530" d="M203 563q11 68 66 115t124 47q67 0 105 -47t26 -115t-67.5 -115t-122.5 -47t-105 47t-26 115z" />
<glyph unicode="&#x2026;" horiz-adv-x="1370" d="M127 100q8 50 48 84.5t91 34.5q49 0 76.5 -34.5t19.5 -84.5q-7 -49 -47 -82.5t-90 -33.5q-49 0 -77.5 33t-20.5 83zM584 100q8 50 48 84.5t91 34.5q49 0 76.5 -34.5t19.5 -84.5q-7 -49 -47 -82.5t-90 -33.5q-49 0 -77.5 33t-20.5 83zM1040 100q8 50 48.5 84.5t91.5 34.5 q49 0 76.5 -34.5t19.5 -84.5q-7 -49 -47 -82.5t-90 -33.5t-78 33.5t-21 82.5z" />
<glyph unicode="&#x202f;" horiz-adv-x="373" />
<glyph unicode="&#x2030;" horiz-adv-x="2607" d="M266 1094q29 159 147 257.5t279 98.5q160 0 242 -99t53 -257q-28 -160 -145.5 -259.5t-278.5 -99.5q-160 0 -242.5 99.5t-54.5 259.5zM422 0l1014 1434h188l-1014 -1434h-188zM434 1094q-17 -97 26.5 -157t129.5 -60q85 0 149.5 60.5t81.5 156.5q17 95 -26 155t-129 60 q-85 0 -150 -60t-82 -155zM1055 340q29 160 146.5 259t277.5 99q161 0 243.5 -99t53.5 -259q-28 -159 -144.5 -257.5t-277.5 -98.5t-244 99t-55 257zM1223 340q-17 -95 25.5 -156t127.5 -61q86 0 151.5 61t80.5 156q19 96 -24 156.5t-130 60.5q-86 0 -150 -60t-81 -157z M1870 340q29 160 146 259t278 99q160 0 243 -99.5t54 -258.5q-28 -158 -145 -257t-277 -99q-161 0 -244 99t-55 257zM2038 340q-17 -95 25.5 -156t127.5 -61q86 0 150.5 60.5t81.5 156.5q19 96 -25 156.5t-129 60.5q-86 0 -150 -60t-81 -157z" />
<glyph unicode="&#x2039;" horiz-adv-x="608" d="M152 512l415 352l78 -94l-303 -258l213 -258l-113 -96z" />
<glyph unicode="&#x203a;" horiz-adv-x="608" d="M135 254l303 258l-215 258l115 94l291 -352l-416 -354z" />
<glyph unicode="&#x2044;" horiz-adv-x="1085" d="M94 0l1014 1434h135l-1014 -1434h-135z" />
<glyph unicode="&#x205f;" horiz-adv-x="466" />
<glyph unicode="&#x20ac;" horiz-adv-x="1521" d="M168 526l18 107h119q3 41 12 84q5 36 19 82h-119l19 108h135q99 249 314.5 396t488.5 147q160 0 285 -53.5t206 -151.5l-147 -125q-121 156 -365 156q-188 0 -341.5 -99.5t-233.5 -269.5h514l-19 -108h-536q-14 -46 -19 -82q-6 -28 -10 -84h534l-18 -107h-514 q22 -170 139.5 -269t304.5 -99q246 0 422 153l103 -123q-240 -204 -564 -204q-273 0 -436.5 146.5t-175.5 395.5h-135z" />
<glyph unicode="&#x20b4;" horiz-adv-x="882" d="M143 336q18 110 107 205h-78l21 106h174l170 146h-318l19 106h424l28 25q47 42 72.5 77.5t36.5 90.5q13 83 -34.5 136.5t-135.5 53.5q-127 0 -217 -90l-99 121q146 137 346 137q175 0 266.5 -97.5t63.5 -254.5q-18 -107 -100 -199h74l-19 -106h-168l-170 -146h312 l-21 -106h-418l-35 -31q-48 -41 -73 -77t-35 -91q-14 -83 33 -136.5t135 -53.5q130 0 217 90l100 -121q-146 -137 -346 -137q-175 0 -267.5 97.5t-64.5 254.5z" />
<glyph unicode="&#x2122;" horiz-adv-x="1396" d="M283 1341l14 93h500l-17 -93h-192l-113 -624h-113l113 624h-192zM758 717l127 717h84l190 -402l334 402h84l-127 -717h-113l86 489l-272 -338h-41l-154 338l-88 -489h-110z" />
<glyph unicode="&#x25fc;" horiz-adv-x="921" d="M0 0v922h922v-922h-922z" />
<glyph horiz-adv-x="1652" d="M8 -307l82 467h111l786 1274h182l338 -1274h111l-84 -467h-180l55 307h-1165l-56 -307h-180zM426 160h856l-248 1026z" />
<glyph horiz-adv-x="1546" d="M45 0l889 1434h182l385 -1434h-229l-293 1180l-705 -1180h-229z" />
<glyph horiz-adv-x="2068" d="M45 0l889 1434h182l164 -613h403q194 0 293.5 -112t67.5 -297q-34 -188 -172 -300t-334 -112h-266l-293 1180l-705 -1180h-229zM1325 653l131 -485h111q104 0 180 67t96 177q20 108 -32.5 174.5t-157.5 66.5h-328z" />
<glyph horiz-adv-x="1191" d="M20 -246l70 393h96l484 775h176l209 -775h98l-72 -393h-174l45 246h-712l-45 -246h-175zM391 147h459l-129 560z" />
<glyph horiz-adv-x="1083" d="M39 0l575 922h177l253 -922h-208l-172 696l-416 -696h-209z" />
<glyph horiz-adv-x="1458" d="M39 0l575 922h177l102 -375h276q146 0 214.5 -76t46.5 -199q-21 -122 -115.5 -197t-239.5 -75h-239l-172 696l-416 -696h-209zM930 406l74 -265h88q55 0 97.5 37t53.5 94q11 59 -19 96.5t-87 37.5h-207z" />
<glyph horiz-adv-x="1105" d="M74 -389l137 117q33 -42 88.5 -66t124.5 -24q135 0 229 82.5t119 224.5l19 106q-113 -67 -256 -67q-202 0 -304.5 132t-64.5 345q38 214 195.5 345.5t375.5 131.5q127 0 223 -43.5t146 -120.5l-145 -829q-38 -217 -189 -345t-364 -128q-223 0 -334 139zM360 461 q-25 -138 39.5 -224.5t192.5 -86.5q136 0 231 92l82 465q-69 63 -203 63q-129 0 -223 -85.5t-119 -223.5z" />
<glyph horiz-adv-x="1085" d="M188.5 333q-27.5 163 8.5 384q57 327 223.5 530t378.5 203q139 0 230.5 -93t118.5 -256t-9 -384q-57 -328 -222.5 -530.5t-377.5 -202.5q-139 0 -231 93t-119.5 256zM373.5 421q11.5 -126 62 -198.5t131.5 -72.5q124 0 229.5 157.5t149.5 409.5t-5.5 408.5t-172.5 156.5 q-125 0 -230 -156.5t-149 -408.5q-27 -170 -15.5 -296z" />
<glyph horiz-adv-x="1624" d="M211 717q59 327 296 530t562 203q216 0 366 -90.5t210.5 -243.5t27.5 -342q-20 -111 -66.5 -194.5t-107 -129t-122 -67t-122.5 -21.5q-63 0 -109 21t-65 59q-95 -80 -223 -80q-145 0 -217.5 98.5t-44.5 256.5q29 159 145.5 256.5t278.5 97.5q94 0 165 -32.5t107 -90.5 l-67 -379q-6 -37 18.5 -57t63.5 -20q70 0 131 65t84 203q28 162 -18 289.5t-164 200.5t-291 73q-261 0 -452.5 -167.5t-238.5 -438.5q-47 -272 85 -439t397 -167q132 0 257.5 43.5t217.5 124.5l74 -89q-113 -100 -263 -153t-313 -53q-216 0 -366.5 92t-212.5 258.5 t-23 382.5zM743 717q-17 -102 31 -163.5t144 -61.5q97 0 161 55l62 348q-47 47 -146 47q-97 0 -165 -61t-87 -164z" />
<glyph horiz-adv-x="604" d="M212.5 279q-18.5 186 23.5 438q32 183 91.5 340t132.5 265t158.5 169t169.5 61l-26 -141q-41 0 -88.5 -51t-92 -140.5t-85 -221t-66.5 -281.5q-36 -210 -35 -365t33.5 -243.5t89.5 -88.5l-24 -139q-114 0 -188.5 106t-93 292z" />
<glyph horiz-adv-x="604" d="M68 -119l24 139q56 0 119.5 86.5t120.5 248t92 362.5q36 210 35.5 364t-32.5 242t-89 88l27 141q113 0 186 -106t91 -291.5t-24 -437.5q-42 -244 -129 -436t-197 -296t-224 -104z" />
<glyph horiz-adv-x="610" d="M117 -102l289 1638h385l-27 -147h-199l-237 -1344h198l-24 -147h-385z" />
<glyph horiz-adv-x="610" d="M72 -102l24 147h199l237 1344h-198l26 147h385l-288 -1638h-385z" />
<glyph horiz-adv-x="643" d="M186 643l27 141q60 0 116.5 71t76.5 181l28 154q27 159 143 260.5t263 101.5l-25 -141q-62 0 -117 -69t-75 -179l-27 -149q-18 -104 -78.5 -183t-146.5 -118q73 -39 105.5 -117t15.5 -184l-29 -144q-18 -107 14 -177.5t92 -70.5l-24 -139q-147 0 -227.5 102t-51.5 261 l25 147q20 110 -11.5 181t-93.5 71z" />
<glyph horiz-adv-x="643" d="M53 -119l25 139q61 0 116.5 70t75.5 178l27 144q17 105 77.5 183.5t147.5 117.5q-73 39 -106 118.5t-13 182.5l25 149q20 110 -11 179t-93 69l26 141q147 0 226.5 -101.5t50.5 -260.5l-27 -154q-20 -110 11.5 -181t93.5 -71l-27 -141q-60 0 -116.5 -71t-76.5 -181 l-24 -147q-29 -160 -144.5 -261.5t-263.5 -101.5z" />
<glyph d="M135 0l180 1028h187l-180 -1028h-187zM344 1333q9 49 49 83t90 34t78 -34t19 -83q-8 -50 -48.5 -84.5t-91.5 -34.5q-49 0 -76.5 34.5t-19.5 84.5z" />
<glyph horiz-adv-x="970" d="M147 356q11 61 37 110t60 81.5t73 61.5t77.5 57t72 60t59 78.5t35.5 104.5l23 119h186l-22 -119q-12 -74 -39.5 -135t-61.5 -101t-73 -73t-77 -59.5t-70 -52t-55 -58t-30 -70.5q-14 -82 32.5 -146t155.5 -64q75 0 155 30t140 78l101 -121q-197 -153 -428 -153 q-129 0 -216.5 52.5t-120 136t-14.5 183.5zM612 1333q9 49 49.5 83t90.5 34t77.5 -34t18.5 -83q-9 -50 -49.5 -84.5t-89.5 -34.5t-77.5 34.5t-19.5 84.5z" />
<glyph horiz-adv-x="962" d="M186 717l416 352l80 -94l-305 -258l213 -258l-111 -97zM541 717l415 352l80 -94l-305 -258l213 -258l-110 -97z" />
<glyph horiz-adv-x="962" d="M170 459l303 258l-213 258l113 94l291 -352l-416 -355zM524 459l303 258l-213 258l113 94l291 -352l-416 -355z" />
<glyph horiz-adv-x="1085" d="M213 0l25 147h231l199 1121l-256 -39l26 147l447 66l-228 -1295h232l-25 -147h-651z" />
<glyph horiz-adv-x="608" d="M170 459l303 258l-213 258l113 94l291 -352l-416 -355z" />
<glyph horiz-adv-x="696" d="M221 643l29 148h475l-29 -148h-475z" />
<glyph horiz-adv-x="1024" d="M221 643l29 148h803l-29 -148h-803z" />
<glyph horiz-adv-x="1433" d="M221 643l29 148h1212l-28 -148h-1213z" />
<glyph d="M117 -102l289 1638h186l-289 -1638h-186z" />
<glyph horiz-adv-x="1024" d="M279 961l26 147h307l76 428h189l-78 -428h309l-27 -147h-307l-186 -1063h-189l189 1063h-309z" />
<glyph horiz-adv-x="1024" d="M170 346l27 148h307l84 467h-309l26 147h307l76 428h189l-78 -428h309l-27 -147h-307l-82 -467h307l-26 -148h-307l-78 -448h-189l80 448h-309z" />
<glyph horiz-adv-x="1210" d="M43 0l657 1032h170l297 -1032h-209l-69 238h-488l-149 -238h-209zM498 397h356l-111 400z" />
<glyph horiz-adv-x="892" d="M109 0l180 1032h329q138 0 208.5 -74.5t47.5 -199.5q-10 -65 -47.5 -120t-93.5 -89q71 -34 102.5 -101t14.5 -155q-23 -133 -126.5 -213t-250.5 -80h-364zM322 156h170q69 0 119.5 41t60.5 108q12 69 -23 110.5t-104 41.5h-170zM403 610h132q60 0 104 36.5t53 96.5 q10 61 -20 97.5t-90 36.5h-131z" />
<glyph horiz-adv-x="1105" d="M176 516q41 236 219.5 383.5t423.5 147.5q121 0 216 -39t155 -109l-133 -115q-85 101 -256 101q-166 0 -286.5 -102.5t-149.5 -266.5t55 -266.5t250 -102.5q172 0 291 99l96 -113q-181 -147 -424 -147q-245 0 -371.5 147t-85.5 383z" />
<glyph horiz-adv-x="1112" d="M109 0l180 1032h368q247 0 373.5 -140.5t85.5 -375.5t-216.5 -375.5t-422.5 -140.5h-368zM322 156h180q162 0 279.5 98.5t148.5 261.5q29 163 -54 262t-245 99h-180z" />
<glyph horiz-adv-x="780" d="M109 0l180 1032h585l-24 -147h-406l-51 -295h357l-27 -148h-356l-54 -295h412l-25 -147h-591z" />
<glyph horiz-adv-x="745" d="M109 0l180 1032h565l-25 -147h-385l-51 -295h338l-26 -148h-338l-78 -442h-180z" />
<glyph horiz-adv-x="1142" d="M176 516q41 236 219.5 383.5t423.5 147.5q121 0 216 -39t155 -109l-133 -115q-85 101 -256 101q-166 0 -286.5 -102.5t-149.5 -266.5t55 -266.5t250 -102.5q122 0 217 50l39 225h-217l26 145h398l-76 -434q-177 -147 -424 -147q-245 0 -371.5 147t-85.5 383z" />
<glyph horiz-adv-x="1089" d="M109 0l180 1032h180l-76 -442h510l78 442h180l-180 -1032h-180l78 442h-512l-78 -442h-180z" />
<glyph horiz-adv-x="395" d="M106 0l181 1032h182l-180 -1032h-183z" />
<glyph horiz-adv-x="397" d="M109 0l180 1032h180l-180 -1032h-180zM305 1200q8 43 42.5 73t78.5 30t69 -30t17 -73t-43.5 -72.5t-79.5 -29.5q-43 0 -67.5 29.5t-16.5 72.5z" />
<glyph horiz-adv-x="731" d="M84 72l135 114q31 -39 100 -39q66 0 115.5 40t61.5 106l129 739h180l-129 -739q-25 -136 -130.5 -221.5t-246.5 -85.5q-142 0 -215 86z" />
<glyph horiz-adv-x="991" d="M106 0l181 1032h182l-86 -489l479 489h228l-490 -500l346 -532h-233l-334 520l-90 -520h-183z" />
<glyph horiz-adv-x="749" d="M109 0l180 1032h180l-156 -885h389l-24 -147h-569z" />
<glyph horiz-adv-x="749" d="M109 0l180 1032h180l-156 -885h389l-24 -147h-569zM539 479q8 43 42 73t78 30q43 0 68 -30t18 -73t-43 -72.5t-79 -29.5t-67.5 29.5t-16.5 72.5z" />
<glyph horiz-adv-x="1263" d="M109 0l180 1032h135l289 -555l487 555h133l-180 -1032h-180l117 666l-390 -453h-63l-231 453l-117 -666h-180z" />
<glyph horiz-adv-x="1126" d="M109 0l180 1032h114l494 -686l121 686h180l-180 -1032h-115l-493 686l-121 -686h-180z" />
<glyph horiz-adv-x="1271" d="M176 516q41 236 219.5 383.5t423.5 147.5q246 0 372 -147t85 -384q-41 -236 -219 -383t-424 -147q-245 0 -371.5 147t-85.5 383zM365 516q-29 -164 52.5 -266.5t241.5 -102.5q161 0 280.5 102.5t150.5 266.5q29 164 -54 266.5t-245 102.5q-161 0 -279 -102.5t-147 -266.5 z" />
<glyph horiz-adv-x="854" d="M109 0l180 1032h317q155 0 234.5 -83t54.5 -222t-133 -223t-262 -84h-131l-72 -420h-188zM395 575h131q69 0 120 42.5t63 109.5t-23.5 108.5t-103.5 41.5h-131z" />
<glyph horiz-adv-x="1271" d="M176 516q41 236 219.5 383.5t423.5 147.5q246 0 372 -147t85 -384q-34 -189 -162 -323l98 -111l-133 -115l-98 113q-159 -94 -348 -94q-245 0 -371.5 147t-85.5 383zM365 516q-29 -164 52.5 -266.5t241.5 -102.5q137 0 224 50l-127 145l133 113l115 -129q65 80 86 190 q29 164 -54 266.5t-245 102.5q-160 0 -278.5 -102.5t-147.5 -266.5z" />
<glyph horiz-adv-x="882" d="M109 0l180 1032h334q153 0 232 -83t54 -222q-19 -103 -85 -177.5t-165 -107.5l177 -442h-207l-150 420h-110l-72 -420h-188zM395 575h146q69 0 119.5 42t62.5 110q10 67 -24.5 108.5t-102.5 41.5h-145z" />
<glyph horiz-adv-x="886" d="M100 139l129 113q42 -48 98.5 -76.5t118.5 -28.5q85 0 140.5 46t64.5 100q7 38 -15 66t-62 46.5t-90 36t-98.5 41.5t-86.5 56t-55.5 85.5t-5.5 123.5q23 129 121 214t249 85q96 0 178 -36.5t138 -101.5l-133 -110q-29 35 -82.5 60.5t-108.5 25.5q-75 0 -121 -41.5 t-53 -91.5q-7 -39 15 -68t62 -48.5t89.5 -38t98 -42.5t87 -55t56.5 -83t6 -120q-23 -133 -131.5 -222t-272.5 -89q-208 0 -336 153z" />
<glyph horiz-adv-x="894" d="M227 885l25 147h752l-25 -147h-287l-155 -885h-181l156 885h-285z" />
<glyph horiz-adv-x="1085" d="M100 0l27 160l727 614q87 75 113 217q23 129 -34 210t-171 81t-199 -81t-108 -210h-193q35 205 182.5 332t348.5 127t302 -126.5t66 -332.5q-35 -198 -205 -344l-577 -487h637l-29 -160h-887z" />
<glyph horiz-adv-x="1085" d="M156 422h194q-22 -120 38 -196t177 -76q118 0 206 76t108 196q22 120 -38.5 197t-178.5 77h-95l29 158h94q92 0 161.5 60.5t86.5 154.5q17 95 -31 154t-141 59t-162 -59t-84 -154h-194q29 169 160 275t311 106t272.5 -106t63.5 -275q-19 -99 -74.5 -174t-138.5 -117 q93 -46 133.5 -138t19.5 -218q-34 -195 -182.5 -316.5t-353.5 -121.5q-204 0 -309.5 121.5t-71.5 316.5z" />
<glyph horiz-adv-x="1085" d="M102 266l15 88l819 1080h190l-178 -1006h123l-27 -162h-116l-45 -266h-189l47 266h-639zM362 428h412l129 723z" />
<glyph horiz-adv-x="1085" d="M160 420h188q-22 -118 37.5 -193t175.5 -75q115 0 200.5 80.5t108.5 209.5q25 141 -41.5 229.5t-197.5 88.5q-134 0 -234 -84l-127 49l211 709h649l-28 -162h-484l-116 -381q72 35 170 35q215 0 323 -133.5t68 -350.5q-35 -205 -181.5 -331.5t-349.5 -126.5 q-200 0 -303 120.5t-69 315.5z" />
<glyph horiz-adv-x="1085" d="M162 451q13 73 38 143t70.5 147.5t94.5 147t131.5 167.5t157 181t194.5 213l145 -92q-279 -293 -432 -504q66 29 139 29q203 0 308 -123t69 -324q-35 -202 -183.5 -327t-354.5 -125q-207 0 -311 125.5t-66 341.5zM352 436q-22 -127 38 -206.5t177 -79.5q119 0 207 79.5 t111 206.5q22 127 -38 207t-177 80t-206 -80t-112 -207z" />
<glyph horiz-adv-x="1085" d="M287 0l682 1272h-647l28 162h889l-10 -62l-742 -1372h-200z" />
<glyph horiz-adv-x="1085" d="M156 422q21 125 94.5 217t183.5 139q-69 42 -97.5 117.5t-10.5 173.5q29 169 160.5 275t312.5 106q180 0 272.5 -106t63.5 -275q-19 -99 -74.5 -174t-138.5 -117q94 -47 135 -138.5t20 -217.5q-34 -195 -183 -316.5t-355 -121.5q-204 0 -310.5 121.5t-72.5 316.5z M350 422q-22 -120 38.5 -196t178.5 -76t206 76t110 196t-39.5 196t-179.5 76q-117 0 -204.5 -76t-109.5 -196zM520 1069q-17 -94 31.5 -153.5t140.5 -59.5t161.5 59.5t88.5 153.5q15 95 -33.5 154t-140.5 59q-94 0 -163.5 -59t-84.5 -154z" />
<glyph horiz-adv-x="1085" d="M260 997q35 202 184 327.5t355 125.5q205 0 308 -125.5t64 -341.5q-15 -88 -53 -177t-86.5 -169t-140.5 -193t-175 -207t-229 -253l-145 92q279 293 432 504q-71 -31 -139 -31q-202 0 -307 123.5t-68 324.5zM455 997q-23 -127 36.5 -206.5t176.5 -79.5t203.5 79 t109.5 207q22 127 -37 206t-176 79t-204 -79t-109 -206z" />
<glyph horiz-adv-x="608" d="M186 717l416 352l80 -94l-305 -258l213 -258l-111 -97z" />
<glyph horiz-adv-x="1210" d="M223 1032h213l211 -792l488 792h213l-658 -1032h-170z" />
<glyph horiz-adv-x="1734" d="M223 1032h211l137 -747l383 747h187l121 -747l399 747h211l-569 -1032h-183l-129 715l-377 -715h-182z" />
<glyph horiz-adv-x="1171" d="M45 0l498 524l-303 508h231l227 -385l361 385h233l-483 -508l317 -524h-233l-238 401l-376 -401h-234z" />
<glyph horiz-adv-x="1083" d="M223 1032h209l215 -434l365 434h207l-514 -612l-74 -420h-180l71 420z" />
<glyph horiz-adv-x="1003" d="M86 0l8 51l709 834h-553l24 147h822l-9 -49l-708 -836h561l-25 -147h-829z" />
<glyph horiz-adv-x="1210" d="M43 0l657 1032h170l297 -1032h-209l-69 238h-488l-149 -238h-209zM498 397h356l-111 400z" />
<glyph horiz-adv-x="872" d="M109 0l180 1032h590l-25 -147h-403l-50 -275h152q153 0 232.5 -83t54.5 -222t-133 -222t-261 -83h-337zM322 156h151q68 0 118 41t60 108q12 68 -22 110t-103 42h-149z" />
<glyph horiz-adv-x="892" d="M109 0l180 1032h329q138 0 208.5 -74.5t47.5 -199.5q-10 -65 -47.5 -120t-93.5 -89q71 -34 102.5 -101t14.5 -155q-23 -133 -126.5 -213t-250.5 -80h-364zM322 156h170q69 0 119.5 41t60.5 108q12 69 -23 110.5t-104 41.5h-170zM403 610h132q60 0 104 36.5t53 96.5 q10 61 -20 97.5t-90 36.5h-131z" />
<glyph horiz-adv-x="749" d="M109 0l180 1032h569l-24 -147h-390l-155 -885h-180z" />
<glyph horiz-adv-x="1095" d="M18 -221l64 362q79 0 135 60.5t76 169.5l117 661h694l-156 -885h115l-66 -368h-168l41 221h-645l-41 -221h-166zM365 147h397l131 738h-322l-90 -514q-27 -143 -116 -224z" />
<glyph horiz-adv-x="780" d="M109 0l180 1032h585l-24 -147h-406l-51 -295h357l-27 -148h-356l-54 -295h412l-25 -147h-591z" />
<glyph horiz-adv-x="780" d="M109 0l180 1032h585l-24 -147h-406l-51 -295h357l-27 -148h-356l-54 -295h412l-25 -147h-591zM362 1180q6 39 39.5 66.5t73.5 27.5q41 0 64 -27t16 -67q-7 -41 -40.5 -69t-74.5 -28q-40 0 -62.5 28t-15.5 69zM657 1180q8 40 41 68t74 28t64.5 -28t15.5 -68 q-7 -41 -40.5 -69t-74.5 -28q-40 0 -63 28t-17 69z" />
<glyph horiz-adv-x="1482" d="M45 0l502 532l-293 500h209l282 -487l86 487h181l-86 -487l454 487h209l-465 -500l314 -532h-213l-303 520l-91 -520h-180l90 520l-481 -520h-215z" />
<glyph horiz-adv-x="892" d="M94 133l131 113q89 -103 224 -103q91 0 151 45.5t72 118.5q12 67 -23 108.5t-104 41.5h-156l27 153h116q66 0 114.5 37t58.5 101q12 67 -24.5 104t-109.5 37q-119 0 -237 -94l-88 106q177 146 366 146q154 0 227 -80t50 -203q-23 -143 -156 -215q71 -34 102.5 -101.5 t14.5 -156.5q-25 -139 -138 -222t-276 -83q-217 0 -342 147z" />
<glyph horiz-adv-x="1107" d="M109 0l180 1032h180l-119 -686l713 686h117l-181 -1032h-182l121 686l-715 -686h-114z" />
<glyph horiz-adv-x="1107" d="M109 0l180 1032h180l-119 -686l713 686h117l-181 -1032h-182l121 686l-715 -686h-114zM526 1184l101 86q48 -58 139 -58q98 0 160 56l69 -84q-108 -97 -252 -97q-140 0 -217 97z" />
<glyph horiz-adv-x="991" d="M106 0l181 1032h182l-86 -489l479 489h228l-490 -500l346 -532h-233l-334 520l-90 -520h-183z" />
<glyph horiz-adv-x="1048" d="M68 0l18 115q80 0 136 45t69 125l131 747h698l-180 -1032h-188l155 885h-323l-105 -594q-25 -136 -111 -217.5t-210 -81.5q-66 0 -90 8z" />
<glyph horiz-adv-x="1263" d="M109 0l180 1032h135l289 -555l487 555h133l-180 -1032h-180l117 666l-390 -453h-63l-231 453l-117 -666h-180z" />
<glyph horiz-adv-x="1089" d="M109 0l180 1032h180l-76 -442h510l78 442h180l-180 -1032h-180l78 442h-512l-78 -442h-180z" />
<glyph horiz-adv-x="1271" d="M176 516q41 236 219.5 383.5t423.5 147.5q246 0 372 -147t85 -384q-41 -236 -219 -383t-424 -147q-245 0 -371.5 147t-85.5 383zM365 516q-29 -164 52.5 -266.5t241.5 -102.5q161 0 280.5 102.5t150.5 266.5q29 164 -54 266.5t-245 102.5q-161 0 -279 -102.5t-147 -266.5 z" />
<glyph horiz-adv-x="1032" d="M109 0l180 1032h815l-180 -1032h-179l154 885h-455l-155 -885h-180z" />
<glyph horiz-adv-x="854" d="M109 0l180 1032h317q155 0 234.5 -83t54.5 -222t-133 -223t-262 -84h-131l-72 -420h-188zM395 575h131q69 0 120 42.5t63 109.5t-23.5 108.5t-103.5 41.5h-131z" />
<glyph horiz-adv-x="1105" d="M176 516q41 236 219.5 383.5t423.5 147.5q121 0 216 -39t155 -109l-133 -115q-85 101 -256 101q-166 0 -286.5 -102.5t-149.5 -266.5t55 -266.5t250 -102.5q172 0 291 99l96 -113q-181 -147 -424 -147q-245 0 -371.5 147t-85.5 383z" />
<glyph horiz-adv-x="894" d="M227 885l25 147h752l-25 -147h-287l-155 -885h-181l156 885h-285z" />
<glyph horiz-adv-x="976" d="M217 0l242 324l-240 708h193l170 -495l344 495h192l-708 -1032h-193z" />
<glyph horiz-adv-x="1273" d="M176 516q32 186 181 303t354 117l16 96h180l-16 -96q206 0 312.5 -116.5t74.5 -303.5q-34 -187 -181.5 -303.5t-353.5 -116.5l-16 -96h-180l16 96q-205 0 -312 117t-75 303zM365 516q-20 -115 42.5 -186.5t184.5 -71.5l90 516q-122 0 -209.5 -71.5t-107.5 -186.5z M772 258q123 0 210.5 71t107.5 187q22 115 -41.5 186.5t-186.5 71.5z" />
<glyph horiz-adv-x="1171" d="M45 0l498 524l-303 508h231l227 -385l361 385h233l-483 -508l317 -524h-233l-238 401l-376 -401h-234z" />
<glyph horiz-adv-x="1148" d="M109 0l180 1032h180l-156 -885h514l156 885h180l-155 -885h108l-65 -368h-168l41 221h-815z" />
<glyph horiz-adv-x="923" d="M238 739l51 293h174l-49 -289q-19 -98 17 -144t130 -46q106 0 180 22l80 457h174l-180 -1032h-174l76 436q-108 -24 -219 -24q-155 0 -221.5 84t-38.5 243z" />
<glyph horiz-adv-x="1554" d="M109 0l180 1032h180l-156 -885h400l153 885h183l-156 -885h399l154 885h180l-180 -1032h-1337z" />
<glyph horiz-adv-x="1611" d="M109 0l180 1032h180l-156 -885h400l153 885h183l-156 -885h399l154 885h180l-156 -885h109l-66 -368h-167l40 221h-1277z" />
<glyph horiz-adv-x="1064" d="M227 885l25 147h420l-76 -422h147q153 0 232.5 -83t54.5 -222t-132 -222t-261 -83h-334l156 885h-232zM516 156h148q68 0 119 41t61 108q12 68 -23 110t-104 42h-146z" />
<glyph horiz-adv-x="1200" d="M109 0l180 1032h188l-76 -422h148q153 0 232.5 -83t54.5 -222t-132.5 -222t-261.5 -83h-333zM322 156h147q69 0 118.5 41t59.5 108q12 68 -22 110t-103 42h-145zM909 0l181 1032h182l-180 -1032h-183z" />
<glyph horiz-adv-x="870" d="M109 0l180 1032h188l-76 -422h148q153 0 232.5 -83t54.5 -222t-132.5 -222t-261.5 -83h-333zM322 156h147q69 0 118.5 41t59.5 108q12 68 -22 110t-103 42h-145z" />
<glyph horiz-adv-x="1105" d="M94 133l133 113q90 -99 256 -99q147 0 260.5 80.5t157.5 214.5h-483l26 148h484q2 134 -83 214.5t-231 80.5q-168 0 -290 -101l-97 115q185 148 424 148q246 0 372 -147t85 -384q-41 -236 -219 -383t-424 -147q-243 0 -371 147z" />
<glyph horiz-adv-x="1624" d="M109 0l180 1032h180l-76 -442h234q59 206 217.5 331.5t365.5 125.5q227 0 342 -147.5t74 -383.5t-208 -383t-394 -147q-208 0 -323 124.5t-101 331.5h-233l-78 -442h-180zM797 516q-31 -163 40.5 -266t213.5 -103q143 0 251.5 102.5t137.5 266.5t-43 266.5t-215 102.5 q-141 0 -248.5 -102.5t-136.5 -266.5z" />
<glyph horiz-adv-x="886" d="M53 0l322 436q-94 31 -137 107.5t-23 183.5q25 139 132 222t261 83h350l-180 -1032h-188l74 420h-119l-287 -420h-205zM401 727q-13 -67 22 -109.5t103 -42.5h164l55 302h-163q-69 0 -120 -41.5t-61 -108.5z" />
<glyph horiz-adv-x="743" d="M109 0l180 1032h407l33 185h133l-57 -332h-361l-155 -885h-180z" />
<glyph horiz-adv-x="1091" d="M227 885l25 147h752l-25 -147h-287l-53 -307q92 63 199 63q120 0 177 -79t34 -208l-31 -178q-14 -84 -70.5 -134t-146.5 -50q-48 0 -64 8l19 115q31 0 54 17.5t30 47.5l28 174q11 57 -18.5 94t-87.5 37q-93 0 -150 -51l-75 -434h-181l156 885h-285z" />
<glyph horiz-adv-x="749" d="M109 0l180 1032h569l-24 -147h-390l-155 -885h-180zM477 1157l250 209l72 -86l-252 -209z" />
<glyph horiz-adv-x="1105" d="M176 516q41 236 219.5 383.5t423.5 147.5q121 0 216 -39t155 -109l-133 -115q-85 101 -256 101q-147 0 -260.5 -80.5t-157.5 -214.5h567l-26 -148h-566q-3 -134 81 -214.5t231 -80.5q172 0 291 99l96 -113q-181 -147 -424 -147q-245 0 -371.5 147t-85.5 383z" />
<glyph horiz-adv-x="886" d="M100 139l129 113q42 -48 98.5 -76.5t118.5 -28.5q85 0 140.5 46t64.5 100q7 38 -15 66t-62 46.5t-90 36t-98.5 41.5t-86.5 56t-55.5 85.5t-5.5 123.5q23 129 121 214t249 85q96 0 178 -36.5t138 -101.5l-133 -110q-29 35 -82.5 60.5t-108.5 25.5q-75 0 -121 -41.5 t-53 -91.5q-7 -39 15 -68t62 -48.5t89.5 -38t98 -42.5t87 -55t56.5 -83t6 -120q-23 -133 -131.5 -222t-272.5 -89q-208 0 -336 153z" />
<glyph horiz-adv-x="395" d="M106 0l181 1032h182l-180 -1032h-183z" />
<glyph horiz-adv-x="397" d="M109 0l180 1032h180l-180 -1032h-180zM178 1180q6 39 39.5 66.5t75.5 27.5q40 0 62.5 -27t15.5 -67q-7 -41 -40 -69t-73 -28q-41 0 -64 28t-16 69zM438 1180q6 40 39.5 68t73.5 28q41 0 65 -28t17 -68q-6 -41 -39.5 -69t-75.5 -28q-40 0 -63.5 28t-16.5 69z" />
<glyph horiz-adv-x="731" d="M84 72l135 114q31 -39 100 -39q66 0 115.5 40t61.5 106l129 739h180l-129 -739q-25 -136 -130.5 -221.5t-246.5 -85.5q-142 0 -215 86z" />
<glyph horiz-adv-x="1495" d="M68 0l18 115q80 0 136 45t69 125l131 747h678l-74 -422h148q154 0 232.5 -83t53.5 -222t-131.5 -222t-259.5 -83h-334l156 885h-307l-105 -594q-25 -136 -111 -217.5t-210 -81.5q-66 0 -90 8zM946 156h148q69 0 118.5 41t61.5 108t-22.5 109.5t-102.5 42.5h-148z" />
<glyph horiz-adv-x="1492" d="M109 0l180 1032h180l-74 -422h443l73 422h189l-74 -422h148q153 0 231 -83t53 -222t-131.5 -222t-259.5 -83h-336l82 457h-444l-80 -457h-180zM944 156h148q69 0 119.5 41t60.5 108q12 67 -22.5 109.5t-102.5 42.5h-148z" />
<glyph horiz-adv-x="1091" d="M227 885l25 147h752l-25 -147h-287l-53 -307q92 63 199 63q120 0 177 -79t34 -208l-60 -354h-182l61 354q11 57 -18.5 94t-87.5 37q-93 0 -150 -51l-75 -434h-181l156 885h-285z" />
<glyph horiz-adv-x="991" d="M106 0l181 1032h182l-86 -489l479 489h228l-490 -500l346 -532h-233l-334 520l-90 -520h-183zM580 1157l249 209l72 -86l-254 -209z" />
<glyph horiz-adv-x="976" d="M217 0l242 324l-240 708h193l170 -495l344 495h192l-708 -1032h-193zM461 1184l100 86q48 -58 139 -58q98 0 160 56l72 -84q-111 -97 -254 -97q-140 0 -217 97z" />
<glyph horiz-adv-x="1091" d="M109 0l180 1032h180l-156 -885h514l156 885h180l-180 -1032h-352l-41 -221h-168l41 221h-354z" />
<glyph horiz-adv-x="1107" d="M109 0l180 1032h180l-119 -686l713 686h117l-181 -1032h-182l121 686l-715 -686h-114zM598 1280l100 86l179 -209l-103 -86z" />
<glyph horiz-adv-x="780" d="M109 0l180 1032h585l-24 -147h-406l-51 -295h357l-27 -148h-356l-54 -295h412l-25 -147h-591zM446 1280l101 86l178 -209l-102 -86z" />
<glyph horiz-adv-x="1169" d="M176 516l12 68h805q2 136 -82.5 218.5t-230.5 82.5q-168 0 -293 -101l-94 115q182 148 424 148q246 0 372 -147t85 -384q-41 -236 -205 -383t-387 -147q-221 0 -334 147t-72 383zM356 436q-5 -131 63 -210t189 -79t217.5 79t137.5 210h-607z" />
<glyph horiz-adv-x="792" d="M109 0l180 1032h180l-180 -1032h-180zM178 1180q6 39 39.5 66.5t75.5 27.5q40 0 62.5 -27t15.5 -67q-7 -41 -40 -69t-73 -28q-41 0 -64 28t-16 69zM504 0l180 1032h182l-180 -1032h-182zM506 1180q6 40 40 68t75 28q40 0 62.5 -28t16.5 -68q-8 -41 -40.5 -69t-73.5 -28 t-64 28t-16 69zM834 1180q8 40 40.5 68t73.5 28t64.5 -28t17.5 -68q-8 -41 -41 -69t-76 -28q-40 0 -62.5 28t-16.5 69z" />
<glyph horiz-adv-x="489" d="M169 200.5q-17 134.5 13 315.5q47 266 168.5 435t259.5 169l-22 -129q-59 0 -124.5 -134t-101.5 -341q-25 -143 -24 -248.5t23 -166t59 -60.5l-23 -129q-90 0 -150.5 77t-77.5 211.5z" />
<glyph horiz-adv-x="489" d="M59 -88l23 129q58 0 124 133.5t103 341.5q35 212 16.5 343.5t-75.5 131.5l22 129q90 0 150.5 -77t77.5 -211.5t-13 -315.5q-47 -266 -168.5 -435t-259.5 -169z" />
<glyph horiz-adv-x="499" d="M92 -74l209 1180h317l-22 -133h-143l-162 -914h141l-22 -133h-318z" />
<glyph horiz-adv-x="499" d="M61 -74l23 133h143l162 914h-143l24 133h318l-209 -1180h-318z" />
<glyph horiz-adv-x="514" d="M150 449l22 129q38 0 75 47t50 120l18 107q22 117 114 192.5t210 75.5l-21 -129q-40 0 -76 -46.5t-48 -117.5l-19 -102q-13 -72 -57.5 -127.5t-110.5 -85.5q56 -30 80.5 -84.5t11.5 -126.5l-16 -98q-12 -70 8.5 -116t59.5 -46l-23 -129q-119 0 -185 75t-46 193l18 101 q13 73 -7 120.5t-58 47.5z" />
<glyph horiz-adv-x="514" d="M55 -88l23 129q38 0 75 46t50 116l16 98q12 72 56 126.5t110 84.5q-56 29 -80 84.5t-12 128.5l18 102q13 71 -7 117.5t-60 46.5l22 129q120 0 186 -75t46 -193l-19 -107q-13 -73 7.5 -120t58.5 -47l-23 -129q-39 0 -76.5 -47.5t-50.5 -120.5l-16 -101 q-20 -117 -113 -192.5t-211 -75.5z" />
<glyph horiz-adv-x="389" d="M106 0l127 727h175l-127 -727h-175zM256 942q7 44 42.5 74.5t78.5 30.5q44 0 69 -30.5t17 -74.5q-6 -43 -41.5 -72.5t-79.5 -29.5q-43 0 -68 29.5t-18 72.5z" />
<glyph horiz-adv-x="776" d="M125 260q7 43 26 77.5t43.5 58.5t53 44.5t56.5 40t52.5 41t42.5 52t25 67.5l16 86h174l-16 -86q-12 -71 -45.5 -125.5t-72.5 -86.5t-76.5 -57.5t-65.5 -52.5t-33 -57q-9 -46 23 -84.5t102 -38.5q108 0 205 72l92 -113q-156 -112 -330 -112q-147 0 -220.5 78.5 t-51.5 195.5zM461 942q7 44 43.5 74.5t79.5 30.5t68 -30.5t16 -74.5q-6 -42 -42 -72t-79 -30t-67.5 29.5t-18.5 72.5z" />
<glyph horiz-adv-x="389" d="M92 -74l209 1180h174l-209 -1180h-174z" />
<glyph horiz-adv-x="808" d="M209 672l22 135h228l53 299h174l-53 -299h225l-22 -135h-228l-131 -746h-174l131 746h-225z" />
<glyph horiz-adv-x="808" d="M131 229l23 136h227l53 307h-225l22 135h228l53 299h174l-53 -299h225l-22 -135h-228l-53 -307h225l-22 -136h-228l-53 -303h-174l53 303h-225z" />
<glyph horiz-adv-x="903" d="M176 516q41 236 168.5 383.5t290.5 147.5t238 -147.5t34 -383.5t-168 -383t-290 -147t-238.5 147t-34.5 383zM358 516q-31 -167 2 -272t115 -105t151.5 104.5t100.5 272.5q29 166 -4 271.5t-115 105.5q-81 0 -151 -105.5t-99 -271.5z" />
<glyph horiz-adv-x="563" d="M217 854l23 135l352 49l-182 -1038h-174l155 881z" />
<glyph horiz-adv-x="841" d="M78 0l24 141l535 437q58 51 70 133q15 79 -22.5 129.5t-111.5 50.5q-73 0 -127.5 -50t-68.5 -130h-180q26 151 137.5 243.5t265.5 92.5q155 0 234 -92.5t53 -243.5q-26 -147 -152 -248l-389 -316h440l-24 -147h-684z" />
<glyph horiz-adv-x="866" d="M131 309h180q-12 -75 29 -122.5t117 -47.5t132 47.5t70 122.5t-26.5 123.5t-116.5 48.5h-70l25 146h70q62 0 108 37.5t56 95.5q9 59 -23.5 96t-93.5 37t-106 -37t-54 -96h-180q22 128 123.5 207.5t242.5 79.5q144 0 218.5 -79.5t52.5 -207.5q-26 -134 -148 -203 q133 -77 103 -248q-25 -143 -139.5 -233t-272.5 -90q-157 0 -239.5 90t-57.5 233z" />
<glyph horiz-adv-x="907" d="M100 180l15 78l610 774h174l-123 -702h88l-26 -150h-82l-31 -180h-174l31 180h-482zM346 330h268l80 442z" />
<glyph horiz-adv-x="841" d="M125 313h174q-12 -75 27 -123.5t114 -48.5q74 0 130 51t69 130q15 89 -29.5 143.5t-130.5 54.5q-89 0 -155 -53l-119 41l153 524h502l-24 -147h-349l-69 -223q43 12 98 12q164 0 246.5 -96.5t56.5 -255.5q-28 -151 -139 -243.5t-266 -92.5q-154 0 -234 90.5t-55 236.5z " />
<glyph horiz-adv-x="854" d="M135 332q58 321 508 715l133 -86q-187 -168 -309 -330q38 10 74 10q154 0 234 -89.5t54 -236.5q-25 -148 -137 -238.5t-270 -90.5q-157 0 -235.5 92t-51.5 254zM313 315q-13 -78 25.5 -127t112.5 -49q75 0 129.5 49t68.5 127t-24 128.5t-113 50.5t-130 -50.5t-69 -128.5z " />
<glyph horiz-adv-x="864" d="M231 0l476 885h-465l24 147h692l-8 -49l-534 -983h-185z" />
<glyph horiz-adv-x="868" d="M133 309q30 170 186 248q-95 69 -69 203q22 128 123.5 207.5t242.5 79.5q142 0 217.5 -79.5t53.5 -207.5q-26 -134 -148 -203q132 -79 103 -248q-26 -143 -140 -233t-272 -90q-157 0 -239.5 90t-57.5 233zM313 309q-12 -75 28.5 -122.5t115.5 -47.5q77 0 133.5 47.5 t68.5 122.5q14 75 -25.5 122.5t-115.5 47.5q-77 0 -134.5 -47.5t-70.5 -122.5zM430 760q-10 -58 21.5 -94.5t91.5 -36.5q63 0 108 36t56 95q9 59 -23.5 96t-93.5 37t-106 -37t-54 -96z" />
<glyph horiz-adv-x="854" d="M205 717q25 148 137 239t270 91q157 0 235.5 -92.5t51.5 -254.5q-58 -320 -508 -714l-135 86q188 166 311 329q-38 -10 -73 -10q-155 0 -235 89t-54 237zM385 717q-14 -78 24 -128t111 -50q75 0 131 50t70 128q14 77 -25 126.5t-112 49.5q-75 0 -130 -49.5t-69 -126.5z " />
<glyph horiz-adv-x="886" d="M100 139l129 113q80 -93 191 -105l53 297q-23 9 -38.5 15.5t-37.5 16.5t-37.5 19t-34 21.5t-31 25.5t-25.5 29.5t-20 35t-12 40t-4.5 47.5t5.5 54q21 122 111.5 204.5t228.5 91.5l24 136h96l-24 -138q156 -22 250 -133l-133 -110q-57 64 -146 82l-51 -285 q65 -26 100 -43.5t81 -53t61.5 -85.5t3.5 -117q-21 -123 -115 -209.5t-238 -99.5l-22 -135h-96l22 135q-177 15 -291 151zM426 752q-7 -40 14 -67.5t66 -51.5l43 246q-53 -14 -85.5 -51t-37.5 -76zM518 158q55 16 91 55t42 80q7 40 -16.5 66t-73.5 51z" />
<glyph horiz-adv-x="1175" d="M135 371l17 96h88q1 5 1.5 15t1.5 18.5t3 15.5q2 18 10 49h-88l18 97h103q74 176 235.5 280.5t364.5 104.5q241 0 373 -148l-134 -115q-88 101 -258 101q-124 0 -226 -59.5t-159 -163.5h351l-19 -97h-373q-8 -31 -10 -49q-6 -24 -6 -49h373l-17 -96h-352 q22 -104 103 -164t204 -60q170 0 293 99l94 -113q-181 -147 -424 -147q-204 0 -328 103.5t-136 281.5h-103z" />
<glyph horiz-adv-x="839" d="M66 0q12 71 52.5 123.5t100.5 77.5l45 248h-114l24 135h115l26 155q25 136 129 222t244 86q144 0 217 -86l-135 -115q-31 39 -102 39q-66 0 -114 -40t-60 -106l-27 -155h252l-25 -135h-252l-43 -246q24 -10 56.5 -29.5t58 -31t51.5 -11.5q35 0 60 21t30 53h140 q-17 -98 -87.5 -158.5t-162.5 -60.5q-43 0 -81.5 14t-62 31t-53 31t-57.5 14q-34 0 -59 -20.5t-29 -55.5h-137z" />
<glyph horiz-adv-x="1083" d="M223 1032h209l215 -434l365 434h207l-514 -612l-5 -23h193l-16 -96h-193l-16 -90h192l-16 -94h-193l-20 -117h-180l18 117h-193l17 94h192l17 90h-193l17 96h192l4 23z" />
<glyph horiz-adv-x="708" d="M123 252q12 73 59 129h-45l19 94h127l106 88h-219l16 96h322l12 11q32 25 48 48t22 56q9 51 -23.5 84t-89.5 33q-87 0 -145 -55l-90 110q115 101 262 101q139 0 212.5 -74t51.5 -193q-10 -61 -53 -121h37l-17 -96h-119l-110 -88h215l-16 -94h-314l-22 -19 q-30 -26 -46.5 -48.5t-23.5 -55.5q-8 -51 24.5 -84t90.5 -33q84 0 143 56l90 -111q-114 -100 -262 -100q-138 0 -211 74t-51 192z" />
<glyph horiz-adv-x="997" d="M109 229l24 136h121l100 303h-121l25 135h141l76 229h174l-76 -229h218l75 229h174l-75 -229h102l-25 -135h-120l-101 -303h121l-24 -136h-142l-74 -229h-174l74 229h-217l-74 -229h-174l72 229h-100zM428 365h219l98 303h-217z" />
<glyph horiz-adv-x="389" d="M106 90q6 43 41.5 73t79.5 30q43 0 68 -30t18 -73q-7 -44 -43 -74t-80 -30q-43 0 -67 30t-17 74zM160 305l127 727h174l-127 -727h-174z" />
<glyph horiz-adv-x="948" d="M133 309q15 84 64.5 147t126.5 101q-100 70 -74 203q22 128 123.5 207.5t242.5 79.5q142 0 217.5 -79.5t53.5 -207.5h-180q9 59 -23.5 96t-93.5 37t-106 -37t-54 -96q-11 -59 20.5 -96t92.5 -37h41l-27 -146h-39q-76 0 -133.5 -48.5t-71.5 -123.5q-12 -75 28.5 -122.5 t115.5 -47.5q77 0 133.5 47.5t68.5 122.5l33 172h-88l25 146h356l-24 -146h-89l-30 -172q-26 -143 -140 -233t-272 -90q-157 0 -239.5 90t-57.5 233z" />
<glyph horiz-adv-x="905" d="M61 -74l789 1180h174l-786 -1180h-177z" />
<glyph horiz-adv-x="905" d="M270 1106h176l369 -1180h-174z" />
<glyph horiz-adv-x="776" d="M229 934q157 113 328 113q147 0 221.5 -79t52.5 -198q-10 -58 -42 -101t-71 -70.5t-78 -53.5t-70 -65t-40 -89l-14 -86h-174l14 86q13 71 46 125.5t72 86.5t76.5 57.5t65.5 52t33 55.5q10 47 -21.5 86t-101.5 39q-107 0 -207 -72zM287 90q6 42 42 72.5t79 30.5t67.5 -30 t18.5 -73q-7 -44 -42.5 -74t-78.5 -30q-45 0 -70 30t-16 74z" />
<glyph horiz-adv-x="1421" d="M207 778q22 120 113 194.5t217 74.5t191.5 -74.5t43.5 -194.5t-113.5 -194t-216.5 -74q-126 0 -191.5 74t-43.5 194zM336 0l758 1032h174l-758 -1032h-174zM362 778q-12 -61 17 -100t86 -39t99 38.5t54 100.5q11 62 -18 101t-84 39q-58 0 -100.5 -39t-53.5 -101zM829 254 q22 120 113 193t217 73q127 0 192.5 -73t43.5 -193t-113 -194t-217 -74t-192 74t-44 194zM985 254q-10 -61 18 -100t84 -39q57 0 100.5 39t53.5 100q11 62 -18 100.5t-86 38.5q-56 0 -99 -39t-53 -100z" />
<glyph horiz-adv-x="2043" d="M207 778q22 120 113 194.5t217 74.5t191.5 -74.5t43.5 -194.5t-113.5 -194t-216.5 -74q-126 0 -191.5 74t-43.5 194zM336 0l758 1032h174l-758 -1032h-174zM362 778q-12 -61 17 -100t86 -39t99 38.5t54 100.5q11 62 -18 101t-84 39q-58 0 -100.5 -39t-53.5 -101zM829 254 q22 120 113 193t217 73q127 0 192.5 -73t43.5 -193t-113 -194t-217 -74t-192 74t-44 194zM985 254q-10 -61 18 -100t84 -39q57 0 100.5 39t53.5 100q11 62 -18 100.5t-86 38.5q-56 0 -99 -39t-53 -100zM1452 254q22 120 112.5 193t215.5 73q127 0 193 -73.5t44 -192.5 q-22 -120 -112.5 -194t-216.5 -74t-192 74t-44 194zM1606 254q-10 -61 18 -100t84 -39q58 0 100.5 38.5t53.5 100.5t-18.5 100.5t-86.5 38.5t-98.5 -38.5t-52.5 -100.5z" />
<glyph horiz-adv-x="700" d="M16 -283l129 111q39 -55 125 -55q57 0 100 33t52 85q11 65 -29 113l-254 295l135 115l258 -299q93 -104 70 -224q-22 -123 -121 -198.5t-237 -75.5q-150 0 -228 100zM215 772q22 122 121 198.5t237 76.5q149 0 228 -101l-129 -110q-39 55 -125 55q-58 0 -100.5 -33 t-51.5 -86q-13 -65 29 -113l254 -294l-135 -113l-258 297q-93 103 -70 223z" />
<glyph horiz-adv-x="1003" d="M217 739q23 133 127 213t252 80h199l-181 -1032h-170l78 449h-28q-148 0 -224 78.5t-53 211.5zM729 0l180 1032h168l-180 -1032h-168z" />
<glyph horiz-adv-x="591" d="M180 1030q94 78 133 160q-41 7 -62 39t-15 76q9 49 49.5 82.5t91.5 33.5q47 0 75.5 -32t16.5 -101q-9 -58 -50.5 -121.5t-83 -105.5t-102.5 -94zM305 0l180 1032h179l-181 -1032h-178zM635 1180q6 40 39.5 68t73.5 28q41 0 65 -28t16 -68q-7 -41 -41 -69t-75 -28 q-39 0 -62 28t-16 69z" />
<glyph horiz-adv-x="616" d="M111 256q28 164 113 265.5t194 101.5q107 0 156.5 -101.5t21.5 -265.5q-29 -164 -114.5 -265.5t-192.5 -101.5q-109 0 -158 101.5t-20 265.5zM223 60.5q23 -74.5 82 -74.5q58 0 107 74t71 196q22 121 -1.5 195.5t-82.5 74.5t-107.5 -74.5t-68.5 -195.5q-23 -121 0 -195.5 z" />
<glyph horiz-adv-x="382" d="M139 502l17 84l225 35l-127 -723h-107l109 622z" />
<glyph horiz-adv-x="575" d="M43 -102l16 90l359 305q42 36 51 98q10 60 -15.5 97.5t-76.5 37.5q-53 0 -91.5 -37.5t-47.5 -97.5h-113q19 103 93.5 167.5t176.5 64.5q100 0 152 -64.5t35 -167.5q-17 -99 -103 -172l-270 -229h301l-16 -92h-451z" />
<glyph horiz-adv-x="591" d="M80 111h113q-10 -55 18 -90t82 -35t93 34.5t50 90.5q11 57 -16.5 93t-81.5 36h-47l14 90h47q43 0 75.5 28t39.5 72q7 43 -15 69.5t-65 26.5t-74.5 -26.5t-38.5 -69.5h-112q15 85 82 139t159 54q94 0 143 -54t34 -139q-17 -96 -103 -145q89 -52 72 -174 q-19 -99 -95 -160.5t-180 -61.5t-157.5 61.5t-36.5 160.5z" />
<glyph horiz-adv-x="614" d="M59 29l9 47l411 538h107l-86 -495h61l-16 -90h-58l-22 -131h-107l23 131h-322zM211 119h190l60 334z" />
<glyph horiz-adv-x="575" d="M76 111h108q-10 -55 17.5 -90t81.5 -35q51 0 90 37.5t49 97.5q11 65 -20 106t-91 41t-108 -41l-74 29l104 358h330l-14 -92h-236l-51 -172q24 12 74 12q107 0 161.5 -67t34.5 -174q-19 -103 -92.5 -167.5t-173.5 -64.5q-103 0 -156 62t-34 160z" />
<glyph horiz-adv-x="585" d="M82 125q20 111 102 224t240 274l82 -52q-146 -150 -209 -241q23 10 55 10q102 0 156 -61.5t35 -163.5q-17 -101 -92 -163.5t-181 -62.5q-103 0 -155.5 63.5t-32.5 172.5zM193 117q-10 -58 17 -94.5t81 -36.5q52 0 91 36t50 95q9 59 -17.5 96t-78.5 37t-92 -37t-51 -96z " />
<glyph horiz-adv-x="585" d="M143 -102l328 624h-313l14 92h455l-4 -32l-365 -684h-115z" />
<glyph horiz-adv-x="591" d="M80 111q20 120 131 174q-67 45 -49 145q15 85 82 139t159 54q94 0 143 -54t34 -139q-17 -96 -103 -145q89 -52 72 -174q-19 -99 -95 -160.5t-180 -61.5t-157.5 61.5t-36.5 160.5zM193 111q-10 -55 18 -90t82 -35t94 35t49 90q10 57 -18 92t-82 35t-94 -35t-49 -92z M274 430q-8 -44 13.5 -72t64.5 -28q44 0 75.5 28t39.5 72q9 42 -14 69t-66 27t-74.5 -26.5t-38.5 -69.5z" />
<glyph horiz-adv-x="585" d="M131 397q17 101 91.5 163.5t178.5 62.5t157 -63.5t34 -172.5q-20 -111 -102 -224t-240 -274l-84 52q143 143 211 241q-20 -10 -55 -10q-104 0 -157 61.5t-34 163.5zM242 395q-10 -58 16.5 -95.5t79.5 -37.5t92.5 37.5t48.5 95.5q11 59 -15.5 95t-78.5 36q-53 0 -93 -36.5 t-50 -94.5z" />
<glyph horiz-adv-x="270" d="M33 -193q47 41 67 82q-20 5 -31 23t-8 43q5 27 27 45t51 18q25 0 41.5 -17t9.5 -54q-8 -47 -42.5 -88t-86.5 -86z" />
<glyph horiz-adv-x="270" d="M61 -45q5 26 26.5 44.5t49.5 18.5t44 -18.5t12 -44.5q-4 -28 -27 -47t-51 -19t-43.5 19t-10.5 47z" />
<glyph horiz-adv-x="339" d="M115 256q32 185 112.5 301.5t169.5 116.5l-12 -80q-41 0 -86.5 -95.5t-71.5 -242.5q-27 -152 -15.5 -246t52.5 -94l-14 -78q-90 0 -129 116.5t-6 301.5z" />
<glyph horiz-adv-x="339" d="M31 -162l14 80q39 0 85 95t73 243q25 152 13.5 245t-52.5 93l14 80q90 0 129.5 -116.5t7.5 -301.5q-33 -185 -113.5 -301.5t-170.5 -116.5z" />
<glyph horiz-adv-x="389" d="M106 213l15 86h248l-15 -86h-248z" />
<glyph horiz-adv-x="616" d="M254 1075q29 164 114.5 265.5t192.5 101.5q109 0 158 -101.5t20 -265.5t-113.5 -265t-193.5 -101t-158 101t-20 265zM367 1075q-22 -121 0.5 -195.5t81.5 -74.5t108.5 74.5t69.5 195.5q22 121 -0.5 196t-81.5 75t-108.5 -75t-69.5 -196z" />
<glyph horiz-adv-x="382" d="M285 1321l14 84l225 35l-127 -723h-106l108 622z" />
<glyph horiz-adv-x="575" d="M186 717l17 90l358 305q42 36 51 98q12 60 -13.5 98t-76.5 38q-52 0 -91 -38t-50 -98h-113q20 103 94.5 167.5t176.5 64.5q101 0 153 -64.5t33 -167.5q-16 -99 -100 -172l-271 -229h301l-18 -92h-451z" />
<glyph horiz-adv-x="591" d="M225 930h111q-9 -56 18.5 -90.5t81.5 -34.5t95 35t51 90q9 57 -19 93t-82 36h-47l17 90h47q43 0 73.5 28t38.5 72q8 43 -13.5 70t-64.5 27t-74.5 -27t-39.5 -70h-113q15 85 83.5 139t160.5 54t140.5 -54t33.5 -139q-14 -97 -102 -145q91 -53 71 -174q-19 -99 -93.5 -160 t-178.5 -61q-105 0 -159.5 61.5t-35.5 159.5z" />
<glyph horiz-adv-x="614" d="M205 848l8 47l412 539h106l-86 -496h60l-15 -90h-57l-25 -131h-106l24 131h-321zM354 938h191l59 334z" />
<glyph horiz-adv-x="575" d="M219 930h109q-9 -56 17.5 -90.5t80.5 -34.5q51 0 90 37.5t51 97.5q11 65 -19.5 106t-90.5 41q-63 0 -109 -40l-74 28l105 359h330l-15 -93h-235l-51 -172q26 13 71 13q107 0 162.5 -67.5t36.5 -174.5q-19 -103 -93 -167t-175 -64q-103 0 -155.5 61.5t-35.5 159.5z" />
<glyph horiz-adv-x="585" d="M227 944q20 111 102 224t240 274l82 -51q-131 -131 -211 -242q27 10 58 10q102 0 154.5 -61.5t35.5 -163.5q-19 -101 -93.5 -163t-178.5 -62t-156.5 63t-32.5 172zM338 936q-11 -59 15.5 -95t80.5 -36q52 0 91 36t50 95t-15.5 96t-80.5 37q-52 0 -91 -37t-50 -96z" />
<glyph horiz-adv-x="585" d="M287 717l329 624h-313l14 93h455l-4 -33l-367 -684h-114z" />
<glyph horiz-adv-x="591" d="M225 930q20 121 129 174q-64 45 -49 145q15 85 83.5 139t160.5 54t140.5 -54t33.5 -139q-14 -97 -102 -145q91 -53 71 -174q-19 -99 -93.5 -160t-178.5 -61q-105 0 -159.5 61.5t-35.5 159.5zM336 930q-9 -56 18.5 -90.5t81.5 -34.5t95 35t51 90q9 57 -19 92t-82 35 t-95 -35t-50 -92zM418 1249q-7 -44 15 -72t65 -28t73.5 28t38.5 72q9 43 -13 70t-65 27t-74.5 -27t-39.5 -70z" />
<glyph horiz-adv-x="585" d="M274 1217q19 101 94 163t179 62t156 -63.5t32 -172.5q-19 -110 -100 -222t-242 -275l-84 51q132 128 213 241q-22 -10 -57 -10q-103 0 -156.5 62t-34.5 164zM387 1214q-10 -58 16.5 -95.5t79.5 -37.5t93 37.5t49 95.5q11 59 -16 95.5t-81 36.5q-53 0 -92.5 -37t-48.5 -95 z" />
<glyph horiz-adv-x="270" d="M178 627q52 48 68 82q-22 4 -33 22t-8 43q5 26 27.5 45t50.5 19q26 0 42 -17t11 -55q-6 -32 -29.5 -67.5t-44 -55.5t-55.5 -51z" />
<glyph horiz-adv-x="270" d="M205 774q5 26 27.5 45t50.5 19q27 0 42.5 -18.5t10.5 -45.5q-4 -27 -26.5 -46t-49.5 -19q-29 0 -44.5 18.5t-10.5 46.5z" />
<glyph horiz-adv-x="339" d="M258 1075q33 185 114 301.5t171 116.5l-15 -80q-41 0 -86 -95t-71 -243q-26 -152 -14 -246t53 -94l-15 -78q-90 0 -129.5 116.5t-7.5 301.5z" />
<glyph horiz-adv-x="339" d="M174 657l14 80q41 0 86.5 95t71.5 243q26 152 14 245t-53 93l15 80q90 0 129.5 -116.5t7.5 -301.5t-113 -301.5t-172 -116.5z" />
<glyph horiz-adv-x="389" d="M250 1032l16 86h248l-16 -86h-248z" />
<glyph horiz-adv-x="628" d="M262 1180q22 117 109.5 189.5t208.5 72.5q151 0 204 -94l-73 -422h-115l6 35q-68 -46 -147 -46q-107 0 -160 73t-33 192zM381 1180q-12 -72 22 -117t101 -45q66 0 114 39l44 252q-37 32 -103 32q-67 0 -115.5 -45t-62.5 -116z" />
<glyph horiz-adv-x="628" d="M256 1010l135 762h115l-66 -365q62 35 140 35q109 0 164.5 -72.5t33.5 -189.5q-20 -119 -106.5 -192t-208.5 -73q-150 0 -205 95h-2zM375 1040q10 2 47 -10t63 -12q66 0 114.5 45t62.5 117q12 71 -20.5 116t-98.5 45q-69 0 -123 -51z" />
<glyph horiz-adv-x="552" d="M262 1180q22 118 106.5 190t202.5 72q114 0 177 -76l-82 -72q-32 47 -105 47q-67 0 -116.5 -45t-63.5 -116q-12 -72 22 -117t101 -45q73 0 121 45l57 -72q-89 -76 -203 -76q-118 0 -177.5 73t-39.5 192z" />
<glyph horiz-adv-x="630" d="M262 1180q22 117 106 189.5t199 72.5q64 0 117 -29l64 359h114l-149 -846h-115l6 37q-67 -48 -149 -48q-107 0 -160 73t-33 192zM381 1180q-12 -72 22 -117t101 -45q73 0 119 43l41 242q-35 38 -103 38q-67 0 -116.5 -45t-63.5 -116z" />
<glyph horiz-adv-x="589" d="M262 1182q22 116 102.5 188t192.5 72q113 0 160 -78t22 -219h-360q-2 -58 32 -92.5t97 -34.5q77 0 125 45l55 -72q-86 -76 -207 -76q-117 0 -178 73.5t-41 193.5zM393 1225h246q3 56 -21 87t-77 31q-51 0 -90 -31t-58 -87z" />
<glyph horiz-adv-x="397" d="M223 645l125 698h-67l16 91h65l29 159q15 85 74 136t145 51q38 0 60 -11l-19 -94q-16 8 -37 8q-41 0 -68.5 -25t-35.5 -65l-27 -159h127l-16 -91h-127l-123 -698h-121z" />
<glyph horiz-adv-x="602" d="M168 797q17 92 133 135q-52 34 -43 86q10 55 78 84q-71 47 -51 149q13 87 79.5 139t161.5 52q86 0 136 -47q47 47 98 47q19 0 31 -2l-19 -90q-12 4 -22 4q-26 0 -50 -27q6 -31 0 -72q-13 -85 -79 -135.5t-162 -50.5q-38 0 -62.5 -14t-27.5 -35q-3 -22 21 -34.5t69 -12.5 q112 0 172.5 -45t48.5 -119q-13 -76 -98 -125t-201 -49q-109 0 -167 44.5t-46 117.5zM287 797q-6 -34 23 -55t85 -21q63 0 111 24.5t55 61.5q6 35 -26 56.5t-91 21.5q-64 0 -106.5 -24.5t-50.5 -63.5zM397 1255q-6 -43 16 -70.5t64 -27.5q43 0 75 27.5t40 70.5t-14.5 71 t-65.5 28t-75 -28t-40 -71z" />
<glyph horiz-adv-x="604" d="M242 926l149 846h115l-68 -377q73 47 150 47q86 0 127 -58.5t24 -154.5l-53 -303h-115l54 303q9 50 -15 81t-71 31q-72 0 -117 -45l-66 -370h-114z" />
<glyph horiz-adv-x="274" d="M242 926l90 508h114l-90 -508h-114zM346 1585q4 29 28.5 49.5t53.5 20.5q31 0 47 -20.5t10 -49.5q-4 -29 -28.5 -49t-53.5 -20t-45.5 20t-11.5 49z" />
<glyph horiz-adv-x="274" d="M137 645l15 74q24 0 41.5 14t21.5 39l117 662h112l-116 -664q-9 -61 -48 -96t-98 -35q-35 0 -45 6zM346 1585q4 29 28.5 49.5t53.5 20.5t45.5 -20.5t11.5 -49.5q-4 -29 -28.5 -49t-53.5 -20t-46 20t-11 49z" />
<glyph horiz-adv-x="559" d="M242 926l149 846h115l-98 -553l213 215h135l-240 -238l172 -270h-135l-154 245l-43 -245h-114z" />
<glyph horiz-adv-x="307" d="M264 1053l127 719h115l-127 -717q-4 -26 9.5 -40t41.5 -14l-14 -75q-15 -6 -49 -6q-59 0 -86.5 36t-16.5 97z" />
<glyph horiz-adv-x="876" d="M242 926l90 508h114l-8 -39q73 47 150 47q86 0 119 -70q73 70 182 70q73 0 108.5 -51t20.5 -134l-60 -331h-112l59 331q6 37 -11.5 60.5t-51.5 23.5q-74 0 -121 -38q0 -14 -4 -46l-60 -331h-114l59 331q6 37 -11 60.5t-52 23.5q-72 0 -117 -45l-66 -370h-114z" />
<glyph horiz-adv-x="604" d="M242 926l90 508h114l-8 -39q73 47 150 47q86 0 127 -58.5t24 -154.5l-53 -303h-115l54 303q9 50 -15 81t-71 31q-72 0 -117 -45l-66 -370h-114z" />
<glyph horiz-adv-x="630" d="M193 645l139 789h114l-8 -39q73 47 150 47q107 0 160.5 -72.5t31.5 -189.5q-20 -119 -104 -192t-199 -73q-67 0 -117 29l-53 -299h-114zM379 1057q29 -39 104 -39q68 0 117.5 45t61.5 117q14 71 -21 116t-102 45q-72 0 -117 -45z" />
<glyph horiz-adv-x="628" d="M262 1180q22 117 109.5 189.5t208.5 72.5q150 0 206 -94l-2 -2l-122 -701h-115l53 303q-59 -33 -135 -33q-110 0 -166.5 73.5t-36.5 191.5zM381 1180q-12 -72 21 -117t98 -45q74 0 121 47l43 252q-10 0 -45 12t-60 12q-67 0 -115.5 -45t-62.5 -116z" />
<glyph horiz-adv-x="411" d="M242 926l90 508h114l-10 -56q68 62 137 62q21 0 31 -2l-16 -99q-24 4 -39 4q-73 0 -129 -63l-64 -354h-114z" />
<glyph d="M221 989l84 70q14 -21 38.5 -34t51.5 -13q34 0 55 19.5t25 41.5q4 20 -10 35t-37 23.5t-49 21.5t-48 27.5t-33.5 43t-4.5 66.5q10 64 60 108t128 44q99 0 154 -64l-84 -71q-27 39 -78 39q-28 0 -45 -16t-20 -38q-4 -24 15.5 -41t50 -29t60.5 -27.5t47.5 -46t10.5 -73.5 q-13 -67 -68 -113.5t-139 -46.5q-103 0 -164 74z" />
<glyph horiz-adv-x="393" d="M281 1343l16 91h61l21 112h117l-21 -112h121l-16 -91h-119l-45 -247q-6 -36 11.5 -60t53.5 -24q16 0 43 10l-18 -94q-26 -13 -64 -13q-81 0 -120 49.5t-25 131.5l45 247h-61z" />
<glyph horiz-adv-x="612" d="M279 1139l53 295h119l-54 -295q-9 -54 16.5 -87.5t73.5 -33.5q49 0 85.5 33.5t45.5 87.5l54 295h112l-53 -295q-17 -100 -90.5 -162t-173.5 -62q-101 0 -153 62t-35 162z" />
<glyph horiz-adv-x="612" d="M279 1434h127l88 -365l219 365h125l-316 -508h-106z" />
<glyph horiz-adv-x="907" d="M279 1434h133l53 -369l182 369h117l51 -369l184 369h134l-285 -508h-119l-53 346l-176 -346h-117z" />
<glyph horiz-adv-x="608" d="M195 926l241 260l-143 248h133l98 -177l160 177h133l-231 -248l151 -260h-133l-106 186l-172 -186h-131z" />
<glyph horiz-adv-x="612" d="M215 645l201 281l-137 508h127l88 -371l219 371h125l-496 -789h-127z" />
<glyph horiz-adv-x="550" d="M221 926l8 35l330 382h-256l14 91h426l-8 -37l-327 -381h260l-15 -90h-432z" />
<glyph horiz-adv-x="645" d="M262 1180q22 117 108.5 189.5t204.5 72.5q119 0 180.5 -72.5t39.5 -189.5q-20 -118 -107 -191.5t-207 -73.5q-117 0 -178 73.5t-41 191.5zM381 1180q-12 -72 21 -117t98 -45q66 0 115 45t63 117q12 71 -21.5 116t-99.5 45q-65 0 -113.5 -45t-62.5 -116z" />
<glyph d="M229 967l15 86h125l24 125h84l-24 -125h127l-15 -86h-125l-22 -125h-84l20 125h-125z" />
<glyph d="M188 741l17 84h336l-15 -84h-338zM231 983l17 84h125l22 127h84l-22 -127h127l-15 -84h-127l-22 -125h-84l22 125h-127z" />
<glyph d="M84 147l16 86h125l23 125h84l-23 -125h127l-14 -86h-127l-23 -124h-84l23 124h-127z" />
<glyph d="M45 -78l14 84h336l-14 -84h-336zM88 164l14 84h127l21 127h84l-21 -127h127l-16 -84h-127l-23 -125h-84l23 125h-125z" />
<glyph horiz-adv-x="2039" d="M299 1272l29 162h1034l18 102h187l-121 -686q124 88 276 88q157 0 232.5 -106t44.5 -279l-96 -553h-189l96 553q19 97 -27 157t-138 60q-133 0 -228 -82l-121 -688h-186l223 1272h-442l-223 -1272h-195l223 1272h-397z" />
<glyph horiz-adv-x="1048" d="M174 383l115 649h180l-113 -649q-19 -105 34 -170.5t155 -65.5q106 0 183.5 65t96.5 171l113 649h182l-114 -649q-31 -177 -166.5 -287t-321.5 -110t-280.5 110t-63.5 287z" />
<glyph horiz-adv-x="1204" d="M168 516q41 235 212.5 381.5t405.5 146.5q233 0 352.5 -146.5t78.5 -381.5t-212.5 -381.5t-406.5 -146.5q-233 0 -352 146.5t-78 381.5zM279 516q-34 -197 58.5 -320.5t276.5 -123.5t321 123.5t171 320.5q35 197 -58.5 321t-277.5 124q-183 0 -319.5 -124t-171.5 -321z M440 516q22 118 108.5 191t205.5 73q115 0 176 -73l-66 -54q-42 52 -121 52q-81 0 -140 -52.5t-73 -136.5q-15 -84 26 -136t122 -52q76 0 137 51l47 -53q-87 -74 -203 -74q-119 0 -179 73t-40 191z" />
<glyph horiz-adv-x="1204" d="M168 516q41 235 212.5 381.5t405.5 146.5q233 0 352.5 -146.5t78.5 -381.5t-212.5 -381.5t-406.5 -146.5q-233 0 -352 146.5t-78 381.5zM279 516q-34 -197 58.5 -320.5t276.5 -123.5t321 123.5t171 320.5q35 197 -58.5 321t-277.5 124q-183 0 -319.5 -124t-171.5 -321z M489 256l91 516h157q74 0 111.5 -40.5t25.5 -110.5q-9 -52 -40.5 -89.5t-79.5 -52.5l84 -223h-101l-71 213h-52l-36 -213h-89zM627 543h71q33 0 57.5 22t30.5 56q6 35 -10.5 56t-50.5 21h-70z" />
</font>
</defs>
</svg>
